%TF.GenerationSoftware,KiCad,Pcbnew,7.0.1*%
%TF.CreationDate,2023-09-01T22:28:08+01:00*%
%TF.ProjectId,Ruler_KiCad,52756c65-725f-44b6-9943-61642e6b6963,rev?*%
%TF.SameCoordinates,Original*%
%TF.FileFunction,Soldermask,Bot*%
%TF.FilePolarity,Negative*%
%FSLAX46Y46*%
G04 Gerber Fmt 4.6, Leading zero omitted, Abs format (unit mm)*
G04 Created by KiCad (PCBNEW 7.0.1) date 2023-09-01 22:28:08*
%MOMM*%
%LPD*%
G01*
G04 APERTURE LIST*
G04 Aperture macros list*
%AMRoundRect*
0 Rectangle with rounded corners*
0 $1 Rounding radius*
0 $2 $3 $4 $5 $6 $7 $8 $9 X,Y pos of 4 corners*
0 Add a 4 corners polygon primitive as box body*
4,1,4,$2,$3,$4,$5,$6,$7,$8,$9,$2,$3,0*
0 Add four circle primitives for the rounded corners*
1,1,$1+$1,$2,$3*
1,1,$1+$1,$4,$5*
1,1,$1+$1,$6,$7*
1,1,$1+$1,$8,$9*
0 Add four rect primitives between the rounded corners*
20,1,$1+$1,$2,$3,$4,$5,0*
20,1,$1+$1,$4,$5,$6,$7,0*
20,1,$1+$1,$6,$7,$8,$9,0*
20,1,$1+$1,$8,$9,$2,$3,0*%
G04 Aperture macros list end*
%ADD10R,0.850000X0.850000*%
%ADD11O,0.850000X0.850000*%
%ADD12R,1.000000X1.000000*%
%ADD13O,1.000000X1.000000*%
%ADD14C,7.500000*%
%ADD15C,11.000000*%
%ADD16C,4.700000*%
%ADD17C,3.800000*%
%ADD18R,1.350000X1.350000*%
%ADD19O,1.350000X1.350000*%
%ADD20C,5.600000*%
%ADD21R,1.700000X1.700000*%
%ADD22O,1.700000X1.700000*%
%ADD23C,9.200000*%
%ADD24RoundRect,0.150000X0.150000X-0.825000X0.150000X0.825000X-0.150000X0.825000X-0.150000X-0.825000X0*%
%ADD25RoundRect,0.062500X0.062500X-0.350000X0.062500X0.350000X-0.062500X0.350000X-0.062500X-0.350000X0*%
%ADD26RoundRect,0.062500X0.350000X-0.062500X0.350000X0.062500X-0.350000X0.062500X-0.350000X-0.062500X0*%
%ADD27R,4.600000X4.600000*%
%ADD28RoundRect,0.150000X0.150000X-0.587500X0.150000X0.587500X-0.150000X0.587500X-0.150000X-0.587500X0*%
G04 APERTURE END LIST*
D10*
%TO.C,REF\u002A\u002A*%
X174500000Y-95150000D03*
D11*
X175500000Y-95150000D03*
X176500000Y-95150000D03*
X177500000Y-95150000D03*
%TD*%
D12*
%TO.C,REF\u002A\u002A*%
X173460000Y-99150000D03*
D13*
X174730000Y-99150000D03*
X176000000Y-99150000D03*
X177270000Y-99150000D03*
%TD*%
D14*
%TO.C,REF\u002A\u002A*%
X201000000Y-100000000D03*
%TD*%
D15*
%TO.C,REF\u002A\u002A*%
X221500000Y-99900000D03*
%TD*%
D16*
%TO.C,REF\u002A\u002A*%
X187500000Y-100000000D03*
%TD*%
D17*
%TO.C,REF\u002A\u002A*%
X182500000Y-100000000D03*
%TD*%
D18*
%TO.C,REF\u002A\u002A*%
X171000000Y-103150000D03*
D19*
X173000000Y-103150000D03*
X175000000Y-103150000D03*
X177000000Y-103150000D03*
%TD*%
D20*
%TO.C,REF\u002A\u002A*%
X193500000Y-100000000D03*
%TD*%
D21*
%TO.C,REF\u002A\u002A*%
X169450000Y-107150000D03*
D22*
X171990000Y-107150000D03*
X174530000Y-107150000D03*
X177070000Y-107150000D03*
%TD*%
D23*
%TO.C,REF\u002A\u002A*%
X210500000Y-100000000D03*
%TD*%
D24*
%TO.C,REF\u002A\u002A*%
X108405000Y-110475000D03*
X107135000Y-110475000D03*
X105865000Y-110475000D03*
X104595000Y-110475000D03*
X104595000Y-105525000D03*
X105865000Y-105525000D03*
X107135000Y-105525000D03*
X108405000Y-105525000D03*
%TD*%
D25*
%TO.C,REF\u002A\u002A*%
X118025000Y-110712500D03*
X117525000Y-110712500D03*
X117025000Y-110712500D03*
X116525000Y-110712500D03*
X116025000Y-110712500D03*
X115525000Y-110712500D03*
X115025000Y-110712500D03*
X114525000Y-110712500D03*
X114025000Y-110712500D03*
X113525000Y-110712500D03*
D26*
X112837500Y-110025000D03*
X112837500Y-109525000D03*
X112837500Y-109025000D03*
X112837500Y-108525000D03*
X112837500Y-108025000D03*
X112837500Y-107525000D03*
X112837500Y-107025000D03*
X112837500Y-106525000D03*
X112837500Y-106025000D03*
X112837500Y-105525000D03*
D25*
X113525000Y-104837500D03*
X114025000Y-104837500D03*
X114525000Y-104837500D03*
X115025000Y-104837500D03*
X115525000Y-104837500D03*
X116025000Y-104837500D03*
X116525000Y-104837500D03*
X117025000Y-104837500D03*
X117525000Y-104837500D03*
X118025000Y-104837500D03*
D26*
X118712500Y-105525000D03*
X118712500Y-106025000D03*
X118712500Y-106525000D03*
X118712500Y-107025000D03*
X118712500Y-107525000D03*
X118712500Y-108025000D03*
X118712500Y-108525000D03*
X118712500Y-109025000D03*
X118712500Y-109525000D03*
X118712500Y-110025000D03*
D27*
X115775000Y-107775000D03*
%TD*%
D28*
%TO.C,REF\u002A\u002A*%
X99950000Y-108937500D03*
X98050000Y-108937500D03*
X99000000Y-107062500D03*
%TD*%
M02*
