%TF.GenerationSoftware,KiCad,Pcbnew,7.0.1*%
%TF.CreationDate,2023-09-01T22:28:13+01:00*%
%TF.ProjectId,Ruler_KiCad,52756c65-725f-44b6-9943-61642e6b6963,rev?*%
%TF.SameCoordinates,Original*%
%TF.FileFunction,Drillmap*%
%TF.FilePolarity,Positive*%
%FSLAX45Y45*%
G04 Gerber Fmt 4.5, Leading zero omitted, Abs format (unit mm)*
G04 Created by KiCad (PCBNEW 7.0.1) date 2023-09-01 22:28:13*
%MOMM*%
%LPD*%
G01*
G04 APERTURE LIST*
%ADD10C,0.100000*%
%ADD11C,0.200000*%
%ADD12C,0.050000*%
%ADD13C,0.065000*%
%ADD14C,0.080000*%
%ADD15C,0.220000*%
%ADD16C,0.270000*%
%ADD17C,0.320000*%
%ADD18C,0.430000*%
%ADD19C,0.530000*%
%ADD20C,0.640000*%
G04 APERTURE END LIST*
D10*
X12714550Y-10650000D02*
G75*
G03*
X12714550Y-10650000I-64550J0D01*
G01*
X14186150Y-10650000D02*
G75*
G03*
X14186150Y-10650000I-36150J0D01*
G01*
X13641400Y-9350000D02*
G75*
G03*
X13641400Y-9350000I-91400J0D01*
G01*
X14222500Y-9350000D02*
G75*
G03*
X14222500Y-9350000I-72500J0D01*
G01*
X12779400Y-9350000D02*
G75*
G03*
X12779400Y-9350000I-129400J0D01*
G01*
X7500000Y-8500000D02*
X23000000Y-8500000D01*
X23000000Y-11500000D01*
X7500000Y-11500000D01*
X7500000Y-8500000D01*
X13065250Y-9350000D02*
G75*
G03*
X13065250Y-9350000I-115250J0D01*
G01*
X13890600Y-10650000D02*
G75*
G03*
X13890600Y-10650000I-40600J0D01*
G01*
X13595600Y-10650000D02*
G75*
G03*
X13595600Y-10650000I-45600J0D01*
G01*
X13007500Y-10650000D02*
G75*
G03*
X13007500Y-10650000I-57500J0D01*
G01*
X13352650Y-9350000D02*
G75*
G03*
X13352650Y-9350000I-102650J0D01*
G01*
X13931400Y-9350000D02*
G75*
G03*
X13931400Y-9350000I-81400J0D01*
G01*
X13301200Y-10650000D02*
G75*
G03*
X13301200Y-10650000I-51200J0D01*
G01*
D11*
D12*
X17425000Y-9490000D02*
X17475000Y-9540000D01*
X17475000Y-9490000D02*
X17425000Y-9540000D01*
X17525000Y-9490000D02*
X17575000Y-9540000D01*
X17575000Y-9490000D02*
X17525000Y-9540000D01*
X17625000Y-9490000D02*
X17675000Y-9540000D01*
X17675000Y-9490000D02*
X17625000Y-9540000D01*
X17725000Y-9490000D02*
X17775000Y-9540000D01*
X17775000Y-9490000D02*
X17725000Y-9540000D01*
D13*
X17378500Y-9915000D02*
G75*
G03*
X17378500Y-9915000I-32500J0D01*
G01*
X17505500Y-9915000D02*
G75*
G03*
X17505500Y-9915000I-32500J0D01*
G01*
X17632500Y-9915000D02*
G75*
G03*
X17632500Y-9915000I-32500J0D01*
G01*
X17759500Y-9915000D02*
G75*
G03*
X17759500Y-9915000I-32500J0D01*
G01*
D14*
X17100000Y-10275000D02*
X17100000Y-10355000D01*
X17060000Y-10315000D02*
X17140000Y-10315000D01*
X17300000Y-10275000D02*
X17300000Y-10355000D01*
X17260000Y-10315000D02*
X17340000Y-10315000D01*
X17500000Y-10275000D02*
X17500000Y-10355000D01*
X17460000Y-10315000D02*
X17540000Y-10315000D01*
X17700000Y-10275000D02*
X17700000Y-10355000D01*
X17660000Y-10315000D02*
X17740000Y-10315000D01*
D10*
X16980356Y-10750356D02*
X16980356Y-10679644D01*
X16909644Y-10679644D01*
X16909644Y-10750356D01*
X16980356Y-10750356D01*
X17234356Y-10750356D02*
X17234356Y-10679644D01*
X17163644Y-10679644D01*
X17163644Y-10750356D01*
X17234356Y-10750356D01*
X17488356Y-10750356D02*
X17488356Y-10679644D01*
X17417644Y-10679644D01*
X17417644Y-10750356D01*
X17488356Y-10750356D01*
X17742356Y-10750356D02*
X17742356Y-10679644D01*
X17671644Y-10679644D01*
X17671644Y-10750356D01*
X17742356Y-10750356D01*
D15*
X18250000Y-10110000D02*
X18360000Y-10000000D01*
X18250000Y-9890000D01*
X18140000Y-10000000D01*
X18250000Y-10110000D01*
D16*
X18615000Y-9865000D02*
X18885000Y-10135000D01*
X18885000Y-9865000D02*
X18615000Y-10135000D01*
X18885000Y-10000000D02*
G75*
G03*
X18885000Y-10000000I-135000J0D01*
G01*
D17*
X19190000Y-9840000D02*
X19510000Y-10160000D01*
X19510000Y-9840000D02*
X19190000Y-10160000D01*
X19350000Y-9840000D02*
X19350000Y-10160000D01*
X19190000Y-10000000D02*
X19510000Y-10000000D01*
D18*
X19885000Y-9785000D02*
X20315000Y-10215000D01*
X20315000Y-9785000D02*
X19885000Y-10215000D01*
X20252029Y-10152029D02*
X20252029Y-9847971D01*
X19947971Y-9847971D01*
X19947971Y-10152029D01*
X20252029Y-10152029D01*
D19*
X20785000Y-9735000D02*
X21315000Y-10265000D01*
X21315000Y-9735000D02*
X20785000Y-10265000D01*
X21050000Y-10265000D02*
X21315000Y-10000000D01*
X21050000Y-9735000D01*
X20785000Y-10000000D01*
X21050000Y-10265000D01*
D20*
X22150000Y-9670000D02*
X22150000Y-10310000D01*
X21830000Y-9990000D02*
X22470000Y-9990000D01*
X22470000Y-9990000D02*
G75*
G03*
X22470000Y-9990000I-320000J0D01*
G01*
D11*
X7742619Y-11817524D02*
X7742619Y-11617524D01*
X7742619Y-11617524D02*
X7790238Y-11617524D01*
X7790238Y-11617524D02*
X7818809Y-11627048D01*
X7818809Y-11627048D02*
X7837857Y-11646095D01*
X7837857Y-11646095D02*
X7847381Y-11665143D01*
X7847381Y-11665143D02*
X7856905Y-11703238D01*
X7856905Y-11703238D02*
X7856905Y-11731809D01*
X7856905Y-11731809D02*
X7847381Y-11769905D01*
X7847381Y-11769905D02*
X7837857Y-11788952D01*
X7837857Y-11788952D02*
X7818809Y-11808000D01*
X7818809Y-11808000D02*
X7790238Y-11817524D01*
X7790238Y-11817524D02*
X7742619Y-11817524D01*
X7942619Y-11817524D02*
X7942619Y-11684190D01*
X7942619Y-11722286D02*
X7952143Y-11703238D01*
X7952143Y-11703238D02*
X7961667Y-11693714D01*
X7961667Y-11693714D02*
X7980714Y-11684190D01*
X7980714Y-11684190D02*
X7999762Y-11684190D01*
X8066428Y-11817524D02*
X8066428Y-11684190D01*
X8066428Y-11617524D02*
X8056905Y-11627048D01*
X8056905Y-11627048D02*
X8066428Y-11636571D01*
X8066428Y-11636571D02*
X8075952Y-11627048D01*
X8075952Y-11627048D02*
X8066428Y-11617524D01*
X8066428Y-11617524D02*
X8066428Y-11636571D01*
X8190238Y-11817524D02*
X8171190Y-11808000D01*
X8171190Y-11808000D02*
X8161667Y-11788952D01*
X8161667Y-11788952D02*
X8161667Y-11617524D01*
X8295000Y-11817524D02*
X8275952Y-11808000D01*
X8275952Y-11808000D02*
X8266428Y-11788952D01*
X8266428Y-11788952D02*
X8266428Y-11617524D01*
X8523571Y-11817524D02*
X8523571Y-11617524D01*
X8523571Y-11617524D02*
X8590238Y-11760381D01*
X8590238Y-11760381D02*
X8656905Y-11617524D01*
X8656905Y-11617524D02*
X8656905Y-11817524D01*
X8837857Y-11817524D02*
X8837857Y-11712762D01*
X8837857Y-11712762D02*
X8828333Y-11693714D01*
X8828333Y-11693714D02*
X8809286Y-11684190D01*
X8809286Y-11684190D02*
X8771190Y-11684190D01*
X8771190Y-11684190D02*
X8752143Y-11693714D01*
X8837857Y-11808000D02*
X8818810Y-11817524D01*
X8818810Y-11817524D02*
X8771190Y-11817524D01*
X8771190Y-11817524D02*
X8752143Y-11808000D01*
X8752143Y-11808000D02*
X8742619Y-11788952D01*
X8742619Y-11788952D02*
X8742619Y-11769905D01*
X8742619Y-11769905D02*
X8752143Y-11750857D01*
X8752143Y-11750857D02*
X8771190Y-11741333D01*
X8771190Y-11741333D02*
X8818810Y-11741333D01*
X8818810Y-11741333D02*
X8837857Y-11731809D01*
X8933095Y-11684190D02*
X8933095Y-11884190D01*
X8933095Y-11693714D02*
X8952143Y-11684190D01*
X8952143Y-11684190D02*
X8990238Y-11684190D01*
X8990238Y-11684190D02*
X9009286Y-11693714D01*
X9009286Y-11693714D02*
X9018810Y-11703238D01*
X9018810Y-11703238D02*
X9028333Y-11722286D01*
X9028333Y-11722286D02*
X9028333Y-11779428D01*
X9028333Y-11779428D02*
X9018810Y-11798476D01*
X9018810Y-11798476D02*
X9009286Y-11808000D01*
X9009286Y-11808000D02*
X8990238Y-11817524D01*
X8990238Y-11817524D02*
X8952143Y-11817524D01*
X8952143Y-11817524D02*
X8933095Y-11808000D01*
X9114048Y-11798476D02*
X9123571Y-11808000D01*
X9123571Y-11808000D02*
X9114048Y-11817524D01*
X9114048Y-11817524D02*
X9104524Y-11808000D01*
X9104524Y-11808000D02*
X9114048Y-11798476D01*
X9114048Y-11798476D02*
X9114048Y-11817524D01*
X9114048Y-11693714D02*
X9123571Y-11703238D01*
X9123571Y-11703238D02*
X9114048Y-11712762D01*
X9114048Y-11712762D02*
X9104524Y-11703238D01*
X9104524Y-11703238D02*
X9114048Y-11693714D01*
X9114048Y-11693714D02*
X9114048Y-11712762D01*
D12*
X7445000Y-12120000D02*
X7495000Y-12170000D01*
X7495000Y-12120000D02*
X7445000Y-12170000D01*
D11*
X7780714Y-12037524D02*
X7799762Y-12037524D01*
X7799762Y-12037524D02*
X7818809Y-12047048D01*
X7818809Y-12047048D02*
X7828333Y-12056571D01*
X7828333Y-12056571D02*
X7837857Y-12075619D01*
X7837857Y-12075619D02*
X7847381Y-12113714D01*
X7847381Y-12113714D02*
X7847381Y-12161333D01*
X7847381Y-12161333D02*
X7837857Y-12199428D01*
X7837857Y-12199428D02*
X7828333Y-12218476D01*
X7828333Y-12218476D02*
X7818809Y-12228000D01*
X7818809Y-12228000D02*
X7799762Y-12237524D01*
X7799762Y-12237524D02*
X7780714Y-12237524D01*
X7780714Y-12237524D02*
X7761667Y-12228000D01*
X7761667Y-12228000D02*
X7752143Y-12218476D01*
X7752143Y-12218476D02*
X7742619Y-12199428D01*
X7742619Y-12199428D02*
X7733095Y-12161333D01*
X7733095Y-12161333D02*
X7733095Y-12113714D01*
X7733095Y-12113714D02*
X7742619Y-12075619D01*
X7742619Y-12075619D02*
X7752143Y-12056571D01*
X7752143Y-12056571D02*
X7761667Y-12047048D01*
X7761667Y-12047048D02*
X7780714Y-12037524D01*
X7933095Y-12218476D02*
X7942619Y-12228000D01*
X7942619Y-12228000D02*
X7933095Y-12237524D01*
X7933095Y-12237524D02*
X7923571Y-12228000D01*
X7923571Y-12228000D02*
X7933095Y-12218476D01*
X7933095Y-12218476D02*
X7933095Y-12237524D01*
X8123571Y-12037524D02*
X8028333Y-12037524D01*
X8028333Y-12037524D02*
X8018809Y-12132762D01*
X8018809Y-12132762D02*
X8028333Y-12123238D01*
X8028333Y-12123238D02*
X8047381Y-12113714D01*
X8047381Y-12113714D02*
X8095000Y-12113714D01*
X8095000Y-12113714D02*
X8114048Y-12123238D01*
X8114048Y-12123238D02*
X8123571Y-12132762D01*
X8123571Y-12132762D02*
X8133095Y-12151809D01*
X8133095Y-12151809D02*
X8133095Y-12199428D01*
X8133095Y-12199428D02*
X8123571Y-12218476D01*
X8123571Y-12218476D02*
X8114048Y-12228000D01*
X8114048Y-12228000D02*
X8095000Y-12237524D01*
X8095000Y-12237524D02*
X8047381Y-12237524D01*
X8047381Y-12237524D02*
X8028333Y-12228000D01*
X8028333Y-12228000D02*
X8018809Y-12218476D01*
X8256905Y-12037524D02*
X8275952Y-12037524D01*
X8275952Y-12037524D02*
X8295000Y-12047048D01*
X8295000Y-12047048D02*
X8304524Y-12056571D01*
X8304524Y-12056571D02*
X8314048Y-12075619D01*
X8314048Y-12075619D02*
X8323571Y-12113714D01*
X8323571Y-12113714D02*
X8323571Y-12161333D01*
X8323571Y-12161333D02*
X8314048Y-12199428D01*
X8314048Y-12199428D02*
X8304524Y-12218476D01*
X8304524Y-12218476D02*
X8295000Y-12228000D01*
X8295000Y-12228000D02*
X8275952Y-12237524D01*
X8275952Y-12237524D02*
X8256905Y-12237524D01*
X8256905Y-12237524D02*
X8237857Y-12228000D01*
X8237857Y-12228000D02*
X8228333Y-12218476D01*
X8228333Y-12218476D02*
X8218809Y-12199428D01*
X8218809Y-12199428D02*
X8209286Y-12161333D01*
X8209286Y-12161333D02*
X8209286Y-12113714D01*
X8209286Y-12113714D02*
X8218809Y-12075619D01*
X8218809Y-12075619D02*
X8228333Y-12056571D01*
X8228333Y-12056571D02*
X8237857Y-12047048D01*
X8237857Y-12047048D02*
X8256905Y-12037524D01*
X8447381Y-12037524D02*
X8466429Y-12037524D01*
X8466429Y-12037524D02*
X8485476Y-12047048D01*
X8485476Y-12047048D02*
X8495000Y-12056571D01*
X8495000Y-12056571D02*
X8504524Y-12075619D01*
X8504524Y-12075619D02*
X8514048Y-12113714D01*
X8514048Y-12113714D02*
X8514048Y-12161333D01*
X8514048Y-12161333D02*
X8504524Y-12199428D01*
X8504524Y-12199428D02*
X8495000Y-12218476D01*
X8495000Y-12218476D02*
X8485476Y-12228000D01*
X8485476Y-12228000D02*
X8466429Y-12237524D01*
X8466429Y-12237524D02*
X8447381Y-12237524D01*
X8447381Y-12237524D02*
X8428333Y-12228000D01*
X8428333Y-12228000D02*
X8418810Y-12218476D01*
X8418810Y-12218476D02*
X8409286Y-12199428D01*
X8409286Y-12199428D02*
X8399762Y-12161333D01*
X8399762Y-12161333D02*
X8399762Y-12113714D01*
X8399762Y-12113714D02*
X8409286Y-12075619D01*
X8409286Y-12075619D02*
X8418810Y-12056571D01*
X8418810Y-12056571D02*
X8428333Y-12047048D01*
X8428333Y-12047048D02*
X8447381Y-12037524D01*
X8599762Y-12237524D02*
X8599762Y-12104190D01*
X8599762Y-12123238D02*
X8609286Y-12113714D01*
X8609286Y-12113714D02*
X8628333Y-12104190D01*
X8628333Y-12104190D02*
X8656905Y-12104190D01*
X8656905Y-12104190D02*
X8675952Y-12113714D01*
X8675952Y-12113714D02*
X8685476Y-12132762D01*
X8685476Y-12132762D02*
X8685476Y-12237524D01*
X8685476Y-12132762D02*
X8695000Y-12113714D01*
X8695000Y-12113714D02*
X8714048Y-12104190D01*
X8714048Y-12104190D02*
X8742619Y-12104190D01*
X8742619Y-12104190D02*
X8761667Y-12113714D01*
X8761667Y-12113714D02*
X8771191Y-12132762D01*
X8771191Y-12132762D02*
X8771191Y-12237524D01*
X8866429Y-12237524D02*
X8866429Y-12104190D01*
X8866429Y-12123238D02*
X8875952Y-12113714D01*
X8875952Y-12113714D02*
X8895000Y-12104190D01*
X8895000Y-12104190D02*
X8923572Y-12104190D01*
X8923572Y-12104190D02*
X8942619Y-12113714D01*
X8942619Y-12113714D02*
X8952143Y-12132762D01*
X8952143Y-12132762D02*
X8952143Y-12237524D01*
X8952143Y-12132762D02*
X8961667Y-12113714D01*
X8961667Y-12113714D02*
X8980714Y-12104190D01*
X8980714Y-12104190D02*
X9009286Y-12104190D01*
X9009286Y-12104190D02*
X9028333Y-12113714D01*
X9028333Y-12113714D02*
X9037857Y-12132762D01*
X9037857Y-12132762D02*
X9037857Y-12237524D01*
X9428333Y-12028000D02*
X9256905Y-12285143D01*
X9685476Y-12037524D02*
X9704524Y-12037524D01*
X9704524Y-12037524D02*
X9723572Y-12047048D01*
X9723572Y-12047048D02*
X9733095Y-12056571D01*
X9733095Y-12056571D02*
X9742619Y-12075619D01*
X9742619Y-12075619D02*
X9752143Y-12113714D01*
X9752143Y-12113714D02*
X9752143Y-12161333D01*
X9752143Y-12161333D02*
X9742619Y-12199428D01*
X9742619Y-12199428D02*
X9733095Y-12218476D01*
X9733095Y-12218476D02*
X9723572Y-12228000D01*
X9723572Y-12228000D02*
X9704524Y-12237524D01*
X9704524Y-12237524D02*
X9685476Y-12237524D01*
X9685476Y-12237524D02*
X9666429Y-12228000D01*
X9666429Y-12228000D02*
X9656905Y-12218476D01*
X9656905Y-12218476D02*
X9647381Y-12199428D01*
X9647381Y-12199428D02*
X9637857Y-12161333D01*
X9637857Y-12161333D02*
X9637857Y-12113714D01*
X9637857Y-12113714D02*
X9647381Y-12075619D01*
X9647381Y-12075619D02*
X9656905Y-12056571D01*
X9656905Y-12056571D02*
X9666429Y-12047048D01*
X9666429Y-12047048D02*
X9685476Y-12037524D01*
X9837857Y-12218476D02*
X9847381Y-12228000D01*
X9847381Y-12228000D02*
X9837857Y-12237524D01*
X9837857Y-12237524D02*
X9828334Y-12228000D01*
X9828334Y-12228000D02*
X9837857Y-12218476D01*
X9837857Y-12218476D02*
X9837857Y-12237524D01*
X9971191Y-12037524D02*
X9990238Y-12037524D01*
X9990238Y-12037524D02*
X10009286Y-12047048D01*
X10009286Y-12047048D02*
X10018810Y-12056571D01*
X10018810Y-12056571D02*
X10028334Y-12075619D01*
X10028334Y-12075619D02*
X10037857Y-12113714D01*
X10037857Y-12113714D02*
X10037857Y-12161333D01*
X10037857Y-12161333D02*
X10028334Y-12199428D01*
X10028334Y-12199428D02*
X10018810Y-12218476D01*
X10018810Y-12218476D02*
X10009286Y-12228000D01*
X10009286Y-12228000D02*
X9990238Y-12237524D01*
X9990238Y-12237524D02*
X9971191Y-12237524D01*
X9971191Y-12237524D02*
X9952143Y-12228000D01*
X9952143Y-12228000D02*
X9942619Y-12218476D01*
X9942619Y-12218476D02*
X9933095Y-12199428D01*
X9933095Y-12199428D02*
X9923572Y-12161333D01*
X9923572Y-12161333D02*
X9923572Y-12113714D01*
X9923572Y-12113714D02*
X9933095Y-12075619D01*
X9933095Y-12075619D02*
X9942619Y-12056571D01*
X9942619Y-12056571D02*
X9952143Y-12047048D01*
X9952143Y-12047048D02*
X9971191Y-12037524D01*
X10228334Y-12237524D02*
X10114048Y-12237524D01*
X10171191Y-12237524D02*
X10171191Y-12037524D01*
X10171191Y-12037524D02*
X10152143Y-12066095D01*
X10152143Y-12066095D02*
X10133095Y-12085143D01*
X10133095Y-12085143D02*
X10114048Y-12094667D01*
X10323572Y-12237524D02*
X10361667Y-12237524D01*
X10361667Y-12237524D02*
X10380715Y-12228000D01*
X10380715Y-12228000D02*
X10390238Y-12218476D01*
X10390238Y-12218476D02*
X10409286Y-12189905D01*
X10409286Y-12189905D02*
X10418810Y-12151809D01*
X10418810Y-12151809D02*
X10418810Y-12075619D01*
X10418810Y-12075619D02*
X10409286Y-12056571D01*
X10409286Y-12056571D02*
X10399762Y-12047048D01*
X10399762Y-12047048D02*
X10380715Y-12037524D01*
X10380715Y-12037524D02*
X10342619Y-12037524D01*
X10342619Y-12037524D02*
X10323572Y-12047048D01*
X10323572Y-12047048D02*
X10314048Y-12056571D01*
X10314048Y-12056571D02*
X10304524Y-12075619D01*
X10304524Y-12075619D02*
X10304524Y-12123238D01*
X10304524Y-12123238D02*
X10314048Y-12142286D01*
X10314048Y-12142286D02*
X10323572Y-12151809D01*
X10323572Y-12151809D02*
X10342619Y-12161333D01*
X10342619Y-12161333D02*
X10380715Y-12161333D01*
X10380715Y-12161333D02*
X10399762Y-12151809D01*
X10399762Y-12151809D02*
X10409286Y-12142286D01*
X10409286Y-12142286D02*
X10418810Y-12123238D01*
X10485476Y-12037524D02*
X10618810Y-12037524D01*
X10618810Y-12037524D02*
X10533095Y-12237524D01*
X10685476Y-12037524D02*
X10685476Y-12075619D01*
X10761667Y-12037524D02*
X10761667Y-12075619D01*
X11056905Y-12313714D02*
X11047381Y-12304190D01*
X11047381Y-12304190D02*
X11028334Y-12275619D01*
X11028334Y-12275619D02*
X11018810Y-12256571D01*
X11018810Y-12256571D02*
X11009286Y-12228000D01*
X11009286Y-12228000D02*
X10999762Y-12180381D01*
X10999762Y-12180381D02*
X10999762Y-12142286D01*
X10999762Y-12142286D02*
X11009286Y-12094667D01*
X11009286Y-12094667D02*
X11018810Y-12066095D01*
X11018810Y-12066095D02*
X11028334Y-12047048D01*
X11028334Y-12047048D02*
X11047381Y-12018476D01*
X11047381Y-12018476D02*
X11056905Y-12008952D01*
X11218810Y-12104190D02*
X11218810Y-12237524D01*
X11171191Y-12028000D02*
X11123572Y-12170857D01*
X11123572Y-12170857D02*
X11247381Y-12170857D01*
X11475953Y-12237524D02*
X11475953Y-12037524D01*
X11561667Y-12237524D02*
X11561667Y-12132762D01*
X11561667Y-12132762D02*
X11552143Y-12113714D01*
X11552143Y-12113714D02*
X11533096Y-12104190D01*
X11533096Y-12104190D02*
X11504524Y-12104190D01*
X11504524Y-12104190D02*
X11485476Y-12113714D01*
X11485476Y-12113714D02*
X11475953Y-12123238D01*
X11685476Y-12237524D02*
X11666429Y-12228000D01*
X11666429Y-12228000D02*
X11656905Y-12218476D01*
X11656905Y-12218476D02*
X11647381Y-12199428D01*
X11647381Y-12199428D02*
X11647381Y-12142286D01*
X11647381Y-12142286D02*
X11656905Y-12123238D01*
X11656905Y-12123238D02*
X11666429Y-12113714D01*
X11666429Y-12113714D02*
X11685476Y-12104190D01*
X11685476Y-12104190D02*
X11714048Y-12104190D01*
X11714048Y-12104190D02*
X11733096Y-12113714D01*
X11733096Y-12113714D02*
X11742619Y-12123238D01*
X11742619Y-12123238D02*
X11752143Y-12142286D01*
X11752143Y-12142286D02*
X11752143Y-12199428D01*
X11752143Y-12199428D02*
X11742619Y-12218476D01*
X11742619Y-12218476D02*
X11733096Y-12228000D01*
X11733096Y-12228000D02*
X11714048Y-12237524D01*
X11714048Y-12237524D02*
X11685476Y-12237524D01*
X11866429Y-12237524D02*
X11847381Y-12228000D01*
X11847381Y-12228000D02*
X11837857Y-12208952D01*
X11837857Y-12208952D02*
X11837857Y-12037524D01*
X12018810Y-12228000D02*
X11999762Y-12237524D01*
X11999762Y-12237524D02*
X11961667Y-12237524D01*
X11961667Y-12237524D02*
X11942619Y-12228000D01*
X11942619Y-12228000D02*
X11933096Y-12208952D01*
X11933096Y-12208952D02*
X11933096Y-12132762D01*
X11933096Y-12132762D02*
X11942619Y-12113714D01*
X11942619Y-12113714D02*
X11961667Y-12104190D01*
X11961667Y-12104190D02*
X11999762Y-12104190D01*
X11999762Y-12104190D02*
X12018810Y-12113714D01*
X12018810Y-12113714D02*
X12028334Y-12132762D01*
X12028334Y-12132762D02*
X12028334Y-12151809D01*
X12028334Y-12151809D02*
X11933096Y-12170857D01*
X12104524Y-12228000D02*
X12123572Y-12237524D01*
X12123572Y-12237524D02*
X12161667Y-12237524D01*
X12161667Y-12237524D02*
X12180715Y-12228000D01*
X12180715Y-12228000D02*
X12190238Y-12208952D01*
X12190238Y-12208952D02*
X12190238Y-12199428D01*
X12190238Y-12199428D02*
X12180715Y-12180381D01*
X12180715Y-12180381D02*
X12161667Y-12170857D01*
X12161667Y-12170857D02*
X12133096Y-12170857D01*
X12133096Y-12170857D02*
X12114048Y-12161333D01*
X12114048Y-12161333D02*
X12104524Y-12142286D01*
X12104524Y-12142286D02*
X12104524Y-12132762D01*
X12104524Y-12132762D02*
X12114048Y-12113714D01*
X12114048Y-12113714D02*
X12133096Y-12104190D01*
X12133096Y-12104190D02*
X12161667Y-12104190D01*
X12161667Y-12104190D02*
X12180715Y-12113714D01*
X12256905Y-12313714D02*
X12266429Y-12304190D01*
X12266429Y-12304190D02*
X12285477Y-12275619D01*
X12285477Y-12275619D02*
X12295000Y-12256571D01*
X12295000Y-12256571D02*
X12304524Y-12228000D01*
X12304524Y-12228000D02*
X12314048Y-12180381D01*
X12314048Y-12180381D02*
X12314048Y-12142286D01*
X12314048Y-12142286D02*
X12304524Y-12094667D01*
X12304524Y-12094667D02*
X12295000Y-12066095D01*
X12295000Y-12066095D02*
X12285477Y-12047048D01*
X12285477Y-12047048D02*
X12266429Y-12018476D01*
X12266429Y-12018476D02*
X12256905Y-12008952D01*
D13*
X7495000Y-12409000D02*
G75*
G03*
X7495000Y-12409000I-32500J0D01*
G01*
D11*
X7780714Y-12301524D02*
X7799762Y-12301524D01*
X7799762Y-12301524D02*
X7818809Y-12311048D01*
X7818809Y-12311048D02*
X7828333Y-12320571D01*
X7828333Y-12320571D02*
X7837857Y-12339619D01*
X7837857Y-12339619D02*
X7847381Y-12377714D01*
X7847381Y-12377714D02*
X7847381Y-12425333D01*
X7847381Y-12425333D02*
X7837857Y-12463428D01*
X7837857Y-12463428D02*
X7828333Y-12482476D01*
X7828333Y-12482476D02*
X7818809Y-12492000D01*
X7818809Y-12492000D02*
X7799762Y-12501524D01*
X7799762Y-12501524D02*
X7780714Y-12501524D01*
X7780714Y-12501524D02*
X7761667Y-12492000D01*
X7761667Y-12492000D02*
X7752143Y-12482476D01*
X7752143Y-12482476D02*
X7742619Y-12463428D01*
X7742619Y-12463428D02*
X7733095Y-12425333D01*
X7733095Y-12425333D02*
X7733095Y-12377714D01*
X7733095Y-12377714D02*
X7742619Y-12339619D01*
X7742619Y-12339619D02*
X7752143Y-12320571D01*
X7752143Y-12320571D02*
X7761667Y-12311048D01*
X7761667Y-12311048D02*
X7780714Y-12301524D01*
X7933095Y-12482476D02*
X7942619Y-12492000D01*
X7942619Y-12492000D02*
X7933095Y-12501524D01*
X7933095Y-12501524D02*
X7923571Y-12492000D01*
X7923571Y-12492000D02*
X7933095Y-12482476D01*
X7933095Y-12482476D02*
X7933095Y-12501524D01*
X8114048Y-12301524D02*
X8075952Y-12301524D01*
X8075952Y-12301524D02*
X8056905Y-12311048D01*
X8056905Y-12311048D02*
X8047381Y-12320571D01*
X8047381Y-12320571D02*
X8028333Y-12349143D01*
X8028333Y-12349143D02*
X8018809Y-12387238D01*
X8018809Y-12387238D02*
X8018809Y-12463428D01*
X8018809Y-12463428D02*
X8028333Y-12482476D01*
X8028333Y-12482476D02*
X8037857Y-12492000D01*
X8037857Y-12492000D02*
X8056905Y-12501524D01*
X8056905Y-12501524D02*
X8095000Y-12501524D01*
X8095000Y-12501524D02*
X8114048Y-12492000D01*
X8114048Y-12492000D02*
X8123571Y-12482476D01*
X8123571Y-12482476D02*
X8133095Y-12463428D01*
X8133095Y-12463428D02*
X8133095Y-12415809D01*
X8133095Y-12415809D02*
X8123571Y-12396762D01*
X8123571Y-12396762D02*
X8114048Y-12387238D01*
X8114048Y-12387238D02*
X8095000Y-12377714D01*
X8095000Y-12377714D02*
X8056905Y-12377714D01*
X8056905Y-12377714D02*
X8037857Y-12387238D01*
X8037857Y-12387238D02*
X8028333Y-12396762D01*
X8028333Y-12396762D02*
X8018809Y-12415809D01*
X8314048Y-12301524D02*
X8218809Y-12301524D01*
X8218809Y-12301524D02*
X8209286Y-12396762D01*
X8209286Y-12396762D02*
X8218809Y-12387238D01*
X8218809Y-12387238D02*
X8237857Y-12377714D01*
X8237857Y-12377714D02*
X8285476Y-12377714D01*
X8285476Y-12377714D02*
X8304524Y-12387238D01*
X8304524Y-12387238D02*
X8314048Y-12396762D01*
X8314048Y-12396762D02*
X8323571Y-12415809D01*
X8323571Y-12415809D02*
X8323571Y-12463428D01*
X8323571Y-12463428D02*
X8314048Y-12482476D01*
X8314048Y-12482476D02*
X8304524Y-12492000D01*
X8304524Y-12492000D02*
X8285476Y-12501524D01*
X8285476Y-12501524D02*
X8237857Y-12501524D01*
X8237857Y-12501524D02*
X8218809Y-12492000D01*
X8218809Y-12492000D02*
X8209286Y-12482476D01*
X8447381Y-12301524D02*
X8466429Y-12301524D01*
X8466429Y-12301524D02*
X8485476Y-12311048D01*
X8485476Y-12311048D02*
X8495000Y-12320571D01*
X8495000Y-12320571D02*
X8504524Y-12339619D01*
X8504524Y-12339619D02*
X8514048Y-12377714D01*
X8514048Y-12377714D02*
X8514048Y-12425333D01*
X8514048Y-12425333D02*
X8504524Y-12463428D01*
X8504524Y-12463428D02*
X8495000Y-12482476D01*
X8495000Y-12482476D02*
X8485476Y-12492000D01*
X8485476Y-12492000D02*
X8466429Y-12501524D01*
X8466429Y-12501524D02*
X8447381Y-12501524D01*
X8447381Y-12501524D02*
X8428333Y-12492000D01*
X8428333Y-12492000D02*
X8418810Y-12482476D01*
X8418810Y-12482476D02*
X8409286Y-12463428D01*
X8409286Y-12463428D02*
X8399762Y-12425333D01*
X8399762Y-12425333D02*
X8399762Y-12377714D01*
X8399762Y-12377714D02*
X8409286Y-12339619D01*
X8409286Y-12339619D02*
X8418810Y-12320571D01*
X8418810Y-12320571D02*
X8428333Y-12311048D01*
X8428333Y-12311048D02*
X8447381Y-12301524D01*
X8599762Y-12501524D02*
X8599762Y-12368190D01*
X8599762Y-12387238D02*
X8609286Y-12377714D01*
X8609286Y-12377714D02*
X8628333Y-12368190D01*
X8628333Y-12368190D02*
X8656905Y-12368190D01*
X8656905Y-12368190D02*
X8675952Y-12377714D01*
X8675952Y-12377714D02*
X8685476Y-12396762D01*
X8685476Y-12396762D02*
X8685476Y-12501524D01*
X8685476Y-12396762D02*
X8695000Y-12377714D01*
X8695000Y-12377714D02*
X8714048Y-12368190D01*
X8714048Y-12368190D02*
X8742619Y-12368190D01*
X8742619Y-12368190D02*
X8761667Y-12377714D01*
X8761667Y-12377714D02*
X8771191Y-12396762D01*
X8771191Y-12396762D02*
X8771191Y-12501524D01*
X8866429Y-12501524D02*
X8866429Y-12368190D01*
X8866429Y-12387238D02*
X8875952Y-12377714D01*
X8875952Y-12377714D02*
X8895000Y-12368190D01*
X8895000Y-12368190D02*
X8923572Y-12368190D01*
X8923572Y-12368190D02*
X8942619Y-12377714D01*
X8942619Y-12377714D02*
X8952143Y-12396762D01*
X8952143Y-12396762D02*
X8952143Y-12501524D01*
X8952143Y-12396762D02*
X8961667Y-12377714D01*
X8961667Y-12377714D02*
X8980714Y-12368190D01*
X8980714Y-12368190D02*
X9009286Y-12368190D01*
X9009286Y-12368190D02*
X9028333Y-12377714D01*
X9028333Y-12377714D02*
X9037857Y-12396762D01*
X9037857Y-12396762D02*
X9037857Y-12501524D01*
X9428333Y-12292000D02*
X9256905Y-12549143D01*
X9685476Y-12301524D02*
X9704524Y-12301524D01*
X9704524Y-12301524D02*
X9723572Y-12311048D01*
X9723572Y-12311048D02*
X9733095Y-12320571D01*
X9733095Y-12320571D02*
X9742619Y-12339619D01*
X9742619Y-12339619D02*
X9752143Y-12377714D01*
X9752143Y-12377714D02*
X9752143Y-12425333D01*
X9752143Y-12425333D02*
X9742619Y-12463428D01*
X9742619Y-12463428D02*
X9733095Y-12482476D01*
X9733095Y-12482476D02*
X9723572Y-12492000D01*
X9723572Y-12492000D02*
X9704524Y-12501524D01*
X9704524Y-12501524D02*
X9685476Y-12501524D01*
X9685476Y-12501524D02*
X9666429Y-12492000D01*
X9666429Y-12492000D02*
X9656905Y-12482476D01*
X9656905Y-12482476D02*
X9647381Y-12463428D01*
X9647381Y-12463428D02*
X9637857Y-12425333D01*
X9637857Y-12425333D02*
X9637857Y-12377714D01*
X9637857Y-12377714D02*
X9647381Y-12339619D01*
X9647381Y-12339619D02*
X9656905Y-12320571D01*
X9656905Y-12320571D02*
X9666429Y-12311048D01*
X9666429Y-12311048D02*
X9685476Y-12301524D01*
X9837857Y-12482476D02*
X9847381Y-12492000D01*
X9847381Y-12492000D02*
X9837857Y-12501524D01*
X9837857Y-12501524D02*
X9828334Y-12492000D01*
X9828334Y-12492000D02*
X9837857Y-12482476D01*
X9837857Y-12482476D02*
X9837857Y-12501524D01*
X9971191Y-12301524D02*
X9990238Y-12301524D01*
X9990238Y-12301524D02*
X10009286Y-12311048D01*
X10009286Y-12311048D02*
X10018810Y-12320571D01*
X10018810Y-12320571D02*
X10028334Y-12339619D01*
X10028334Y-12339619D02*
X10037857Y-12377714D01*
X10037857Y-12377714D02*
X10037857Y-12425333D01*
X10037857Y-12425333D02*
X10028334Y-12463428D01*
X10028334Y-12463428D02*
X10018810Y-12482476D01*
X10018810Y-12482476D02*
X10009286Y-12492000D01*
X10009286Y-12492000D02*
X9990238Y-12501524D01*
X9990238Y-12501524D02*
X9971191Y-12501524D01*
X9971191Y-12501524D02*
X9952143Y-12492000D01*
X9952143Y-12492000D02*
X9942619Y-12482476D01*
X9942619Y-12482476D02*
X9933095Y-12463428D01*
X9933095Y-12463428D02*
X9923572Y-12425333D01*
X9923572Y-12425333D02*
X9923572Y-12377714D01*
X9923572Y-12377714D02*
X9933095Y-12339619D01*
X9933095Y-12339619D02*
X9942619Y-12320571D01*
X9942619Y-12320571D02*
X9952143Y-12311048D01*
X9952143Y-12311048D02*
X9971191Y-12301524D01*
X10114048Y-12320571D02*
X10123572Y-12311048D01*
X10123572Y-12311048D02*
X10142619Y-12301524D01*
X10142619Y-12301524D02*
X10190238Y-12301524D01*
X10190238Y-12301524D02*
X10209286Y-12311048D01*
X10209286Y-12311048D02*
X10218810Y-12320571D01*
X10218810Y-12320571D02*
X10228334Y-12339619D01*
X10228334Y-12339619D02*
X10228334Y-12358667D01*
X10228334Y-12358667D02*
X10218810Y-12387238D01*
X10218810Y-12387238D02*
X10104524Y-12501524D01*
X10104524Y-12501524D02*
X10228334Y-12501524D01*
X10409286Y-12301524D02*
X10314048Y-12301524D01*
X10314048Y-12301524D02*
X10304524Y-12396762D01*
X10304524Y-12396762D02*
X10314048Y-12387238D01*
X10314048Y-12387238D02*
X10333095Y-12377714D01*
X10333095Y-12377714D02*
X10380715Y-12377714D01*
X10380715Y-12377714D02*
X10399762Y-12387238D01*
X10399762Y-12387238D02*
X10409286Y-12396762D01*
X10409286Y-12396762D02*
X10418810Y-12415809D01*
X10418810Y-12415809D02*
X10418810Y-12463428D01*
X10418810Y-12463428D02*
X10409286Y-12482476D01*
X10409286Y-12482476D02*
X10399762Y-12492000D01*
X10399762Y-12492000D02*
X10380715Y-12501524D01*
X10380715Y-12501524D02*
X10333095Y-12501524D01*
X10333095Y-12501524D02*
X10314048Y-12492000D01*
X10314048Y-12492000D02*
X10304524Y-12482476D01*
X10590238Y-12301524D02*
X10552143Y-12301524D01*
X10552143Y-12301524D02*
X10533095Y-12311048D01*
X10533095Y-12311048D02*
X10523572Y-12320571D01*
X10523572Y-12320571D02*
X10504524Y-12349143D01*
X10504524Y-12349143D02*
X10495000Y-12387238D01*
X10495000Y-12387238D02*
X10495000Y-12463428D01*
X10495000Y-12463428D02*
X10504524Y-12482476D01*
X10504524Y-12482476D02*
X10514048Y-12492000D01*
X10514048Y-12492000D02*
X10533095Y-12501524D01*
X10533095Y-12501524D02*
X10571191Y-12501524D01*
X10571191Y-12501524D02*
X10590238Y-12492000D01*
X10590238Y-12492000D02*
X10599762Y-12482476D01*
X10599762Y-12482476D02*
X10609286Y-12463428D01*
X10609286Y-12463428D02*
X10609286Y-12415809D01*
X10609286Y-12415809D02*
X10599762Y-12396762D01*
X10599762Y-12396762D02*
X10590238Y-12387238D01*
X10590238Y-12387238D02*
X10571191Y-12377714D01*
X10571191Y-12377714D02*
X10533095Y-12377714D01*
X10533095Y-12377714D02*
X10514048Y-12387238D01*
X10514048Y-12387238D02*
X10504524Y-12396762D01*
X10504524Y-12396762D02*
X10495000Y-12415809D01*
X10685476Y-12301524D02*
X10685476Y-12339619D01*
X10761667Y-12301524D02*
X10761667Y-12339619D01*
X11056905Y-12577714D02*
X11047381Y-12568190D01*
X11047381Y-12568190D02*
X11028334Y-12539619D01*
X11028334Y-12539619D02*
X11018810Y-12520571D01*
X11018810Y-12520571D02*
X11009286Y-12492000D01*
X11009286Y-12492000D02*
X10999762Y-12444381D01*
X10999762Y-12444381D02*
X10999762Y-12406286D01*
X10999762Y-12406286D02*
X11009286Y-12358667D01*
X11009286Y-12358667D02*
X11018810Y-12330095D01*
X11018810Y-12330095D02*
X11028334Y-12311048D01*
X11028334Y-12311048D02*
X11047381Y-12282476D01*
X11047381Y-12282476D02*
X11056905Y-12272952D01*
X11218810Y-12368190D02*
X11218810Y-12501524D01*
X11171191Y-12292000D02*
X11123572Y-12434857D01*
X11123572Y-12434857D02*
X11247381Y-12434857D01*
X11475953Y-12501524D02*
X11475953Y-12301524D01*
X11561667Y-12501524D02*
X11561667Y-12396762D01*
X11561667Y-12396762D02*
X11552143Y-12377714D01*
X11552143Y-12377714D02*
X11533096Y-12368190D01*
X11533096Y-12368190D02*
X11504524Y-12368190D01*
X11504524Y-12368190D02*
X11485476Y-12377714D01*
X11485476Y-12377714D02*
X11475953Y-12387238D01*
X11685476Y-12501524D02*
X11666429Y-12492000D01*
X11666429Y-12492000D02*
X11656905Y-12482476D01*
X11656905Y-12482476D02*
X11647381Y-12463428D01*
X11647381Y-12463428D02*
X11647381Y-12406286D01*
X11647381Y-12406286D02*
X11656905Y-12387238D01*
X11656905Y-12387238D02*
X11666429Y-12377714D01*
X11666429Y-12377714D02*
X11685476Y-12368190D01*
X11685476Y-12368190D02*
X11714048Y-12368190D01*
X11714048Y-12368190D02*
X11733096Y-12377714D01*
X11733096Y-12377714D02*
X11742619Y-12387238D01*
X11742619Y-12387238D02*
X11752143Y-12406286D01*
X11752143Y-12406286D02*
X11752143Y-12463428D01*
X11752143Y-12463428D02*
X11742619Y-12482476D01*
X11742619Y-12482476D02*
X11733096Y-12492000D01*
X11733096Y-12492000D02*
X11714048Y-12501524D01*
X11714048Y-12501524D02*
X11685476Y-12501524D01*
X11866429Y-12501524D02*
X11847381Y-12492000D01*
X11847381Y-12492000D02*
X11837857Y-12472952D01*
X11837857Y-12472952D02*
X11837857Y-12301524D01*
X12018810Y-12492000D02*
X11999762Y-12501524D01*
X11999762Y-12501524D02*
X11961667Y-12501524D01*
X11961667Y-12501524D02*
X11942619Y-12492000D01*
X11942619Y-12492000D02*
X11933096Y-12472952D01*
X11933096Y-12472952D02*
X11933096Y-12396762D01*
X11933096Y-12396762D02*
X11942619Y-12377714D01*
X11942619Y-12377714D02*
X11961667Y-12368190D01*
X11961667Y-12368190D02*
X11999762Y-12368190D01*
X11999762Y-12368190D02*
X12018810Y-12377714D01*
X12018810Y-12377714D02*
X12028334Y-12396762D01*
X12028334Y-12396762D02*
X12028334Y-12415809D01*
X12028334Y-12415809D02*
X11933096Y-12434857D01*
X12104524Y-12492000D02*
X12123572Y-12501524D01*
X12123572Y-12501524D02*
X12161667Y-12501524D01*
X12161667Y-12501524D02*
X12180715Y-12492000D01*
X12180715Y-12492000D02*
X12190238Y-12472952D01*
X12190238Y-12472952D02*
X12190238Y-12463428D01*
X12190238Y-12463428D02*
X12180715Y-12444381D01*
X12180715Y-12444381D02*
X12161667Y-12434857D01*
X12161667Y-12434857D02*
X12133096Y-12434857D01*
X12133096Y-12434857D02*
X12114048Y-12425333D01*
X12114048Y-12425333D02*
X12104524Y-12406286D01*
X12104524Y-12406286D02*
X12104524Y-12396762D01*
X12104524Y-12396762D02*
X12114048Y-12377714D01*
X12114048Y-12377714D02*
X12133096Y-12368190D01*
X12133096Y-12368190D02*
X12161667Y-12368190D01*
X12161667Y-12368190D02*
X12180715Y-12377714D01*
X12256905Y-12577714D02*
X12266429Y-12568190D01*
X12266429Y-12568190D02*
X12285477Y-12539619D01*
X12285477Y-12539619D02*
X12295000Y-12520571D01*
X12295000Y-12520571D02*
X12304524Y-12492000D01*
X12304524Y-12492000D02*
X12314048Y-12444381D01*
X12314048Y-12444381D02*
X12314048Y-12406286D01*
X12314048Y-12406286D02*
X12304524Y-12358667D01*
X12304524Y-12358667D02*
X12295000Y-12330095D01*
X12295000Y-12330095D02*
X12285477Y-12311048D01*
X12285477Y-12311048D02*
X12266429Y-12282476D01*
X12266429Y-12282476D02*
X12256905Y-12272952D01*
D14*
X7455000Y-12633000D02*
X7455000Y-12713000D01*
X7415000Y-12673000D02*
X7495000Y-12673000D01*
D11*
X7780714Y-12565524D02*
X7799762Y-12565524D01*
X7799762Y-12565524D02*
X7818809Y-12575048D01*
X7818809Y-12575048D02*
X7828333Y-12584571D01*
X7828333Y-12584571D02*
X7837857Y-12603619D01*
X7837857Y-12603619D02*
X7847381Y-12641714D01*
X7847381Y-12641714D02*
X7847381Y-12689333D01*
X7847381Y-12689333D02*
X7837857Y-12727428D01*
X7837857Y-12727428D02*
X7828333Y-12746476D01*
X7828333Y-12746476D02*
X7818809Y-12756000D01*
X7818809Y-12756000D02*
X7799762Y-12765524D01*
X7799762Y-12765524D02*
X7780714Y-12765524D01*
X7780714Y-12765524D02*
X7761667Y-12756000D01*
X7761667Y-12756000D02*
X7752143Y-12746476D01*
X7752143Y-12746476D02*
X7742619Y-12727428D01*
X7742619Y-12727428D02*
X7733095Y-12689333D01*
X7733095Y-12689333D02*
X7733095Y-12641714D01*
X7733095Y-12641714D02*
X7742619Y-12603619D01*
X7742619Y-12603619D02*
X7752143Y-12584571D01*
X7752143Y-12584571D02*
X7761667Y-12575048D01*
X7761667Y-12575048D02*
X7780714Y-12565524D01*
X7933095Y-12746476D02*
X7942619Y-12756000D01*
X7942619Y-12756000D02*
X7933095Y-12765524D01*
X7933095Y-12765524D02*
X7923571Y-12756000D01*
X7923571Y-12756000D02*
X7933095Y-12746476D01*
X7933095Y-12746476D02*
X7933095Y-12765524D01*
X8056905Y-12651238D02*
X8037857Y-12641714D01*
X8037857Y-12641714D02*
X8028333Y-12632190D01*
X8028333Y-12632190D02*
X8018809Y-12613143D01*
X8018809Y-12613143D02*
X8018809Y-12603619D01*
X8018809Y-12603619D02*
X8028333Y-12584571D01*
X8028333Y-12584571D02*
X8037857Y-12575048D01*
X8037857Y-12575048D02*
X8056905Y-12565524D01*
X8056905Y-12565524D02*
X8095000Y-12565524D01*
X8095000Y-12565524D02*
X8114048Y-12575048D01*
X8114048Y-12575048D02*
X8123571Y-12584571D01*
X8123571Y-12584571D02*
X8133095Y-12603619D01*
X8133095Y-12603619D02*
X8133095Y-12613143D01*
X8133095Y-12613143D02*
X8123571Y-12632190D01*
X8123571Y-12632190D02*
X8114048Y-12641714D01*
X8114048Y-12641714D02*
X8095000Y-12651238D01*
X8095000Y-12651238D02*
X8056905Y-12651238D01*
X8056905Y-12651238D02*
X8037857Y-12660762D01*
X8037857Y-12660762D02*
X8028333Y-12670286D01*
X8028333Y-12670286D02*
X8018809Y-12689333D01*
X8018809Y-12689333D02*
X8018809Y-12727428D01*
X8018809Y-12727428D02*
X8028333Y-12746476D01*
X8028333Y-12746476D02*
X8037857Y-12756000D01*
X8037857Y-12756000D02*
X8056905Y-12765524D01*
X8056905Y-12765524D02*
X8095000Y-12765524D01*
X8095000Y-12765524D02*
X8114048Y-12756000D01*
X8114048Y-12756000D02*
X8123571Y-12746476D01*
X8123571Y-12746476D02*
X8133095Y-12727428D01*
X8133095Y-12727428D02*
X8133095Y-12689333D01*
X8133095Y-12689333D02*
X8123571Y-12670286D01*
X8123571Y-12670286D02*
X8114048Y-12660762D01*
X8114048Y-12660762D02*
X8095000Y-12651238D01*
X8256905Y-12565524D02*
X8275952Y-12565524D01*
X8275952Y-12565524D02*
X8295000Y-12575048D01*
X8295000Y-12575048D02*
X8304524Y-12584571D01*
X8304524Y-12584571D02*
X8314048Y-12603619D01*
X8314048Y-12603619D02*
X8323571Y-12641714D01*
X8323571Y-12641714D02*
X8323571Y-12689333D01*
X8323571Y-12689333D02*
X8314048Y-12727428D01*
X8314048Y-12727428D02*
X8304524Y-12746476D01*
X8304524Y-12746476D02*
X8295000Y-12756000D01*
X8295000Y-12756000D02*
X8275952Y-12765524D01*
X8275952Y-12765524D02*
X8256905Y-12765524D01*
X8256905Y-12765524D02*
X8237857Y-12756000D01*
X8237857Y-12756000D02*
X8228333Y-12746476D01*
X8228333Y-12746476D02*
X8218809Y-12727428D01*
X8218809Y-12727428D02*
X8209286Y-12689333D01*
X8209286Y-12689333D02*
X8209286Y-12641714D01*
X8209286Y-12641714D02*
X8218809Y-12603619D01*
X8218809Y-12603619D02*
X8228333Y-12584571D01*
X8228333Y-12584571D02*
X8237857Y-12575048D01*
X8237857Y-12575048D02*
X8256905Y-12565524D01*
X8447381Y-12565524D02*
X8466429Y-12565524D01*
X8466429Y-12565524D02*
X8485476Y-12575048D01*
X8485476Y-12575048D02*
X8495000Y-12584571D01*
X8495000Y-12584571D02*
X8504524Y-12603619D01*
X8504524Y-12603619D02*
X8514048Y-12641714D01*
X8514048Y-12641714D02*
X8514048Y-12689333D01*
X8514048Y-12689333D02*
X8504524Y-12727428D01*
X8504524Y-12727428D02*
X8495000Y-12746476D01*
X8495000Y-12746476D02*
X8485476Y-12756000D01*
X8485476Y-12756000D02*
X8466429Y-12765524D01*
X8466429Y-12765524D02*
X8447381Y-12765524D01*
X8447381Y-12765524D02*
X8428333Y-12756000D01*
X8428333Y-12756000D02*
X8418810Y-12746476D01*
X8418810Y-12746476D02*
X8409286Y-12727428D01*
X8409286Y-12727428D02*
X8399762Y-12689333D01*
X8399762Y-12689333D02*
X8399762Y-12641714D01*
X8399762Y-12641714D02*
X8409286Y-12603619D01*
X8409286Y-12603619D02*
X8418810Y-12584571D01*
X8418810Y-12584571D02*
X8428333Y-12575048D01*
X8428333Y-12575048D02*
X8447381Y-12565524D01*
X8599762Y-12765524D02*
X8599762Y-12632190D01*
X8599762Y-12651238D02*
X8609286Y-12641714D01*
X8609286Y-12641714D02*
X8628333Y-12632190D01*
X8628333Y-12632190D02*
X8656905Y-12632190D01*
X8656905Y-12632190D02*
X8675952Y-12641714D01*
X8675952Y-12641714D02*
X8685476Y-12660762D01*
X8685476Y-12660762D02*
X8685476Y-12765524D01*
X8685476Y-12660762D02*
X8695000Y-12641714D01*
X8695000Y-12641714D02*
X8714048Y-12632190D01*
X8714048Y-12632190D02*
X8742619Y-12632190D01*
X8742619Y-12632190D02*
X8761667Y-12641714D01*
X8761667Y-12641714D02*
X8771191Y-12660762D01*
X8771191Y-12660762D02*
X8771191Y-12765524D01*
X8866429Y-12765524D02*
X8866429Y-12632190D01*
X8866429Y-12651238D02*
X8875952Y-12641714D01*
X8875952Y-12641714D02*
X8895000Y-12632190D01*
X8895000Y-12632190D02*
X8923572Y-12632190D01*
X8923572Y-12632190D02*
X8942619Y-12641714D01*
X8942619Y-12641714D02*
X8952143Y-12660762D01*
X8952143Y-12660762D02*
X8952143Y-12765524D01*
X8952143Y-12660762D02*
X8961667Y-12641714D01*
X8961667Y-12641714D02*
X8980714Y-12632190D01*
X8980714Y-12632190D02*
X9009286Y-12632190D01*
X9009286Y-12632190D02*
X9028333Y-12641714D01*
X9028333Y-12641714D02*
X9037857Y-12660762D01*
X9037857Y-12660762D02*
X9037857Y-12765524D01*
X9428333Y-12556000D02*
X9256905Y-12813143D01*
X9685476Y-12565524D02*
X9704524Y-12565524D01*
X9704524Y-12565524D02*
X9723572Y-12575048D01*
X9723572Y-12575048D02*
X9733095Y-12584571D01*
X9733095Y-12584571D02*
X9742619Y-12603619D01*
X9742619Y-12603619D02*
X9752143Y-12641714D01*
X9752143Y-12641714D02*
X9752143Y-12689333D01*
X9752143Y-12689333D02*
X9742619Y-12727428D01*
X9742619Y-12727428D02*
X9733095Y-12746476D01*
X9733095Y-12746476D02*
X9723572Y-12756000D01*
X9723572Y-12756000D02*
X9704524Y-12765524D01*
X9704524Y-12765524D02*
X9685476Y-12765524D01*
X9685476Y-12765524D02*
X9666429Y-12756000D01*
X9666429Y-12756000D02*
X9656905Y-12746476D01*
X9656905Y-12746476D02*
X9647381Y-12727428D01*
X9647381Y-12727428D02*
X9637857Y-12689333D01*
X9637857Y-12689333D02*
X9637857Y-12641714D01*
X9637857Y-12641714D02*
X9647381Y-12603619D01*
X9647381Y-12603619D02*
X9656905Y-12584571D01*
X9656905Y-12584571D02*
X9666429Y-12575048D01*
X9666429Y-12575048D02*
X9685476Y-12565524D01*
X9837857Y-12746476D02*
X9847381Y-12756000D01*
X9847381Y-12756000D02*
X9837857Y-12765524D01*
X9837857Y-12765524D02*
X9828334Y-12756000D01*
X9828334Y-12756000D02*
X9837857Y-12746476D01*
X9837857Y-12746476D02*
X9837857Y-12765524D01*
X9971191Y-12565524D02*
X9990238Y-12565524D01*
X9990238Y-12565524D02*
X10009286Y-12575048D01*
X10009286Y-12575048D02*
X10018810Y-12584571D01*
X10018810Y-12584571D02*
X10028334Y-12603619D01*
X10028334Y-12603619D02*
X10037857Y-12641714D01*
X10037857Y-12641714D02*
X10037857Y-12689333D01*
X10037857Y-12689333D02*
X10028334Y-12727428D01*
X10028334Y-12727428D02*
X10018810Y-12746476D01*
X10018810Y-12746476D02*
X10009286Y-12756000D01*
X10009286Y-12756000D02*
X9990238Y-12765524D01*
X9990238Y-12765524D02*
X9971191Y-12765524D01*
X9971191Y-12765524D02*
X9952143Y-12756000D01*
X9952143Y-12756000D02*
X9942619Y-12746476D01*
X9942619Y-12746476D02*
X9933095Y-12727428D01*
X9933095Y-12727428D02*
X9923572Y-12689333D01*
X9923572Y-12689333D02*
X9923572Y-12641714D01*
X9923572Y-12641714D02*
X9933095Y-12603619D01*
X9933095Y-12603619D02*
X9942619Y-12584571D01*
X9942619Y-12584571D02*
X9952143Y-12575048D01*
X9952143Y-12575048D02*
X9971191Y-12565524D01*
X10104524Y-12565524D02*
X10228334Y-12565524D01*
X10228334Y-12565524D02*
X10161667Y-12641714D01*
X10161667Y-12641714D02*
X10190238Y-12641714D01*
X10190238Y-12641714D02*
X10209286Y-12651238D01*
X10209286Y-12651238D02*
X10218810Y-12660762D01*
X10218810Y-12660762D02*
X10228334Y-12679809D01*
X10228334Y-12679809D02*
X10228334Y-12727428D01*
X10228334Y-12727428D02*
X10218810Y-12746476D01*
X10218810Y-12746476D02*
X10209286Y-12756000D01*
X10209286Y-12756000D02*
X10190238Y-12765524D01*
X10190238Y-12765524D02*
X10133095Y-12765524D01*
X10133095Y-12765524D02*
X10114048Y-12756000D01*
X10114048Y-12756000D02*
X10104524Y-12746476D01*
X10418810Y-12765524D02*
X10304524Y-12765524D01*
X10361667Y-12765524D02*
X10361667Y-12565524D01*
X10361667Y-12565524D02*
X10342619Y-12594095D01*
X10342619Y-12594095D02*
X10323572Y-12613143D01*
X10323572Y-12613143D02*
X10304524Y-12622667D01*
X10599762Y-12565524D02*
X10504524Y-12565524D01*
X10504524Y-12565524D02*
X10495000Y-12660762D01*
X10495000Y-12660762D02*
X10504524Y-12651238D01*
X10504524Y-12651238D02*
X10523572Y-12641714D01*
X10523572Y-12641714D02*
X10571191Y-12641714D01*
X10571191Y-12641714D02*
X10590238Y-12651238D01*
X10590238Y-12651238D02*
X10599762Y-12660762D01*
X10599762Y-12660762D02*
X10609286Y-12679809D01*
X10609286Y-12679809D02*
X10609286Y-12727428D01*
X10609286Y-12727428D02*
X10599762Y-12746476D01*
X10599762Y-12746476D02*
X10590238Y-12756000D01*
X10590238Y-12756000D02*
X10571191Y-12765524D01*
X10571191Y-12765524D02*
X10523572Y-12765524D01*
X10523572Y-12765524D02*
X10504524Y-12756000D01*
X10504524Y-12756000D02*
X10495000Y-12746476D01*
X10685476Y-12565524D02*
X10685476Y-12603619D01*
X10761667Y-12565524D02*
X10761667Y-12603619D01*
X11056905Y-12841714D02*
X11047381Y-12832190D01*
X11047381Y-12832190D02*
X11028334Y-12803619D01*
X11028334Y-12803619D02*
X11018810Y-12784571D01*
X11018810Y-12784571D02*
X11009286Y-12756000D01*
X11009286Y-12756000D02*
X10999762Y-12708381D01*
X10999762Y-12708381D02*
X10999762Y-12670286D01*
X10999762Y-12670286D02*
X11009286Y-12622667D01*
X11009286Y-12622667D02*
X11018810Y-12594095D01*
X11018810Y-12594095D02*
X11028334Y-12575048D01*
X11028334Y-12575048D02*
X11047381Y-12546476D01*
X11047381Y-12546476D02*
X11056905Y-12536952D01*
X11218810Y-12632190D02*
X11218810Y-12765524D01*
X11171191Y-12556000D02*
X11123572Y-12698857D01*
X11123572Y-12698857D02*
X11247381Y-12698857D01*
X11475953Y-12765524D02*
X11475953Y-12565524D01*
X11561667Y-12765524D02*
X11561667Y-12660762D01*
X11561667Y-12660762D02*
X11552143Y-12641714D01*
X11552143Y-12641714D02*
X11533096Y-12632190D01*
X11533096Y-12632190D02*
X11504524Y-12632190D01*
X11504524Y-12632190D02*
X11485476Y-12641714D01*
X11485476Y-12641714D02*
X11475953Y-12651238D01*
X11685476Y-12765524D02*
X11666429Y-12756000D01*
X11666429Y-12756000D02*
X11656905Y-12746476D01*
X11656905Y-12746476D02*
X11647381Y-12727428D01*
X11647381Y-12727428D02*
X11647381Y-12670286D01*
X11647381Y-12670286D02*
X11656905Y-12651238D01*
X11656905Y-12651238D02*
X11666429Y-12641714D01*
X11666429Y-12641714D02*
X11685476Y-12632190D01*
X11685476Y-12632190D02*
X11714048Y-12632190D01*
X11714048Y-12632190D02*
X11733096Y-12641714D01*
X11733096Y-12641714D02*
X11742619Y-12651238D01*
X11742619Y-12651238D02*
X11752143Y-12670286D01*
X11752143Y-12670286D02*
X11752143Y-12727428D01*
X11752143Y-12727428D02*
X11742619Y-12746476D01*
X11742619Y-12746476D02*
X11733096Y-12756000D01*
X11733096Y-12756000D02*
X11714048Y-12765524D01*
X11714048Y-12765524D02*
X11685476Y-12765524D01*
X11866429Y-12765524D02*
X11847381Y-12756000D01*
X11847381Y-12756000D02*
X11837857Y-12736952D01*
X11837857Y-12736952D02*
X11837857Y-12565524D01*
X12018810Y-12756000D02*
X11999762Y-12765524D01*
X11999762Y-12765524D02*
X11961667Y-12765524D01*
X11961667Y-12765524D02*
X11942619Y-12756000D01*
X11942619Y-12756000D02*
X11933096Y-12736952D01*
X11933096Y-12736952D02*
X11933096Y-12660762D01*
X11933096Y-12660762D02*
X11942619Y-12641714D01*
X11942619Y-12641714D02*
X11961667Y-12632190D01*
X11961667Y-12632190D02*
X11999762Y-12632190D01*
X11999762Y-12632190D02*
X12018810Y-12641714D01*
X12018810Y-12641714D02*
X12028334Y-12660762D01*
X12028334Y-12660762D02*
X12028334Y-12679809D01*
X12028334Y-12679809D02*
X11933096Y-12698857D01*
X12104524Y-12756000D02*
X12123572Y-12765524D01*
X12123572Y-12765524D02*
X12161667Y-12765524D01*
X12161667Y-12765524D02*
X12180715Y-12756000D01*
X12180715Y-12756000D02*
X12190238Y-12736952D01*
X12190238Y-12736952D02*
X12190238Y-12727428D01*
X12190238Y-12727428D02*
X12180715Y-12708381D01*
X12180715Y-12708381D02*
X12161667Y-12698857D01*
X12161667Y-12698857D02*
X12133096Y-12698857D01*
X12133096Y-12698857D02*
X12114048Y-12689333D01*
X12114048Y-12689333D02*
X12104524Y-12670286D01*
X12104524Y-12670286D02*
X12104524Y-12660762D01*
X12104524Y-12660762D02*
X12114048Y-12641714D01*
X12114048Y-12641714D02*
X12133096Y-12632190D01*
X12133096Y-12632190D02*
X12161667Y-12632190D01*
X12161667Y-12632190D02*
X12180715Y-12641714D01*
X12256905Y-12841714D02*
X12266429Y-12832190D01*
X12266429Y-12832190D02*
X12285477Y-12803619D01*
X12285477Y-12803619D02*
X12295000Y-12784571D01*
X12295000Y-12784571D02*
X12304524Y-12756000D01*
X12304524Y-12756000D02*
X12314048Y-12708381D01*
X12314048Y-12708381D02*
X12314048Y-12670286D01*
X12314048Y-12670286D02*
X12304524Y-12622667D01*
X12304524Y-12622667D02*
X12295000Y-12594095D01*
X12295000Y-12594095D02*
X12285477Y-12575048D01*
X12285477Y-12575048D02*
X12266429Y-12546476D01*
X12266429Y-12546476D02*
X12256905Y-12536952D01*
D10*
X7480356Y-12972356D02*
X7480356Y-12901644D01*
X7409644Y-12901644D01*
X7409644Y-12972356D01*
X7480356Y-12972356D01*
D11*
X7847381Y-13029524D02*
X7733095Y-13029524D01*
X7790238Y-13029524D02*
X7790238Y-12829524D01*
X7790238Y-12829524D02*
X7771190Y-12858095D01*
X7771190Y-12858095D02*
X7752143Y-12877143D01*
X7752143Y-12877143D02*
X7733095Y-12886667D01*
X7933095Y-13010476D02*
X7942619Y-13020000D01*
X7942619Y-13020000D02*
X7933095Y-13029524D01*
X7933095Y-13029524D02*
X7923571Y-13020000D01*
X7923571Y-13020000D02*
X7933095Y-13010476D01*
X7933095Y-13010476D02*
X7933095Y-13029524D01*
X8066428Y-12829524D02*
X8085476Y-12829524D01*
X8085476Y-12829524D02*
X8104524Y-12839048D01*
X8104524Y-12839048D02*
X8114048Y-12848571D01*
X8114048Y-12848571D02*
X8123571Y-12867619D01*
X8123571Y-12867619D02*
X8133095Y-12905714D01*
X8133095Y-12905714D02*
X8133095Y-12953333D01*
X8133095Y-12953333D02*
X8123571Y-12991428D01*
X8123571Y-12991428D02*
X8114048Y-13010476D01*
X8114048Y-13010476D02*
X8104524Y-13020000D01*
X8104524Y-13020000D02*
X8085476Y-13029524D01*
X8085476Y-13029524D02*
X8066428Y-13029524D01*
X8066428Y-13029524D02*
X8047381Y-13020000D01*
X8047381Y-13020000D02*
X8037857Y-13010476D01*
X8037857Y-13010476D02*
X8028333Y-12991428D01*
X8028333Y-12991428D02*
X8018809Y-12953333D01*
X8018809Y-12953333D02*
X8018809Y-12905714D01*
X8018809Y-12905714D02*
X8028333Y-12867619D01*
X8028333Y-12867619D02*
X8037857Y-12848571D01*
X8037857Y-12848571D02*
X8047381Y-12839048D01*
X8047381Y-12839048D02*
X8066428Y-12829524D01*
X8256905Y-12829524D02*
X8275952Y-12829524D01*
X8275952Y-12829524D02*
X8295000Y-12839048D01*
X8295000Y-12839048D02*
X8304524Y-12848571D01*
X8304524Y-12848571D02*
X8314048Y-12867619D01*
X8314048Y-12867619D02*
X8323571Y-12905714D01*
X8323571Y-12905714D02*
X8323571Y-12953333D01*
X8323571Y-12953333D02*
X8314048Y-12991428D01*
X8314048Y-12991428D02*
X8304524Y-13010476D01*
X8304524Y-13010476D02*
X8295000Y-13020000D01*
X8295000Y-13020000D02*
X8275952Y-13029524D01*
X8275952Y-13029524D02*
X8256905Y-13029524D01*
X8256905Y-13029524D02*
X8237857Y-13020000D01*
X8237857Y-13020000D02*
X8228333Y-13010476D01*
X8228333Y-13010476D02*
X8218809Y-12991428D01*
X8218809Y-12991428D02*
X8209286Y-12953333D01*
X8209286Y-12953333D02*
X8209286Y-12905714D01*
X8209286Y-12905714D02*
X8218809Y-12867619D01*
X8218809Y-12867619D02*
X8228333Y-12848571D01*
X8228333Y-12848571D02*
X8237857Y-12839048D01*
X8237857Y-12839048D02*
X8256905Y-12829524D01*
X8447381Y-12829524D02*
X8466429Y-12829524D01*
X8466429Y-12829524D02*
X8485476Y-12839048D01*
X8485476Y-12839048D02*
X8495000Y-12848571D01*
X8495000Y-12848571D02*
X8504524Y-12867619D01*
X8504524Y-12867619D02*
X8514048Y-12905714D01*
X8514048Y-12905714D02*
X8514048Y-12953333D01*
X8514048Y-12953333D02*
X8504524Y-12991428D01*
X8504524Y-12991428D02*
X8495000Y-13010476D01*
X8495000Y-13010476D02*
X8485476Y-13020000D01*
X8485476Y-13020000D02*
X8466429Y-13029524D01*
X8466429Y-13029524D02*
X8447381Y-13029524D01*
X8447381Y-13029524D02*
X8428333Y-13020000D01*
X8428333Y-13020000D02*
X8418810Y-13010476D01*
X8418810Y-13010476D02*
X8409286Y-12991428D01*
X8409286Y-12991428D02*
X8399762Y-12953333D01*
X8399762Y-12953333D02*
X8399762Y-12905714D01*
X8399762Y-12905714D02*
X8409286Y-12867619D01*
X8409286Y-12867619D02*
X8418810Y-12848571D01*
X8418810Y-12848571D02*
X8428333Y-12839048D01*
X8428333Y-12839048D02*
X8447381Y-12829524D01*
X8599762Y-13029524D02*
X8599762Y-12896190D01*
X8599762Y-12915238D02*
X8609286Y-12905714D01*
X8609286Y-12905714D02*
X8628333Y-12896190D01*
X8628333Y-12896190D02*
X8656905Y-12896190D01*
X8656905Y-12896190D02*
X8675952Y-12905714D01*
X8675952Y-12905714D02*
X8685476Y-12924762D01*
X8685476Y-12924762D02*
X8685476Y-13029524D01*
X8685476Y-12924762D02*
X8695000Y-12905714D01*
X8695000Y-12905714D02*
X8714048Y-12896190D01*
X8714048Y-12896190D02*
X8742619Y-12896190D01*
X8742619Y-12896190D02*
X8761667Y-12905714D01*
X8761667Y-12905714D02*
X8771191Y-12924762D01*
X8771191Y-12924762D02*
X8771191Y-13029524D01*
X8866429Y-13029524D02*
X8866429Y-12896190D01*
X8866429Y-12915238D02*
X8875952Y-12905714D01*
X8875952Y-12905714D02*
X8895000Y-12896190D01*
X8895000Y-12896190D02*
X8923572Y-12896190D01*
X8923572Y-12896190D02*
X8942619Y-12905714D01*
X8942619Y-12905714D02*
X8952143Y-12924762D01*
X8952143Y-12924762D02*
X8952143Y-13029524D01*
X8952143Y-12924762D02*
X8961667Y-12905714D01*
X8961667Y-12905714D02*
X8980714Y-12896190D01*
X8980714Y-12896190D02*
X9009286Y-12896190D01*
X9009286Y-12896190D02*
X9028333Y-12905714D01*
X9028333Y-12905714D02*
X9037857Y-12924762D01*
X9037857Y-12924762D02*
X9037857Y-13029524D01*
X9428333Y-12820000D02*
X9256905Y-13077143D01*
X9685476Y-12829524D02*
X9704524Y-12829524D01*
X9704524Y-12829524D02*
X9723572Y-12839048D01*
X9723572Y-12839048D02*
X9733095Y-12848571D01*
X9733095Y-12848571D02*
X9742619Y-12867619D01*
X9742619Y-12867619D02*
X9752143Y-12905714D01*
X9752143Y-12905714D02*
X9752143Y-12953333D01*
X9752143Y-12953333D02*
X9742619Y-12991428D01*
X9742619Y-12991428D02*
X9733095Y-13010476D01*
X9733095Y-13010476D02*
X9723572Y-13020000D01*
X9723572Y-13020000D02*
X9704524Y-13029524D01*
X9704524Y-13029524D02*
X9685476Y-13029524D01*
X9685476Y-13029524D02*
X9666429Y-13020000D01*
X9666429Y-13020000D02*
X9656905Y-13010476D01*
X9656905Y-13010476D02*
X9647381Y-12991428D01*
X9647381Y-12991428D02*
X9637857Y-12953333D01*
X9637857Y-12953333D02*
X9637857Y-12905714D01*
X9637857Y-12905714D02*
X9647381Y-12867619D01*
X9647381Y-12867619D02*
X9656905Y-12848571D01*
X9656905Y-12848571D02*
X9666429Y-12839048D01*
X9666429Y-12839048D02*
X9685476Y-12829524D01*
X9837857Y-13010476D02*
X9847381Y-13020000D01*
X9847381Y-13020000D02*
X9837857Y-13029524D01*
X9837857Y-13029524D02*
X9828334Y-13020000D01*
X9828334Y-13020000D02*
X9837857Y-13010476D01*
X9837857Y-13010476D02*
X9837857Y-13029524D01*
X9971191Y-12829524D02*
X9990238Y-12829524D01*
X9990238Y-12829524D02*
X10009286Y-12839048D01*
X10009286Y-12839048D02*
X10018810Y-12848571D01*
X10018810Y-12848571D02*
X10028334Y-12867619D01*
X10028334Y-12867619D02*
X10037857Y-12905714D01*
X10037857Y-12905714D02*
X10037857Y-12953333D01*
X10037857Y-12953333D02*
X10028334Y-12991428D01*
X10028334Y-12991428D02*
X10018810Y-13010476D01*
X10018810Y-13010476D02*
X10009286Y-13020000D01*
X10009286Y-13020000D02*
X9990238Y-13029524D01*
X9990238Y-13029524D02*
X9971191Y-13029524D01*
X9971191Y-13029524D02*
X9952143Y-13020000D01*
X9952143Y-13020000D02*
X9942619Y-13010476D01*
X9942619Y-13010476D02*
X9933095Y-12991428D01*
X9933095Y-12991428D02*
X9923572Y-12953333D01*
X9923572Y-12953333D02*
X9923572Y-12905714D01*
X9923572Y-12905714D02*
X9933095Y-12867619D01*
X9933095Y-12867619D02*
X9942619Y-12848571D01*
X9942619Y-12848571D02*
X9952143Y-12839048D01*
X9952143Y-12839048D02*
X9971191Y-12829524D01*
X10104524Y-12829524D02*
X10228334Y-12829524D01*
X10228334Y-12829524D02*
X10161667Y-12905714D01*
X10161667Y-12905714D02*
X10190238Y-12905714D01*
X10190238Y-12905714D02*
X10209286Y-12915238D01*
X10209286Y-12915238D02*
X10218810Y-12924762D01*
X10218810Y-12924762D02*
X10228334Y-12943809D01*
X10228334Y-12943809D02*
X10228334Y-12991428D01*
X10228334Y-12991428D02*
X10218810Y-13010476D01*
X10218810Y-13010476D02*
X10209286Y-13020000D01*
X10209286Y-13020000D02*
X10190238Y-13029524D01*
X10190238Y-13029524D02*
X10133095Y-13029524D01*
X10133095Y-13029524D02*
X10114048Y-13020000D01*
X10114048Y-13020000D02*
X10104524Y-13010476D01*
X10323572Y-13029524D02*
X10361667Y-13029524D01*
X10361667Y-13029524D02*
X10380715Y-13020000D01*
X10380715Y-13020000D02*
X10390238Y-13010476D01*
X10390238Y-13010476D02*
X10409286Y-12981905D01*
X10409286Y-12981905D02*
X10418810Y-12943809D01*
X10418810Y-12943809D02*
X10418810Y-12867619D01*
X10418810Y-12867619D02*
X10409286Y-12848571D01*
X10409286Y-12848571D02*
X10399762Y-12839048D01*
X10399762Y-12839048D02*
X10380715Y-12829524D01*
X10380715Y-12829524D02*
X10342619Y-12829524D01*
X10342619Y-12829524D02*
X10323572Y-12839048D01*
X10323572Y-12839048D02*
X10314048Y-12848571D01*
X10314048Y-12848571D02*
X10304524Y-12867619D01*
X10304524Y-12867619D02*
X10304524Y-12915238D01*
X10304524Y-12915238D02*
X10314048Y-12934286D01*
X10314048Y-12934286D02*
X10323572Y-12943809D01*
X10323572Y-12943809D02*
X10342619Y-12953333D01*
X10342619Y-12953333D02*
X10380715Y-12953333D01*
X10380715Y-12953333D02*
X10399762Y-12943809D01*
X10399762Y-12943809D02*
X10409286Y-12934286D01*
X10409286Y-12934286D02*
X10418810Y-12915238D01*
X10590238Y-12896190D02*
X10590238Y-13029524D01*
X10542619Y-12820000D02*
X10495000Y-12962857D01*
X10495000Y-12962857D02*
X10618810Y-12962857D01*
X10685476Y-12829524D02*
X10685476Y-12867619D01*
X10761667Y-12829524D02*
X10761667Y-12867619D01*
X11056905Y-13105714D02*
X11047381Y-13096190D01*
X11047381Y-13096190D02*
X11028334Y-13067619D01*
X11028334Y-13067619D02*
X11018810Y-13048571D01*
X11018810Y-13048571D02*
X11009286Y-13020000D01*
X11009286Y-13020000D02*
X10999762Y-12972381D01*
X10999762Y-12972381D02*
X10999762Y-12934286D01*
X10999762Y-12934286D02*
X11009286Y-12886667D01*
X11009286Y-12886667D02*
X11018810Y-12858095D01*
X11018810Y-12858095D02*
X11028334Y-12839048D01*
X11028334Y-12839048D02*
X11047381Y-12810476D01*
X11047381Y-12810476D02*
X11056905Y-12800952D01*
X11218810Y-12896190D02*
X11218810Y-13029524D01*
X11171191Y-12820000D02*
X11123572Y-12962857D01*
X11123572Y-12962857D02*
X11247381Y-12962857D01*
X11475953Y-13029524D02*
X11475953Y-12829524D01*
X11561667Y-13029524D02*
X11561667Y-12924762D01*
X11561667Y-12924762D02*
X11552143Y-12905714D01*
X11552143Y-12905714D02*
X11533096Y-12896190D01*
X11533096Y-12896190D02*
X11504524Y-12896190D01*
X11504524Y-12896190D02*
X11485476Y-12905714D01*
X11485476Y-12905714D02*
X11475953Y-12915238D01*
X11685476Y-13029524D02*
X11666429Y-13020000D01*
X11666429Y-13020000D02*
X11656905Y-13010476D01*
X11656905Y-13010476D02*
X11647381Y-12991428D01*
X11647381Y-12991428D02*
X11647381Y-12934286D01*
X11647381Y-12934286D02*
X11656905Y-12915238D01*
X11656905Y-12915238D02*
X11666429Y-12905714D01*
X11666429Y-12905714D02*
X11685476Y-12896190D01*
X11685476Y-12896190D02*
X11714048Y-12896190D01*
X11714048Y-12896190D02*
X11733096Y-12905714D01*
X11733096Y-12905714D02*
X11742619Y-12915238D01*
X11742619Y-12915238D02*
X11752143Y-12934286D01*
X11752143Y-12934286D02*
X11752143Y-12991428D01*
X11752143Y-12991428D02*
X11742619Y-13010476D01*
X11742619Y-13010476D02*
X11733096Y-13020000D01*
X11733096Y-13020000D02*
X11714048Y-13029524D01*
X11714048Y-13029524D02*
X11685476Y-13029524D01*
X11866429Y-13029524D02*
X11847381Y-13020000D01*
X11847381Y-13020000D02*
X11837857Y-13000952D01*
X11837857Y-13000952D02*
X11837857Y-12829524D01*
X12018810Y-13020000D02*
X11999762Y-13029524D01*
X11999762Y-13029524D02*
X11961667Y-13029524D01*
X11961667Y-13029524D02*
X11942619Y-13020000D01*
X11942619Y-13020000D02*
X11933096Y-13000952D01*
X11933096Y-13000952D02*
X11933096Y-12924762D01*
X11933096Y-12924762D02*
X11942619Y-12905714D01*
X11942619Y-12905714D02*
X11961667Y-12896190D01*
X11961667Y-12896190D02*
X11999762Y-12896190D01*
X11999762Y-12896190D02*
X12018810Y-12905714D01*
X12018810Y-12905714D02*
X12028334Y-12924762D01*
X12028334Y-12924762D02*
X12028334Y-12943809D01*
X12028334Y-12943809D02*
X11933096Y-12962857D01*
X12104524Y-13020000D02*
X12123572Y-13029524D01*
X12123572Y-13029524D02*
X12161667Y-13029524D01*
X12161667Y-13029524D02*
X12180715Y-13020000D01*
X12180715Y-13020000D02*
X12190238Y-13000952D01*
X12190238Y-13000952D02*
X12190238Y-12991428D01*
X12190238Y-12991428D02*
X12180715Y-12972381D01*
X12180715Y-12972381D02*
X12161667Y-12962857D01*
X12161667Y-12962857D02*
X12133096Y-12962857D01*
X12133096Y-12962857D02*
X12114048Y-12953333D01*
X12114048Y-12953333D02*
X12104524Y-12934286D01*
X12104524Y-12934286D02*
X12104524Y-12924762D01*
X12104524Y-12924762D02*
X12114048Y-12905714D01*
X12114048Y-12905714D02*
X12133096Y-12896190D01*
X12133096Y-12896190D02*
X12161667Y-12896190D01*
X12161667Y-12896190D02*
X12180715Y-12905714D01*
X12256905Y-13105714D02*
X12266429Y-13096190D01*
X12266429Y-13096190D02*
X12285477Y-13067619D01*
X12285477Y-13067619D02*
X12295000Y-13048571D01*
X12295000Y-13048571D02*
X12304524Y-13020000D01*
X12304524Y-13020000D02*
X12314048Y-12972381D01*
X12314048Y-12972381D02*
X12314048Y-12934286D01*
X12314048Y-12934286D02*
X12304524Y-12886667D01*
X12304524Y-12886667D02*
X12295000Y-12858095D01*
X12295000Y-12858095D02*
X12285477Y-12839048D01*
X12285477Y-12839048D02*
X12266429Y-12810476D01*
X12266429Y-12810476D02*
X12256905Y-12800952D01*
X7395000Y-13301000D02*
X7495000Y-13201000D01*
X7395000Y-13101000D01*
X7295000Y-13201000D01*
X7395000Y-13301000D01*
X7733095Y-13112571D02*
X7742619Y-13103048D01*
X7742619Y-13103048D02*
X7761667Y-13093524D01*
X7761667Y-13093524D02*
X7809286Y-13093524D01*
X7809286Y-13093524D02*
X7828333Y-13103048D01*
X7828333Y-13103048D02*
X7837857Y-13112571D01*
X7837857Y-13112571D02*
X7847381Y-13131619D01*
X7847381Y-13131619D02*
X7847381Y-13150667D01*
X7847381Y-13150667D02*
X7837857Y-13179238D01*
X7837857Y-13179238D02*
X7723571Y-13293524D01*
X7723571Y-13293524D02*
X7847381Y-13293524D01*
X7933095Y-13274476D02*
X7942619Y-13284000D01*
X7942619Y-13284000D02*
X7933095Y-13293524D01*
X7933095Y-13293524D02*
X7923571Y-13284000D01*
X7923571Y-13284000D02*
X7933095Y-13274476D01*
X7933095Y-13274476D02*
X7933095Y-13293524D01*
X8018809Y-13112571D02*
X8028333Y-13103048D01*
X8028333Y-13103048D02*
X8047381Y-13093524D01*
X8047381Y-13093524D02*
X8095000Y-13093524D01*
X8095000Y-13093524D02*
X8114048Y-13103048D01*
X8114048Y-13103048D02*
X8123571Y-13112571D01*
X8123571Y-13112571D02*
X8133095Y-13131619D01*
X8133095Y-13131619D02*
X8133095Y-13150667D01*
X8133095Y-13150667D02*
X8123571Y-13179238D01*
X8123571Y-13179238D02*
X8009286Y-13293524D01*
X8009286Y-13293524D02*
X8133095Y-13293524D01*
X8256905Y-13093524D02*
X8275952Y-13093524D01*
X8275952Y-13093524D02*
X8295000Y-13103048D01*
X8295000Y-13103048D02*
X8304524Y-13112571D01*
X8304524Y-13112571D02*
X8314048Y-13131619D01*
X8314048Y-13131619D02*
X8323571Y-13169714D01*
X8323571Y-13169714D02*
X8323571Y-13217333D01*
X8323571Y-13217333D02*
X8314048Y-13255428D01*
X8314048Y-13255428D02*
X8304524Y-13274476D01*
X8304524Y-13274476D02*
X8295000Y-13284000D01*
X8295000Y-13284000D02*
X8275952Y-13293524D01*
X8275952Y-13293524D02*
X8256905Y-13293524D01*
X8256905Y-13293524D02*
X8237857Y-13284000D01*
X8237857Y-13284000D02*
X8228333Y-13274476D01*
X8228333Y-13274476D02*
X8218809Y-13255428D01*
X8218809Y-13255428D02*
X8209286Y-13217333D01*
X8209286Y-13217333D02*
X8209286Y-13169714D01*
X8209286Y-13169714D02*
X8218809Y-13131619D01*
X8218809Y-13131619D02*
X8228333Y-13112571D01*
X8228333Y-13112571D02*
X8237857Y-13103048D01*
X8237857Y-13103048D02*
X8256905Y-13093524D01*
X8447381Y-13093524D02*
X8466429Y-13093524D01*
X8466429Y-13093524D02*
X8485476Y-13103048D01*
X8485476Y-13103048D02*
X8495000Y-13112571D01*
X8495000Y-13112571D02*
X8504524Y-13131619D01*
X8504524Y-13131619D02*
X8514048Y-13169714D01*
X8514048Y-13169714D02*
X8514048Y-13217333D01*
X8514048Y-13217333D02*
X8504524Y-13255428D01*
X8504524Y-13255428D02*
X8495000Y-13274476D01*
X8495000Y-13274476D02*
X8485476Y-13284000D01*
X8485476Y-13284000D02*
X8466429Y-13293524D01*
X8466429Y-13293524D02*
X8447381Y-13293524D01*
X8447381Y-13293524D02*
X8428333Y-13284000D01*
X8428333Y-13284000D02*
X8418810Y-13274476D01*
X8418810Y-13274476D02*
X8409286Y-13255428D01*
X8409286Y-13255428D02*
X8399762Y-13217333D01*
X8399762Y-13217333D02*
X8399762Y-13169714D01*
X8399762Y-13169714D02*
X8409286Y-13131619D01*
X8409286Y-13131619D02*
X8418810Y-13112571D01*
X8418810Y-13112571D02*
X8428333Y-13103048D01*
X8428333Y-13103048D02*
X8447381Y-13093524D01*
X8599762Y-13293524D02*
X8599762Y-13160190D01*
X8599762Y-13179238D02*
X8609286Y-13169714D01*
X8609286Y-13169714D02*
X8628333Y-13160190D01*
X8628333Y-13160190D02*
X8656905Y-13160190D01*
X8656905Y-13160190D02*
X8675952Y-13169714D01*
X8675952Y-13169714D02*
X8685476Y-13188762D01*
X8685476Y-13188762D02*
X8685476Y-13293524D01*
X8685476Y-13188762D02*
X8695000Y-13169714D01*
X8695000Y-13169714D02*
X8714048Y-13160190D01*
X8714048Y-13160190D02*
X8742619Y-13160190D01*
X8742619Y-13160190D02*
X8761667Y-13169714D01*
X8761667Y-13169714D02*
X8771191Y-13188762D01*
X8771191Y-13188762D02*
X8771191Y-13293524D01*
X8866429Y-13293524D02*
X8866429Y-13160190D01*
X8866429Y-13179238D02*
X8875952Y-13169714D01*
X8875952Y-13169714D02*
X8895000Y-13160190D01*
X8895000Y-13160190D02*
X8923572Y-13160190D01*
X8923572Y-13160190D02*
X8942619Y-13169714D01*
X8942619Y-13169714D02*
X8952143Y-13188762D01*
X8952143Y-13188762D02*
X8952143Y-13293524D01*
X8952143Y-13188762D02*
X8961667Y-13169714D01*
X8961667Y-13169714D02*
X8980714Y-13160190D01*
X8980714Y-13160190D02*
X9009286Y-13160190D01*
X9009286Y-13160190D02*
X9028333Y-13169714D01*
X9028333Y-13169714D02*
X9037857Y-13188762D01*
X9037857Y-13188762D02*
X9037857Y-13293524D01*
X9428333Y-13084000D02*
X9256905Y-13341143D01*
X9685476Y-13093524D02*
X9704524Y-13093524D01*
X9704524Y-13093524D02*
X9723572Y-13103048D01*
X9723572Y-13103048D02*
X9733095Y-13112571D01*
X9733095Y-13112571D02*
X9742619Y-13131619D01*
X9742619Y-13131619D02*
X9752143Y-13169714D01*
X9752143Y-13169714D02*
X9752143Y-13217333D01*
X9752143Y-13217333D02*
X9742619Y-13255428D01*
X9742619Y-13255428D02*
X9733095Y-13274476D01*
X9733095Y-13274476D02*
X9723572Y-13284000D01*
X9723572Y-13284000D02*
X9704524Y-13293524D01*
X9704524Y-13293524D02*
X9685476Y-13293524D01*
X9685476Y-13293524D02*
X9666429Y-13284000D01*
X9666429Y-13284000D02*
X9656905Y-13274476D01*
X9656905Y-13274476D02*
X9647381Y-13255428D01*
X9647381Y-13255428D02*
X9637857Y-13217333D01*
X9637857Y-13217333D02*
X9637857Y-13169714D01*
X9637857Y-13169714D02*
X9647381Y-13131619D01*
X9647381Y-13131619D02*
X9656905Y-13112571D01*
X9656905Y-13112571D02*
X9666429Y-13103048D01*
X9666429Y-13103048D02*
X9685476Y-13093524D01*
X9837857Y-13274476D02*
X9847381Y-13284000D01*
X9847381Y-13284000D02*
X9837857Y-13293524D01*
X9837857Y-13293524D02*
X9828334Y-13284000D01*
X9828334Y-13284000D02*
X9837857Y-13274476D01*
X9837857Y-13274476D02*
X9837857Y-13293524D01*
X9971191Y-13093524D02*
X9990238Y-13093524D01*
X9990238Y-13093524D02*
X10009286Y-13103048D01*
X10009286Y-13103048D02*
X10018810Y-13112571D01*
X10018810Y-13112571D02*
X10028334Y-13131619D01*
X10028334Y-13131619D02*
X10037857Y-13169714D01*
X10037857Y-13169714D02*
X10037857Y-13217333D01*
X10037857Y-13217333D02*
X10028334Y-13255428D01*
X10028334Y-13255428D02*
X10018810Y-13274476D01*
X10018810Y-13274476D02*
X10009286Y-13284000D01*
X10009286Y-13284000D02*
X9990238Y-13293524D01*
X9990238Y-13293524D02*
X9971191Y-13293524D01*
X9971191Y-13293524D02*
X9952143Y-13284000D01*
X9952143Y-13284000D02*
X9942619Y-13274476D01*
X9942619Y-13274476D02*
X9933095Y-13255428D01*
X9933095Y-13255428D02*
X9923572Y-13217333D01*
X9923572Y-13217333D02*
X9923572Y-13169714D01*
X9923572Y-13169714D02*
X9933095Y-13131619D01*
X9933095Y-13131619D02*
X9942619Y-13112571D01*
X9942619Y-13112571D02*
X9952143Y-13103048D01*
X9952143Y-13103048D02*
X9971191Y-13093524D01*
X10152143Y-13179238D02*
X10133095Y-13169714D01*
X10133095Y-13169714D02*
X10123572Y-13160190D01*
X10123572Y-13160190D02*
X10114048Y-13141143D01*
X10114048Y-13141143D02*
X10114048Y-13131619D01*
X10114048Y-13131619D02*
X10123572Y-13112571D01*
X10123572Y-13112571D02*
X10133095Y-13103048D01*
X10133095Y-13103048D02*
X10152143Y-13093524D01*
X10152143Y-13093524D02*
X10190238Y-13093524D01*
X10190238Y-13093524D02*
X10209286Y-13103048D01*
X10209286Y-13103048D02*
X10218810Y-13112571D01*
X10218810Y-13112571D02*
X10228334Y-13131619D01*
X10228334Y-13131619D02*
X10228334Y-13141143D01*
X10228334Y-13141143D02*
X10218810Y-13160190D01*
X10218810Y-13160190D02*
X10209286Y-13169714D01*
X10209286Y-13169714D02*
X10190238Y-13179238D01*
X10190238Y-13179238D02*
X10152143Y-13179238D01*
X10152143Y-13179238D02*
X10133095Y-13188762D01*
X10133095Y-13188762D02*
X10123572Y-13198286D01*
X10123572Y-13198286D02*
X10114048Y-13217333D01*
X10114048Y-13217333D02*
X10114048Y-13255428D01*
X10114048Y-13255428D02*
X10123572Y-13274476D01*
X10123572Y-13274476D02*
X10133095Y-13284000D01*
X10133095Y-13284000D02*
X10152143Y-13293524D01*
X10152143Y-13293524D02*
X10190238Y-13293524D01*
X10190238Y-13293524D02*
X10209286Y-13284000D01*
X10209286Y-13284000D02*
X10218810Y-13274476D01*
X10218810Y-13274476D02*
X10228334Y-13255428D01*
X10228334Y-13255428D02*
X10228334Y-13217333D01*
X10228334Y-13217333D02*
X10218810Y-13198286D01*
X10218810Y-13198286D02*
X10209286Y-13188762D01*
X10209286Y-13188762D02*
X10190238Y-13179238D01*
X10399762Y-13093524D02*
X10361667Y-13093524D01*
X10361667Y-13093524D02*
X10342619Y-13103048D01*
X10342619Y-13103048D02*
X10333095Y-13112571D01*
X10333095Y-13112571D02*
X10314048Y-13141143D01*
X10314048Y-13141143D02*
X10304524Y-13179238D01*
X10304524Y-13179238D02*
X10304524Y-13255428D01*
X10304524Y-13255428D02*
X10314048Y-13274476D01*
X10314048Y-13274476D02*
X10323572Y-13284000D01*
X10323572Y-13284000D02*
X10342619Y-13293524D01*
X10342619Y-13293524D02*
X10380715Y-13293524D01*
X10380715Y-13293524D02*
X10399762Y-13284000D01*
X10399762Y-13284000D02*
X10409286Y-13274476D01*
X10409286Y-13274476D02*
X10418810Y-13255428D01*
X10418810Y-13255428D02*
X10418810Y-13207809D01*
X10418810Y-13207809D02*
X10409286Y-13188762D01*
X10409286Y-13188762D02*
X10399762Y-13179238D01*
X10399762Y-13179238D02*
X10380715Y-13169714D01*
X10380715Y-13169714D02*
X10342619Y-13169714D01*
X10342619Y-13169714D02*
X10323572Y-13179238D01*
X10323572Y-13179238D02*
X10314048Y-13188762D01*
X10314048Y-13188762D02*
X10304524Y-13207809D01*
X10590238Y-13093524D02*
X10552143Y-13093524D01*
X10552143Y-13093524D02*
X10533095Y-13103048D01*
X10533095Y-13103048D02*
X10523572Y-13112571D01*
X10523572Y-13112571D02*
X10504524Y-13141143D01*
X10504524Y-13141143D02*
X10495000Y-13179238D01*
X10495000Y-13179238D02*
X10495000Y-13255428D01*
X10495000Y-13255428D02*
X10504524Y-13274476D01*
X10504524Y-13274476D02*
X10514048Y-13284000D01*
X10514048Y-13284000D02*
X10533095Y-13293524D01*
X10533095Y-13293524D02*
X10571191Y-13293524D01*
X10571191Y-13293524D02*
X10590238Y-13284000D01*
X10590238Y-13284000D02*
X10599762Y-13274476D01*
X10599762Y-13274476D02*
X10609286Y-13255428D01*
X10609286Y-13255428D02*
X10609286Y-13207809D01*
X10609286Y-13207809D02*
X10599762Y-13188762D01*
X10599762Y-13188762D02*
X10590238Y-13179238D01*
X10590238Y-13179238D02*
X10571191Y-13169714D01*
X10571191Y-13169714D02*
X10533095Y-13169714D01*
X10533095Y-13169714D02*
X10514048Y-13179238D01*
X10514048Y-13179238D02*
X10504524Y-13188762D01*
X10504524Y-13188762D02*
X10495000Y-13207809D01*
X10685476Y-13093524D02*
X10685476Y-13131619D01*
X10761667Y-13093524D02*
X10761667Y-13131619D01*
X11056905Y-13369714D02*
X11047381Y-13360190D01*
X11047381Y-13360190D02*
X11028334Y-13331619D01*
X11028334Y-13331619D02*
X11018810Y-13312571D01*
X11018810Y-13312571D02*
X11009286Y-13284000D01*
X11009286Y-13284000D02*
X10999762Y-13236381D01*
X10999762Y-13236381D02*
X10999762Y-13198286D01*
X10999762Y-13198286D02*
X11009286Y-13150667D01*
X11009286Y-13150667D02*
X11018810Y-13122095D01*
X11018810Y-13122095D02*
X11028334Y-13103048D01*
X11028334Y-13103048D02*
X11047381Y-13074476D01*
X11047381Y-13074476D02*
X11056905Y-13064952D01*
X11237857Y-13293524D02*
X11123572Y-13293524D01*
X11180715Y-13293524D02*
X11180715Y-13093524D01*
X11180715Y-13093524D02*
X11161667Y-13122095D01*
X11161667Y-13122095D02*
X11142619Y-13141143D01*
X11142619Y-13141143D02*
X11123572Y-13150667D01*
X11475953Y-13293524D02*
X11475953Y-13093524D01*
X11561667Y-13293524D02*
X11561667Y-13188762D01*
X11561667Y-13188762D02*
X11552143Y-13169714D01*
X11552143Y-13169714D02*
X11533096Y-13160190D01*
X11533096Y-13160190D02*
X11504524Y-13160190D01*
X11504524Y-13160190D02*
X11485476Y-13169714D01*
X11485476Y-13169714D02*
X11475953Y-13179238D01*
X11685476Y-13293524D02*
X11666429Y-13284000D01*
X11666429Y-13284000D02*
X11656905Y-13274476D01*
X11656905Y-13274476D02*
X11647381Y-13255428D01*
X11647381Y-13255428D02*
X11647381Y-13198286D01*
X11647381Y-13198286D02*
X11656905Y-13179238D01*
X11656905Y-13179238D02*
X11666429Y-13169714D01*
X11666429Y-13169714D02*
X11685476Y-13160190D01*
X11685476Y-13160190D02*
X11714048Y-13160190D01*
X11714048Y-13160190D02*
X11733096Y-13169714D01*
X11733096Y-13169714D02*
X11742619Y-13179238D01*
X11742619Y-13179238D02*
X11752143Y-13198286D01*
X11752143Y-13198286D02*
X11752143Y-13255428D01*
X11752143Y-13255428D02*
X11742619Y-13274476D01*
X11742619Y-13274476D02*
X11733096Y-13284000D01*
X11733096Y-13284000D02*
X11714048Y-13293524D01*
X11714048Y-13293524D02*
X11685476Y-13293524D01*
X11866429Y-13293524D02*
X11847381Y-13284000D01*
X11847381Y-13284000D02*
X11837857Y-13264952D01*
X11837857Y-13264952D02*
X11837857Y-13093524D01*
X12018810Y-13284000D02*
X11999762Y-13293524D01*
X11999762Y-13293524D02*
X11961667Y-13293524D01*
X11961667Y-13293524D02*
X11942619Y-13284000D01*
X11942619Y-13284000D02*
X11933096Y-13264952D01*
X11933096Y-13264952D02*
X11933096Y-13188762D01*
X11933096Y-13188762D02*
X11942619Y-13169714D01*
X11942619Y-13169714D02*
X11961667Y-13160190D01*
X11961667Y-13160190D02*
X11999762Y-13160190D01*
X11999762Y-13160190D02*
X12018810Y-13169714D01*
X12018810Y-13169714D02*
X12028334Y-13188762D01*
X12028334Y-13188762D02*
X12028334Y-13207809D01*
X12028334Y-13207809D02*
X11933096Y-13226857D01*
X12095000Y-13369714D02*
X12104524Y-13360190D01*
X12104524Y-13360190D02*
X12123572Y-13331619D01*
X12123572Y-13331619D02*
X12133096Y-13312571D01*
X12133096Y-13312571D02*
X12142619Y-13284000D01*
X12142619Y-13284000D02*
X12152143Y-13236381D01*
X12152143Y-13236381D02*
X12152143Y-13198286D01*
X12152143Y-13198286D02*
X12142619Y-13150667D01*
X12142619Y-13150667D02*
X12133096Y-13122095D01*
X12133096Y-13122095D02*
X12123572Y-13103048D01*
X12123572Y-13103048D02*
X12104524Y-13074476D01*
X12104524Y-13074476D02*
X12095000Y-13064952D01*
X7295000Y-13421000D02*
X7495000Y-13621000D01*
X7495000Y-13421000D02*
X7295000Y-13621000D01*
X7495000Y-13521000D02*
G75*
G03*
X7495000Y-13521000I-100000J0D01*
G01*
X7733095Y-13432571D02*
X7742619Y-13423048D01*
X7742619Y-13423048D02*
X7761667Y-13413524D01*
X7761667Y-13413524D02*
X7809286Y-13413524D01*
X7809286Y-13413524D02*
X7828333Y-13423048D01*
X7828333Y-13423048D02*
X7837857Y-13432571D01*
X7837857Y-13432571D02*
X7847381Y-13451619D01*
X7847381Y-13451619D02*
X7847381Y-13470667D01*
X7847381Y-13470667D02*
X7837857Y-13499238D01*
X7837857Y-13499238D02*
X7723571Y-13613524D01*
X7723571Y-13613524D02*
X7847381Y-13613524D01*
X7933095Y-13594476D02*
X7942619Y-13604000D01*
X7942619Y-13604000D02*
X7933095Y-13613524D01*
X7933095Y-13613524D02*
X7923571Y-13604000D01*
X7923571Y-13604000D02*
X7933095Y-13594476D01*
X7933095Y-13594476D02*
X7933095Y-13613524D01*
X8009286Y-13413524D02*
X8142619Y-13413524D01*
X8142619Y-13413524D02*
X8056905Y-13613524D01*
X8256905Y-13413524D02*
X8275952Y-13413524D01*
X8275952Y-13413524D02*
X8295000Y-13423048D01*
X8295000Y-13423048D02*
X8304524Y-13432571D01*
X8304524Y-13432571D02*
X8314048Y-13451619D01*
X8314048Y-13451619D02*
X8323571Y-13489714D01*
X8323571Y-13489714D02*
X8323571Y-13537333D01*
X8323571Y-13537333D02*
X8314048Y-13575428D01*
X8314048Y-13575428D02*
X8304524Y-13594476D01*
X8304524Y-13594476D02*
X8295000Y-13604000D01*
X8295000Y-13604000D02*
X8275952Y-13613524D01*
X8275952Y-13613524D02*
X8256905Y-13613524D01*
X8256905Y-13613524D02*
X8237857Y-13604000D01*
X8237857Y-13604000D02*
X8228333Y-13594476D01*
X8228333Y-13594476D02*
X8218809Y-13575428D01*
X8218809Y-13575428D02*
X8209286Y-13537333D01*
X8209286Y-13537333D02*
X8209286Y-13489714D01*
X8209286Y-13489714D02*
X8218809Y-13451619D01*
X8218809Y-13451619D02*
X8228333Y-13432571D01*
X8228333Y-13432571D02*
X8237857Y-13423048D01*
X8237857Y-13423048D02*
X8256905Y-13413524D01*
X8447381Y-13413524D02*
X8466429Y-13413524D01*
X8466429Y-13413524D02*
X8485476Y-13423048D01*
X8485476Y-13423048D02*
X8495000Y-13432571D01*
X8495000Y-13432571D02*
X8504524Y-13451619D01*
X8504524Y-13451619D02*
X8514048Y-13489714D01*
X8514048Y-13489714D02*
X8514048Y-13537333D01*
X8514048Y-13537333D02*
X8504524Y-13575428D01*
X8504524Y-13575428D02*
X8495000Y-13594476D01*
X8495000Y-13594476D02*
X8485476Y-13604000D01*
X8485476Y-13604000D02*
X8466429Y-13613524D01*
X8466429Y-13613524D02*
X8447381Y-13613524D01*
X8447381Y-13613524D02*
X8428333Y-13604000D01*
X8428333Y-13604000D02*
X8418810Y-13594476D01*
X8418810Y-13594476D02*
X8409286Y-13575428D01*
X8409286Y-13575428D02*
X8399762Y-13537333D01*
X8399762Y-13537333D02*
X8399762Y-13489714D01*
X8399762Y-13489714D02*
X8409286Y-13451619D01*
X8409286Y-13451619D02*
X8418810Y-13432571D01*
X8418810Y-13432571D02*
X8428333Y-13423048D01*
X8428333Y-13423048D02*
X8447381Y-13413524D01*
X8599762Y-13613524D02*
X8599762Y-13480190D01*
X8599762Y-13499238D02*
X8609286Y-13489714D01*
X8609286Y-13489714D02*
X8628333Y-13480190D01*
X8628333Y-13480190D02*
X8656905Y-13480190D01*
X8656905Y-13480190D02*
X8675952Y-13489714D01*
X8675952Y-13489714D02*
X8685476Y-13508762D01*
X8685476Y-13508762D02*
X8685476Y-13613524D01*
X8685476Y-13508762D02*
X8695000Y-13489714D01*
X8695000Y-13489714D02*
X8714048Y-13480190D01*
X8714048Y-13480190D02*
X8742619Y-13480190D01*
X8742619Y-13480190D02*
X8761667Y-13489714D01*
X8761667Y-13489714D02*
X8771191Y-13508762D01*
X8771191Y-13508762D02*
X8771191Y-13613524D01*
X8866429Y-13613524D02*
X8866429Y-13480190D01*
X8866429Y-13499238D02*
X8875952Y-13489714D01*
X8875952Y-13489714D02*
X8895000Y-13480190D01*
X8895000Y-13480190D02*
X8923572Y-13480190D01*
X8923572Y-13480190D02*
X8942619Y-13489714D01*
X8942619Y-13489714D02*
X8952143Y-13508762D01*
X8952143Y-13508762D02*
X8952143Y-13613524D01*
X8952143Y-13508762D02*
X8961667Y-13489714D01*
X8961667Y-13489714D02*
X8980714Y-13480190D01*
X8980714Y-13480190D02*
X9009286Y-13480190D01*
X9009286Y-13480190D02*
X9028333Y-13489714D01*
X9028333Y-13489714D02*
X9037857Y-13508762D01*
X9037857Y-13508762D02*
X9037857Y-13613524D01*
X9428333Y-13404000D02*
X9256905Y-13661143D01*
X9685476Y-13413524D02*
X9704524Y-13413524D01*
X9704524Y-13413524D02*
X9723572Y-13423048D01*
X9723572Y-13423048D02*
X9733095Y-13432571D01*
X9733095Y-13432571D02*
X9742619Y-13451619D01*
X9742619Y-13451619D02*
X9752143Y-13489714D01*
X9752143Y-13489714D02*
X9752143Y-13537333D01*
X9752143Y-13537333D02*
X9742619Y-13575428D01*
X9742619Y-13575428D02*
X9733095Y-13594476D01*
X9733095Y-13594476D02*
X9723572Y-13604000D01*
X9723572Y-13604000D02*
X9704524Y-13613524D01*
X9704524Y-13613524D02*
X9685476Y-13613524D01*
X9685476Y-13613524D02*
X9666429Y-13604000D01*
X9666429Y-13604000D02*
X9656905Y-13594476D01*
X9656905Y-13594476D02*
X9647381Y-13575428D01*
X9647381Y-13575428D02*
X9637857Y-13537333D01*
X9637857Y-13537333D02*
X9637857Y-13489714D01*
X9637857Y-13489714D02*
X9647381Y-13451619D01*
X9647381Y-13451619D02*
X9656905Y-13432571D01*
X9656905Y-13432571D02*
X9666429Y-13423048D01*
X9666429Y-13423048D02*
X9685476Y-13413524D01*
X9837857Y-13594476D02*
X9847381Y-13604000D01*
X9847381Y-13604000D02*
X9837857Y-13613524D01*
X9837857Y-13613524D02*
X9828334Y-13604000D01*
X9828334Y-13604000D02*
X9837857Y-13594476D01*
X9837857Y-13594476D02*
X9837857Y-13613524D01*
X10037857Y-13613524D02*
X9923572Y-13613524D01*
X9980714Y-13613524D02*
X9980714Y-13413524D01*
X9980714Y-13413524D02*
X9961667Y-13442095D01*
X9961667Y-13442095D02*
X9942619Y-13461143D01*
X9942619Y-13461143D02*
X9923572Y-13470667D01*
X10161667Y-13413524D02*
X10180715Y-13413524D01*
X10180715Y-13413524D02*
X10199762Y-13423048D01*
X10199762Y-13423048D02*
X10209286Y-13432571D01*
X10209286Y-13432571D02*
X10218810Y-13451619D01*
X10218810Y-13451619D02*
X10228334Y-13489714D01*
X10228334Y-13489714D02*
X10228334Y-13537333D01*
X10228334Y-13537333D02*
X10218810Y-13575428D01*
X10218810Y-13575428D02*
X10209286Y-13594476D01*
X10209286Y-13594476D02*
X10199762Y-13604000D01*
X10199762Y-13604000D02*
X10180715Y-13613524D01*
X10180715Y-13613524D02*
X10161667Y-13613524D01*
X10161667Y-13613524D02*
X10142619Y-13604000D01*
X10142619Y-13604000D02*
X10133095Y-13594476D01*
X10133095Y-13594476D02*
X10123572Y-13575428D01*
X10123572Y-13575428D02*
X10114048Y-13537333D01*
X10114048Y-13537333D02*
X10114048Y-13489714D01*
X10114048Y-13489714D02*
X10123572Y-13451619D01*
X10123572Y-13451619D02*
X10133095Y-13432571D01*
X10133095Y-13432571D02*
X10142619Y-13423048D01*
X10142619Y-13423048D02*
X10161667Y-13413524D01*
X10399762Y-13413524D02*
X10361667Y-13413524D01*
X10361667Y-13413524D02*
X10342619Y-13423048D01*
X10342619Y-13423048D02*
X10333095Y-13432571D01*
X10333095Y-13432571D02*
X10314048Y-13461143D01*
X10314048Y-13461143D02*
X10304524Y-13499238D01*
X10304524Y-13499238D02*
X10304524Y-13575428D01*
X10304524Y-13575428D02*
X10314048Y-13594476D01*
X10314048Y-13594476D02*
X10323572Y-13604000D01*
X10323572Y-13604000D02*
X10342619Y-13613524D01*
X10342619Y-13613524D02*
X10380715Y-13613524D01*
X10380715Y-13613524D02*
X10399762Y-13604000D01*
X10399762Y-13604000D02*
X10409286Y-13594476D01*
X10409286Y-13594476D02*
X10418810Y-13575428D01*
X10418810Y-13575428D02*
X10418810Y-13527809D01*
X10418810Y-13527809D02*
X10409286Y-13508762D01*
X10409286Y-13508762D02*
X10399762Y-13499238D01*
X10399762Y-13499238D02*
X10380715Y-13489714D01*
X10380715Y-13489714D02*
X10342619Y-13489714D01*
X10342619Y-13489714D02*
X10323572Y-13499238D01*
X10323572Y-13499238D02*
X10314048Y-13508762D01*
X10314048Y-13508762D02*
X10304524Y-13527809D01*
X10485476Y-13413524D02*
X10609286Y-13413524D01*
X10609286Y-13413524D02*
X10542619Y-13489714D01*
X10542619Y-13489714D02*
X10571191Y-13489714D01*
X10571191Y-13489714D02*
X10590238Y-13499238D01*
X10590238Y-13499238D02*
X10599762Y-13508762D01*
X10599762Y-13508762D02*
X10609286Y-13527809D01*
X10609286Y-13527809D02*
X10609286Y-13575428D01*
X10609286Y-13575428D02*
X10599762Y-13594476D01*
X10599762Y-13594476D02*
X10590238Y-13604000D01*
X10590238Y-13604000D02*
X10571191Y-13613524D01*
X10571191Y-13613524D02*
X10514048Y-13613524D01*
X10514048Y-13613524D02*
X10495000Y-13604000D01*
X10495000Y-13604000D02*
X10485476Y-13594476D01*
X10685476Y-13413524D02*
X10685476Y-13451619D01*
X10761667Y-13413524D02*
X10761667Y-13451619D01*
X11056905Y-13689714D02*
X11047381Y-13680190D01*
X11047381Y-13680190D02*
X11028334Y-13651619D01*
X11028334Y-13651619D02*
X11018810Y-13632571D01*
X11018810Y-13632571D02*
X11009286Y-13604000D01*
X11009286Y-13604000D02*
X10999762Y-13556381D01*
X10999762Y-13556381D02*
X10999762Y-13518286D01*
X10999762Y-13518286D02*
X11009286Y-13470667D01*
X11009286Y-13470667D02*
X11018810Y-13442095D01*
X11018810Y-13442095D02*
X11028334Y-13423048D01*
X11028334Y-13423048D02*
X11047381Y-13394476D01*
X11047381Y-13394476D02*
X11056905Y-13384952D01*
X11237857Y-13613524D02*
X11123572Y-13613524D01*
X11180715Y-13613524D02*
X11180715Y-13413524D01*
X11180715Y-13413524D02*
X11161667Y-13442095D01*
X11161667Y-13442095D02*
X11142619Y-13461143D01*
X11142619Y-13461143D02*
X11123572Y-13470667D01*
X11475953Y-13613524D02*
X11475953Y-13413524D01*
X11561667Y-13613524D02*
X11561667Y-13508762D01*
X11561667Y-13508762D02*
X11552143Y-13489714D01*
X11552143Y-13489714D02*
X11533096Y-13480190D01*
X11533096Y-13480190D02*
X11504524Y-13480190D01*
X11504524Y-13480190D02*
X11485476Y-13489714D01*
X11485476Y-13489714D02*
X11475953Y-13499238D01*
X11685476Y-13613524D02*
X11666429Y-13604000D01*
X11666429Y-13604000D02*
X11656905Y-13594476D01*
X11656905Y-13594476D02*
X11647381Y-13575428D01*
X11647381Y-13575428D02*
X11647381Y-13518286D01*
X11647381Y-13518286D02*
X11656905Y-13499238D01*
X11656905Y-13499238D02*
X11666429Y-13489714D01*
X11666429Y-13489714D02*
X11685476Y-13480190D01*
X11685476Y-13480190D02*
X11714048Y-13480190D01*
X11714048Y-13480190D02*
X11733096Y-13489714D01*
X11733096Y-13489714D02*
X11742619Y-13499238D01*
X11742619Y-13499238D02*
X11752143Y-13518286D01*
X11752143Y-13518286D02*
X11752143Y-13575428D01*
X11752143Y-13575428D02*
X11742619Y-13594476D01*
X11742619Y-13594476D02*
X11733096Y-13604000D01*
X11733096Y-13604000D02*
X11714048Y-13613524D01*
X11714048Y-13613524D02*
X11685476Y-13613524D01*
X11866429Y-13613524D02*
X11847381Y-13604000D01*
X11847381Y-13604000D02*
X11837857Y-13584952D01*
X11837857Y-13584952D02*
X11837857Y-13413524D01*
X12018810Y-13604000D02*
X11999762Y-13613524D01*
X11999762Y-13613524D02*
X11961667Y-13613524D01*
X11961667Y-13613524D02*
X11942619Y-13604000D01*
X11942619Y-13604000D02*
X11933096Y-13584952D01*
X11933096Y-13584952D02*
X11933096Y-13508762D01*
X11933096Y-13508762D02*
X11942619Y-13489714D01*
X11942619Y-13489714D02*
X11961667Y-13480190D01*
X11961667Y-13480190D02*
X11999762Y-13480190D01*
X11999762Y-13480190D02*
X12018810Y-13489714D01*
X12018810Y-13489714D02*
X12028334Y-13508762D01*
X12028334Y-13508762D02*
X12028334Y-13527809D01*
X12028334Y-13527809D02*
X11933096Y-13546857D01*
X12095000Y-13689714D02*
X12104524Y-13680190D01*
X12104524Y-13680190D02*
X12123572Y-13651619D01*
X12123572Y-13651619D02*
X12133096Y-13632571D01*
X12133096Y-13632571D02*
X12142619Y-13604000D01*
X12142619Y-13604000D02*
X12152143Y-13556381D01*
X12152143Y-13556381D02*
X12152143Y-13518286D01*
X12152143Y-13518286D02*
X12142619Y-13470667D01*
X12142619Y-13470667D02*
X12133096Y-13442095D01*
X12133096Y-13442095D02*
X12123572Y-13423048D01*
X12123572Y-13423048D02*
X12104524Y-13394476D01*
X12104524Y-13394476D02*
X12095000Y-13384952D01*
X7295000Y-13741000D02*
X7495000Y-13941000D01*
X7495000Y-13741000D02*
X7295000Y-13941000D01*
X7395000Y-13741000D02*
X7395000Y-13941000D01*
X7295000Y-13841000D02*
X7495000Y-13841000D01*
X7723571Y-13733524D02*
X7847381Y-13733524D01*
X7847381Y-13733524D02*
X7780714Y-13809714D01*
X7780714Y-13809714D02*
X7809286Y-13809714D01*
X7809286Y-13809714D02*
X7828333Y-13819238D01*
X7828333Y-13819238D02*
X7837857Y-13828762D01*
X7837857Y-13828762D02*
X7847381Y-13847809D01*
X7847381Y-13847809D02*
X7847381Y-13895428D01*
X7847381Y-13895428D02*
X7837857Y-13914476D01*
X7837857Y-13914476D02*
X7828333Y-13924000D01*
X7828333Y-13924000D02*
X7809286Y-13933524D01*
X7809286Y-13933524D02*
X7752143Y-13933524D01*
X7752143Y-13933524D02*
X7733095Y-13924000D01*
X7733095Y-13924000D02*
X7723571Y-13914476D01*
X7933095Y-13914476D02*
X7942619Y-13924000D01*
X7942619Y-13924000D02*
X7933095Y-13933524D01*
X7933095Y-13933524D02*
X7923571Y-13924000D01*
X7923571Y-13924000D02*
X7933095Y-13914476D01*
X7933095Y-13914476D02*
X7933095Y-13933524D01*
X8018809Y-13752571D02*
X8028333Y-13743048D01*
X8028333Y-13743048D02*
X8047381Y-13733524D01*
X8047381Y-13733524D02*
X8095000Y-13733524D01*
X8095000Y-13733524D02*
X8114048Y-13743048D01*
X8114048Y-13743048D02*
X8123571Y-13752571D01*
X8123571Y-13752571D02*
X8133095Y-13771619D01*
X8133095Y-13771619D02*
X8133095Y-13790667D01*
X8133095Y-13790667D02*
X8123571Y-13819238D01*
X8123571Y-13819238D02*
X8009286Y-13933524D01*
X8009286Y-13933524D02*
X8133095Y-13933524D01*
X8256905Y-13733524D02*
X8275952Y-13733524D01*
X8275952Y-13733524D02*
X8295000Y-13743048D01*
X8295000Y-13743048D02*
X8304524Y-13752571D01*
X8304524Y-13752571D02*
X8314048Y-13771619D01*
X8314048Y-13771619D02*
X8323571Y-13809714D01*
X8323571Y-13809714D02*
X8323571Y-13857333D01*
X8323571Y-13857333D02*
X8314048Y-13895428D01*
X8314048Y-13895428D02*
X8304524Y-13914476D01*
X8304524Y-13914476D02*
X8295000Y-13924000D01*
X8295000Y-13924000D02*
X8275952Y-13933524D01*
X8275952Y-13933524D02*
X8256905Y-13933524D01*
X8256905Y-13933524D02*
X8237857Y-13924000D01*
X8237857Y-13924000D02*
X8228333Y-13914476D01*
X8228333Y-13914476D02*
X8218809Y-13895428D01*
X8218809Y-13895428D02*
X8209286Y-13857333D01*
X8209286Y-13857333D02*
X8209286Y-13809714D01*
X8209286Y-13809714D02*
X8218809Y-13771619D01*
X8218809Y-13771619D02*
X8228333Y-13752571D01*
X8228333Y-13752571D02*
X8237857Y-13743048D01*
X8237857Y-13743048D02*
X8256905Y-13733524D01*
X8447381Y-13733524D02*
X8466429Y-13733524D01*
X8466429Y-13733524D02*
X8485476Y-13743048D01*
X8485476Y-13743048D02*
X8495000Y-13752571D01*
X8495000Y-13752571D02*
X8504524Y-13771619D01*
X8504524Y-13771619D02*
X8514048Y-13809714D01*
X8514048Y-13809714D02*
X8514048Y-13857333D01*
X8514048Y-13857333D02*
X8504524Y-13895428D01*
X8504524Y-13895428D02*
X8495000Y-13914476D01*
X8495000Y-13914476D02*
X8485476Y-13924000D01*
X8485476Y-13924000D02*
X8466429Y-13933524D01*
X8466429Y-13933524D02*
X8447381Y-13933524D01*
X8447381Y-13933524D02*
X8428333Y-13924000D01*
X8428333Y-13924000D02*
X8418810Y-13914476D01*
X8418810Y-13914476D02*
X8409286Y-13895428D01*
X8409286Y-13895428D02*
X8399762Y-13857333D01*
X8399762Y-13857333D02*
X8399762Y-13809714D01*
X8399762Y-13809714D02*
X8409286Y-13771619D01*
X8409286Y-13771619D02*
X8418810Y-13752571D01*
X8418810Y-13752571D02*
X8428333Y-13743048D01*
X8428333Y-13743048D02*
X8447381Y-13733524D01*
X8599762Y-13933524D02*
X8599762Y-13800190D01*
X8599762Y-13819238D02*
X8609286Y-13809714D01*
X8609286Y-13809714D02*
X8628333Y-13800190D01*
X8628333Y-13800190D02*
X8656905Y-13800190D01*
X8656905Y-13800190D02*
X8675952Y-13809714D01*
X8675952Y-13809714D02*
X8685476Y-13828762D01*
X8685476Y-13828762D02*
X8685476Y-13933524D01*
X8685476Y-13828762D02*
X8695000Y-13809714D01*
X8695000Y-13809714D02*
X8714048Y-13800190D01*
X8714048Y-13800190D02*
X8742619Y-13800190D01*
X8742619Y-13800190D02*
X8761667Y-13809714D01*
X8761667Y-13809714D02*
X8771191Y-13828762D01*
X8771191Y-13828762D02*
X8771191Y-13933524D01*
X8866429Y-13933524D02*
X8866429Y-13800190D01*
X8866429Y-13819238D02*
X8875952Y-13809714D01*
X8875952Y-13809714D02*
X8895000Y-13800190D01*
X8895000Y-13800190D02*
X8923572Y-13800190D01*
X8923572Y-13800190D02*
X8942619Y-13809714D01*
X8942619Y-13809714D02*
X8952143Y-13828762D01*
X8952143Y-13828762D02*
X8952143Y-13933524D01*
X8952143Y-13828762D02*
X8961667Y-13809714D01*
X8961667Y-13809714D02*
X8980714Y-13800190D01*
X8980714Y-13800190D02*
X9009286Y-13800190D01*
X9009286Y-13800190D02*
X9028333Y-13809714D01*
X9028333Y-13809714D02*
X9037857Y-13828762D01*
X9037857Y-13828762D02*
X9037857Y-13933524D01*
X9428333Y-13724000D02*
X9256905Y-13981143D01*
X9685476Y-13733524D02*
X9704524Y-13733524D01*
X9704524Y-13733524D02*
X9723572Y-13743048D01*
X9723572Y-13743048D02*
X9733095Y-13752571D01*
X9733095Y-13752571D02*
X9742619Y-13771619D01*
X9742619Y-13771619D02*
X9752143Y-13809714D01*
X9752143Y-13809714D02*
X9752143Y-13857333D01*
X9752143Y-13857333D02*
X9742619Y-13895428D01*
X9742619Y-13895428D02*
X9733095Y-13914476D01*
X9733095Y-13914476D02*
X9723572Y-13924000D01*
X9723572Y-13924000D02*
X9704524Y-13933524D01*
X9704524Y-13933524D02*
X9685476Y-13933524D01*
X9685476Y-13933524D02*
X9666429Y-13924000D01*
X9666429Y-13924000D02*
X9656905Y-13914476D01*
X9656905Y-13914476D02*
X9647381Y-13895428D01*
X9647381Y-13895428D02*
X9637857Y-13857333D01*
X9637857Y-13857333D02*
X9637857Y-13809714D01*
X9637857Y-13809714D02*
X9647381Y-13771619D01*
X9647381Y-13771619D02*
X9656905Y-13752571D01*
X9656905Y-13752571D02*
X9666429Y-13743048D01*
X9666429Y-13743048D02*
X9685476Y-13733524D01*
X9837857Y-13914476D02*
X9847381Y-13924000D01*
X9847381Y-13924000D02*
X9837857Y-13933524D01*
X9837857Y-13933524D02*
X9828334Y-13924000D01*
X9828334Y-13924000D02*
X9837857Y-13914476D01*
X9837857Y-13914476D02*
X9837857Y-13933524D01*
X10037857Y-13933524D02*
X9923572Y-13933524D01*
X9980714Y-13933524D02*
X9980714Y-13733524D01*
X9980714Y-13733524D02*
X9961667Y-13762095D01*
X9961667Y-13762095D02*
X9942619Y-13781143D01*
X9942619Y-13781143D02*
X9923572Y-13790667D01*
X10114048Y-13752571D02*
X10123572Y-13743048D01*
X10123572Y-13743048D02*
X10142619Y-13733524D01*
X10142619Y-13733524D02*
X10190238Y-13733524D01*
X10190238Y-13733524D02*
X10209286Y-13743048D01*
X10209286Y-13743048D02*
X10218810Y-13752571D01*
X10218810Y-13752571D02*
X10228334Y-13771619D01*
X10228334Y-13771619D02*
X10228334Y-13790667D01*
X10228334Y-13790667D02*
X10218810Y-13819238D01*
X10218810Y-13819238D02*
X10104524Y-13933524D01*
X10104524Y-13933524D02*
X10228334Y-13933524D01*
X10399762Y-13733524D02*
X10361667Y-13733524D01*
X10361667Y-13733524D02*
X10342619Y-13743048D01*
X10342619Y-13743048D02*
X10333095Y-13752571D01*
X10333095Y-13752571D02*
X10314048Y-13781143D01*
X10314048Y-13781143D02*
X10304524Y-13819238D01*
X10304524Y-13819238D02*
X10304524Y-13895428D01*
X10304524Y-13895428D02*
X10314048Y-13914476D01*
X10314048Y-13914476D02*
X10323572Y-13924000D01*
X10323572Y-13924000D02*
X10342619Y-13933524D01*
X10342619Y-13933524D02*
X10380715Y-13933524D01*
X10380715Y-13933524D02*
X10399762Y-13924000D01*
X10399762Y-13924000D02*
X10409286Y-13914476D01*
X10409286Y-13914476D02*
X10418810Y-13895428D01*
X10418810Y-13895428D02*
X10418810Y-13847809D01*
X10418810Y-13847809D02*
X10409286Y-13828762D01*
X10409286Y-13828762D02*
X10399762Y-13819238D01*
X10399762Y-13819238D02*
X10380715Y-13809714D01*
X10380715Y-13809714D02*
X10342619Y-13809714D01*
X10342619Y-13809714D02*
X10323572Y-13819238D01*
X10323572Y-13819238D02*
X10314048Y-13828762D01*
X10314048Y-13828762D02*
X10304524Y-13847809D01*
X10542619Y-13733524D02*
X10561667Y-13733524D01*
X10561667Y-13733524D02*
X10580715Y-13743048D01*
X10580715Y-13743048D02*
X10590238Y-13752571D01*
X10590238Y-13752571D02*
X10599762Y-13771619D01*
X10599762Y-13771619D02*
X10609286Y-13809714D01*
X10609286Y-13809714D02*
X10609286Y-13857333D01*
X10609286Y-13857333D02*
X10599762Y-13895428D01*
X10599762Y-13895428D02*
X10590238Y-13914476D01*
X10590238Y-13914476D02*
X10580715Y-13924000D01*
X10580715Y-13924000D02*
X10561667Y-13933524D01*
X10561667Y-13933524D02*
X10542619Y-13933524D01*
X10542619Y-13933524D02*
X10523572Y-13924000D01*
X10523572Y-13924000D02*
X10514048Y-13914476D01*
X10514048Y-13914476D02*
X10504524Y-13895428D01*
X10504524Y-13895428D02*
X10495000Y-13857333D01*
X10495000Y-13857333D02*
X10495000Y-13809714D01*
X10495000Y-13809714D02*
X10504524Y-13771619D01*
X10504524Y-13771619D02*
X10514048Y-13752571D01*
X10514048Y-13752571D02*
X10523572Y-13743048D01*
X10523572Y-13743048D02*
X10542619Y-13733524D01*
X10685476Y-13733524D02*
X10685476Y-13771619D01*
X10761667Y-13733524D02*
X10761667Y-13771619D01*
X11056905Y-14009714D02*
X11047381Y-14000190D01*
X11047381Y-14000190D02*
X11028334Y-13971619D01*
X11028334Y-13971619D02*
X11018810Y-13952571D01*
X11018810Y-13952571D02*
X11009286Y-13924000D01*
X11009286Y-13924000D02*
X10999762Y-13876381D01*
X10999762Y-13876381D02*
X10999762Y-13838286D01*
X10999762Y-13838286D02*
X11009286Y-13790667D01*
X11009286Y-13790667D02*
X11018810Y-13762095D01*
X11018810Y-13762095D02*
X11028334Y-13743048D01*
X11028334Y-13743048D02*
X11047381Y-13714476D01*
X11047381Y-13714476D02*
X11056905Y-13704952D01*
X11237857Y-13933524D02*
X11123572Y-13933524D01*
X11180715Y-13933524D02*
X11180715Y-13733524D01*
X11180715Y-13733524D02*
X11161667Y-13762095D01*
X11161667Y-13762095D02*
X11142619Y-13781143D01*
X11142619Y-13781143D02*
X11123572Y-13790667D01*
X11475953Y-13933524D02*
X11475953Y-13733524D01*
X11561667Y-13933524D02*
X11561667Y-13828762D01*
X11561667Y-13828762D02*
X11552143Y-13809714D01*
X11552143Y-13809714D02*
X11533096Y-13800190D01*
X11533096Y-13800190D02*
X11504524Y-13800190D01*
X11504524Y-13800190D02*
X11485476Y-13809714D01*
X11485476Y-13809714D02*
X11475953Y-13819238D01*
X11685476Y-13933524D02*
X11666429Y-13924000D01*
X11666429Y-13924000D02*
X11656905Y-13914476D01*
X11656905Y-13914476D02*
X11647381Y-13895428D01*
X11647381Y-13895428D02*
X11647381Y-13838286D01*
X11647381Y-13838286D02*
X11656905Y-13819238D01*
X11656905Y-13819238D02*
X11666429Y-13809714D01*
X11666429Y-13809714D02*
X11685476Y-13800190D01*
X11685476Y-13800190D02*
X11714048Y-13800190D01*
X11714048Y-13800190D02*
X11733096Y-13809714D01*
X11733096Y-13809714D02*
X11742619Y-13819238D01*
X11742619Y-13819238D02*
X11752143Y-13838286D01*
X11752143Y-13838286D02*
X11752143Y-13895428D01*
X11752143Y-13895428D02*
X11742619Y-13914476D01*
X11742619Y-13914476D02*
X11733096Y-13924000D01*
X11733096Y-13924000D02*
X11714048Y-13933524D01*
X11714048Y-13933524D02*
X11685476Y-13933524D01*
X11866429Y-13933524D02*
X11847381Y-13924000D01*
X11847381Y-13924000D02*
X11837857Y-13904952D01*
X11837857Y-13904952D02*
X11837857Y-13733524D01*
X12018810Y-13924000D02*
X11999762Y-13933524D01*
X11999762Y-13933524D02*
X11961667Y-13933524D01*
X11961667Y-13933524D02*
X11942619Y-13924000D01*
X11942619Y-13924000D02*
X11933096Y-13904952D01*
X11933096Y-13904952D02*
X11933096Y-13828762D01*
X11933096Y-13828762D02*
X11942619Y-13809714D01*
X11942619Y-13809714D02*
X11961667Y-13800190D01*
X11961667Y-13800190D02*
X11999762Y-13800190D01*
X11999762Y-13800190D02*
X12018810Y-13809714D01*
X12018810Y-13809714D02*
X12028334Y-13828762D01*
X12028334Y-13828762D02*
X12028334Y-13847809D01*
X12028334Y-13847809D02*
X11933096Y-13866857D01*
X12095000Y-14009714D02*
X12104524Y-14000190D01*
X12104524Y-14000190D02*
X12123572Y-13971619D01*
X12123572Y-13971619D02*
X12133096Y-13952571D01*
X12133096Y-13952571D02*
X12142619Y-13924000D01*
X12142619Y-13924000D02*
X12152143Y-13876381D01*
X12152143Y-13876381D02*
X12152143Y-13838286D01*
X12152143Y-13838286D02*
X12142619Y-13790667D01*
X12142619Y-13790667D02*
X12133096Y-13762095D01*
X12133096Y-13762095D02*
X12123572Y-13743048D01*
X12123572Y-13743048D02*
X12104524Y-13714476D01*
X12104524Y-13714476D02*
X12095000Y-13704952D01*
X7295000Y-14061000D02*
X7495000Y-14261000D01*
X7495000Y-14061000D02*
X7295000Y-14261000D01*
X7465711Y-14231711D02*
X7465711Y-14090289D01*
X7324289Y-14090289D01*
X7324289Y-14231711D01*
X7465711Y-14231711D01*
X7828333Y-14120190D02*
X7828333Y-14253524D01*
X7780714Y-14044000D02*
X7733095Y-14186857D01*
X7733095Y-14186857D02*
X7856905Y-14186857D01*
X7933095Y-14234476D02*
X7942619Y-14244000D01*
X7942619Y-14244000D02*
X7933095Y-14253524D01*
X7933095Y-14253524D02*
X7923571Y-14244000D01*
X7923571Y-14244000D02*
X7933095Y-14234476D01*
X7933095Y-14234476D02*
X7933095Y-14253524D01*
X8009286Y-14053524D02*
X8133095Y-14053524D01*
X8133095Y-14053524D02*
X8066428Y-14129714D01*
X8066428Y-14129714D02*
X8095000Y-14129714D01*
X8095000Y-14129714D02*
X8114048Y-14139238D01*
X8114048Y-14139238D02*
X8123571Y-14148762D01*
X8123571Y-14148762D02*
X8133095Y-14167809D01*
X8133095Y-14167809D02*
X8133095Y-14215428D01*
X8133095Y-14215428D02*
X8123571Y-14234476D01*
X8123571Y-14234476D02*
X8114048Y-14244000D01*
X8114048Y-14244000D02*
X8095000Y-14253524D01*
X8095000Y-14253524D02*
X8037857Y-14253524D01*
X8037857Y-14253524D02*
X8018809Y-14244000D01*
X8018809Y-14244000D02*
X8009286Y-14234476D01*
X8256905Y-14053524D02*
X8275952Y-14053524D01*
X8275952Y-14053524D02*
X8295000Y-14063048D01*
X8295000Y-14063048D02*
X8304524Y-14072571D01*
X8304524Y-14072571D02*
X8314048Y-14091619D01*
X8314048Y-14091619D02*
X8323571Y-14129714D01*
X8323571Y-14129714D02*
X8323571Y-14177333D01*
X8323571Y-14177333D02*
X8314048Y-14215428D01*
X8314048Y-14215428D02*
X8304524Y-14234476D01*
X8304524Y-14234476D02*
X8295000Y-14244000D01*
X8295000Y-14244000D02*
X8275952Y-14253524D01*
X8275952Y-14253524D02*
X8256905Y-14253524D01*
X8256905Y-14253524D02*
X8237857Y-14244000D01*
X8237857Y-14244000D02*
X8228333Y-14234476D01*
X8228333Y-14234476D02*
X8218809Y-14215428D01*
X8218809Y-14215428D02*
X8209286Y-14177333D01*
X8209286Y-14177333D02*
X8209286Y-14129714D01*
X8209286Y-14129714D02*
X8218809Y-14091619D01*
X8218809Y-14091619D02*
X8228333Y-14072571D01*
X8228333Y-14072571D02*
X8237857Y-14063048D01*
X8237857Y-14063048D02*
X8256905Y-14053524D01*
X8447381Y-14053524D02*
X8466429Y-14053524D01*
X8466429Y-14053524D02*
X8485476Y-14063048D01*
X8485476Y-14063048D02*
X8495000Y-14072571D01*
X8495000Y-14072571D02*
X8504524Y-14091619D01*
X8504524Y-14091619D02*
X8514048Y-14129714D01*
X8514048Y-14129714D02*
X8514048Y-14177333D01*
X8514048Y-14177333D02*
X8504524Y-14215428D01*
X8504524Y-14215428D02*
X8495000Y-14234476D01*
X8495000Y-14234476D02*
X8485476Y-14244000D01*
X8485476Y-14244000D02*
X8466429Y-14253524D01*
X8466429Y-14253524D02*
X8447381Y-14253524D01*
X8447381Y-14253524D02*
X8428333Y-14244000D01*
X8428333Y-14244000D02*
X8418810Y-14234476D01*
X8418810Y-14234476D02*
X8409286Y-14215428D01*
X8409286Y-14215428D02*
X8399762Y-14177333D01*
X8399762Y-14177333D02*
X8399762Y-14129714D01*
X8399762Y-14129714D02*
X8409286Y-14091619D01*
X8409286Y-14091619D02*
X8418810Y-14072571D01*
X8418810Y-14072571D02*
X8428333Y-14063048D01*
X8428333Y-14063048D02*
X8447381Y-14053524D01*
X8599762Y-14253524D02*
X8599762Y-14120190D01*
X8599762Y-14139238D02*
X8609286Y-14129714D01*
X8609286Y-14129714D02*
X8628333Y-14120190D01*
X8628333Y-14120190D02*
X8656905Y-14120190D01*
X8656905Y-14120190D02*
X8675952Y-14129714D01*
X8675952Y-14129714D02*
X8685476Y-14148762D01*
X8685476Y-14148762D02*
X8685476Y-14253524D01*
X8685476Y-14148762D02*
X8695000Y-14129714D01*
X8695000Y-14129714D02*
X8714048Y-14120190D01*
X8714048Y-14120190D02*
X8742619Y-14120190D01*
X8742619Y-14120190D02*
X8761667Y-14129714D01*
X8761667Y-14129714D02*
X8771191Y-14148762D01*
X8771191Y-14148762D02*
X8771191Y-14253524D01*
X8866429Y-14253524D02*
X8866429Y-14120190D01*
X8866429Y-14139238D02*
X8875952Y-14129714D01*
X8875952Y-14129714D02*
X8895000Y-14120190D01*
X8895000Y-14120190D02*
X8923572Y-14120190D01*
X8923572Y-14120190D02*
X8942619Y-14129714D01*
X8942619Y-14129714D02*
X8952143Y-14148762D01*
X8952143Y-14148762D02*
X8952143Y-14253524D01*
X8952143Y-14148762D02*
X8961667Y-14129714D01*
X8961667Y-14129714D02*
X8980714Y-14120190D01*
X8980714Y-14120190D02*
X9009286Y-14120190D01*
X9009286Y-14120190D02*
X9028333Y-14129714D01*
X9028333Y-14129714D02*
X9037857Y-14148762D01*
X9037857Y-14148762D02*
X9037857Y-14253524D01*
X9428333Y-14044000D02*
X9256905Y-14301143D01*
X9685476Y-14053524D02*
X9704524Y-14053524D01*
X9704524Y-14053524D02*
X9723572Y-14063048D01*
X9723572Y-14063048D02*
X9733095Y-14072571D01*
X9733095Y-14072571D02*
X9742619Y-14091619D01*
X9742619Y-14091619D02*
X9752143Y-14129714D01*
X9752143Y-14129714D02*
X9752143Y-14177333D01*
X9752143Y-14177333D02*
X9742619Y-14215428D01*
X9742619Y-14215428D02*
X9733095Y-14234476D01*
X9733095Y-14234476D02*
X9723572Y-14244000D01*
X9723572Y-14244000D02*
X9704524Y-14253524D01*
X9704524Y-14253524D02*
X9685476Y-14253524D01*
X9685476Y-14253524D02*
X9666429Y-14244000D01*
X9666429Y-14244000D02*
X9656905Y-14234476D01*
X9656905Y-14234476D02*
X9647381Y-14215428D01*
X9647381Y-14215428D02*
X9637857Y-14177333D01*
X9637857Y-14177333D02*
X9637857Y-14129714D01*
X9637857Y-14129714D02*
X9647381Y-14091619D01*
X9647381Y-14091619D02*
X9656905Y-14072571D01*
X9656905Y-14072571D02*
X9666429Y-14063048D01*
X9666429Y-14063048D02*
X9685476Y-14053524D01*
X9837857Y-14234476D02*
X9847381Y-14244000D01*
X9847381Y-14244000D02*
X9837857Y-14253524D01*
X9837857Y-14253524D02*
X9828334Y-14244000D01*
X9828334Y-14244000D02*
X9837857Y-14234476D01*
X9837857Y-14234476D02*
X9837857Y-14253524D01*
X10037857Y-14253524D02*
X9923572Y-14253524D01*
X9980714Y-14253524D02*
X9980714Y-14053524D01*
X9980714Y-14053524D02*
X9961667Y-14082095D01*
X9961667Y-14082095D02*
X9942619Y-14101143D01*
X9942619Y-14101143D02*
X9923572Y-14110667D01*
X10209286Y-14053524D02*
X10171191Y-14053524D01*
X10171191Y-14053524D02*
X10152143Y-14063048D01*
X10152143Y-14063048D02*
X10142619Y-14072571D01*
X10142619Y-14072571D02*
X10123572Y-14101143D01*
X10123572Y-14101143D02*
X10114048Y-14139238D01*
X10114048Y-14139238D02*
X10114048Y-14215428D01*
X10114048Y-14215428D02*
X10123572Y-14234476D01*
X10123572Y-14234476D02*
X10133095Y-14244000D01*
X10133095Y-14244000D02*
X10152143Y-14253524D01*
X10152143Y-14253524D02*
X10190238Y-14253524D01*
X10190238Y-14253524D02*
X10209286Y-14244000D01*
X10209286Y-14244000D02*
X10218810Y-14234476D01*
X10218810Y-14234476D02*
X10228334Y-14215428D01*
X10228334Y-14215428D02*
X10228334Y-14167809D01*
X10228334Y-14167809D02*
X10218810Y-14148762D01*
X10218810Y-14148762D02*
X10209286Y-14139238D01*
X10209286Y-14139238D02*
X10190238Y-14129714D01*
X10190238Y-14129714D02*
X10152143Y-14129714D01*
X10152143Y-14129714D02*
X10133095Y-14139238D01*
X10133095Y-14139238D02*
X10123572Y-14148762D01*
X10123572Y-14148762D02*
X10114048Y-14167809D01*
X10323572Y-14253524D02*
X10361667Y-14253524D01*
X10361667Y-14253524D02*
X10380715Y-14244000D01*
X10380715Y-14244000D02*
X10390238Y-14234476D01*
X10390238Y-14234476D02*
X10409286Y-14205905D01*
X10409286Y-14205905D02*
X10418810Y-14167809D01*
X10418810Y-14167809D02*
X10418810Y-14091619D01*
X10418810Y-14091619D02*
X10409286Y-14072571D01*
X10409286Y-14072571D02*
X10399762Y-14063048D01*
X10399762Y-14063048D02*
X10380715Y-14053524D01*
X10380715Y-14053524D02*
X10342619Y-14053524D01*
X10342619Y-14053524D02*
X10323572Y-14063048D01*
X10323572Y-14063048D02*
X10314048Y-14072571D01*
X10314048Y-14072571D02*
X10304524Y-14091619D01*
X10304524Y-14091619D02*
X10304524Y-14139238D01*
X10304524Y-14139238D02*
X10314048Y-14158286D01*
X10314048Y-14158286D02*
X10323572Y-14167809D01*
X10323572Y-14167809D02*
X10342619Y-14177333D01*
X10342619Y-14177333D02*
X10380715Y-14177333D01*
X10380715Y-14177333D02*
X10399762Y-14167809D01*
X10399762Y-14167809D02*
X10409286Y-14158286D01*
X10409286Y-14158286D02*
X10418810Y-14139238D01*
X10485476Y-14053524D02*
X10609286Y-14053524D01*
X10609286Y-14053524D02*
X10542619Y-14129714D01*
X10542619Y-14129714D02*
X10571191Y-14129714D01*
X10571191Y-14129714D02*
X10590238Y-14139238D01*
X10590238Y-14139238D02*
X10599762Y-14148762D01*
X10599762Y-14148762D02*
X10609286Y-14167809D01*
X10609286Y-14167809D02*
X10609286Y-14215428D01*
X10609286Y-14215428D02*
X10599762Y-14234476D01*
X10599762Y-14234476D02*
X10590238Y-14244000D01*
X10590238Y-14244000D02*
X10571191Y-14253524D01*
X10571191Y-14253524D02*
X10514048Y-14253524D01*
X10514048Y-14253524D02*
X10495000Y-14244000D01*
X10495000Y-14244000D02*
X10485476Y-14234476D01*
X10685476Y-14053524D02*
X10685476Y-14091619D01*
X10761667Y-14053524D02*
X10761667Y-14091619D01*
X11056905Y-14329714D02*
X11047381Y-14320190D01*
X11047381Y-14320190D02*
X11028334Y-14291619D01*
X11028334Y-14291619D02*
X11018810Y-14272571D01*
X11018810Y-14272571D02*
X11009286Y-14244000D01*
X11009286Y-14244000D02*
X10999762Y-14196381D01*
X10999762Y-14196381D02*
X10999762Y-14158286D01*
X10999762Y-14158286D02*
X11009286Y-14110667D01*
X11009286Y-14110667D02*
X11018810Y-14082095D01*
X11018810Y-14082095D02*
X11028334Y-14063048D01*
X11028334Y-14063048D02*
X11047381Y-14034476D01*
X11047381Y-14034476D02*
X11056905Y-14024952D01*
X11237857Y-14253524D02*
X11123572Y-14253524D01*
X11180715Y-14253524D02*
X11180715Y-14053524D01*
X11180715Y-14053524D02*
X11161667Y-14082095D01*
X11161667Y-14082095D02*
X11142619Y-14101143D01*
X11142619Y-14101143D02*
X11123572Y-14110667D01*
X11475953Y-14253524D02*
X11475953Y-14053524D01*
X11561667Y-14253524D02*
X11561667Y-14148762D01*
X11561667Y-14148762D02*
X11552143Y-14129714D01*
X11552143Y-14129714D02*
X11533096Y-14120190D01*
X11533096Y-14120190D02*
X11504524Y-14120190D01*
X11504524Y-14120190D02*
X11485476Y-14129714D01*
X11485476Y-14129714D02*
X11475953Y-14139238D01*
X11685476Y-14253524D02*
X11666429Y-14244000D01*
X11666429Y-14244000D02*
X11656905Y-14234476D01*
X11656905Y-14234476D02*
X11647381Y-14215428D01*
X11647381Y-14215428D02*
X11647381Y-14158286D01*
X11647381Y-14158286D02*
X11656905Y-14139238D01*
X11656905Y-14139238D02*
X11666429Y-14129714D01*
X11666429Y-14129714D02*
X11685476Y-14120190D01*
X11685476Y-14120190D02*
X11714048Y-14120190D01*
X11714048Y-14120190D02*
X11733096Y-14129714D01*
X11733096Y-14129714D02*
X11742619Y-14139238D01*
X11742619Y-14139238D02*
X11752143Y-14158286D01*
X11752143Y-14158286D02*
X11752143Y-14215428D01*
X11752143Y-14215428D02*
X11742619Y-14234476D01*
X11742619Y-14234476D02*
X11733096Y-14244000D01*
X11733096Y-14244000D02*
X11714048Y-14253524D01*
X11714048Y-14253524D02*
X11685476Y-14253524D01*
X11866429Y-14253524D02*
X11847381Y-14244000D01*
X11847381Y-14244000D02*
X11837857Y-14224952D01*
X11837857Y-14224952D02*
X11837857Y-14053524D01*
X12018810Y-14244000D02*
X11999762Y-14253524D01*
X11999762Y-14253524D02*
X11961667Y-14253524D01*
X11961667Y-14253524D02*
X11942619Y-14244000D01*
X11942619Y-14244000D02*
X11933096Y-14224952D01*
X11933096Y-14224952D02*
X11933096Y-14148762D01*
X11933096Y-14148762D02*
X11942619Y-14129714D01*
X11942619Y-14129714D02*
X11961667Y-14120190D01*
X11961667Y-14120190D02*
X11999762Y-14120190D01*
X11999762Y-14120190D02*
X12018810Y-14129714D01*
X12018810Y-14129714D02*
X12028334Y-14148762D01*
X12028334Y-14148762D02*
X12028334Y-14167809D01*
X12028334Y-14167809D02*
X11933096Y-14186857D01*
X12095000Y-14329714D02*
X12104524Y-14320190D01*
X12104524Y-14320190D02*
X12123572Y-14291619D01*
X12123572Y-14291619D02*
X12133096Y-14272571D01*
X12133096Y-14272571D02*
X12142619Y-14244000D01*
X12142619Y-14244000D02*
X12152143Y-14196381D01*
X12152143Y-14196381D02*
X12152143Y-14158286D01*
X12152143Y-14158286D02*
X12142619Y-14110667D01*
X12142619Y-14110667D02*
X12133096Y-14082095D01*
X12133096Y-14082095D02*
X12123572Y-14063048D01*
X12123572Y-14063048D02*
X12104524Y-14034476D01*
X12104524Y-14034476D02*
X12095000Y-14024952D01*
X7295000Y-14381000D02*
X7495000Y-14581000D01*
X7495000Y-14381000D02*
X7295000Y-14581000D01*
X7395000Y-14581000D02*
X7495000Y-14481000D01*
X7395000Y-14381000D01*
X7295000Y-14481000D01*
X7395000Y-14581000D01*
X7837857Y-14373524D02*
X7742619Y-14373524D01*
X7742619Y-14373524D02*
X7733095Y-14468762D01*
X7733095Y-14468762D02*
X7742619Y-14459238D01*
X7742619Y-14459238D02*
X7761667Y-14449714D01*
X7761667Y-14449714D02*
X7809286Y-14449714D01*
X7809286Y-14449714D02*
X7828333Y-14459238D01*
X7828333Y-14459238D02*
X7837857Y-14468762D01*
X7837857Y-14468762D02*
X7847381Y-14487809D01*
X7847381Y-14487809D02*
X7847381Y-14535428D01*
X7847381Y-14535428D02*
X7837857Y-14554476D01*
X7837857Y-14554476D02*
X7828333Y-14564000D01*
X7828333Y-14564000D02*
X7809286Y-14573524D01*
X7809286Y-14573524D02*
X7761667Y-14573524D01*
X7761667Y-14573524D02*
X7742619Y-14564000D01*
X7742619Y-14564000D02*
X7733095Y-14554476D01*
X7933095Y-14554476D02*
X7942619Y-14564000D01*
X7942619Y-14564000D02*
X7933095Y-14573524D01*
X7933095Y-14573524D02*
X7923571Y-14564000D01*
X7923571Y-14564000D02*
X7933095Y-14554476D01*
X7933095Y-14554476D02*
X7933095Y-14573524D01*
X8009286Y-14373524D02*
X8133095Y-14373524D01*
X8133095Y-14373524D02*
X8066428Y-14449714D01*
X8066428Y-14449714D02*
X8095000Y-14449714D01*
X8095000Y-14449714D02*
X8114048Y-14459238D01*
X8114048Y-14459238D02*
X8123571Y-14468762D01*
X8123571Y-14468762D02*
X8133095Y-14487809D01*
X8133095Y-14487809D02*
X8133095Y-14535428D01*
X8133095Y-14535428D02*
X8123571Y-14554476D01*
X8123571Y-14554476D02*
X8114048Y-14564000D01*
X8114048Y-14564000D02*
X8095000Y-14573524D01*
X8095000Y-14573524D02*
X8037857Y-14573524D01*
X8037857Y-14573524D02*
X8018809Y-14564000D01*
X8018809Y-14564000D02*
X8009286Y-14554476D01*
X8256905Y-14373524D02*
X8275952Y-14373524D01*
X8275952Y-14373524D02*
X8295000Y-14383048D01*
X8295000Y-14383048D02*
X8304524Y-14392571D01*
X8304524Y-14392571D02*
X8314048Y-14411619D01*
X8314048Y-14411619D02*
X8323571Y-14449714D01*
X8323571Y-14449714D02*
X8323571Y-14497333D01*
X8323571Y-14497333D02*
X8314048Y-14535428D01*
X8314048Y-14535428D02*
X8304524Y-14554476D01*
X8304524Y-14554476D02*
X8295000Y-14564000D01*
X8295000Y-14564000D02*
X8275952Y-14573524D01*
X8275952Y-14573524D02*
X8256905Y-14573524D01*
X8256905Y-14573524D02*
X8237857Y-14564000D01*
X8237857Y-14564000D02*
X8228333Y-14554476D01*
X8228333Y-14554476D02*
X8218809Y-14535428D01*
X8218809Y-14535428D02*
X8209286Y-14497333D01*
X8209286Y-14497333D02*
X8209286Y-14449714D01*
X8209286Y-14449714D02*
X8218809Y-14411619D01*
X8218809Y-14411619D02*
X8228333Y-14392571D01*
X8228333Y-14392571D02*
X8237857Y-14383048D01*
X8237857Y-14383048D02*
X8256905Y-14373524D01*
X8447381Y-14373524D02*
X8466429Y-14373524D01*
X8466429Y-14373524D02*
X8485476Y-14383048D01*
X8485476Y-14383048D02*
X8495000Y-14392571D01*
X8495000Y-14392571D02*
X8504524Y-14411619D01*
X8504524Y-14411619D02*
X8514048Y-14449714D01*
X8514048Y-14449714D02*
X8514048Y-14497333D01*
X8514048Y-14497333D02*
X8504524Y-14535428D01*
X8504524Y-14535428D02*
X8495000Y-14554476D01*
X8495000Y-14554476D02*
X8485476Y-14564000D01*
X8485476Y-14564000D02*
X8466429Y-14573524D01*
X8466429Y-14573524D02*
X8447381Y-14573524D01*
X8447381Y-14573524D02*
X8428333Y-14564000D01*
X8428333Y-14564000D02*
X8418810Y-14554476D01*
X8418810Y-14554476D02*
X8409286Y-14535428D01*
X8409286Y-14535428D02*
X8399762Y-14497333D01*
X8399762Y-14497333D02*
X8399762Y-14449714D01*
X8399762Y-14449714D02*
X8409286Y-14411619D01*
X8409286Y-14411619D02*
X8418810Y-14392571D01*
X8418810Y-14392571D02*
X8428333Y-14383048D01*
X8428333Y-14383048D02*
X8447381Y-14373524D01*
X8599762Y-14573524D02*
X8599762Y-14440190D01*
X8599762Y-14459238D02*
X8609286Y-14449714D01*
X8609286Y-14449714D02*
X8628333Y-14440190D01*
X8628333Y-14440190D02*
X8656905Y-14440190D01*
X8656905Y-14440190D02*
X8675952Y-14449714D01*
X8675952Y-14449714D02*
X8685476Y-14468762D01*
X8685476Y-14468762D02*
X8685476Y-14573524D01*
X8685476Y-14468762D02*
X8695000Y-14449714D01*
X8695000Y-14449714D02*
X8714048Y-14440190D01*
X8714048Y-14440190D02*
X8742619Y-14440190D01*
X8742619Y-14440190D02*
X8761667Y-14449714D01*
X8761667Y-14449714D02*
X8771191Y-14468762D01*
X8771191Y-14468762D02*
X8771191Y-14573524D01*
X8866429Y-14573524D02*
X8866429Y-14440190D01*
X8866429Y-14459238D02*
X8875952Y-14449714D01*
X8875952Y-14449714D02*
X8895000Y-14440190D01*
X8895000Y-14440190D02*
X8923572Y-14440190D01*
X8923572Y-14440190D02*
X8942619Y-14449714D01*
X8942619Y-14449714D02*
X8952143Y-14468762D01*
X8952143Y-14468762D02*
X8952143Y-14573524D01*
X8952143Y-14468762D02*
X8961667Y-14449714D01*
X8961667Y-14449714D02*
X8980714Y-14440190D01*
X8980714Y-14440190D02*
X9009286Y-14440190D01*
X9009286Y-14440190D02*
X9028333Y-14449714D01*
X9028333Y-14449714D02*
X9037857Y-14468762D01*
X9037857Y-14468762D02*
X9037857Y-14573524D01*
X9428333Y-14364000D02*
X9256905Y-14621143D01*
X9685476Y-14373524D02*
X9704524Y-14373524D01*
X9704524Y-14373524D02*
X9723572Y-14383048D01*
X9723572Y-14383048D02*
X9733095Y-14392571D01*
X9733095Y-14392571D02*
X9742619Y-14411619D01*
X9742619Y-14411619D02*
X9752143Y-14449714D01*
X9752143Y-14449714D02*
X9752143Y-14497333D01*
X9752143Y-14497333D02*
X9742619Y-14535428D01*
X9742619Y-14535428D02*
X9733095Y-14554476D01*
X9733095Y-14554476D02*
X9723572Y-14564000D01*
X9723572Y-14564000D02*
X9704524Y-14573524D01*
X9704524Y-14573524D02*
X9685476Y-14573524D01*
X9685476Y-14573524D02*
X9666429Y-14564000D01*
X9666429Y-14564000D02*
X9656905Y-14554476D01*
X9656905Y-14554476D02*
X9647381Y-14535428D01*
X9647381Y-14535428D02*
X9637857Y-14497333D01*
X9637857Y-14497333D02*
X9637857Y-14449714D01*
X9637857Y-14449714D02*
X9647381Y-14411619D01*
X9647381Y-14411619D02*
X9656905Y-14392571D01*
X9656905Y-14392571D02*
X9666429Y-14383048D01*
X9666429Y-14383048D02*
X9685476Y-14373524D01*
X9837857Y-14554476D02*
X9847381Y-14564000D01*
X9847381Y-14564000D02*
X9837857Y-14573524D01*
X9837857Y-14573524D02*
X9828334Y-14564000D01*
X9828334Y-14564000D02*
X9837857Y-14554476D01*
X9837857Y-14554476D02*
X9837857Y-14573524D01*
X9923572Y-14392571D02*
X9933095Y-14383048D01*
X9933095Y-14383048D02*
X9952143Y-14373524D01*
X9952143Y-14373524D02*
X9999762Y-14373524D01*
X9999762Y-14373524D02*
X10018810Y-14383048D01*
X10018810Y-14383048D02*
X10028334Y-14392571D01*
X10028334Y-14392571D02*
X10037857Y-14411619D01*
X10037857Y-14411619D02*
X10037857Y-14430667D01*
X10037857Y-14430667D02*
X10028334Y-14459238D01*
X10028334Y-14459238D02*
X9914048Y-14573524D01*
X9914048Y-14573524D02*
X10037857Y-14573524D01*
X10161667Y-14373524D02*
X10180715Y-14373524D01*
X10180715Y-14373524D02*
X10199762Y-14383048D01*
X10199762Y-14383048D02*
X10209286Y-14392571D01*
X10209286Y-14392571D02*
X10218810Y-14411619D01*
X10218810Y-14411619D02*
X10228334Y-14449714D01*
X10228334Y-14449714D02*
X10228334Y-14497333D01*
X10228334Y-14497333D02*
X10218810Y-14535428D01*
X10218810Y-14535428D02*
X10209286Y-14554476D01*
X10209286Y-14554476D02*
X10199762Y-14564000D01*
X10199762Y-14564000D02*
X10180715Y-14573524D01*
X10180715Y-14573524D02*
X10161667Y-14573524D01*
X10161667Y-14573524D02*
X10142619Y-14564000D01*
X10142619Y-14564000D02*
X10133095Y-14554476D01*
X10133095Y-14554476D02*
X10123572Y-14535428D01*
X10123572Y-14535428D02*
X10114048Y-14497333D01*
X10114048Y-14497333D02*
X10114048Y-14449714D01*
X10114048Y-14449714D02*
X10123572Y-14411619D01*
X10123572Y-14411619D02*
X10133095Y-14392571D01*
X10133095Y-14392571D02*
X10142619Y-14383048D01*
X10142619Y-14383048D02*
X10161667Y-14373524D01*
X10342619Y-14459238D02*
X10323572Y-14449714D01*
X10323572Y-14449714D02*
X10314048Y-14440190D01*
X10314048Y-14440190D02*
X10304524Y-14421143D01*
X10304524Y-14421143D02*
X10304524Y-14411619D01*
X10304524Y-14411619D02*
X10314048Y-14392571D01*
X10314048Y-14392571D02*
X10323572Y-14383048D01*
X10323572Y-14383048D02*
X10342619Y-14373524D01*
X10342619Y-14373524D02*
X10380715Y-14373524D01*
X10380715Y-14373524D02*
X10399762Y-14383048D01*
X10399762Y-14383048D02*
X10409286Y-14392571D01*
X10409286Y-14392571D02*
X10418810Y-14411619D01*
X10418810Y-14411619D02*
X10418810Y-14421143D01*
X10418810Y-14421143D02*
X10409286Y-14440190D01*
X10409286Y-14440190D02*
X10399762Y-14449714D01*
X10399762Y-14449714D02*
X10380715Y-14459238D01*
X10380715Y-14459238D02*
X10342619Y-14459238D01*
X10342619Y-14459238D02*
X10323572Y-14468762D01*
X10323572Y-14468762D02*
X10314048Y-14478286D01*
X10314048Y-14478286D02*
X10304524Y-14497333D01*
X10304524Y-14497333D02*
X10304524Y-14535428D01*
X10304524Y-14535428D02*
X10314048Y-14554476D01*
X10314048Y-14554476D02*
X10323572Y-14564000D01*
X10323572Y-14564000D02*
X10342619Y-14573524D01*
X10342619Y-14573524D02*
X10380715Y-14573524D01*
X10380715Y-14573524D02*
X10399762Y-14564000D01*
X10399762Y-14564000D02*
X10409286Y-14554476D01*
X10409286Y-14554476D02*
X10418810Y-14535428D01*
X10418810Y-14535428D02*
X10418810Y-14497333D01*
X10418810Y-14497333D02*
X10409286Y-14478286D01*
X10409286Y-14478286D02*
X10399762Y-14468762D01*
X10399762Y-14468762D02*
X10380715Y-14459238D01*
X10485476Y-14373524D02*
X10618810Y-14373524D01*
X10618810Y-14373524D02*
X10533095Y-14573524D01*
X10685476Y-14373524D02*
X10685476Y-14411619D01*
X10761667Y-14373524D02*
X10761667Y-14411619D01*
X11056905Y-14649714D02*
X11047381Y-14640190D01*
X11047381Y-14640190D02*
X11028334Y-14611619D01*
X11028334Y-14611619D02*
X11018810Y-14592571D01*
X11018810Y-14592571D02*
X11009286Y-14564000D01*
X11009286Y-14564000D02*
X10999762Y-14516381D01*
X10999762Y-14516381D02*
X10999762Y-14478286D01*
X10999762Y-14478286D02*
X11009286Y-14430667D01*
X11009286Y-14430667D02*
X11018810Y-14402095D01*
X11018810Y-14402095D02*
X11028334Y-14383048D01*
X11028334Y-14383048D02*
X11047381Y-14354476D01*
X11047381Y-14354476D02*
X11056905Y-14344952D01*
X11237857Y-14573524D02*
X11123572Y-14573524D01*
X11180715Y-14573524D02*
X11180715Y-14373524D01*
X11180715Y-14373524D02*
X11161667Y-14402095D01*
X11161667Y-14402095D02*
X11142619Y-14421143D01*
X11142619Y-14421143D02*
X11123572Y-14430667D01*
X11475953Y-14573524D02*
X11475953Y-14373524D01*
X11561667Y-14573524D02*
X11561667Y-14468762D01*
X11561667Y-14468762D02*
X11552143Y-14449714D01*
X11552143Y-14449714D02*
X11533096Y-14440190D01*
X11533096Y-14440190D02*
X11504524Y-14440190D01*
X11504524Y-14440190D02*
X11485476Y-14449714D01*
X11485476Y-14449714D02*
X11475953Y-14459238D01*
X11685476Y-14573524D02*
X11666429Y-14564000D01*
X11666429Y-14564000D02*
X11656905Y-14554476D01*
X11656905Y-14554476D02*
X11647381Y-14535428D01*
X11647381Y-14535428D02*
X11647381Y-14478286D01*
X11647381Y-14478286D02*
X11656905Y-14459238D01*
X11656905Y-14459238D02*
X11666429Y-14449714D01*
X11666429Y-14449714D02*
X11685476Y-14440190D01*
X11685476Y-14440190D02*
X11714048Y-14440190D01*
X11714048Y-14440190D02*
X11733096Y-14449714D01*
X11733096Y-14449714D02*
X11742619Y-14459238D01*
X11742619Y-14459238D02*
X11752143Y-14478286D01*
X11752143Y-14478286D02*
X11752143Y-14535428D01*
X11752143Y-14535428D02*
X11742619Y-14554476D01*
X11742619Y-14554476D02*
X11733096Y-14564000D01*
X11733096Y-14564000D02*
X11714048Y-14573524D01*
X11714048Y-14573524D02*
X11685476Y-14573524D01*
X11866429Y-14573524D02*
X11847381Y-14564000D01*
X11847381Y-14564000D02*
X11837857Y-14544952D01*
X11837857Y-14544952D02*
X11837857Y-14373524D01*
X12018810Y-14564000D02*
X11999762Y-14573524D01*
X11999762Y-14573524D02*
X11961667Y-14573524D01*
X11961667Y-14573524D02*
X11942619Y-14564000D01*
X11942619Y-14564000D02*
X11933096Y-14544952D01*
X11933096Y-14544952D02*
X11933096Y-14468762D01*
X11933096Y-14468762D02*
X11942619Y-14449714D01*
X11942619Y-14449714D02*
X11961667Y-14440190D01*
X11961667Y-14440190D02*
X11999762Y-14440190D01*
X11999762Y-14440190D02*
X12018810Y-14449714D01*
X12018810Y-14449714D02*
X12028334Y-14468762D01*
X12028334Y-14468762D02*
X12028334Y-14487809D01*
X12028334Y-14487809D02*
X11933096Y-14506857D01*
X12095000Y-14649714D02*
X12104524Y-14640190D01*
X12104524Y-14640190D02*
X12123572Y-14611619D01*
X12123572Y-14611619D02*
X12133096Y-14592571D01*
X12133096Y-14592571D02*
X12142619Y-14564000D01*
X12142619Y-14564000D02*
X12152143Y-14516381D01*
X12152143Y-14516381D02*
X12152143Y-14478286D01*
X12152143Y-14478286D02*
X12142619Y-14430667D01*
X12142619Y-14430667D02*
X12133096Y-14402095D01*
X12133096Y-14402095D02*
X12123572Y-14383048D01*
X12123572Y-14383048D02*
X12104524Y-14354476D01*
X12104524Y-14354476D02*
X12095000Y-14344952D01*
X7395000Y-14701000D02*
X7395000Y-14901000D01*
X7295000Y-14801000D02*
X7495000Y-14801000D01*
X7495000Y-14801000D02*
G75*
G03*
X7495000Y-14801000I-100000J0D01*
G01*
X7828333Y-14693524D02*
X7790238Y-14693524D01*
X7790238Y-14693524D02*
X7771190Y-14703048D01*
X7771190Y-14703048D02*
X7761667Y-14712571D01*
X7761667Y-14712571D02*
X7742619Y-14741143D01*
X7742619Y-14741143D02*
X7733095Y-14779238D01*
X7733095Y-14779238D02*
X7733095Y-14855428D01*
X7733095Y-14855428D02*
X7742619Y-14874476D01*
X7742619Y-14874476D02*
X7752143Y-14884000D01*
X7752143Y-14884000D02*
X7771190Y-14893524D01*
X7771190Y-14893524D02*
X7809286Y-14893524D01*
X7809286Y-14893524D02*
X7828333Y-14884000D01*
X7828333Y-14884000D02*
X7837857Y-14874476D01*
X7837857Y-14874476D02*
X7847381Y-14855428D01*
X7847381Y-14855428D02*
X7847381Y-14807809D01*
X7847381Y-14807809D02*
X7837857Y-14788762D01*
X7837857Y-14788762D02*
X7828333Y-14779238D01*
X7828333Y-14779238D02*
X7809286Y-14769714D01*
X7809286Y-14769714D02*
X7771190Y-14769714D01*
X7771190Y-14769714D02*
X7752143Y-14779238D01*
X7752143Y-14779238D02*
X7742619Y-14788762D01*
X7742619Y-14788762D02*
X7733095Y-14807809D01*
X7933095Y-14874476D02*
X7942619Y-14884000D01*
X7942619Y-14884000D02*
X7933095Y-14893524D01*
X7933095Y-14893524D02*
X7923571Y-14884000D01*
X7923571Y-14884000D02*
X7933095Y-14874476D01*
X7933095Y-14874476D02*
X7933095Y-14893524D01*
X8114048Y-14760190D02*
X8114048Y-14893524D01*
X8066428Y-14684000D02*
X8018809Y-14826857D01*
X8018809Y-14826857D02*
X8142619Y-14826857D01*
X8256905Y-14693524D02*
X8275952Y-14693524D01*
X8275952Y-14693524D02*
X8295000Y-14703048D01*
X8295000Y-14703048D02*
X8304524Y-14712571D01*
X8304524Y-14712571D02*
X8314048Y-14731619D01*
X8314048Y-14731619D02*
X8323571Y-14769714D01*
X8323571Y-14769714D02*
X8323571Y-14817333D01*
X8323571Y-14817333D02*
X8314048Y-14855428D01*
X8314048Y-14855428D02*
X8304524Y-14874476D01*
X8304524Y-14874476D02*
X8295000Y-14884000D01*
X8295000Y-14884000D02*
X8275952Y-14893524D01*
X8275952Y-14893524D02*
X8256905Y-14893524D01*
X8256905Y-14893524D02*
X8237857Y-14884000D01*
X8237857Y-14884000D02*
X8228333Y-14874476D01*
X8228333Y-14874476D02*
X8218809Y-14855428D01*
X8218809Y-14855428D02*
X8209286Y-14817333D01*
X8209286Y-14817333D02*
X8209286Y-14769714D01*
X8209286Y-14769714D02*
X8218809Y-14731619D01*
X8218809Y-14731619D02*
X8228333Y-14712571D01*
X8228333Y-14712571D02*
X8237857Y-14703048D01*
X8237857Y-14703048D02*
X8256905Y-14693524D01*
X8447381Y-14693524D02*
X8466429Y-14693524D01*
X8466429Y-14693524D02*
X8485476Y-14703048D01*
X8485476Y-14703048D02*
X8495000Y-14712571D01*
X8495000Y-14712571D02*
X8504524Y-14731619D01*
X8504524Y-14731619D02*
X8514048Y-14769714D01*
X8514048Y-14769714D02*
X8514048Y-14817333D01*
X8514048Y-14817333D02*
X8504524Y-14855428D01*
X8504524Y-14855428D02*
X8495000Y-14874476D01*
X8495000Y-14874476D02*
X8485476Y-14884000D01*
X8485476Y-14884000D02*
X8466429Y-14893524D01*
X8466429Y-14893524D02*
X8447381Y-14893524D01*
X8447381Y-14893524D02*
X8428333Y-14884000D01*
X8428333Y-14884000D02*
X8418810Y-14874476D01*
X8418810Y-14874476D02*
X8409286Y-14855428D01*
X8409286Y-14855428D02*
X8399762Y-14817333D01*
X8399762Y-14817333D02*
X8399762Y-14769714D01*
X8399762Y-14769714D02*
X8409286Y-14731619D01*
X8409286Y-14731619D02*
X8418810Y-14712571D01*
X8418810Y-14712571D02*
X8428333Y-14703048D01*
X8428333Y-14703048D02*
X8447381Y-14693524D01*
X8599762Y-14893524D02*
X8599762Y-14760190D01*
X8599762Y-14779238D02*
X8609286Y-14769714D01*
X8609286Y-14769714D02*
X8628333Y-14760190D01*
X8628333Y-14760190D02*
X8656905Y-14760190D01*
X8656905Y-14760190D02*
X8675952Y-14769714D01*
X8675952Y-14769714D02*
X8685476Y-14788762D01*
X8685476Y-14788762D02*
X8685476Y-14893524D01*
X8685476Y-14788762D02*
X8695000Y-14769714D01*
X8695000Y-14769714D02*
X8714048Y-14760190D01*
X8714048Y-14760190D02*
X8742619Y-14760190D01*
X8742619Y-14760190D02*
X8761667Y-14769714D01*
X8761667Y-14769714D02*
X8771191Y-14788762D01*
X8771191Y-14788762D02*
X8771191Y-14893524D01*
X8866429Y-14893524D02*
X8866429Y-14760190D01*
X8866429Y-14779238D02*
X8875952Y-14769714D01*
X8875952Y-14769714D02*
X8895000Y-14760190D01*
X8895000Y-14760190D02*
X8923572Y-14760190D01*
X8923572Y-14760190D02*
X8942619Y-14769714D01*
X8942619Y-14769714D02*
X8952143Y-14788762D01*
X8952143Y-14788762D02*
X8952143Y-14893524D01*
X8952143Y-14788762D02*
X8961667Y-14769714D01*
X8961667Y-14769714D02*
X8980714Y-14760190D01*
X8980714Y-14760190D02*
X9009286Y-14760190D01*
X9009286Y-14760190D02*
X9028333Y-14769714D01*
X9028333Y-14769714D02*
X9037857Y-14788762D01*
X9037857Y-14788762D02*
X9037857Y-14893524D01*
X9428333Y-14684000D02*
X9256905Y-14941143D01*
X9685476Y-14693524D02*
X9704524Y-14693524D01*
X9704524Y-14693524D02*
X9723572Y-14703048D01*
X9723572Y-14703048D02*
X9733095Y-14712571D01*
X9733095Y-14712571D02*
X9742619Y-14731619D01*
X9742619Y-14731619D02*
X9752143Y-14769714D01*
X9752143Y-14769714D02*
X9752143Y-14817333D01*
X9752143Y-14817333D02*
X9742619Y-14855428D01*
X9742619Y-14855428D02*
X9733095Y-14874476D01*
X9733095Y-14874476D02*
X9723572Y-14884000D01*
X9723572Y-14884000D02*
X9704524Y-14893524D01*
X9704524Y-14893524D02*
X9685476Y-14893524D01*
X9685476Y-14893524D02*
X9666429Y-14884000D01*
X9666429Y-14884000D02*
X9656905Y-14874476D01*
X9656905Y-14874476D02*
X9647381Y-14855428D01*
X9647381Y-14855428D02*
X9637857Y-14817333D01*
X9637857Y-14817333D02*
X9637857Y-14769714D01*
X9637857Y-14769714D02*
X9647381Y-14731619D01*
X9647381Y-14731619D02*
X9656905Y-14712571D01*
X9656905Y-14712571D02*
X9666429Y-14703048D01*
X9666429Y-14703048D02*
X9685476Y-14693524D01*
X9837857Y-14874476D02*
X9847381Y-14884000D01*
X9847381Y-14884000D02*
X9837857Y-14893524D01*
X9837857Y-14893524D02*
X9828334Y-14884000D01*
X9828334Y-14884000D02*
X9837857Y-14874476D01*
X9837857Y-14874476D02*
X9837857Y-14893524D01*
X9923572Y-14712571D02*
X9933095Y-14703048D01*
X9933095Y-14703048D02*
X9952143Y-14693524D01*
X9952143Y-14693524D02*
X9999762Y-14693524D01*
X9999762Y-14693524D02*
X10018810Y-14703048D01*
X10018810Y-14703048D02*
X10028334Y-14712571D01*
X10028334Y-14712571D02*
X10037857Y-14731619D01*
X10037857Y-14731619D02*
X10037857Y-14750667D01*
X10037857Y-14750667D02*
X10028334Y-14779238D01*
X10028334Y-14779238D02*
X9914048Y-14893524D01*
X9914048Y-14893524D02*
X10037857Y-14893524D01*
X10218810Y-14693524D02*
X10123572Y-14693524D01*
X10123572Y-14693524D02*
X10114048Y-14788762D01*
X10114048Y-14788762D02*
X10123572Y-14779238D01*
X10123572Y-14779238D02*
X10142619Y-14769714D01*
X10142619Y-14769714D02*
X10190238Y-14769714D01*
X10190238Y-14769714D02*
X10209286Y-14779238D01*
X10209286Y-14779238D02*
X10218810Y-14788762D01*
X10218810Y-14788762D02*
X10228334Y-14807809D01*
X10228334Y-14807809D02*
X10228334Y-14855428D01*
X10228334Y-14855428D02*
X10218810Y-14874476D01*
X10218810Y-14874476D02*
X10209286Y-14884000D01*
X10209286Y-14884000D02*
X10190238Y-14893524D01*
X10190238Y-14893524D02*
X10142619Y-14893524D01*
X10142619Y-14893524D02*
X10123572Y-14884000D01*
X10123572Y-14884000D02*
X10114048Y-14874476D01*
X10304524Y-14712571D02*
X10314048Y-14703048D01*
X10314048Y-14703048D02*
X10333095Y-14693524D01*
X10333095Y-14693524D02*
X10380715Y-14693524D01*
X10380715Y-14693524D02*
X10399762Y-14703048D01*
X10399762Y-14703048D02*
X10409286Y-14712571D01*
X10409286Y-14712571D02*
X10418810Y-14731619D01*
X10418810Y-14731619D02*
X10418810Y-14750667D01*
X10418810Y-14750667D02*
X10409286Y-14779238D01*
X10409286Y-14779238D02*
X10295000Y-14893524D01*
X10295000Y-14893524D02*
X10418810Y-14893524D01*
X10542619Y-14693524D02*
X10561667Y-14693524D01*
X10561667Y-14693524D02*
X10580715Y-14703048D01*
X10580715Y-14703048D02*
X10590238Y-14712571D01*
X10590238Y-14712571D02*
X10599762Y-14731619D01*
X10599762Y-14731619D02*
X10609286Y-14769714D01*
X10609286Y-14769714D02*
X10609286Y-14817333D01*
X10609286Y-14817333D02*
X10599762Y-14855428D01*
X10599762Y-14855428D02*
X10590238Y-14874476D01*
X10590238Y-14874476D02*
X10580715Y-14884000D01*
X10580715Y-14884000D02*
X10561667Y-14893524D01*
X10561667Y-14893524D02*
X10542619Y-14893524D01*
X10542619Y-14893524D02*
X10523572Y-14884000D01*
X10523572Y-14884000D02*
X10514048Y-14874476D01*
X10514048Y-14874476D02*
X10504524Y-14855428D01*
X10504524Y-14855428D02*
X10495000Y-14817333D01*
X10495000Y-14817333D02*
X10495000Y-14769714D01*
X10495000Y-14769714D02*
X10504524Y-14731619D01*
X10504524Y-14731619D02*
X10514048Y-14712571D01*
X10514048Y-14712571D02*
X10523572Y-14703048D01*
X10523572Y-14703048D02*
X10542619Y-14693524D01*
X10685476Y-14693524D02*
X10685476Y-14731619D01*
X10761667Y-14693524D02*
X10761667Y-14731619D01*
X11056905Y-14969714D02*
X11047381Y-14960190D01*
X11047381Y-14960190D02*
X11028334Y-14931619D01*
X11028334Y-14931619D02*
X11018810Y-14912571D01*
X11018810Y-14912571D02*
X11009286Y-14884000D01*
X11009286Y-14884000D02*
X10999762Y-14836381D01*
X10999762Y-14836381D02*
X10999762Y-14798286D01*
X10999762Y-14798286D02*
X11009286Y-14750667D01*
X11009286Y-14750667D02*
X11018810Y-14722095D01*
X11018810Y-14722095D02*
X11028334Y-14703048D01*
X11028334Y-14703048D02*
X11047381Y-14674476D01*
X11047381Y-14674476D02*
X11056905Y-14664952D01*
X11237857Y-14893524D02*
X11123572Y-14893524D01*
X11180715Y-14893524D02*
X11180715Y-14693524D01*
X11180715Y-14693524D02*
X11161667Y-14722095D01*
X11161667Y-14722095D02*
X11142619Y-14741143D01*
X11142619Y-14741143D02*
X11123572Y-14750667D01*
X11475953Y-14893524D02*
X11475953Y-14693524D01*
X11561667Y-14893524D02*
X11561667Y-14788762D01*
X11561667Y-14788762D02*
X11552143Y-14769714D01*
X11552143Y-14769714D02*
X11533096Y-14760190D01*
X11533096Y-14760190D02*
X11504524Y-14760190D01*
X11504524Y-14760190D02*
X11485476Y-14769714D01*
X11485476Y-14769714D02*
X11475953Y-14779238D01*
X11685476Y-14893524D02*
X11666429Y-14884000D01*
X11666429Y-14884000D02*
X11656905Y-14874476D01*
X11656905Y-14874476D02*
X11647381Y-14855428D01*
X11647381Y-14855428D02*
X11647381Y-14798286D01*
X11647381Y-14798286D02*
X11656905Y-14779238D01*
X11656905Y-14779238D02*
X11666429Y-14769714D01*
X11666429Y-14769714D02*
X11685476Y-14760190D01*
X11685476Y-14760190D02*
X11714048Y-14760190D01*
X11714048Y-14760190D02*
X11733096Y-14769714D01*
X11733096Y-14769714D02*
X11742619Y-14779238D01*
X11742619Y-14779238D02*
X11752143Y-14798286D01*
X11752143Y-14798286D02*
X11752143Y-14855428D01*
X11752143Y-14855428D02*
X11742619Y-14874476D01*
X11742619Y-14874476D02*
X11733096Y-14884000D01*
X11733096Y-14884000D02*
X11714048Y-14893524D01*
X11714048Y-14893524D02*
X11685476Y-14893524D01*
X11866429Y-14893524D02*
X11847381Y-14884000D01*
X11847381Y-14884000D02*
X11837857Y-14864952D01*
X11837857Y-14864952D02*
X11837857Y-14693524D01*
X12018810Y-14884000D02*
X11999762Y-14893524D01*
X11999762Y-14893524D02*
X11961667Y-14893524D01*
X11961667Y-14893524D02*
X11942619Y-14884000D01*
X11942619Y-14884000D02*
X11933096Y-14864952D01*
X11933096Y-14864952D02*
X11933096Y-14788762D01*
X11933096Y-14788762D02*
X11942619Y-14769714D01*
X11942619Y-14769714D02*
X11961667Y-14760190D01*
X11961667Y-14760190D02*
X11999762Y-14760190D01*
X11999762Y-14760190D02*
X12018810Y-14769714D01*
X12018810Y-14769714D02*
X12028334Y-14788762D01*
X12028334Y-14788762D02*
X12028334Y-14807809D01*
X12028334Y-14807809D02*
X11933096Y-14826857D01*
X12095000Y-14969714D02*
X12104524Y-14960190D01*
X12104524Y-14960190D02*
X12123572Y-14931619D01*
X12123572Y-14931619D02*
X12133096Y-14912571D01*
X12133096Y-14912571D02*
X12142619Y-14884000D01*
X12142619Y-14884000D02*
X12152143Y-14836381D01*
X12152143Y-14836381D02*
X12152143Y-14798286D01*
X12152143Y-14798286D02*
X12142619Y-14750667D01*
X12142619Y-14750667D02*
X12133096Y-14722095D01*
X12133096Y-14722095D02*
X12123572Y-14703048D01*
X12123572Y-14703048D02*
X12104524Y-14674476D01*
X12104524Y-14674476D02*
X12095000Y-14664952D01*
M02*
