%TF.GenerationSoftware,KiCad,Pcbnew,8.0.2*%
%TF.CreationDate,2024-06-03T00:30:19+01:00*%
%TF.ProjectId,Ruler_V2_KiCad,52756c65-725f-4563-925f-4b694361642e,rev?*%
%TF.SameCoordinates,Original*%
%TF.FileFunction,Profile,NP*%
%FSLAX46Y46*%
G04 Gerber Fmt 4.6, Leading zero omitted, Abs format (unit mm)*
G04 Created by KiCad (PCBNEW 8.0.2) date 2024-06-03 00:30:19*
%MOMM*%
%LPD*%
G01*
G04 APERTURE LIST*
%TA.AperFunction,Profile*%
%ADD10C,0.100000*%
%TD*%
G04 APERTURE END LIST*
D10*
X127145500Y-106500000D02*
G75*
G02*
X125854500Y-106500000I-645500J0D01*
G01*
X125854500Y-106500000D02*
G75*
G02*
X127145500Y-106500000I645500J0D01*
G01*
X141861500Y-106500000D02*
G75*
G02*
X141138500Y-106500000I-361500J0D01*
G01*
X141138500Y-106500000D02*
G75*
G02*
X141861500Y-106500000I361500J0D01*
G01*
X136414000Y-93500000D02*
G75*
G02*
X134586000Y-93500000I-914000J0D01*
G01*
X134586000Y-93500000D02*
G75*
G02*
X136414000Y-93500000I914000J0D01*
G01*
X142225000Y-93500000D02*
G75*
G02*
X140775000Y-93500000I-725000J0D01*
G01*
X140775000Y-93500000D02*
G75*
G02*
X142225000Y-93500000I725000J0D01*
G01*
X127794000Y-93500000D02*
G75*
G02*
X125206000Y-93500000I-1294000J0D01*
G01*
X125206000Y-93500000D02*
G75*
G02*
X127794000Y-93500000I1294000J0D01*
G01*
X75000000Y-85000000D02*
X230000000Y-85000000D01*
X230000000Y-115000000D01*
X75000000Y-115000000D01*
X75000000Y-85000000D01*
X130652500Y-93500000D02*
G75*
G02*
X128347500Y-93500000I-1152500J0D01*
G01*
X128347500Y-93500000D02*
G75*
G02*
X130652500Y-93500000I1152500J0D01*
G01*
X138906000Y-106500000D02*
G75*
G02*
X138094000Y-106500000I-406000J0D01*
G01*
X138094000Y-106500000D02*
G75*
G02*
X138906000Y-106500000I406000J0D01*
G01*
X135956000Y-106500000D02*
G75*
G02*
X135044000Y-106500000I-456000J0D01*
G01*
X135044000Y-106500000D02*
G75*
G02*
X135956000Y-106500000I456000J0D01*
G01*
X130075000Y-106500000D02*
G75*
G02*
X128925000Y-106500000I-575000J0D01*
G01*
X128925000Y-106500000D02*
G75*
G02*
X130075000Y-106500000I575000J0D01*
G01*
X133526500Y-93500000D02*
G75*
G02*
X131473500Y-93500000I-1026500J0D01*
G01*
X131473500Y-93500000D02*
G75*
G02*
X133526500Y-93500000I1026500J0D01*
G01*
X139314000Y-93500000D02*
G75*
G02*
X137686000Y-93500000I-814000J0D01*
G01*
X137686000Y-93500000D02*
G75*
G02*
X139314000Y-93500000I814000J0D01*
G01*
X133012000Y-106500000D02*
G75*
G02*
X131988000Y-106500000I-512000J0D01*
G01*
X131988000Y-106500000D02*
G75*
G02*
X133012000Y-106500000I512000J0D01*
G01*
M02*
