M48
; DRILL file {KiCad 8.0.2} date 2024-06-03T00:30:21+0100
; FORMAT={-:-/ absolute / inch / decimal}
; #@! TF.CreationDate,2024-06-03T00:30:21+01:00
; #@! TF.GenerationSoftware,Kicad,Pcbnew,8.0.2
; #@! TF.FileFunction,Plated,1,2,PTH
FMAT,2
INCH
; #@! TA.AperFunction,Plated,PTH,ViaDrill
T1C0.0157
; #@! TA.AperFunction,Plated,PTH,ComponentDrill
T2C0.0197
; #@! TA.AperFunction,Plated,PTH,ComponentDrill
T3C0.0256
; #@! TA.AperFunction,Plated,PTH,ComponentDrill
T4C0.0315
; #@! TA.AperFunction,Plated,PTH,ComponentDrill
T5C0.0394
; #@! TA.AperFunction,Plated,PTH,ComponentDrill
T6C0.0866
; #@! TA.AperFunction,Plated,PTH,ComponentDrill
T7C0.1063
; #@! TA.AperFunction,Plated,PTH,ComponentDrill
T8C0.1260
; #@! TA.AperFunction,Plated,PTH,ComponentDrill
T9C0.1693
; #@! TA.AperFunction,Plated,PTH,ComponentDrill
T10C0.2087
; #@! TA.AperFunction,Plated,PTH,ComponentDrill
T11C0.2520
%
G90
G05
T1
X3.9094Y-4.2087
X4.5669Y-4.0512
T2
X6.8701Y-3.7461
X6.9094Y-3.7461
X6.9488Y-3.7461
X6.9882Y-3.7461
T3
X6.8291Y-3.9035
X6.8791Y-3.9035
X6.9291Y-3.9035
X6.9791Y-3.9035
T4
X6.7323Y-4.061
X6.811Y-4.061
X6.8898Y-4.061
X6.9685Y-4.061
T5
X6.6713Y-4.2185
X6.7713Y-4.2185
X6.8713Y-4.2185
X6.9713Y-4.2185
T6
X7.185Y-3.937
T7
X7.3819Y-3.937
T8
X7.6181Y-3.937
T9
X7.9134Y-3.937
T10
X8.2874Y-3.937
T11
X8.7205Y-3.9331
M30
