%TF.GenerationSoftware,KiCad,Pcbnew,8.0.2*%
%TF.CreationDate,2024-06-03T00:30:22+01:00*%
%TF.ProjectId,Ruler_V2_KiCad,52756c65-725f-4563-925f-4b694361642e,rev?*%
%TF.SameCoordinates,Original*%
%TF.FileFunction,Drillmap*%
%TF.FilePolarity,Positive*%
%FSLAX45Y45*%
G04 Gerber Fmt 4.5, Leading zero omitted, Abs format (unit mm)*
G04 Created by KiCad (PCBNEW 8.0.2) date 2024-06-03 00:30:22*
%MOMM*%
%LPD*%
G01*
G04 APERTURE LIST*
%ADD10C,0.100000*%
%ADD11C,0.200000*%
%ADD12C,0.220000*%
%ADD13C,0.270000*%
%ADD14C,0.320000*%
%ADD15C,0.430000*%
%ADD16C,0.530000*%
%ADD17C,0.640000*%
G04 APERTURE END LIST*
D10*
X12714550Y-10650000D02*
G75*
G02*
X12585450Y-10650000I-64550J0D01*
G01*
X12585450Y-10650000D02*
G75*
G02*
X12714550Y-10650000I64550J0D01*
G01*
X14186150Y-10650000D02*
G75*
G02*
X14113850Y-10650000I-36150J0D01*
G01*
X14113850Y-10650000D02*
G75*
G02*
X14186150Y-10650000I36150J0D01*
G01*
X13641400Y-9350000D02*
G75*
G02*
X13458600Y-9350000I-91400J0D01*
G01*
X13458600Y-9350000D02*
G75*
G02*
X13641400Y-9350000I91400J0D01*
G01*
X14222500Y-9350000D02*
G75*
G02*
X14077500Y-9350000I-72500J0D01*
G01*
X14077500Y-9350000D02*
G75*
G02*
X14222500Y-9350000I72500J0D01*
G01*
X12779400Y-9350000D02*
G75*
G02*
X12520600Y-9350000I-129400J0D01*
G01*
X12520600Y-9350000D02*
G75*
G02*
X12779400Y-9350000I129400J0D01*
G01*
X7500000Y-8500000D02*
X23000000Y-8500000D01*
X23000000Y-11500000D01*
X7500000Y-11500000D01*
X7500000Y-8500000D01*
X13065250Y-9350000D02*
G75*
G02*
X12834750Y-9350000I-115250J0D01*
G01*
X12834750Y-9350000D02*
G75*
G02*
X13065250Y-9350000I115250J0D01*
G01*
X13890600Y-10650000D02*
G75*
G02*
X13809400Y-10650000I-40600J0D01*
G01*
X13809400Y-10650000D02*
G75*
G02*
X13890600Y-10650000I40600J0D01*
G01*
X13595600Y-10650000D02*
G75*
G02*
X13504400Y-10650000I-45600J0D01*
G01*
X13504400Y-10650000D02*
G75*
G02*
X13595600Y-10650000I45600J0D01*
G01*
X13007500Y-10650000D02*
G75*
G02*
X12892500Y-10650000I-57500J0D01*
G01*
X12892500Y-10650000D02*
G75*
G02*
X13007500Y-10650000I57500J0D01*
G01*
X13352650Y-9350000D02*
G75*
G02*
X13147350Y-9350000I-102650J0D01*
G01*
X13147350Y-9350000D02*
G75*
G02*
X13352650Y-9350000I102650J0D01*
G01*
X13931400Y-9350000D02*
G75*
G02*
X13768600Y-9350000I-81400J0D01*
G01*
X13768600Y-9350000D02*
G75*
G02*
X13931400Y-9350000I81400J0D01*
G01*
X13301200Y-10650000D02*
G75*
G02*
X13198800Y-10650000I-51200J0D01*
G01*
X13198800Y-10650000D02*
G75*
G02*
X13301200Y-10650000I51200J0D01*
G01*
D11*
D10*
X9910000Y-10670000D02*
X9950000Y-10710000D01*
X9950000Y-10670000D02*
X9910000Y-10710000D01*
X11580000Y-10270000D02*
X11620000Y-10310000D01*
X11620000Y-10270000D02*
X11580000Y-10310000D01*
X17475000Y-9515000D02*
G75*
G02*
X17425000Y-9515000I-25000J0D01*
G01*
X17425000Y-9515000D02*
G75*
G02*
X17475000Y-9515000I25000J0D01*
G01*
X17575000Y-9515000D02*
G75*
G02*
X17525000Y-9515000I-25000J0D01*
G01*
X17525000Y-9515000D02*
G75*
G02*
X17575000Y-9515000I25000J0D01*
G01*
X17675000Y-9515000D02*
G75*
G02*
X17625000Y-9515000I-25000J0D01*
G01*
X17625000Y-9515000D02*
G75*
G02*
X17675000Y-9515000I25000J0D01*
G01*
X17775000Y-9515000D02*
G75*
G02*
X17725000Y-9515000I-25000J0D01*
G01*
X17725000Y-9515000D02*
G75*
G02*
X17775000Y-9515000I25000J0D01*
G01*
X17346000Y-9882500D02*
X17346000Y-9947500D01*
X17313500Y-9915000D02*
X17378500Y-9915000D01*
X17473000Y-9882500D02*
X17473000Y-9947500D01*
X17440500Y-9915000D02*
X17505500Y-9915000D01*
X17600000Y-9882500D02*
X17600000Y-9947500D01*
X17567500Y-9915000D02*
X17632500Y-9915000D01*
X17727000Y-9882500D02*
X17727000Y-9947500D01*
X17694500Y-9915000D02*
X17759500Y-9915000D01*
X17128285Y-10343285D02*
X17128285Y-10286716D01*
X17071716Y-10286716D01*
X17071716Y-10343285D01*
X17128285Y-10343285D01*
X17328285Y-10343285D02*
X17328285Y-10286716D01*
X17271716Y-10286716D01*
X17271716Y-10343285D01*
X17328285Y-10343285D01*
X17528285Y-10343285D02*
X17528285Y-10286716D01*
X17471716Y-10286716D01*
X17471716Y-10343285D01*
X17528285Y-10343285D01*
X17728285Y-10343285D02*
X17728285Y-10286716D01*
X17671716Y-10286716D01*
X17671716Y-10343285D01*
X17728285Y-10343285D01*
X16945000Y-10765000D02*
X16995000Y-10715000D01*
X16945000Y-10665000D01*
X16895000Y-10715000D01*
X16945000Y-10765000D01*
X17199000Y-10765000D02*
X17249000Y-10715000D01*
X17199000Y-10665000D01*
X17149000Y-10715000D01*
X17199000Y-10765000D01*
X17453000Y-10765000D02*
X17503000Y-10715000D01*
X17453000Y-10665000D01*
X17403000Y-10715000D01*
X17453000Y-10765000D01*
X17707000Y-10765000D02*
X17757000Y-10715000D01*
X17707000Y-10665000D01*
X17657000Y-10715000D01*
X17707000Y-10765000D01*
D12*
X18140000Y-9890000D02*
X18360000Y-10110000D01*
X18360000Y-9890000D02*
X18140000Y-10110000D01*
X18360000Y-10000000D02*
G75*
G02*
X18140000Y-10000000I-110000J0D01*
G01*
X18140000Y-10000000D02*
G75*
G02*
X18360000Y-10000000I110000J0D01*
G01*
D13*
X18615000Y-9865000D02*
X18885000Y-10135000D01*
X18885000Y-9865000D02*
X18615000Y-10135000D01*
X18750000Y-9865000D02*
X18750000Y-10135000D01*
X18615000Y-10000000D02*
X18885000Y-10000000D01*
D14*
X19190000Y-9840000D02*
X19510000Y-10160000D01*
X19510000Y-9840000D02*
X19190000Y-10160000D01*
X19463138Y-10113138D02*
X19463138Y-9886862D01*
X19236862Y-9886862D01*
X19236862Y-10113138D01*
X19463138Y-10113138D01*
D15*
X19885000Y-9785000D02*
X20315000Y-10215000D01*
X20315000Y-9785000D02*
X19885000Y-10215000D01*
X20100000Y-10215000D02*
X20315000Y-10000000D01*
X20100000Y-9785000D01*
X19885000Y-10000000D01*
X20100000Y-10215000D01*
D16*
X21050000Y-9735000D02*
X21050000Y-10265000D01*
X20785000Y-10000000D02*
X21315000Y-10000000D01*
X21315000Y-10000000D02*
G75*
G02*
X20785000Y-10000000I-265000J0D01*
G01*
X20785000Y-10000000D02*
G75*
G02*
X21315000Y-10000000I265000J0D01*
G01*
D17*
X22376276Y-10216276D02*
X22376276Y-9763724D01*
X21923724Y-9763724D01*
X21923724Y-10216276D01*
X22376276Y-10216276D01*
X22470000Y-9990000D02*
G75*
G02*
X21830000Y-9990000I-320000J0D01*
G01*
X21830000Y-9990000D02*
G75*
G02*
X22470000Y-9990000I320000J0D01*
G01*
D11*
X7755777Y-11816484D02*
X7755777Y-11616484D01*
X7755777Y-11616484D02*
X7803396Y-11616484D01*
X7803396Y-11616484D02*
X7831967Y-11626008D01*
X7831967Y-11626008D02*
X7851015Y-11645055D01*
X7851015Y-11645055D02*
X7860539Y-11664103D01*
X7860539Y-11664103D02*
X7870062Y-11702198D01*
X7870062Y-11702198D02*
X7870062Y-11730769D01*
X7870062Y-11730769D02*
X7860539Y-11768865D01*
X7860539Y-11768865D02*
X7851015Y-11787912D01*
X7851015Y-11787912D02*
X7831967Y-11806960D01*
X7831967Y-11806960D02*
X7803396Y-11816484D01*
X7803396Y-11816484D02*
X7755777Y-11816484D01*
X7955777Y-11816484D02*
X7955777Y-11683150D01*
X7955777Y-11721246D02*
X7965301Y-11702198D01*
X7965301Y-11702198D02*
X7974824Y-11692674D01*
X7974824Y-11692674D02*
X7993872Y-11683150D01*
X7993872Y-11683150D02*
X8012920Y-11683150D01*
X8079586Y-11816484D02*
X8079586Y-11683150D01*
X8079586Y-11616484D02*
X8070062Y-11626008D01*
X8070062Y-11626008D02*
X8079586Y-11635531D01*
X8079586Y-11635531D02*
X8089110Y-11626008D01*
X8089110Y-11626008D02*
X8079586Y-11616484D01*
X8079586Y-11616484D02*
X8079586Y-11635531D01*
X8203396Y-11816484D02*
X8184348Y-11806960D01*
X8184348Y-11806960D02*
X8174824Y-11787912D01*
X8174824Y-11787912D02*
X8174824Y-11616484D01*
X8308158Y-11816484D02*
X8289110Y-11806960D01*
X8289110Y-11806960D02*
X8279586Y-11787912D01*
X8279586Y-11787912D02*
X8279586Y-11616484D01*
X8536729Y-11816484D02*
X8536729Y-11616484D01*
X8536729Y-11616484D02*
X8603396Y-11759341D01*
X8603396Y-11759341D02*
X8670063Y-11616484D01*
X8670063Y-11616484D02*
X8670063Y-11816484D01*
X8851015Y-11816484D02*
X8851015Y-11711722D01*
X8851015Y-11711722D02*
X8841491Y-11692674D01*
X8841491Y-11692674D02*
X8822444Y-11683150D01*
X8822444Y-11683150D02*
X8784348Y-11683150D01*
X8784348Y-11683150D02*
X8765301Y-11692674D01*
X8851015Y-11806960D02*
X8831967Y-11816484D01*
X8831967Y-11816484D02*
X8784348Y-11816484D01*
X8784348Y-11816484D02*
X8765301Y-11806960D01*
X8765301Y-11806960D02*
X8755777Y-11787912D01*
X8755777Y-11787912D02*
X8755777Y-11768865D01*
X8755777Y-11768865D02*
X8765301Y-11749817D01*
X8765301Y-11749817D02*
X8784348Y-11740293D01*
X8784348Y-11740293D02*
X8831967Y-11740293D01*
X8831967Y-11740293D02*
X8851015Y-11730769D01*
X8946253Y-11683150D02*
X8946253Y-11883150D01*
X8946253Y-11692674D02*
X8965301Y-11683150D01*
X8965301Y-11683150D02*
X9003396Y-11683150D01*
X9003396Y-11683150D02*
X9022444Y-11692674D01*
X9022444Y-11692674D02*
X9031967Y-11702198D01*
X9031967Y-11702198D02*
X9041491Y-11721246D01*
X9041491Y-11721246D02*
X9041491Y-11778388D01*
X9041491Y-11778388D02*
X9031967Y-11797436D01*
X9031967Y-11797436D02*
X9022444Y-11806960D01*
X9022444Y-11806960D02*
X9003396Y-11816484D01*
X9003396Y-11816484D02*
X8965301Y-11816484D01*
X8965301Y-11816484D02*
X8946253Y-11806960D01*
X9127205Y-11797436D02*
X9136729Y-11806960D01*
X9136729Y-11806960D02*
X9127205Y-11816484D01*
X9127205Y-11816484D02*
X9117682Y-11806960D01*
X9117682Y-11806960D02*
X9127205Y-11797436D01*
X9127205Y-11797436D02*
X9127205Y-11816484D01*
X9127205Y-11692674D02*
X9136729Y-11702198D01*
X9136729Y-11702198D02*
X9127205Y-11711722D01*
X9127205Y-11711722D02*
X9117682Y-11702198D01*
X9117682Y-11702198D02*
X9127205Y-11692674D01*
X9127205Y-11692674D02*
X9127205Y-11711722D01*
D10*
X7455000Y-12125000D02*
X7495000Y-12165000D01*
X7495000Y-12125000D02*
X7455000Y-12165000D01*
D11*
X7793872Y-12036484D02*
X7812920Y-12036484D01*
X7812920Y-12036484D02*
X7831967Y-12046008D01*
X7831967Y-12046008D02*
X7841491Y-12055531D01*
X7841491Y-12055531D02*
X7851015Y-12074579D01*
X7851015Y-12074579D02*
X7860539Y-12112674D01*
X7860539Y-12112674D02*
X7860539Y-12160293D01*
X7860539Y-12160293D02*
X7851015Y-12198388D01*
X7851015Y-12198388D02*
X7841491Y-12217436D01*
X7841491Y-12217436D02*
X7831967Y-12226960D01*
X7831967Y-12226960D02*
X7812920Y-12236484D01*
X7812920Y-12236484D02*
X7793872Y-12236484D01*
X7793872Y-12236484D02*
X7774824Y-12226960D01*
X7774824Y-12226960D02*
X7765301Y-12217436D01*
X7765301Y-12217436D02*
X7755777Y-12198388D01*
X7755777Y-12198388D02*
X7746253Y-12160293D01*
X7746253Y-12160293D02*
X7746253Y-12112674D01*
X7746253Y-12112674D02*
X7755777Y-12074579D01*
X7755777Y-12074579D02*
X7765301Y-12055531D01*
X7765301Y-12055531D02*
X7774824Y-12046008D01*
X7774824Y-12046008D02*
X7793872Y-12036484D01*
X7946253Y-12217436D02*
X7955777Y-12226960D01*
X7955777Y-12226960D02*
X7946253Y-12236484D01*
X7946253Y-12236484D02*
X7936729Y-12226960D01*
X7936729Y-12226960D02*
X7946253Y-12217436D01*
X7946253Y-12217436D02*
X7946253Y-12236484D01*
X8127205Y-12103150D02*
X8127205Y-12236484D01*
X8079586Y-12026960D02*
X8031967Y-12169817D01*
X8031967Y-12169817D02*
X8155777Y-12169817D01*
X8270062Y-12036484D02*
X8289110Y-12036484D01*
X8289110Y-12036484D02*
X8308158Y-12046008D01*
X8308158Y-12046008D02*
X8317682Y-12055531D01*
X8317682Y-12055531D02*
X8327205Y-12074579D01*
X8327205Y-12074579D02*
X8336729Y-12112674D01*
X8336729Y-12112674D02*
X8336729Y-12160293D01*
X8336729Y-12160293D02*
X8327205Y-12198388D01*
X8327205Y-12198388D02*
X8317682Y-12217436D01*
X8317682Y-12217436D02*
X8308158Y-12226960D01*
X8308158Y-12226960D02*
X8289110Y-12236484D01*
X8289110Y-12236484D02*
X8270062Y-12236484D01*
X8270062Y-12236484D02*
X8251015Y-12226960D01*
X8251015Y-12226960D02*
X8241491Y-12217436D01*
X8241491Y-12217436D02*
X8231967Y-12198388D01*
X8231967Y-12198388D02*
X8222443Y-12160293D01*
X8222443Y-12160293D02*
X8222443Y-12112674D01*
X8222443Y-12112674D02*
X8231967Y-12074579D01*
X8231967Y-12074579D02*
X8241491Y-12055531D01*
X8241491Y-12055531D02*
X8251015Y-12046008D01*
X8251015Y-12046008D02*
X8270062Y-12036484D01*
X8460539Y-12036484D02*
X8479586Y-12036484D01*
X8479586Y-12036484D02*
X8498634Y-12046008D01*
X8498634Y-12046008D02*
X8508158Y-12055531D01*
X8508158Y-12055531D02*
X8517682Y-12074579D01*
X8517682Y-12074579D02*
X8527205Y-12112674D01*
X8527205Y-12112674D02*
X8527205Y-12160293D01*
X8527205Y-12160293D02*
X8517682Y-12198388D01*
X8517682Y-12198388D02*
X8508158Y-12217436D01*
X8508158Y-12217436D02*
X8498634Y-12226960D01*
X8498634Y-12226960D02*
X8479586Y-12236484D01*
X8479586Y-12236484D02*
X8460539Y-12236484D01*
X8460539Y-12236484D02*
X8441491Y-12226960D01*
X8441491Y-12226960D02*
X8431967Y-12217436D01*
X8431967Y-12217436D02*
X8422444Y-12198388D01*
X8422444Y-12198388D02*
X8412920Y-12160293D01*
X8412920Y-12160293D02*
X8412920Y-12112674D01*
X8412920Y-12112674D02*
X8422444Y-12074579D01*
X8422444Y-12074579D02*
X8431967Y-12055531D01*
X8431967Y-12055531D02*
X8441491Y-12046008D01*
X8441491Y-12046008D02*
X8460539Y-12036484D01*
X8612920Y-12236484D02*
X8612920Y-12103150D01*
X8612920Y-12122198D02*
X8622444Y-12112674D01*
X8622444Y-12112674D02*
X8641491Y-12103150D01*
X8641491Y-12103150D02*
X8670063Y-12103150D01*
X8670063Y-12103150D02*
X8689110Y-12112674D01*
X8689110Y-12112674D02*
X8698634Y-12131722D01*
X8698634Y-12131722D02*
X8698634Y-12236484D01*
X8698634Y-12131722D02*
X8708158Y-12112674D01*
X8708158Y-12112674D02*
X8727205Y-12103150D01*
X8727205Y-12103150D02*
X8755777Y-12103150D01*
X8755777Y-12103150D02*
X8774825Y-12112674D01*
X8774825Y-12112674D02*
X8784348Y-12131722D01*
X8784348Y-12131722D02*
X8784348Y-12236484D01*
X8879586Y-12236484D02*
X8879586Y-12103150D01*
X8879586Y-12122198D02*
X8889110Y-12112674D01*
X8889110Y-12112674D02*
X8908158Y-12103150D01*
X8908158Y-12103150D02*
X8936729Y-12103150D01*
X8936729Y-12103150D02*
X8955777Y-12112674D01*
X8955777Y-12112674D02*
X8965301Y-12131722D01*
X8965301Y-12131722D02*
X8965301Y-12236484D01*
X8965301Y-12131722D02*
X8974825Y-12112674D01*
X8974825Y-12112674D02*
X8993872Y-12103150D01*
X8993872Y-12103150D02*
X9022444Y-12103150D01*
X9022444Y-12103150D02*
X9041491Y-12112674D01*
X9041491Y-12112674D02*
X9051015Y-12131722D01*
X9051015Y-12131722D02*
X9051015Y-12236484D01*
X9441491Y-12026960D02*
X9270063Y-12284103D01*
X9698634Y-12036484D02*
X9717682Y-12036484D01*
X9717682Y-12036484D02*
X9736729Y-12046008D01*
X9736729Y-12046008D02*
X9746253Y-12055531D01*
X9746253Y-12055531D02*
X9755777Y-12074579D01*
X9755777Y-12074579D02*
X9765301Y-12112674D01*
X9765301Y-12112674D02*
X9765301Y-12160293D01*
X9765301Y-12160293D02*
X9755777Y-12198388D01*
X9755777Y-12198388D02*
X9746253Y-12217436D01*
X9746253Y-12217436D02*
X9736729Y-12226960D01*
X9736729Y-12226960D02*
X9717682Y-12236484D01*
X9717682Y-12236484D02*
X9698634Y-12236484D01*
X9698634Y-12236484D02*
X9679587Y-12226960D01*
X9679587Y-12226960D02*
X9670063Y-12217436D01*
X9670063Y-12217436D02*
X9660539Y-12198388D01*
X9660539Y-12198388D02*
X9651015Y-12160293D01*
X9651015Y-12160293D02*
X9651015Y-12112674D01*
X9651015Y-12112674D02*
X9660539Y-12074579D01*
X9660539Y-12074579D02*
X9670063Y-12055531D01*
X9670063Y-12055531D02*
X9679587Y-12046008D01*
X9679587Y-12046008D02*
X9698634Y-12036484D01*
X9851015Y-12217436D02*
X9860539Y-12226960D01*
X9860539Y-12226960D02*
X9851015Y-12236484D01*
X9851015Y-12236484D02*
X9841491Y-12226960D01*
X9841491Y-12226960D02*
X9851015Y-12217436D01*
X9851015Y-12217436D02*
X9851015Y-12236484D01*
X9984348Y-12036484D02*
X10003396Y-12036484D01*
X10003396Y-12036484D02*
X10022444Y-12046008D01*
X10022444Y-12046008D02*
X10031968Y-12055531D01*
X10031968Y-12055531D02*
X10041491Y-12074579D01*
X10041491Y-12074579D02*
X10051015Y-12112674D01*
X10051015Y-12112674D02*
X10051015Y-12160293D01*
X10051015Y-12160293D02*
X10041491Y-12198388D01*
X10041491Y-12198388D02*
X10031968Y-12217436D01*
X10031968Y-12217436D02*
X10022444Y-12226960D01*
X10022444Y-12226960D02*
X10003396Y-12236484D01*
X10003396Y-12236484D02*
X9984348Y-12236484D01*
X9984348Y-12236484D02*
X9965301Y-12226960D01*
X9965301Y-12226960D02*
X9955777Y-12217436D01*
X9955777Y-12217436D02*
X9946253Y-12198388D01*
X9946253Y-12198388D02*
X9936729Y-12160293D01*
X9936729Y-12160293D02*
X9936729Y-12112674D01*
X9936729Y-12112674D02*
X9946253Y-12074579D01*
X9946253Y-12074579D02*
X9955777Y-12055531D01*
X9955777Y-12055531D02*
X9965301Y-12046008D01*
X9965301Y-12046008D02*
X9984348Y-12036484D01*
X10241491Y-12236484D02*
X10127206Y-12236484D01*
X10184348Y-12236484D02*
X10184348Y-12036484D01*
X10184348Y-12036484D02*
X10165301Y-12065055D01*
X10165301Y-12065055D02*
X10146253Y-12084103D01*
X10146253Y-12084103D02*
X10127206Y-12093627D01*
X10422444Y-12036484D02*
X10327206Y-12036484D01*
X10327206Y-12036484D02*
X10317682Y-12131722D01*
X10317682Y-12131722D02*
X10327206Y-12122198D01*
X10327206Y-12122198D02*
X10346253Y-12112674D01*
X10346253Y-12112674D02*
X10393872Y-12112674D01*
X10393872Y-12112674D02*
X10412920Y-12122198D01*
X10412920Y-12122198D02*
X10422444Y-12131722D01*
X10422444Y-12131722D02*
X10431968Y-12150769D01*
X10431968Y-12150769D02*
X10431968Y-12198388D01*
X10431968Y-12198388D02*
X10422444Y-12217436D01*
X10422444Y-12217436D02*
X10412920Y-12226960D01*
X10412920Y-12226960D02*
X10393872Y-12236484D01*
X10393872Y-12236484D02*
X10346253Y-12236484D01*
X10346253Y-12236484D02*
X10327206Y-12226960D01*
X10327206Y-12226960D02*
X10317682Y-12217436D01*
X10498634Y-12036484D02*
X10631968Y-12036484D01*
X10631968Y-12036484D02*
X10546253Y-12236484D01*
X10698634Y-12036484D02*
X10698634Y-12074579D01*
X10774825Y-12036484D02*
X10774825Y-12074579D01*
X11070063Y-12312674D02*
X11060539Y-12303150D01*
X11060539Y-12303150D02*
X11041491Y-12274579D01*
X11041491Y-12274579D02*
X11031968Y-12255531D01*
X11031968Y-12255531D02*
X11022444Y-12226960D01*
X11022444Y-12226960D02*
X11012920Y-12179341D01*
X11012920Y-12179341D02*
X11012920Y-12141246D01*
X11012920Y-12141246D02*
X11022444Y-12093627D01*
X11022444Y-12093627D02*
X11031968Y-12065055D01*
X11031968Y-12065055D02*
X11041491Y-12046008D01*
X11041491Y-12046008D02*
X11060539Y-12017436D01*
X11060539Y-12017436D02*
X11070063Y-12007912D01*
X11136730Y-12055531D02*
X11146253Y-12046008D01*
X11146253Y-12046008D02*
X11165301Y-12036484D01*
X11165301Y-12036484D02*
X11212920Y-12036484D01*
X11212920Y-12036484D02*
X11231968Y-12046008D01*
X11231968Y-12046008D02*
X11241491Y-12055531D01*
X11241491Y-12055531D02*
X11251015Y-12074579D01*
X11251015Y-12074579D02*
X11251015Y-12093627D01*
X11251015Y-12093627D02*
X11241491Y-12122198D01*
X11241491Y-12122198D02*
X11127206Y-12236484D01*
X11127206Y-12236484D02*
X11251015Y-12236484D01*
X11489110Y-12236484D02*
X11489110Y-12036484D01*
X11574825Y-12236484D02*
X11574825Y-12131722D01*
X11574825Y-12131722D02*
X11565301Y-12112674D01*
X11565301Y-12112674D02*
X11546253Y-12103150D01*
X11546253Y-12103150D02*
X11517682Y-12103150D01*
X11517682Y-12103150D02*
X11498634Y-12112674D01*
X11498634Y-12112674D02*
X11489110Y-12122198D01*
X11698634Y-12236484D02*
X11679587Y-12226960D01*
X11679587Y-12226960D02*
X11670063Y-12217436D01*
X11670063Y-12217436D02*
X11660539Y-12198388D01*
X11660539Y-12198388D02*
X11660539Y-12141246D01*
X11660539Y-12141246D02*
X11670063Y-12122198D01*
X11670063Y-12122198D02*
X11679587Y-12112674D01*
X11679587Y-12112674D02*
X11698634Y-12103150D01*
X11698634Y-12103150D02*
X11727206Y-12103150D01*
X11727206Y-12103150D02*
X11746253Y-12112674D01*
X11746253Y-12112674D02*
X11755777Y-12122198D01*
X11755777Y-12122198D02*
X11765301Y-12141246D01*
X11765301Y-12141246D02*
X11765301Y-12198388D01*
X11765301Y-12198388D02*
X11755777Y-12217436D01*
X11755777Y-12217436D02*
X11746253Y-12226960D01*
X11746253Y-12226960D02*
X11727206Y-12236484D01*
X11727206Y-12236484D02*
X11698634Y-12236484D01*
X11879587Y-12236484D02*
X11860539Y-12226960D01*
X11860539Y-12226960D02*
X11851015Y-12207912D01*
X11851015Y-12207912D02*
X11851015Y-12036484D01*
X12031968Y-12226960D02*
X12012920Y-12236484D01*
X12012920Y-12236484D02*
X11974825Y-12236484D01*
X11974825Y-12236484D02*
X11955777Y-12226960D01*
X11955777Y-12226960D02*
X11946253Y-12207912D01*
X11946253Y-12207912D02*
X11946253Y-12131722D01*
X11946253Y-12131722D02*
X11955777Y-12112674D01*
X11955777Y-12112674D02*
X11974825Y-12103150D01*
X11974825Y-12103150D02*
X12012920Y-12103150D01*
X12012920Y-12103150D02*
X12031968Y-12112674D01*
X12031968Y-12112674D02*
X12041491Y-12131722D01*
X12041491Y-12131722D02*
X12041491Y-12150769D01*
X12041491Y-12150769D02*
X11946253Y-12169817D01*
X12117682Y-12226960D02*
X12136730Y-12236484D01*
X12136730Y-12236484D02*
X12174825Y-12236484D01*
X12174825Y-12236484D02*
X12193872Y-12226960D01*
X12193872Y-12226960D02*
X12203396Y-12207912D01*
X12203396Y-12207912D02*
X12203396Y-12198388D01*
X12203396Y-12198388D02*
X12193872Y-12179341D01*
X12193872Y-12179341D02*
X12174825Y-12169817D01*
X12174825Y-12169817D02*
X12146253Y-12169817D01*
X12146253Y-12169817D02*
X12127206Y-12160293D01*
X12127206Y-12160293D02*
X12117682Y-12141246D01*
X12117682Y-12141246D02*
X12117682Y-12131722D01*
X12117682Y-12131722D02*
X12127206Y-12112674D01*
X12127206Y-12112674D02*
X12146253Y-12103150D01*
X12146253Y-12103150D02*
X12174825Y-12103150D01*
X12174825Y-12103150D02*
X12193872Y-12112674D01*
X12270063Y-12312674D02*
X12279587Y-12303150D01*
X12279587Y-12303150D02*
X12298634Y-12274579D01*
X12298634Y-12274579D02*
X12308158Y-12255531D01*
X12308158Y-12255531D02*
X12317682Y-12226960D01*
X12317682Y-12226960D02*
X12327206Y-12179341D01*
X12327206Y-12179341D02*
X12327206Y-12141246D01*
X12327206Y-12141246D02*
X12317682Y-12093627D01*
X12317682Y-12093627D02*
X12308158Y-12065055D01*
X12308158Y-12065055D02*
X12298634Y-12046008D01*
X12298634Y-12046008D02*
X12279587Y-12017436D01*
X12279587Y-12017436D02*
X12270063Y-12007912D01*
D10*
X7495000Y-12409000D02*
G75*
G02*
X7445000Y-12409000I-25000J0D01*
G01*
X7445000Y-12409000D02*
G75*
G02*
X7495000Y-12409000I25000J0D01*
G01*
D11*
X7793872Y-12300484D02*
X7812920Y-12300484D01*
X7812920Y-12300484D02*
X7831967Y-12310008D01*
X7831967Y-12310008D02*
X7841491Y-12319531D01*
X7841491Y-12319531D02*
X7851015Y-12338579D01*
X7851015Y-12338579D02*
X7860539Y-12376674D01*
X7860539Y-12376674D02*
X7860539Y-12424293D01*
X7860539Y-12424293D02*
X7851015Y-12462388D01*
X7851015Y-12462388D02*
X7841491Y-12481436D01*
X7841491Y-12481436D02*
X7831967Y-12490960D01*
X7831967Y-12490960D02*
X7812920Y-12500484D01*
X7812920Y-12500484D02*
X7793872Y-12500484D01*
X7793872Y-12500484D02*
X7774824Y-12490960D01*
X7774824Y-12490960D02*
X7765301Y-12481436D01*
X7765301Y-12481436D02*
X7755777Y-12462388D01*
X7755777Y-12462388D02*
X7746253Y-12424293D01*
X7746253Y-12424293D02*
X7746253Y-12376674D01*
X7746253Y-12376674D02*
X7755777Y-12338579D01*
X7755777Y-12338579D02*
X7765301Y-12319531D01*
X7765301Y-12319531D02*
X7774824Y-12310008D01*
X7774824Y-12310008D02*
X7793872Y-12300484D01*
X7946253Y-12481436D02*
X7955777Y-12490960D01*
X7955777Y-12490960D02*
X7946253Y-12500484D01*
X7946253Y-12500484D02*
X7936729Y-12490960D01*
X7936729Y-12490960D02*
X7946253Y-12481436D01*
X7946253Y-12481436D02*
X7946253Y-12500484D01*
X8136729Y-12300484D02*
X8041491Y-12300484D01*
X8041491Y-12300484D02*
X8031967Y-12395722D01*
X8031967Y-12395722D02*
X8041491Y-12386198D01*
X8041491Y-12386198D02*
X8060539Y-12376674D01*
X8060539Y-12376674D02*
X8108158Y-12376674D01*
X8108158Y-12376674D02*
X8127205Y-12386198D01*
X8127205Y-12386198D02*
X8136729Y-12395722D01*
X8136729Y-12395722D02*
X8146253Y-12414769D01*
X8146253Y-12414769D02*
X8146253Y-12462388D01*
X8146253Y-12462388D02*
X8136729Y-12481436D01*
X8136729Y-12481436D02*
X8127205Y-12490960D01*
X8127205Y-12490960D02*
X8108158Y-12500484D01*
X8108158Y-12500484D02*
X8060539Y-12500484D01*
X8060539Y-12500484D02*
X8041491Y-12490960D01*
X8041491Y-12490960D02*
X8031967Y-12481436D01*
X8270062Y-12300484D02*
X8289110Y-12300484D01*
X8289110Y-12300484D02*
X8308158Y-12310008D01*
X8308158Y-12310008D02*
X8317682Y-12319531D01*
X8317682Y-12319531D02*
X8327205Y-12338579D01*
X8327205Y-12338579D02*
X8336729Y-12376674D01*
X8336729Y-12376674D02*
X8336729Y-12424293D01*
X8336729Y-12424293D02*
X8327205Y-12462388D01*
X8327205Y-12462388D02*
X8317682Y-12481436D01*
X8317682Y-12481436D02*
X8308158Y-12490960D01*
X8308158Y-12490960D02*
X8289110Y-12500484D01*
X8289110Y-12500484D02*
X8270062Y-12500484D01*
X8270062Y-12500484D02*
X8251015Y-12490960D01*
X8251015Y-12490960D02*
X8241491Y-12481436D01*
X8241491Y-12481436D02*
X8231967Y-12462388D01*
X8231967Y-12462388D02*
X8222443Y-12424293D01*
X8222443Y-12424293D02*
X8222443Y-12376674D01*
X8222443Y-12376674D02*
X8231967Y-12338579D01*
X8231967Y-12338579D02*
X8241491Y-12319531D01*
X8241491Y-12319531D02*
X8251015Y-12310008D01*
X8251015Y-12310008D02*
X8270062Y-12300484D01*
X8460539Y-12300484D02*
X8479586Y-12300484D01*
X8479586Y-12300484D02*
X8498634Y-12310008D01*
X8498634Y-12310008D02*
X8508158Y-12319531D01*
X8508158Y-12319531D02*
X8517682Y-12338579D01*
X8517682Y-12338579D02*
X8527205Y-12376674D01*
X8527205Y-12376674D02*
X8527205Y-12424293D01*
X8527205Y-12424293D02*
X8517682Y-12462388D01*
X8517682Y-12462388D02*
X8508158Y-12481436D01*
X8508158Y-12481436D02*
X8498634Y-12490960D01*
X8498634Y-12490960D02*
X8479586Y-12500484D01*
X8479586Y-12500484D02*
X8460539Y-12500484D01*
X8460539Y-12500484D02*
X8441491Y-12490960D01*
X8441491Y-12490960D02*
X8431967Y-12481436D01*
X8431967Y-12481436D02*
X8422444Y-12462388D01*
X8422444Y-12462388D02*
X8412920Y-12424293D01*
X8412920Y-12424293D02*
X8412920Y-12376674D01*
X8412920Y-12376674D02*
X8422444Y-12338579D01*
X8422444Y-12338579D02*
X8431967Y-12319531D01*
X8431967Y-12319531D02*
X8441491Y-12310008D01*
X8441491Y-12310008D02*
X8460539Y-12300484D01*
X8612920Y-12500484D02*
X8612920Y-12367150D01*
X8612920Y-12386198D02*
X8622444Y-12376674D01*
X8622444Y-12376674D02*
X8641491Y-12367150D01*
X8641491Y-12367150D02*
X8670063Y-12367150D01*
X8670063Y-12367150D02*
X8689110Y-12376674D01*
X8689110Y-12376674D02*
X8698634Y-12395722D01*
X8698634Y-12395722D02*
X8698634Y-12500484D01*
X8698634Y-12395722D02*
X8708158Y-12376674D01*
X8708158Y-12376674D02*
X8727205Y-12367150D01*
X8727205Y-12367150D02*
X8755777Y-12367150D01*
X8755777Y-12367150D02*
X8774825Y-12376674D01*
X8774825Y-12376674D02*
X8784348Y-12395722D01*
X8784348Y-12395722D02*
X8784348Y-12500484D01*
X8879586Y-12500484D02*
X8879586Y-12367150D01*
X8879586Y-12386198D02*
X8889110Y-12376674D01*
X8889110Y-12376674D02*
X8908158Y-12367150D01*
X8908158Y-12367150D02*
X8936729Y-12367150D01*
X8936729Y-12367150D02*
X8955777Y-12376674D01*
X8955777Y-12376674D02*
X8965301Y-12395722D01*
X8965301Y-12395722D02*
X8965301Y-12500484D01*
X8965301Y-12395722D02*
X8974825Y-12376674D01*
X8974825Y-12376674D02*
X8993872Y-12367150D01*
X8993872Y-12367150D02*
X9022444Y-12367150D01*
X9022444Y-12367150D02*
X9041491Y-12376674D01*
X9041491Y-12376674D02*
X9051015Y-12395722D01*
X9051015Y-12395722D02*
X9051015Y-12500484D01*
X9441491Y-12290960D02*
X9270063Y-12548103D01*
X9698634Y-12300484D02*
X9717682Y-12300484D01*
X9717682Y-12300484D02*
X9736729Y-12310008D01*
X9736729Y-12310008D02*
X9746253Y-12319531D01*
X9746253Y-12319531D02*
X9755777Y-12338579D01*
X9755777Y-12338579D02*
X9765301Y-12376674D01*
X9765301Y-12376674D02*
X9765301Y-12424293D01*
X9765301Y-12424293D02*
X9755777Y-12462388D01*
X9755777Y-12462388D02*
X9746253Y-12481436D01*
X9746253Y-12481436D02*
X9736729Y-12490960D01*
X9736729Y-12490960D02*
X9717682Y-12500484D01*
X9717682Y-12500484D02*
X9698634Y-12500484D01*
X9698634Y-12500484D02*
X9679587Y-12490960D01*
X9679587Y-12490960D02*
X9670063Y-12481436D01*
X9670063Y-12481436D02*
X9660539Y-12462388D01*
X9660539Y-12462388D02*
X9651015Y-12424293D01*
X9651015Y-12424293D02*
X9651015Y-12376674D01*
X9651015Y-12376674D02*
X9660539Y-12338579D01*
X9660539Y-12338579D02*
X9670063Y-12319531D01*
X9670063Y-12319531D02*
X9679587Y-12310008D01*
X9679587Y-12310008D02*
X9698634Y-12300484D01*
X9851015Y-12481436D02*
X9860539Y-12490960D01*
X9860539Y-12490960D02*
X9851015Y-12500484D01*
X9851015Y-12500484D02*
X9841491Y-12490960D01*
X9841491Y-12490960D02*
X9851015Y-12481436D01*
X9851015Y-12481436D02*
X9851015Y-12500484D01*
X9984348Y-12300484D02*
X10003396Y-12300484D01*
X10003396Y-12300484D02*
X10022444Y-12310008D01*
X10022444Y-12310008D02*
X10031968Y-12319531D01*
X10031968Y-12319531D02*
X10041491Y-12338579D01*
X10041491Y-12338579D02*
X10051015Y-12376674D01*
X10051015Y-12376674D02*
X10051015Y-12424293D01*
X10051015Y-12424293D02*
X10041491Y-12462388D01*
X10041491Y-12462388D02*
X10031968Y-12481436D01*
X10031968Y-12481436D02*
X10022444Y-12490960D01*
X10022444Y-12490960D02*
X10003396Y-12500484D01*
X10003396Y-12500484D02*
X9984348Y-12500484D01*
X9984348Y-12500484D02*
X9965301Y-12490960D01*
X9965301Y-12490960D02*
X9955777Y-12481436D01*
X9955777Y-12481436D02*
X9946253Y-12462388D01*
X9946253Y-12462388D02*
X9936729Y-12424293D01*
X9936729Y-12424293D02*
X9936729Y-12376674D01*
X9936729Y-12376674D02*
X9946253Y-12338579D01*
X9946253Y-12338579D02*
X9955777Y-12319531D01*
X9955777Y-12319531D02*
X9965301Y-12310008D01*
X9965301Y-12310008D02*
X9984348Y-12300484D01*
X10241491Y-12500484D02*
X10127206Y-12500484D01*
X10184348Y-12500484D02*
X10184348Y-12300484D01*
X10184348Y-12300484D02*
X10165301Y-12329055D01*
X10165301Y-12329055D02*
X10146253Y-12348103D01*
X10146253Y-12348103D02*
X10127206Y-12357627D01*
X10336729Y-12500484D02*
X10374825Y-12500484D01*
X10374825Y-12500484D02*
X10393872Y-12490960D01*
X10393872Y-12490960D02*
X10403396Y-12481436D01*
X10403396Y-12481436D02*
X10422444Y-12452865D01*
X10422444Y-12452865D02*
X10431968Y-12414769D01*
X10431968Y-12414769D02*
X10431968Y-12338579D01*
X10431968Y-12338579D02*
X10422444Y-12319531D01*
X10422444Y-12319531D02*
X10412920Y-12310008D01*
X10412920Y-12310008D02*
X10393872Y-12300484D01*
X10393872Y-12300484D02*
X10355777Y-12300484D01*
X10355777Y-12300484D02*
X10336729Y-12310008D01*
X10336729Y-12310008D02*
X10327206Y-12319531D01*
X10327206Y-12319531D02*
X10317682Y-12338579D01*
X10317682Y-12338579D02*
X10317682Y-12386198D01*
X10317682Y-12386198D02*
X10327206Y-12405246D01*
X10327206Y-12405246D02*
X10336729Y-12414769D01*
X10336729Y-12414769D02*
X10355777Y-12424293D01*
X10355777Y-12424293D02*
X10393872Y-12424293D01*
X10393872Y-12424293D02*
X10412920Y-12414769D01*
X10412920Y-12414769D02*
X10422444Y-12405246D01*
X10422444Y-12405246D02*
X10431968Y-12386198D01*
X10498634Y-12300484D02*
X10631968Y-12300484D01*
X10631968Y-12300484D02*
X10546253Y-12500484D01*
X10698634Y-12300484D02*
X10698634Y-12338579D01*
X10774825Y-12300484D02*
X10774825Y-12338579D01*
X11070063Y-12576674D02*
X11060539Y-12567150D01*
X11060539Y-12567150D02*
X11041491Y-12538579D01*
X11041491Y-12538579D02*
X11031968Y-12519531D01*
X11031968Y-12519531D02*
X11022444Y-12490960D01*
X11022444Y-12490960D02*
X11012920Y-12443341D01*
X11012920Y-12443341D02*
X11012920Y-12405246D01*
X11012920Y-12405246D02*
X11022444Y-12357627D01*
X11022444Y-12357627D02*
X11031968Y-12329055D01*
X11031968Y-12329055D02*
X11041491Y-12310008D01*
X11041491Y-12310008D02*
X11060539Y-12281436D01*
X11060539Y-12281436D02*
X11070063Y-12271912D01*
X11231968Y-12367150D02*
X11231968Y-12500484D01*
X11184349Y-12290960D02*
X11136730Y-12433817D01*
X11136730Y-12433817D02*
X11260539Y-12433817D01*
X11489110Y-12500484D02*
X11489110Y-12300484D01*
X11574825Y-12500484D02*
X11574825Y-12395722D01*
X11574825Y-12395722D02*
X11565301Y-12376674D01*
X11565301Y-12376674D02*
X11546253Y-12367150D01*
X11546253Y-12367150D02*
X11517682Y-12367150D01*
X11517682Y-12367150D02*
X11498634Y-12376674D01*
X11498634Y-12376674D02*
X11489110Y-12386198D01*
X11698634Y-12500484D02*
X11679587Y-12490960D01*
X11679587Y-12490960D02*
X11670063Y-12481436D01*
X11670063Y-12481436D02*
X11660539Y-12462388D01*
X11660539Y-12462388D02*
X11660539Y-12405246D01*
X11660539Y-12405246D02*
X11670063Y-12386198D01*
X11670063Y-12386198D02*
X11679587Y-12376674D01*
X11679587Y-12376674D02*
X11698634Y-12367150D01*
X11698634Y-12367150D02*
X11727206Y-12367150D01*
X11727206Y-12367150D02*
X11746253Y-12376674D01*
X11746253Y-12376674D02*
X11755777Y-12386198D01*
X11755777Y-12386198D02*
X11765301Y-12405246D01*
X11765301Y-12405246D02*
X11765301Y-12462388D01*
X11765301Y-12462388D02*
X11755777Y-12481436D01*
X11755777Y-12481436D02*
X11746253Y-12490960D01*
X11746253Y-12490960D02*
X11727206Y-12500484D01*
X11727206Y-12500484D02*
X11698634Y-12500484D01*
X11879587Y-12500484D02*
X11860539Y-12490960D01*
X11860539Y-12490960D02*
X11851015Y-12471912D01*
X11851015Y-12471912D02*
X11851015Y-12300484D01*
X12031968Y-12490960D02*
X12012920Y-12500484D01*
X12012920Y-12500484D02*
X11974825Y-12500484D01*
X11974825Y-12500484D02*
X11955777Y-12490960D01*
X11955777Y-12490960D02*
X11946253Y-12471912D01*
X11946253Y-12471912D02*
X11946253Y-12395722D01*
X11946253Y-12395722D02*
X11955777Y-12376674D01*
X11955777Y-12376674D02*
X11974825Y-12367150D01*
X11974825Y-12367150D02*
X12012920Y-12367150D01*
X12012920Y-12367150D02*
X12031968Y-12376674D01*
X12031968Y-12376674D02*
X12041491Y-12395722D01*
X12041491Y-12395722D02*
X12041491Y-12414769D01*
X12041491Y-12414769D02*
X11946253Y-12433817D01*
X12117682Y-12490960D02*
X12136730Y-12500484D01*
X12136730Y-12500484D02*
X12174825Y-12500484D01*
X12174825Y-12500484D02*
X12193872Y-12490960D01*
X12193872Y-12490960D02*
X12203396Y-12471912D01*
X12203396Y-12471912D02*
X12203396Y-12462388D01*
X12203396Y-12462388D02*
X12193872Y-12443341D01*
X12193872Y-12443341D02*
X12174825Y-12433817D01*
X12174825Y-12433817D02*
X12146253Y-12433817D01*
X12146253Y-12433817D02*
X12127206Y-12424293D01*
X12127206Y-12424293D02*
X12117682Y-12405246D01*
X12117682Y-12405246D02*
X12117682Y-12395722D01*
X12117682Y-12395722D02*
X12127206Y-12376674D01*
X12127206Y-12376674D02*
X12146253Y-12367150D01*
X12146253Y-12367150D02*
X12174825Y-12367150D01*
X12174825Y-12367150D02*
X12193872Y-12376674D01*
X12270063Y-12576674D02*
X12279587Y-12567150D01*
X12279587Y-12567150D02*
X12298634Y-12538579D01*
X12298634Y-12538579D02*
X12308158Y-12519531D01*
X12308158Y-12519531D02*
X12317682Y-12490960D01*
X12317682Y-12490960D02*
X12327206Y-12443341D01*
X12327206Y-12443341D02*
X12327206Y-12405246D01*
X12327206Y-12405246D02*
X12317682Y-12357627D01*
X12317682Y-12357627D02*
X12308158Y-12329055D01*
X12308158Y-12329055D02*
X12298634Y-12310008D01*
X12298634Y-12310008D02*
X12279587Y-12281436D01*
X12279587Y-12281436D02*
X12270063Y-12271912D01*
D10*
X7462500Y-12640500D02*
X7462500Y-12705500D01*
X7430000Y-12673000D02*
X7495000Y-12673000D01*
D11*
X7793872Y-12564484D02*
X7812920Y-12564484D01*
X7812920Y-12564484D02*
X7831967Y-12574008D01*
X7831967Y-12574008D02*
X7841491Y-12583531D01*
X7841491Y-12583531D02*
X7851015Y-12602579D01*
X7851015Y-12602579D02*
X7860539Y-12640674D01*
X7860539Y-12640674D02*
X7860539Y-12688293D01*
X7860539Y-12688293D02*
X7851015Y-12726388D01*
X7851015Y-12726388D02*
X7841491Y-12745436D01*
X7841491Y-12745436D02*
X7831967Y-12754960D01*
X7831967Y-12754960D02*
X7812920Y-12764484D01*
X7812920Y-12764484D02*
X7793872Y-12764484D01*
X7793872Y-12764484D02*
X7774824Y-12754960D01*
X7774824Y-12754960D02*
X7765301Y-12745436D01*
X7765301Y-12745436D02*
X7755777Y-12726388D01*
X7755777Y-12726388D02*
X7746253Y-12688293D01*
X7746253Y-12688293D02*
X7746253Y-12640674D01*
X7746253Y-12640674D02*
X7755777Y-12602579D01*
X7755777Y-12602579D02*
X7765301Y-12583531D01*
X7765301Y-12583531D02*
X7774824Y-12574008D01*
X7774824Y-12574008D02*
X7793872Y-12564484D01*
X7946253Y-12745436D02*
X7955777Y-12754960D01*
X7955777Y-12754960D02*
X7946253Y-12764484D01*
X7946253Y-12764484D02*
X7936729Y-12754960D01*
X7936729Y-12754960D02*
X7946253Y-12745436D01*
X7946253Y-12745436D02*
X7946253Y-12764484D01*
X8127205Y-12564484D02*
X8089110Y-12564484D01*
X8089110Y-12564484D02*
X8070062Y-12574008D01*
X8070062Y-12574008D02*
X8060539Y-12583531D01*
X8060539Y-12583531D02*
X8041491Y-12612103D01*
X8041491Y-12612103D02*
X8031967Y-12650198D01*
X8031967Y-12650198D02*
X8031967Y-12726388D01*
X8031967Y-12726388D02*
X8041491Y-12745436D01*
X8041491Y-12745436D02*
X8051015Y-12754960D01*
X8051015Y-12754960D02*
X8070062Y-12764484D01*
X8070062Y-12764484D02*
X8108158Y-12764484D01*
X8108158Y-12764484D02*
X8127205Y-12754960D01*
X8127205Y-12754960D02*
X8136729Y-12745436D01*
X8136729Y-12745436D02*
X8146253Y-12726388D01*
X8146253Y-12726388D02*
X8146253Y-12678769D01*
X8146253Y-12678769D02*
X8136729Y-12659722D01*
X8136729Y-12659722D02*
X8127205Y-12650198D01*
X8127205Y-12650198D02*
X8108158Y-12640674D01*
X8108158Y-12640674D02*
X8070062Y-12640674D01*
X8070062Y-12640674D02*
X8051015Y-12650198D01*
X8051015Y-12650198D02*
X8041491Y-12659722D01*
X8041491Y-12659722D02*
X8031967Y-12678769D01*
X8327205Y-12564484D02*
X8231967Y-12564484D01*
X8231967Y-12564484D02*
X8222443Y-12659722D01*
X8222443Y-12659722D02*
X8231967Y-12650198D01*
X8231967Y-12650198D02*
X8251015Y-12640674D01*
X8251015Y-12640674D02*
X8298634Y-12640674D01*
X8298634Y-12640674D02*
X8317682Y-12650198D01*
X8317682Y-12650198D02*
X8327205Y-12659722D01*
X8327205Y-12659722D02*
X8336729Y-12678769D01*
X8336729Y-12678769D02*
X8336729Y-12726388D01*
X8336729Y-12726388D02*
X8327205Y-12745436D01*
X8327205Y-12745436D02*
X8317682Y-12754960D01*
X8317682Y-12754960D02*
X8298634Y-12764484D01*
X8298634Y-12764484D02*
X8251015Y-12764484D01*
X8251015Y-12764484D02*
X8231967Y-12754960D01*
X8231967Y-12754960D02*
X8222443Y-12745436D01*
X8460539Y-12564484D02*
X8479586Y-12564484D01*
X8479586Y-12564484D02*
X8498634Y-12574008D01*
X8498634Y-12574008D02*
X8508158Y-12583531D01*
X8508158Y-12583531D02*
X8517682Y-12602579D01*
X8517682Y-12602579D02*
X8527205Y-12640674D01*
X8527205Y-12640674D02*
X8527205Y-12688293D01*
X8527205Y-12688293D02*
X8517682Y-12726388D01*
X8517682Y-12726388D02*
X8508158Y-12745436D01*
X8508158Y-12745436D02*
X8498634Y-12754960D01*
X8498634Y-12754960D02*
X8479586Y-12764484D01*
X8479586Y-12764484D02*
X8460539Y-12764484D01*
X8460539Y-12764484D02*
X8441491Y-12754960D01*
X8441491Y-12754960D02*
X8431967Y-12745436D01*
X8431967Y-12745436D02*
X8422444Y-12726388D01*
X8422444Y-12726388D02*
X8412920Y-12688293D01*
X8412920Y-12688293D02*
X8412920Y-12640674D01*
X8412920Y-12640674D02*
X8422444Y-12602579D01*
X8422444Y-12602579D02*
X8431967Y-12583531D01*
X8431967Y-12583531D02*
X8441491Y-12574008D01*
X8441491Y-12574008D02*
X8460539Y-12564484D01*
X8612920Y-12764484D02*
X8612920Y-12631150D01*
X8612920Y-12650198D02*
X8622444Y-12640674D01*
X8622444Y-12640674D02*
X8641491Y-12631150D01*
X8641491Y-12631150D02*
X8670063Y-12631150D01*
X8670063Y-12631150D02*
X8689110Y-12640674D01*
X8689110Y-12640674D02*
X8698634Y-12659722D01*
X8698634Y-12659722D02*
X8698634Y-12764484D01*
X8698634Y-12659722D02*
X8708158Y-12640674D01*
X8708158Y-12640674D02*
X8727205Y-12631150D01*
X8727205Y-12631150D02*
X8755777Y-12631150D01*
X8755777Y-12631150D02*
X8774825Y-12640674D01*
X8774825Y-12640674D02*
X8784348Y-12659722D01*
X8784348Y-12659722D02*
X8784348Y-12764484D01*
X8879586Y-12764484D02*
X8879586Y-12631150D01*
X8879586Y-12650198D02*
X8889110Y-12640674D01*
X8889110Y-12640674D02*
X8908158Y-12631150D01*
X8908158Y-12631150D02*
X8936729Y-12631150D01*
X8936729Y-12631150D02*
X8955777Y-12640674D01*
X8955777Y-12640674D02*
X8965301Y-12659722D01*
X8965301Y-12659722D02*
X8965301Y-12764484D01*
X8965301Y-12659722D02*
X8974825Y-12640674D01*
X8974825Y-12640674D02*
X8993872Y-12631150D01*
X8993872Y-12631150D02*
X9022444Y-12631150D01*
X9022444Y-12631150D02*
X9041491Y-12640674D01*
X9041491Y-12640674D02*
X9051015Y-12659722D01*
X9051015Y-12659722D02*
X9051015Y-12764484D01*
X9441491Y-12554960D02*
X9270063Y-12812103D01*
X9698634Y-12564484D02*
X9717682Y-12564484D01*
X9717682Y-12564484D02*
X9736729Y-12574008D01*
X9736729Y-12574008D02*
X9746253Y-12583531D01*
X9746253Y-12583531D02*
X9755777Y-12602579D01*
X9755777Y-12602579D02*
X9765301Y-12640674D01*
X9765301Y-12640674D02*
X9765301Y-12688293D01*
X9765301Y-12688293D02*
X9755777Y-12726388D01*
X9755777Y-12726388D02*
X9746253Y-12745436D01*
X9746253Y-12745436D02*
X9736729Y-12754960D01*
X9736729Y-12754960D02*
X9717682Y-12764484D01*
X9717682Y-12764484D02*
X9698634Y-12764484D01*
X9698634Y-12764484D02*
X9679587Y-12754960D01*
X9679587Y-12754960D02*
X9670063Y-12745436D01*
X9670063Y-12745436D02*
X9660539Y-12726388D01*
X9660539Y-12726388D02*
X9651015Y-12688293D01*
X9651015Y-12688293D02*
X9651015Y-12640674D01*
X9651015Y-12640674D02*
X9660539Y-12602579D01*
X9660539Y-12602579D02*
X9670063Y-12583531D01*
X9670063Y-12583531D02*
X9679587Y-12574008D01*
X9679587Y-12574008D02*
X9698634Y-12564484D01*
X9851015Y-12745436D02*
X9860539Y-12754960D01*
X9860539Y-12754960D02*
X9851015Y-12764484D01*
X9851015Y-12764484D02*
X9841491Y-12754960D01*
X9841491Y-12754960D02*
X9851015Y-12745436D01*
X9851015Y-12745436D02*
X9851015Y-12764484D01*
X9984348Y-12564484D02*
X10003396Y-12564484D01*
X10003396Y-12564484D02*
X10022444Y-12574008D01*
X10022444Y-12574008D02*
X10031968Y-12583531D01*
X10031968Y-12583531D02*
X10041491Y-12602579D01*
X10041491Y-12602579D02*
X10051015Y-12640674D01*
X10051015Y-12640674D02*
X10051015Y-12688293D01*
X10051015Y-12688293D02*
X10041491Y-12726388D01*
X10041491Y-12726388D02*
X10031968Y-12745436D01*
X10031968Y-12745436D02*
X10022444Y-12754960D01*
X10022444Y-12754960D02*
X10003396Y-12764484D01*
X10003396Y-12764484D02*
X9984348Y-12764484D01*
X9984348Y-12764484D02*
X9965301Y-12754960D01*
X9965301Y-12754960D02*
X9955777Y-12745436D01*
X9955777Y-12745436D02*
X9946253Y-12726388D01*
X9946253Y-12726388D02*
X9936729Y-12688293D01*
X9936729Y-12688293D02*
X9936729Y-12640674D01*
X9936729Y-12640674D02*
X9946253Y-12602579D01*
X9946253Y-12602579D02*
X9955777Y-12583531D01*
X9955777Y-12583531D02*
X9965301Y-12574008D01*
X9965301Y-12574008D02*
X9984348Y-12564484D01*
X10127206Y-12583531D02*
X10136729Y-12574008D01*
X10136729Y-12574008D02*
X10155777Y-12564484D01*
X10155777Y-12564484D02*
X10203396Y-12564484D01*
X10203396Y-12564484D02*
X10222444Y-12574008D01*
X10222444Y-12574008D02*
X10231968Y-12583531D01*
X10231968Y-12583531D02*
X10241491Y-12602579D01*
X10241491Y-12602579D02*
X10241491Y-12621627D01*
X10241491Y-12621627D02*
X10231968Y-12650198D01*
X10231968Y-12650198D02*
X10117682Y-12764484D01*
X10117682Y-12764484D02*
X10241491Y-12764484D01*
X10422444Y-12564484D02*
X10327206Y-12564484D01*
X10327206Y-12564484D02*
X10317682Y-12659722D01*
X10317682Y-12659722D02*
X10327206Y-12650198D01*
X10327206Y-12650198D02*
X10346253Y-12640674D01*
X10346253Y-12640674D02*
X10393872Y-12640674D01*
X10393872Y-12640674D02*
X10412920Y-12650198D01*
X10412920Y-12650198D02*
X10422444Y-12659722D01*
X10422444Y-12659722D02*
X10431968Y-12678769D01*
X10431968Y-12678769D02*
X10431968Y-12726388D01*
X10431968Y-12726388D02*
X10422444Y-12745436D01*
X10422444Y-12745436D02*
X10412920Y-12754960D01*
X10412920Y-12754960D02*
X10393872Y-12764484D01*
X10393872Y-12764484D02*
X10346253Y-12764484D01*
X10346253Y-12764484D02*
X10327206Y-12754960D01*
X10327206Y-12754960D02*
X10317682Y-12745436D01*
X10603396Y-12564484D02*
X10565301Y-12564484D01*
X10565301Y-12564484D02*
X10546253Y-12574008D01*
X10546253Y-12574008D02*
X10536729Y-12583531D01*
X10536729Y-12583531D02*
X10517682Y-12612103D01*
X10517682Y-12612103D02*
X10508158Y-12650198D01*
X10508158Y-12650198D02*
X10508158Y-12726388D01*
X10508158Y-12726388D02*
X10517682Y-12745436D01*
X10517682Y-12745436D02*
X10527206Y-12754960D01*
X10527206Y-12754960D02*
X10546253Y-12764484D01*
X10546253Y-12764484D02*
X10584349Y-12764484D01*
X10584349Y-12764484D02*
X10603396Y-12754960D01*
X10603396Y-12754960D02*
X10612920Y-12745436D01*
X10612920Y-12745436D02*
X10622444Y-12726388D01*
X10622444Y-12726388D02*
X10622444Y-12678769D01*
X10622444Y-12678769D02*
X10612920Y-12659722D01*
X10612920Y-12659722D02*
X10603396Y-12650198D01*
X10603396Y-12650198D02*
X10584349Y-12640674D01*
X10584349Y-12640674D02*
X10546253Y-12640674D01*
X10546253Y-12640674D02*
X10527206Y-12650198D01*
X10527206Y-12650198D02*
X10517682Y-12659722D01*
X10517682Y-12659722D02*
X10508158Y-12678769D01*
X10698634Y-12564484D02*
X10698634Y-12602579D01*
X10774825Y-12564484D02*
X10774825Y-12602579D01*
X11070063Y-12840674D02*
X11060539Y-12831150D01*
X11060539Y-12831150D02*
X11041491Y-12802579D01*
X11041491Y-12802579D02*
X11031968Y-12783531D01*
X11031968Y-12783531D02*
X11022444Y-12754960D01*
X11022444Y-12754960D02*
X11012920Y-12707341D01*
X11012920Y-12707341D02*
X11012920Y-12669246D01*
X11012920Y-12669246D02*
X11022444Y-12621627D01*
X11022444Y-12621627D02*
X11031968Y-12593055D01*
X11031968Y-12593055D02*
X11041491Y-12574008D01*
X11041491Y-12574008D02*
X11060539Y-12545436D01*
X11060539Y-12545436D02*
X11070063Y-12535912D01*
X11231968Y-12631150D02*
X11231968Y-12764484D01*
X11184349Y-12554960D02*
X11136730Y-12697817D01*
X11136730Y-12697817D02*
X11260539Y-12697817D01*
X11489110Y-12764484D02*
X11489110Y-12564484D01*
X11574825Y-12764484D02*
X11574825Y-12659722D01*
X11574825Y-12659722D02*
X11565301Y-12640674D01*
X11565301Y-12640674D02*
X11546253Y-12631150D01*
X11546253Y-12631150D02*
X11517682Y-12631150D01*
X11517682Y-12631150D02*
X11498634Y-12640674D01*
X11498634Y-12640674D02*
X11489110Y-12650198D01*
X11698634Y-12764484D02*
X11679587Y-12754960D01*
X11679587Y-12754960D02*
X11670063Y-12745436D01*
X11670063Y-12745436D02*
X11660539Y-12726388D01*
X11660539Y-12726388D02*
X11660539Y-12669246D01*
X11660539Y-12669246D02*
X11670063Y-12650198D01*
X11670063Y-12650198D02*
X11679587Y-12640674D01*
X11679587Y-12640674D02*
X11698634Y-12631150D01*
X11698634Y-12631150D02*
X11727206Y-12631150D01*
X11727206Y-12631150D02*
X11746253Y-12640674D01*
X11746253Y-12640674D02*
X11755777Y-12650198D01*
X11755777Y-12650198D02*
X11765301Y-12669246D01*
X11765301Y-12669246D02*
X11765301Y-12726388D01*
X11765301Y-12726388D02*
X11755777Y-12745436D01*
X11755777Y-12745436D02*
X11746253Y-12754960D01*
X11746253Y-12754960D02*
X11727206Y-12764484D01*
X11727206Y-12764484D02*
X11698634Y-12764484D01*
X11879587Y-12764484D02*
X11860539Y-12754960D01*
X11860539Y-12754960D02*
X11851015Y-12735912D01*
X11851015Y-12735912D02*
X11851015Y-12564484D01*
X12031968Y-12754960D02*
X12012920Y-12764484D01*
X12012920Y-12764484D02*
X11974825Y-12764484D01*
X11974825Y-12764484D02*
X11955777Y-12754960D01*
X11955777Y-12754960D02*
X11946253Y-12735912D01*
X11946253Y-12735912D02*
X11946253Y-12659722D01*
X11946253Y-12659722D02*
X11955777Y-12640674D01*
X11955777Y-12640674D02*
X11974825Y-12631150D01*
X11974825Y-12631150D02*
X12012920Y-12631150D01*
X12012920Y-12631150D02*
X12031968Y-12640674D01*
X12031968Y-12640674D02*
X12041491Y-12659722D01*
X12041491Y-12659722D02*
X12041491Y-12678769D01*
X12041491Y-12678769D02*
X11946253Y-12697817D01*
X12117682Y-12754960D02*
X12136730Y-12764484D01*
X12136730Y-12764484D02*
X12174825Y-12764484D01*
X12174825Y-12764484D02*
X12193872Y-12754960D01*
X12193872Y-12754960D02*
X12203396Y-12735912D01*
X12203396Y-12735912D02*
X12203396Y-12726388D01*
X12203396Y-12726388D02*
X12193872Y-12707341D01*
X12193872Y-12707341D02*
X12174825Y-12697817D01*
X12174825Y-12697817D02*
X12146253Y-12697817D01*
X12146253Y-12697817D02*
X12127206Y-12688293D01*
X12127206Y-12688293D02*
X12117682Y-12669246D01*
X12117682Y-12669246D02*
X12117682Y-12659722D01*
X12117682Y-12659722D02*
X12127206Y-12640674D01*
X12127206Y-12640674D02*
X12146253Y-12631150D01*
X12146253Y-12631150D02*
X12174825Y-12631150D01*
X12174825Y-12631150D02*
X12193872Y-12640674D01*
X12270063Y-12840674D02*
X12279587Y-12831150D01*
X12279587Y-12831150D02*
X12298634Y-12802579D01*
X12298634Y-12802579D02*
X12308158Y-12783531D01*
X12308158Y-12783531D02*
X12317682Y-12754960D01*
X12317682Y-12754960D02*
X12327206Y-12707341D01*
X12327206Y-12707341D02*
X12327206Y-12669246D01*
X12327206Y-12669246D02*
X12317682Y-12621627D01*
X12317682Y-12621627D02*
X12308158Y-12593055D01*
X12308158Y-12593055D02*
X12298634Y-12574008D01*
X12298634Y-12574008D02*
X12279587Y-12545436D01*
X12279587Y-12545436D02*
X12270063Y-12535912D01*
D10*
X7483284Y-12965284D02*
X7483284Y-12908715D01*
X7426715Y-12908715D01*
X7426715Y-12965284D01*
X7483284Y-12965284D01*
D11*
X7793872Y-12828484D02*
X7812920Y-12828484D01*
X7812920Y-12828484D02*
X7831967Y-12838008D01*
X7831967Y-12838008D02*
X7841491Y-12847531D01*
X7841491Y-12847531D02*
X7851015Y-12866579D01*
X7851015Y-12866579D02*
X7860539Y-12904674D01*
X7860539Y-12904674D02*
X7860539Y-12952293D01*
X7860539Y-12952293D02*
X7851015Y-12990388D01*
X7851015Y-12990388D02*
X7841491Y-13009436D01*
X7841491Y-13009436D02*
X7831967Y-13018960D01*
X7831967Y-13018960D02*
X7812920Y-13028484D01*
X7812920Y-13028484D02*
X7793872Y-13028484D01*
X7793872Y-13028484D02*
X7774824Y-13018960D01*
X7774824Y-13018960D02*
X7765301Y-13009436D01*
X7765301Y-13009436D02*
X7755777Y-12990388D01*
X7755777Y-12990388D02*
X7746253Y-12952293D01*
X7746253Y-12952293D02*
X7746253Y-12904674D01*
X7746253Y-12904674D02*
X7755777Y-12866579D01*
X7755777Y-12866579D02*
X7765301Y-12847531D01*
X7765301Y-12847531D02*
X7774824Y-12838008D01*
X7774824Y-12838008D02*
X7793872Y-12828484D01*
X7946253Y-13009436D02*
X7955777Y-13018960D01*
X7955777Y-13018960D02*
X7946253Y-13028484D01*
X7946253Y-13028484D02*
X7936729Y-13018960D01*
X7936729Y-13018960D02*
X7946253Y-13009436D01*
X7946253Y-13009436D02*
X7946253Y-13028484D01*
X8070062Y-12914198D02*
X8051015Y-12904674D01*
X8051015Y-12904674D02*
X8041491Y-12895150D01*
X8041491Y-12895150D02*
X8031967Y-12876103D01*
X8031967Y-12876103D02*
X8031967Y-12866579D01*
X8031967Y-12866579D02*
X8041491Y-12847531D01*
X8041491Y-12847531D02*
X8051015Y-12838008D01*
X8051015Y-12838008D02*
X8070062Y-12828484D01*
X8070062Y-12828484D02*
X8108158Y-12828484D01*
X8108158Y-12828484D02*
X8127205Y-12838008D01*
X8127205Y-12838008D02*
X8136729Y-12847531D01*
X8136729Y-12847531D02*
X8146253Y-12866579D01*
X8146253Y-12866579D02*
X8146253Y-12876103D01*
X8146253Y-12876103D02*
X8136729Y-12895150D01*
X8136729Y-12895150D02*
X8127205Y-12904674D01*
X8127205Y-12904674D02*
X8108158Y-12914198D01*
X8108158Y-12914198D02*
X8070062Y-12914198D01*
X8070062Y-12914198D02*
X8051015Y-12923722D01*
X8051015Y-12923722D02*
X8041491Y-12933246D01*
X8041491Y-12933246D02*
X8031967Y-12952293D01*
X8031967Y-12952293D02*
X8031967Y-12990388D01*
X8031967Y-12990388D02*
X8041491Y-13009436D01*
X8041491Y-13009436D02*
X8051015Y-13018960D01*
X8051015Y-13018960D02*
X8070062Y-13028484D01*
X8070062Y-13028484D02*
X8108158Y-13028484D01*
X8108158Y-13028484D02*
X8127205Y-13018960D01*
X8127205Y-13018960D02*
X8136729Y-13009436D01*
X8136729Y-13009436D02*
X8146253Y-12990388D01*
X8146253Y-12990388D02*
X8146253Y-12952293D01*
X8146253Y-12952293D02*
X8136729Y-12933246D01*
X8136729Y-12933246D02*
X8127205Y-12923722D01*
X8127205Y-12923722D02*
X8108158Y-12914198D01*
X8270062Y-12828484D02*
X8289110Y-12828484D01*
X8289110Y-12828484D02*
X8308158Y-12838008D01*
X8308158Y-12838008D02*
X8317682Y-12847531D01*
X8317682Y-12847531D02*
X8327205Y-12866579D01*
X8327205Y-12866579D02*
X8336729Y-12904674D01*
X8336729Y-12904674D02*
X8336729Y-12952293D01*
X8336729Y-12952293D02*
X8327205Y-12990388D01*
X8327205Y-12990388D02*
X8317682Y-13009436D01*
X8317682Y-13009436D02*
X8308158Y-13018960D01*
X8308158Y-13018960D02*
X8289110Y-13028484D01*
X8289110Y-13028484D02*
X8270062Y-13028484D01*
X8270062Y-13028484D02*
X8251015Y-13018960D01*
X8251015Y-13018960D02*
X8241491Y-13009436D01*
X8241491Y-13009436D02*
X8231967Y-12990388D01*
X8231967Y-12990388D02*
X8222443Y-12952293D01*
X8222443Y-12952293D02*
X8222443Y-12904674D01*
X8222443Y-12904674D02*
X8231967Y-12866579D01*
X8231967Y-12866579D02*
X8241491Y-12847531D01*
X8241491Y-12847531D02*
X8251015Y-12838008D01*
X8251015Y-12838008D02*
X8270062Y-12828484D01*
X8460539Y-12828484D02*
X8479586Y-12828484D01*
X8479586Y-12828484D02*
X8498634Y-12838008D01*
X8498634Y-12838008D02*
X8508158Y-12847531D01*
X8508158Y-12847531D02*
X8517682Y-12866579D01*
X8517682Y-12866579D02*
X8527205Y-12904674D01*
X8527205Y-12904674D02*
X8527205Y-12952293D01*
X8527205Y-12952293D02*
X8517682Y-12990388D01*
X8517682Y-12990388D02*
X8508158Y-13009436D01*
X8508158Y-13009436D02*
X8498634Y-13018960D01*
X8498634Y-13018960D02*
X8479586Y-13028484D01*
X8479586Y-13028484D02*
X8460539Y-13028484D01*
X8460539Y-13028484D02*
X8441491Y-13018960D01*
X8441491Y-13018960D02*
X8431967Y-13009436D01*
X8431967Y-13009436D02*
X8422444Y-12990388D01*
X8422444Y-12990388D02*
X8412920Y-12952293D01*
X8412920Y-12952293D02*
X8412920Y-12904674D01*
X8412920Y-12904674D02*
X8422444Y-12866579D01*
X8422444Y-12866579D02*
X8431967Y-12847531D01*
X8431967Y-12847531D02*
X8441491Y-12838008D01*
X8441491Y-12838008D02*
X8460539Y-12828484D01*
X8612920Y-13028484D02*
X8612920Y-12895150D01*
X8612920Y-12914198D02*
X8622444Y-12904674D01*
X8622444Y-12904674D02*
X8641491Y-12895150D01*
X8641491Y-12895150D02*
X8670063Y-12895150D01*
X8670063Y-12895150D02*
X8689110Y-12904674D01*
X8689110Y-12904674D02*
X8698634Y-12923722D01*
X8698634Y-12923722D02*
X8698634Y-13028484D01*
X8698634Y-12923722D02*
X8708158Y-12904674D01*
X8708158Y-12904674D02*
X8727205Y-12895150D01*
X8727205Y-12895150D02*
X8755777Y-12895150D01*
X8755777Y-12895150D02*
X8774825Y-12904674D01*
X8774825Y-12904674D02*
X8784348Y-12923722D01*
X8784348Y-12923722D02*
X8784348Y-13028484D01*
X8879586Y-13028484D02*
X8879586Y-12895150D01*
X8879586Y-12914198D02*
X8889110Y-12904674D01*
X8889110Y-12904674D02*
X8908158Y-12895150D01*
X8908158Y-12895150D02*
X8936729Y-12895150D01*
X8936729Y-12895150D02*
X8955777Y-12904674D01*
X8955777Y-12904674D02*
X8965301Y-12923722D01*
X8965301Y-12923722D02*
X8965301Y-13028484D01*
X8965301Y-12923722D02*
X8974825Y-12904674D01*
X8974825Y-12904674D02*
X8993872Y-12895150D01*
X8993872Y-12895150D02*
X9022444Y-12895150D01*
X9022444Y-12895150D02*
X9041491Y-12904674D01*
X9041491Y-12904674D02*
X9051015Y-12923722D01*
X9051015Y-12923722D02*
X9051015Y-13028484D01*
X9441491Y-12818960D02*
X9270063Y-13076103D01*
X9698634Y-12828484D02*
X9717682Y-12828484D01*
X9717682Y-12828484D02*
X9736729Y-12838008D01*
X9736729Y-12838008D02*
X9746253Y-12847531D01*
X9746253Y-12847531D02*
X9755777Y-12866579D01*
X9755777Y-12866579D02*
X9765301Y-12904674D01*
X9765301Y-12904674D02*
X9765301Y-12952293D01*
X9765301Y-12952293D02*
X9755777Y-12990388D01*
X9755777Y-12990388D02*
X9746253Y-13009436D01*
X9746253Y-13009436D02*
X9736729Y-13018960D01*
X9736729Y-13018960D02*
X9717682Y-13028484D01*
X9717682Y-13028484D02*
X9698634Y-13028484D01*
X9698634Y-13028484D02*
X9679587Y-13018960D01*
X9679587Y-13018960D02*
X9670063Y-13009436D01*
X9670063Y-13009436D02*
X9660539Y-12990388D01*
X9660539Y-12990388D02*
X9651015Y-12952293D01*
X9651015Y-12952293D02*
X9651015Y-12904674D01*
X9651015Y-12904674D02*
X9660539Y-12866579D01*
X9660539Y-12866579D02*
X9670063Y-12847531D01*
X9670063Y-12847531D02*
X9679587Y-12838008D01*
X9679587Y-12838008D02*
X9698634Y-12828484D01*
X9851015Y-13009436D02*
X9860539Y-13018960D01*
X9860539Y-13018960D02*
X9851015Y-13028484D01*
X9851015Y-13028484D02*
X9841491Y-13018960D01*
X9841491Y-13018960D02*
X9851015Y-13009436D01*
X9851015Y-13009436D02*
X9851015Y-13028484D01*
X9984348Y-12828484D02*
X10003396Y-12828484D01*
X10003396Y-12828484D02*
X10022444Y-12838008D01*
X10022444Y-12838008D02*
X10031968Y-12847531D01*
X10031968Y-12847531D02*
X10041491Y-12866579D01*
X10041491Y-12866579D02*
X10051015Y-12904674D01*
X10051015Y-12904674D02*
X10051015Y-12952293D01*
X10051015Y-12952293D02*
X10041491Y-12990388D01*
X10041491Y-12990388D02*
X10031968Y-13009436D01*
X10031968Y-13009436D02*
X10022444Y-13018960D01*
X10022444Y-13018960D02*
X10003396Y-13028484D01*
X10003396Y-13028484D02*
X9984348Y-13028484D01*
X9984348Y-13028484D02*
X9965301Y-13018960D01*
X9965301Y-13018960D02*
X9955777Y-13009436D01*
X9955777Y-13009436D02*
X9946253Y-12990388D01*
X9946253Y-12990388D02*
X9936729Y-12952293D01*
X9936729Y-12952293D02*
X9936729Y-12904674D01*
X9936729Y-12904674D02*
X9946253Y-12866579D01*
X9946253Y-12866579D02*
X9955777Y-12847531D01*
X9955777Y-12847531D02*
X9965301Y-12838008D01*
X9965301Y-12838008D02*
X9984348Y-12828484D01*
X10117682Y-12828484D02*
X10241491Y-12828484D01*
X10241491Y-12828484D02*
X10174825Y-12904674D01*
X10174825Y-12904674D02*
X10203396Y-12904674D01*
X10203396Y-12904674D02*
X10222444Y-12914198D01*
X10222444Y-12914198D02*
X10231968Y-12923722D01*
X10231968Y-12923722D02*
X10241491Y-12942769D01*
X10241491Y-12942769D02*
X10241491Y-12990388D01*
X10241491Y-12990388D02*
X10231968Y-13009436D01*
X10231968Y-13009436D02*
X10222444Y-13018960D01*
X10222444Y-13018960D02*
X10203396Y-13028484D01*
X10203396Y-13028484D02*
X10146253Y-13028484D01*
X10146253Y-13028484D02*
X10127206Y-13018960D01*
X10127206Y-13018960D02*
X10117682Y-13009436D01*
X10431968Y-13028484D02*
X10317682Y-13028484D01*
X10374825Y-13028484D02*
X10374825Y-12828484D01*
X10374825Y-12828484D02*
X10355777Y-12857055D01*
X10355777Y-12857055D02*
X10336729Y-12876103D01*
X10336729Y-12876103D02*
X10317682Y-12885627D01*
X10612920Y-12828484D02*
X10517682Y-12828484D01*
X10517682Y-12828484D02*
X10508158Y-12923722D01*
X10508158Y-12923722D02*
X10517682Y-12914198D01*
X10517682Y-12914198D02*
X10536729Y-12904674D01*
X10536729Y-12904674D02*
X10584349Y-12904674D01*
X10584349Y-12904674D02*
X10603396Y-12914198D01*
X10603396Y-12914198D02*
X10612920Y-12923722D01*
X10612920Y-12923722D02*
X10622444Y-12942769D01*
X10622444Y-12942769D02*
X10622444Y-12990388D01*
X10622444Y-12990388D02*
X10612920Y-13009436D01*
X10612920Y-13009436D02*
X10603396Y-13018960D01*
X10603396Y-13018960D02*
X10584349Y-13028484D01*
X10584349Y-13028484D02*
X10536729Y-13028484D01*
X10536729Y-13028484D02*
X10517682Y-13018960D01*
X10517682Y-13018960D02*
X10508158Y-13009436D01*
X10698634Y-12828484D02*
X10698634Y-12866579D01*
X10774825Y-12828484D02*
X10774825Y-12866579D01*
X11070063Y-13104674D02*
X11060539Y-13095150D01*
X11060539Y-13095150D02*
X11041491Y-13066579D01*
X11041491Y-13066579D02*
X11031968Y-13047531D01*
X11031968Y-13047531D02*
X11022444Y-13018960D01*
X11022444Y-13018960D02*
X11012920Y-12971341D01*
X11012920Y-12971341D02*
X11012920Y-12933246D01*
X11012920Y-12933246D02*
X11022444Y-12885627D01*
X11022444Y-12885627D02*
X11031968Y-12857055D01*
X11031968Y-12857055D02*
X11041491Y-12838008D01*
X11041491Y-12838008D02*
X11060539Y-12809436D01*
X11060539Y-12809436D02*
X11070063Y-12799912D01*
X11231968Y-12895150D02*
X11231968Y-13028484D01*
X11184349Y-12818960D02*
X11136730Y-12961817D01*
X11136730Y-12961817D02*
X11260539Y-12961817D01*
X11489110Y-13028484D02*
X11489110Y-12828484D01*
X11574825Y-13028484D02*
X11574825Y-12923722D01*
X11574825Y-12923722D02*
X11565301Y-12904674D01*
X11565301Y-12904674D02*
X11546253Y-12895150D01*
X11546253Y-12895150D02*
X11517682Y-12895150D01*
X11517682Y-12895150D02*
X11498634Y-12904674D01*
X11498634Y-12904674D02*
X11489110Y-12914198D01*
X11698634Y-13028484D02*
X11679587Y-13018960D01*
X11679587Y-13018960D02*
X11670063Y-13009436D01*
X11670063Y-13009436D02*
X11660539Y-12990388D01*
X11660539Y-12990388D02*
X11660539Y-12933246D01*
X11660539Y-12933246D02*
X11670063Y-12914198D01*
X11670063Y-12914198D02*
X11679587Y-12904674D01*
X11679587Y-12904674D02*
X11698634Y-12895150D01*
X11698634Y-12895150D02*
X11727206Y-12895150D01*
X11727206Y-12895150D02*
X11746253Y-12904674D01*
X11746253Y-12904674D02*
X11755777Y-12914198D01*
X11755777Y-12914198D02*
X11765301Y-12933246D01*
X11765301Y-12933246D02*
X11765301Y-12990388D01*
X11765301Y-12990388D02*
X11755777Y-13009436D01*
X11755777Y-13009436D02*
X11746253Y-13018960D01*
X11746253Y-13018960D02*
X11727206Y-13028484D01*
X11727206Y-13028484D02*
X11698634Y-13028484D01*
X11879587Y-13028484D02*
X11860539Y-13018960D01*
X11860539Y-13018960D02*
X11851015Y-12999912D01*
X11851015Y-12999912D02*
X11851015Y-12828484D01*
X12031968Y-13018960D02*
X12012920Y-13028484D01*
X12012920Y-13028484D02*
X11974825Y-13028484D01*
X11974825Y-13028484D02*
X11955777Y-13018960D01*
X11955777Y-13018960D02*
X11946253Y-12999912D01*
X11946253Y-12999912D02*
X11946253Y-12923722D01*
X11946253Y-12923722D02*
X11955777Y-12904674D01*
X11955777Y-12904674D02*
X11974825Y-12895150D01*
X11974825Y-12895150D02*
X12012920Y-12895150D01*
X12012920Y-12895150D02*
X12031968Y-12904674D01*
X12031968Y-12904674D02*
X12041491Y-12923722D01*
X12041491Y-12923722D02*
X12041491Y-12942769D01*
X12041491Y-12942769D02*
X11946253Y-12961817D01*
X12117682Y-13018960D02*
X12136730Y-13028484D01*
X12136730Y-13028484D02*
X12174825Y-13028484D01*
X12174825Y-13028484D02*
X12193872Y-13018960D01*
X12193872Y-13018960D02*
X12203396Y-12999912D01*
X12203396Y-12999912D02*
X12203396Y-12990388D01*
X12203396Y-12990388D02*
X12193872Y-12971341D01*
X12193872Y-12971341D02*
X12174825Y-12961817D01*
X12174825Y-12961817D02*
X12146253Y-12961817D01*
X12146253Y-12961817D02*
X12127206Y-12952293D01*
X12127206Y-12952293D02*
X12117682Y-12933246D01*
X12117682Y-12933246D02*
X12117682Y-12923722D01*
X12117682Y-12923722D02*
X12127206Y-12904674D01*
X12127206Y-12904674D02*
X12146253Y-12895150D01*
X12146253Y-12895150D02*
X12174825Y-12895150D01*
X12174825Y-12895150D02*
X12193872Y-12904674D01*
X12270063Y-13104674D02*
X12279587Y-13095150D01*
X12279587Y-13095150D02*
X12298634Y-13066579D01*
X12298634Y-13066579D02*
X12308158Y-13047531D01*
X12308158Y-13047531D02*
X12317682Y-13018960D01*
X12317682Y-13018960D02*
X12327206Y-12971341D01*
X12327206Y-12971341D02*
X12327206Y-12933246D01*
X12327206Y-12933246D02*
X12317682Y-12885627D01*
X12317682Y-12885627D02*
X12308158Y-12857055D01*
X12308158Y-12857055D02*
X12298634Y-12838008D01*
X12298634Y-12838008D02*
X12279587Y-12809436D01*
X12279587Y-12809436D02*
X12270063Y-12799912D01*
D10*
X7445000Y-13251000D02*
X7495000Y-13201000D01*
X7445000Y-13151000D01*
X7395000Y-13201000D01*
X7445000Y-13251000D01*
D11*
X7860539Y-13292484D02*
X7746253Y-13292484D01*
X7803396Y-13292484D02*
X7803396Y-13092484D01*
X7803396Y-13092484D02*
X7784348Y-13121055D01*
X7784348Y-13121055D02*
X7765301Y-13140103D01*
X7765301Y-13140103D02*
X7746253Y-13149627D01*
X7946253Y-13273436D02*
X7955777Y-13282960D01*
X7955777Y-13282960D02*
X7946253Y-13292484D01*
X7946253Y-13292484D02*
X7936729Y-13282960D01*
X7936729Y-13282960D02*
X7946253Y-13273436D01*
X7946253Y-13273436D02*
X7946253Y-13292484D01*
X8079586Y-13092484D02*
X8098634Y-13092484D01*
X8098634Y-13092484D02*
X8117682Y-13102008D01*
X8117682Y-13102008D02*
X8127205Y-13111531D01*
X8127205Y-13111531D02*
X8136729Y-13130579D01*
X8136729Y-13130579D02*
X8146253Y-13168674D01*
X8146253Y-13168674D02*
X8146253Y-13216293D01*
X8146253Y-13216293D02*
X8136729Y-13254388D01*
X8136729Y-13254388D02*
X8127205Y-13273436D01*
X8127205Y-13273436D02*
X8117682Y-13282960D01*
X8117682Y-13282960D02*
X8098634Y-13292484D01*
X8098634Y-13292484D02*
X8079586Y-13292484D01*
X8079586Y-13292484D02*
X8060539Y-13282960D01*
X8060539Y-13282960D02*
X8051015Y-13273436D01*
X8051015Y-13273436D02*
X8041491Y-13254388D01*
X8041491Y-13254388D02*
X8031967Y-13216293D01*
X8031967Y-13216293D02*
X8031967Y-13168674D01*
X8031967Y-13168674D02*
X8041491Y-13130579D01*
X8041491Y-13130579D02*
X8051015Y-13111531D01*
X8051015Y-13111531D02*
X8060539Y-13102008D01*
X8060539Y-13102008D02*
X8079586Y-13092484D01*
X8270062Y-13092484D02*
X8289110Y-13092484D01*
X8289110Y-13092484D02*
X8308158Y-13102008D01*
X8308158Y-13102008D02*
X8317682Y-13111531D01*
X8317682Y-13111531D02*
X8327205Y-13130579D01*
X8327205Y-13130579D02*
X8336729Y-13168674D01*
X8336729Y-13168674D02*
X8336729Y-13216293D01*
X8336729Y-13216293D02*
X8327205Y-13254388D01*
X8327205Y-13254388D02*
X8317682Y-13273436D01*
X8317682Y-13273436D02*
X8308158Y-13282960D01*
X8308158Y-13282960D02*
X8289110Y-13292484D01*
X8289110Y-13292484D02*
X8270062Y-13292484D01*
X8270062Y-13292484D02*
X8251015Y-13282960D01*
X8251015Y-13282960D02*
X8241491Y-13273436D01*
X8241491Y-13273436D02*
X8231967Y-13254388D01*
X8231967Y-13254388D02*
X8222443Y-13216293D01*
X8222443Y-13216293D02*
X8222443Y-13168674D01*
X8222443Y-13168674D02*
X8231967Y-13130579D01*
X8231967Y-13130579D02*
X8241491Y-13111531D01*
X8241491Y-13111531D02*
X8251015Y-13102008D01*
X8251015Y-13102008D02*
X8270062Y-13092484D01*
X8460539Y-13092484D02*
X8479586Y-13092484D01*
X8479586Y-13092484D02*
X8498634Y-13102008D01*
X8498634Y-13102008D02*
X8508158Y-13111531D01*
X8508158Y-13111531D02*
X8517682Y-13130579D01*
X8517682Y-13130579D02*
X8527205Y-13168674D01*
X8527205Y-13168674D02*
X8527205Y-13216293D01*
X8527205Y-13216293D02*
X8517682Y-13254388D01*
X8517682Y-13254388D02*
X8508158Y-13273436D01*
X8508158Y-13273436D02*
X8498634Y-13282960D01*
X8498634Y-13282960D02*
X8479586Y-13292484D01*
X8479586Y-13292484D02*
X8460539Y-13292484D01*
X8460539Y-13292484D02*
X8441491Y-13282960D01*
X8441491Y-13282960D02*
X8431967Y-13273436D01*
X8431967Y-13273436D02*
X8422444Y-13254388D01*
X8422444Y-13254388D02*
X8412920Y-13216293D01*
X8412920Y-13216293D02*
X8412920Y-13168674D01*
X8412920Y-13168674D02*
X8422444Y-13130579D01*
X8422444Y-13130579D02*
X8431967Y-13111531D01*
X8431967Y-13111531D02*
X8441491Y-13102008D01*
X8441491Y-13102008D02*
X8460539Y-13092484D01*
X8612920Y-13292484D02*
X8612920Y-13159150D01*
X8612920Y-13178198D02*
X8622444Y-13168674D01*
X8622444Y-13168674D02*
X8641491Y-13159150D01*
X8641491Y-13159150D02*
X8670063Y-13159150D01*
X8670063Y-13159150D02*
X8689110Y-13168674D01*
X8689110Y-13168674D02*
X8698634Y-13187722D01*
X8698634Y-13187722D02*
X8698634Y-13292484D01*
X8698634Y-13187722D02*
X8708158Y-13168674D01*
X8708158Y-13168674D02*
X8727205Y-13159150D01*
X8727205Y-13159150D02*
X8755777Y-13159150D01*
X8755777Y-13159150D02*
X8774825Y-13168674D01*
X8774825Y-13168674D02*
X8784348Y-13187722D01*
X8784348Y-13187722D02*
X8784348Y-13292484D01*
X8879586Y-13292484D02*
X8879586Y-13159150D01*
X8879586Y-13178198D02*
X8889110Y-13168674D01*
X8889110Y-13168674D02*
X8908158Y-13159150D01*
X8908158Y-13159150D02*
X8936729Y-13159150D01*
X8936729Y-13159150D02*
X8955777Y-13168674D01*
X8955777Y-13168674D02*
X8965301Y-13187722D01*
X8965301Y-13187722D02*
X8965301Y-13292484D01*
X8965301Y-13187722D02*
X8974825Y-13168674D01*
X8974825Y-13168674D02*
X8993872Y-13159150D01*
X8993872Y-13159150D02*
X9022444Y-13159150D01*
X9022444Y-13159150D02*
X9041491Y-13168674D01*
X9041491Y-13168674D02*
X9051015Y-13187722D01*
X9051015Y-13187722D02*
X9051015Y-13292484D01*
X9441491Y-13082960D02*
X9270063Y-13340103D01*
X9698634Y-13092484D02*
X9717682Y-13092484D01*
X9717682Y-13092484D02*
X9736729Y-13102008D01*
X9736729Y-13102008D02*
X9746253Y-13111531D01*
X9746253Y-13111531D02*
X9755777Y-13130579D01*
X9755777Y-13130579D02*
X9765301Y-13168674D01*
X9765301Y-13168674D02*
X9765301Y-13216293D01*
X9765301Y-13216293D02*
X9755777Y-13254388D01*
X9755777Y-13254388D02*
X9746253Y-13273436D01*
X9746253Y-13273436D02*
X9736729Y-13282960D01*
X9736729Y-13282960D02*
X9717682Y-13292484D01*
X9717682Y-13292484D02*
X9698634Y-13292484D01*
X9698634Y-13292484D02*
X9679587Y-13282960D01*
X9679587Y-13282960D02*
X9670063Y-13273436D01*
X9670063Y-13273436D02*
X9660539Y-13254388D01*
X9660539Y-13254388D02*
X9651015Y-13216293D01*
X9651015Y-13216293D02*
X9651015Y-13168674D01*
X9651015Y-13168674D02*
X9660539Y-13130579D01*
X9660539Y-13130579D02*
X9670063Y-13111531D01*
X9670063Y-13111531D02*
X9679587Y-13102008D01*
X9679587Y-13102008D02*
X9698634Y-13092484D01*
X9851015Y-13273436D02*
X9860539Y-13282960D01*
X9860539Y-13282960D02*
X9851015Y-13292484D01*
X9851015Y-13292484D02*
X9841491Y-13282960D01*
X9841491Y-13282960D02*
X9851015Y-13273436D01*
X9851015Y-13273436D02*
X9851015Y-13292484D01*
X9984348Y-13092484D02*
X10003396Y-13092484D01*
X10003396Y-13092484D02*
X10022444Y-13102008D01*
X10022444Y-13102008D02*
X10031968Y-13111531D01*
X10031968Y-13111531D02*
X10041491Y-13130579D01*
X10041491Y-13130579D02*
X10051015Y-13168674D01*
X10051015Y-13168674D02*
X10051015Y-13216293D01*
X10051015Y-13216293D02*
X10041491Y-13254388D01*
X10041491Y-13254388D02*
X10031968Y-13273436D01*
X10031968Y-13273436D02*
X10022444Y-13282960D01*
X10022444Y-13282960D02*
X10003396Y-13292484D01*
X10003396Y-13292484D02*
X9984348Y-13292484D01*
X9984348Y-13292484D02*
X9965301Y-13282960D01*
X9965301Y-13282960D02*
X9955777Y-13273436D01*
X9955777Y-13273436D02*
X9946253Y-13254388D01*
X9946253Y-13254388D02*
X9936729Y-13216293D01*
X9936729Y-13216293D02*
X9936729Y-13168674D01*
X9936729Y-13168674D02*
X9946253Y-13130579D01*
X9946253Y-13130579D02*
X9955777Y-13111531D01*
X9955777Y-13111531D02*
X9965301Y-13102008D01*
X9965301Y-13102008D02*
X9984348Y-13092484D01*
X10117682Y-13092484D02*
X10241491Y-13092484D01*
X10241491Y-13092484D02*
X10174825Y-13168674D01*
X10174825Y-13168674D02*
X10203396Y-13168674D01*
X10203396Y-13168674D02*
X10222444Y-13178198D01*
X10222444Y-13178198D02*
X10231968Y-13187722D01*
X10231968Y-13187722D02*
X10241491Y-13206769D01*
X10241491Y-13206769D02*
X10241491Y-13254388D01*
X10241491Y-13254388D02*
X10231968Y-13273436D01*
X10231968Y-13273436D02*
X10222444Y-13282960D01*
X10222444Y-13282960D02*
X10203396Y-13292484D01*
X10203396Y-13292484D02*
X10146253Y-13292484D01*
X10146253Y-13292484D02*
X10127206Y-13282960D01*
X10127206Y-13282960D02*
X10117682Y-13273436D01*
X10336729Y-13292484D02*
X10374825Y-13292484D01*
X10374825Y-13292484D02*
X10393872Y-13282960D01*
X10393872Y-13282960D02*
X10403396Y-13273436D01*
X10403396Y-13273436D02*
X10422444Y-13244865D01*
X10422444Y-13244865D02*
X10431968Y-13206769D01*
X10431968Y-13206769D02*
X10431968Y-13130579D01*
X10431968Y-13130579D02*
X10422444Y-13111531D01*
X10422444Y-13111531D02*
X10412920Y-13102008D01*
X10412920Y-13102008D02*
X10393872Y-13092484D01*
X10393872Y-13092484D02*
X10355777Y-13092484D01*
X10355777Y-13092484D02*
X10336729Y-13102008D01*
X10336729Y-13102008D02*
X10327206Y-13111531D01*
X10327206Y-13111531D02*
X10317682Y-13130579D01*
X10317682Y-13130579D02*
X10317682Y-13178198D01*
X10317682Y-13178198D02*
X10327206Y-13197246D01*
X10327206Y-13197246D02*
X10336729Y-13206769D01*
X10336729Y-13206769D02*
X10355777Y-13216293D01*
X10355777Y-13216293D02*
X10393872Y-13216293D01*
X10393872Y-13216293D02*
X10412920Y-13206769D01*
X10412920Y-13206769D02*
X10422444Y-13197246D01*
X10422444Y-13197246D02*
X10431968Y-13178198D01*
X10603396Y-13159150D02*
X10603396Y-13292484D01*
X10555777Y-13082960D02*
X10508158Y-13225817D01*
X10508158Y-13225817D02*
X10631968Y-13225817D01*
X10698634Y-13092484D02*
X10698634Y-13130579D01*
X10774825Y-13092484D02*
X10774825Y-13130579D01*
X11070063Y-13368674D02*
X11060539Y-13359150D01*
X11060539Y-13359150D02*
X11041491Y-13330579D01*
X11041491Y-13330579D02*
X11031968Y-13311531D01*
X11031968Y-13311531D02*
X11022444Y-13282960D01*
X11022444Y-13282960D02*
X11012920Y-13235341D01*
X11012920Y-13235341D02*
X11012920Y-13197246D01*
X11012920Y-13197246D02*
X11022444Y-13149627D01*
X11022444Y-13149627D02*
X11031968Y-13121055D01*
X11031968Y-13121055D02*
X11041491Y-13102008D01*
X11041491Y-13102008D02*
X11060539Y-13073436D01*
X11060539Y-13073436D02*
X11070063Y-13063912D01*
X11231968Y-13159150D02*
X11231968Y-13292484D01*
X11184349Y-13082960D02*
X11136730Y-13225817D01*
X11136730Y-13225817D02*
X11260539Y-13225817D01*
X11489110Y-13292484D02*
X11489110Y-13092484D01*
X11574825Y-13292484D02*
X11574825Y-13187722D01*
X11574825Y-13187722D02*
X11565301Y-13168674D01*
X11565301Y-13168674D02*
X11546253Y-13159150D01*
X11546253Y-13159150D02*
X11517682Y-13159150D01*
X11517682Y-13159150D02*
X11498634Y-13168674D01*
X11498634Y-13168674D02*
X11489110Y-13178198D01*
X11698634Y-13292484D02*
X11679587Y-13282960D01*
X11679587Y-13282960D02*
X11670063Y-13273436D01*
X11670063Y-13273436D02*
X11660539Y-13254388D01*
X11660539Y-13254388D02*
X11660539Y-13197246D01*
X11660539Y-13197246D02*
X11670063Y-13178198D01*
X11670063Y-13178198D02*
X11679587Y-13168674D01*
X11679587Y-13168674D02*
X11698634Y-13159150D01*
X11698634Y-13159150D02*
X11727206Y-13159150D01*
X11727206Y-13159150D02*
X11746253Y-13168674D01*
X11746253Y-13168674D02*
X11755777Y-13178198D01*
X11755777Y-13178198D02*
X11765301Y-13197246D01*
X11765301Y-13197246D02*
X11765301Y-13254388D01*
X11765301Y-13254388D02*
X11755777Y-13273436D01*
X11755777Y-13273436D02*
X11746253Y-13282960D01*
X11746253Y-13282960D02*
X11727206Y-13292484D01*
X11727206Y-13292484D02*
X11698634Y-13292484D01*
X11879587Y-13292484D02*
X11860539Y-13282960D01*
X11860539Y-13282960D02*
X11851015Y-13263912D01*
X11851015Y-13263912D02*
X11851015Y-13092484D01*
X12031968Y-13282960D02*
X12012920Y-13292484D01*
X12012920Y-13292484D02*
X11974825Y-13292484D01*
X11974825Y-13292484D02*
X11955777Y-13282960D01*
X11955777Y-13282960D02*
X11946253Y-13263912D01*
X11946253Y-13263912D02*
X11946253Y-13187722D01*
X11946253Y-13187722D02*
X11955777Y-13168674D01*
X11955777Y-13168674D02*
X11974825Y-13159150D01*
X11974825Y-13159150D02*
X12012920Y-13159150D01*
X12012920Y-13159150D02*
X12031968Y-13168674D01*
X12031968Y-13168674D02*
X12041491Y-13187722D01*
X12041491Y-13187722D02*
X12041491Y-13206769D01*
X12041491Y-13206769D02*
X11946253Y-13225817D01*
X12117682Y-13282960D02*
X12136730Y-13292484D01*
X12136730Y-13292484D02*
X12174825Y-13292484D01*
X12174825Y-13292484D02*
X12193872Y-13282960D01*
X12193872Y-13282960D02*
X12203396Y-13263912D01*
X12203396Y-13263912D02*
X12203396Y-13254388D01*
X12203396Y-13254388D02*
X12193872Y-13235341D01*
X12193872Y-13235341D02*
X12174825Y-13225817D01*
X12174825Y-13225817D02*
X12146253Y-13225817D01*
X12146253Y-13225817D02*
X12127206Y-13216293D01*
X12127206Y-13216293D02*
X12117682Y-13197246D01*
X12117682Y-13197246D02*
X12117682Y-13187722D01*
X12117682Y-13187722D02*
X12127206Y-13168674D01*
X12127206Y-13168674D02*
X12146253Y-13159150D01*
X12146253Y-13159150D02*
X12174825Y-13159150D01*
X12174825Y-13159150D02*
X12193872Y-13168674D01*
X12270063Y-13368674D02*
X12279587Y-13359150D01*
X12279587Y-13359150D02*
X12298634Y-13330579D01*
X12298634Y-13330579D02*
X12308158Y-13311531D01*
X12308158Y-13311531D02*
X12317682Y-13282960D01*
X12317682Y-13282960D02*
X12327206Y-13235341D01*
X12327206Y-13235341D02*
X12327206Y-13197246D01*
X12327206Y-13197246D02*
X12317682Y-13149627D01*
X12317682Y-13149627D02*
X12308158Y-13121055D01*
X12308158Y-13121055D02*
X12298634Y-13102008D01*
X12298634Y-13102008D02*
X12279587Y-13073436D01*
X12279587Y-13073436D02*
X12270063Y-13063912D01*
X7295000Y-13365000D02*
X7495000Y-13565000D01*
X7495000Y-13365000D02*
X7295000Y-13565000D01*
X7495000Y-13465000D02*
G75*
G02*
X7295000Y-13465000I-100000J0D01*
G01*
X7295000Y-13465000D02*
G75*
G02*
X7495000Y-13465000I100000J0D01*
G01*
X7746253Y-13375531D02*
X7755777Y-13366008D01*
X7755777Y-13366008D02*
X7774824Y-13356484D01*
X7774824Y-13356484D02*
X7822443Y-13356484D01*
X7822443Y-13356484D02*
X7841491Y-13366008D01*
X7841491Y-13366008D02*
X7851015Y-13375531D01*
X7851015Y-13375531D02*
X7860539Y-13394579D01*
X7860539Y-13394579D02*
X7860539Y-13413627D01*
X7860539Y-13413627D02*
X7851015Y-13442198D01*
X7851015Y-13442198D02*
X7736729Y-13556484D01*
X7736729Y-13556484D02*
X7860539Y-13556484D01*
X7946253Y-13537436D02*
X7955777Y-13546960D01*
X7955777Y-13546960D02*
X7946253Y-13556484D01*
X7946253Y-13556484D02*
X7936729Y-13546960D01*
X7936729Y-13546960D02*
X7946253Y-13537436D01*
X7946253Y-13537436D02*
X7946253Y-13556484D01*
X8031967Y-13375531D02*
X8041491Y-13366008D01*
X8041491Y-13366008D02*
X8060539Y-13356484D01*
X8060539Y-13356484D02*
X8108158Y-13356484D01*
X8108158Y-13356484D02*
X8127205Y-13366008D01*
X8127205Y-13366008D02*
X8136729Y-13375531D01*
X8136729Y-13375531D02*
X8146253Y-13394579D01*
X8146253Y-13394579D02*
X8146253Y-13413627D01*
X8146253Y-13413627D02*
X8136729Y-13442198D01*
X8136729Y-13442198D02*
X8022443Y-13556484D01*
X8022443Y-13556484D02*
X8146253Y-13556484D01*
X8270062Y-13356484D02*
X8289110Y-13356484D01*
X8289110Y-13356484D02*
X8308158Y-13366008D01*
X8308158Y-13366008D02*
X8317682Y-13375531D01*
X8317682Y-13375531D02*
X8327205Y-13394579D01*
X8327205Y-13394579D02*
X8336729Y-13432674D01*
X8336729Y-13432674D02*
X8336729Y-13480293D01*
X8336729Y-13480293D02*
X8327205Y-13518388D01*
X8327205Y-13518388D02*
X8317682Y-13537436D01*
X8317682Y-13537436D02*
X8308158Y-13546960D01*
X8308158Y-13546960D02*
X8289110Y-13556484D01*
X8289110Y-13556484D02*
X8270062Y-13556484D01*
X8270062Y-13556484D02*
X8251015Y-13546960D01*
X8251015Y-13546960D02*
X8241491Y-13537436D01*
X8241491Y-13537436D02*
X8231967Y-13518388D01*
X8231967Y-13518388D02*
X8222443Y-13480293D01*
X8222443Y-13480293D02*
X8222443Y-13432674D01*
X8222443Y-13432674D02*
X8231967Y-13394579D01*
X8231967Y-13394579D02*
X8241491Y-13375531D01*
X8241491Y-13375531D02*
X8251015Y-13366008D01*
X8251015Y-13366008D02*
X8270062Y-13356484D01*
X8460539Y-13356484D02*
X8479586Y-13356484D01*
X8479586Y-13356484D02*
X8498634Y-13366008D01*
X8498634Y-13366008D02*
X8508158Y-13375531D01*
X8508158Y-13375531D02*
X8517682Y-13394579D01*
X8517682Y-13394579D02*
X8527205Y-13432674D01*
X8527205Y-13432674D02*
X8527205Y-13480293D01*
X8527205Y-13480293D02*
X8517682Y-13518388D01*
X8517682Y-13518388D02*
X8508158Y-13537436D01*
X8508158Y-13537436D02*
X8498634Y-13546960D01*
X8498634Y-13546960D02*
X8479586Y-13556484D01*
X8479586Y-13556484D02*
X8460539Y-13556484D01*
X8460539Y-13556484D02*
X8441491Y-13546960D01*
X8441491Y-13546960D02*
X8431967Y-13537436D01*
X8431967Y-13537436D02*
X8422444Y-13518388D01*
X8422444Y-13518388D02*
X8412920Y-13480293D01*
X8412920Y-13480293D02*
X8412920Y-13432674D01*
X8412920Y-13432674D02*
X8422444Y-13394579D01*
X8422444Y-13394579D02*
X8431967Y-13375531D01*
X8431967Y-13375531D02*
X8441491Y-13366008D01*
X8441491Y-13366008D02*
X8460539Y-13356484D01*
X8612920Y-13556484D02*
X8612920Y-13423150D01*
X8612920Y-13442198D02*
X8622444Y-13432674D01*
X8622444Y-13432674D02*
X8641491Y-13423150D01*
X8641491Y-13423150D02*
X8670063Y-13423150D01*
X8670063Y-13423150D02*
X8689110Y-13432674D01*
X8689110Y-13432674D02*
X8698634Y-13451722D01*
X8698634Y-13451722D02*
X8698634Y-13556484D01*
X8698634Y-13451722D02*
X8708158Y-13432674D01*
X8708158Y-13432674D02*
X8727205Y-13423150D01*
X8727205Y-13423150D02*
X8755777Y-13423150D01*
X8755777Y-13423150D02*
X8774825Y-13432674D01*
X8774825Y-13432674D02*
X8784348Y-13451722D01*
X8784348Y-13451722D02*
X8784348Y-13556484D01*
X8879586Y-13556484D02*
X8879586Y-13423150D01*
X8879586Y-13442198D02*
X8889110Y-13432674D01*
X8889110Y-13432674D02*
X8908158Y-13423150D01*
X8908158Y-13423150D02*
X8936729Y-13423150D01*
X8936729Y-13423150D02*
X8955777Y-13432674D01*
X8955777Y-13432674D02*
X8965301Y-13451722D01*
X8965301Y-13451722D02*
X8965301Y-13556484D01*
X8965301Y-13451722D02*
X8974825Y-13432674D01*
X8974825Y-13432674D02*
X8993872Y-13423150D01*
X8993872Y-13423150D02*
X9022444Y-13423150D01*
X9022444Y-13423150D02*
X9041491Y-13432674D01*
X9041491Y-13432674D02*
X9051015Y-13451722D01*
X9051015Y-13451722D02*
X9051015Y-13556484D01*
X9441491Y-13346960D02*
X9270063Y-13604103D01*
X9698634Y-13356484D02*
X9717682Y-13356484D01*
X9717682Y-13356484D02*
X9736729Y-13366008D01*
X9736729Y-13366008D02*
X9746253Y-13375531D01*
X9746253Y-13375531D02*
X9755777Y-13394579D01*
X9755777Y-13394579D02*
X9765301Y-13432674D01*
X9765301Y-13432674D02*
X9765301Y-13480293D01*
X9765301Y-13480293D02*
X9755777Y-13518388D01*
X9755777Y-13518388D02*
X9746253Y-13537436D01*
X9746253Y-13537436D02*
X9736729Y-13546960D01*
X9736729Y-13546960D02*
X9717682Y-13556484D01*
X9717682Y-13556484D02*
X9698634Y-13556484D01*
X9698634Y-13556484D02*
X9679587Y-13546960D01*
X9679587Y-13546960D02*
X9670063Y-13537436D01*
X9670063Y-13537436D02*
X9660539Y-13518388D01*
X9660539Y-13518388D02*
X9651015Y-13480293D01*
X9651015Y-13480293D02*
X9651015Y-13432674D01*
X9651015Y-13432674D02*
X9660539Y-13394579D01*
X9660539Y-13394579D02*
X9670063Y-13375531D01*
X9670063Y-13375531D02*
X9679587Y-13366008D01*
X9679587Y-13366008D02*
X9698634Y-13356484D01*
X9851015Y-13537436D02*
X9860539Y-13546960D01*
X9860539Y-13546960D02*
X9851015Y-13556484D01*
X9851015Y-13556484D02*
X9841491Y-13546960D01*
X9841491Y-13546960D02*
X9851015Y-13537436D01*
X9851015Y-13537436D02*
X9851015Y-13556484D01*
X9984348Y-13356484D02*
X10003396Y-13356484D01*
X10003396Y-13356484D02*
X10022444Y-13366008D01*
X10022444Y-13366008D02*
X10031968Y-13375531D01*
X10031968Y-13375531D02*
X10041491Y-13394579D01*
X10041491Y-13394579D02*
X10051015Y-13432674D01*
X10051015Y-13432674D02*
X10051015Y-13480293D01*
X10051015Y-13480293D02*
X10041491Y-13518388D01*
X10041491Y-13518388D02*
X10031968Y-13537436D01*
X10031968Y-13537436D02*
X10022444Y-13546960D01*
X10022444Y-13546960D02*
X10003396Y-13556484D01*
X10003396Y-13556484D02*
X9984348Y-13556484D01*
X9984348Y-13556484D02*
X9965301Y-13546960D01*
X9965301Y-13546960D02*
X9955777Y-13537436D01*
X9955777Y-13537436D02*
X9946253Y-13518388D01*
X9946253Y-13518388D02*
X9936729Y-13480293D01*
X9936729Y-13480293D02*
X9936729Y-13432674D01*
X9936729Y-13432674D02*
X9946253Y-13394579D01*
X9946253Y-13394579D02*
X9955777Y-13375531D01*
X9955777Y-13375531D02*
X9965301Y-13366008D01*
X9965301Y-13366008D02*
X9984348Y-13356484D01*
X10165301Y-13442198D02*
X10146253Y-13432674D01*
X10146253Y-13432674D02*
X10136729Y-13423150D01*
X10136729Y-13423150D02*
X10127206Y-13404103D01*
X10127206Y-13404103D02*
X10127206Y-13394579D01*
X10127206Y-13394579D02*
X10136729Y-13375531D01*
X10136729Y-13375531D02*
X10146253Y-13366008D01*
X10146253Y-13366008D02*
X10165301Y-13356484D01*
X10165301Y-13356484D02*
X10203396Y-13356484D01*
X10203396Y-13356484D02*
X10222444Y-13366008D01*
X10222444Y-13366008D02*
X10231968Y-13375531D01*
X10231968Y-13375531D02*
X10241491Y-13394579D01*
X10241491Y-13394579D02*
X10241491Y-13404103D01*
X10241491Y-13404103D02*
X10231968Y-13423150D01*
X10231968Y-13423150D02*
X10222444Y-13432674D01*
X10222444Y-13432674D02*
X10203396Y-13442198D01*
X10203396Y-13442198D02*
X10165301Y-13442198D01*
X10165301Y-13442198D02*
X10146253Y-13451722D01*
X10146253Y-13451722D02*
X10136729Y-13461246D01*
X10136729Y-13461246D02*
X10127206Y-13480293D01*
X10127206Y-13480293D02*
X10127206Y-13518388D01*
X10127206Y-13518388D02*
X10136729Y-13537436D01*
X10136729Y-13537436D02*
X10146253Y-13546960D01*
X10146253Y-13546960D02*
X10165301Y-13556484D01*
X10165301Y-13556484D02*
X10203396Y-13556484D01*
X10203396Y-13556484D02*
X10222444Y-13546960D01*
X10222444Y-13546960D02*
X10231968Y-13537436D01*
X10231968Y-13537436D02*
X10241491Y-13518388D01*
X10241491Y-13518388D02*
X10241491Y-13480293D01*
X10241491Y-13480293D02*
X10231968Y-13461246D01*
X10231968Y-13461246D02*
X10222444Y-13451722D01*
X10222444Y-13451722D02*
X10203396Y-13442198D01*
X10412920Y-13356484D02*
X10374825Y-13356484D01*
X10374825Y-13356484D02*
X10355777Y-13366008D01*
X10355777Y-13366008D02*
X10346253Y-13375531D01*
X10346253Y-13375531D02*
X10327206Y-13404103D01*
X10327206Y-13404103D02*
X10317682Y-13442198D01*
X10317682Y-13442198D02*
X10317682Y-13518388D01*
X10317682Y-13518388D02*
X10327206Y-13537436D01*
X10327206Y-13537436D02*
X10336729Y-13546960D01*
X10336729Y-13546960D02*
X10355777Y-13556484D01*
X10355777Y-13556484D02*
X10393872Y-13556484D01*
X10393872Y-13556484D02*
X10412920Y-13546960D01*
X10412920Y-13546960D02*
X10422444Y-13537436D01*
X10422444Y-13537436D02*
X10431968Y-13518388D01*
X10431968Y-13518388D02*
X10431968Y-13470769D01*
X10431968Y-13470769D02*
X10422444Y-13451722D01*
X10422444Y-13451722D02*
X10412920Y-13442198D01*
X10412920Y-13442198D02*
X10393872Y-13432674D01*
X10393872Y-13432674D02*
X10355777Y-13432674D01*
X10355777Y-13432674D02*
X10336729Y-13442198D01*
X10336729Y-13442198D02*
X10327206Y-13451722D01*
X10327206Y-13451722D02*
X10317682Y-13470769D01*
X10603396Y-13356484D02*
X10565301Y-13356484D01*
X10565301Y-13356484D02*
X10546253Y-13366008D01*
X10546253Y-13366008D02*
X10536729Y-13375531D01*
X10536729Y-13375531D02*
X10517682Y-13404103D01*
X10517682Y-13404103D02*
X10508158Y-13442198D01*
X10508158Y-13442198D02*
X10508158Y-13518388D01*
X10508158Y-13518388D02*
X10517682Y-13537436D01*
X10517682Y-13537436D02*
X10527206Y-13546960D01*
X10527206Y-13546960D02*
X10546253Y-13556484D01*
X10546253Y-13556484D02*
X10584349Y-13556484D01*
X10584349Y-13556484D02*
X10603396Y-13546960D01*
X10603396Y-13546960D02*
X10612920Y-13537436D01*
X10612920Y-13537436D02*
X10622444Y-13518388D01*
X10622444Y-13518388D02*
X10622444Y-13470769D01*
X10622444Y-13470769D02*
X10612920Y-13451722D01*
X10612920Y-13451722D02*
X10603396Y-13442198D01*
X10603396Y-13442198D02*
X10584349Y-13432674D01*
X10584349Y-13432674D02*
X10546253Y-13432674D01*
X10546253Y-13432674D02*
X10527206Y-13442198D01*
X10527206Y-13442198D02*
X10517682Y-13451722D01*
X10517682Y-13451722D02*
X10508158Y-13470769D01*
X10698634Y-13356484D02*
X10698634Y-13394579D01*
X10774825Y-13356484D02*
X10774825Y-13394579D01*
X11070063Y-13632674D02*
X11060539Y-13623150D01*
X11060539Y-13623150D02*
X11041491Y-13594579D01*
X11041491Y-13594579D02*
X11031968Y-13575531D01*
X11031968Y-13575531D02*
X11022444Y-13546960D01*
X11022444Y-13546960D02*
X11012920Y-13499341D01*
X11012920Y-13499341D02*
X11012920Y-13461246D01*
X11012920Y-13461246D02*
X11022444Y-13413627D01*
X11022444Y-13413627D02*
X11031968Y-13385055D01*
X11031968Y-13385055D02*
X11041491Y-13366008D01*
X11041491Y-13366008D02*
X11060539Y-13337436D01*
X11060539Y-13337436D02*
X11070063Y-13327912D01*
X11251015Y-13556484D02*
X11136730Y-13556484D01*
X11193872Y-13556484D02*
X11193872Y-13356484D01*
X11193872Y-13356484D02*
X11174825Y-13385055D01*
X11174825Y-13385055D02*
X11155777Y-13404103D01*
X11155777Y-13404103D02*
X11136730Y-13413627D01*
X11489110Y-13556484D02*
X11489110Y-13356484D01*
X11574825Y-13556484D02*
X11574825Y-13451722D01*
X11574825Y-13451722D02*
X11565301Y-13432674D01*
X11565301Y-13432674D02*
X11546253Y-13423150D01*
X11546253Y-13423150D02*
X11517682Y-13423150D01*
X11517682Y-13423150D02*
X11498634Y-13432674D01*
X11498634Y-13432674D02*
X11489110Y-13442198D01*
X11698634Y-13556484D02*
X11679587Y-13546960D01*
X11679587Y-13546960D02*
X11670063Y-13537436D01*
X11670063Y-13537436D02*
X11660539Y-13518388D01*
X11660539Y-13518388D02*
X11660539Y-13461246D01*
X11660539Y-13461246D02*
X11670063Y-13442198D01*
X11670063Y-13442198D02*
X11679587Y-13432674D01*
X11679587Y-13432674D02*
X11698634Y-13423150D01*
X11698634Y-13423150D02*
X11727206Y-13423150D01*
X11727206Y-13423150D02*
X11746253Y-13432674D01*
X11746253Y-13432674D02*
X11755777Y-13442198D01*
X11755777Y-13442198D02*
X11765301Y-13461246D01*
X11765301Y-13461246D02*
X11765301Y-13518388D01*
X11765301Y-13518388D02*
X11755777Y-13537436D01*
X11755777Y-13537436D02*
X11746253Y-13546960D01*
X11746253Y-13546960D02*
X11727206Y-13556484D01*
X11727206Y-13556484D02*
X11698634Y-13556484D01*
X11879587Y-13556484D02*
X11860539Y-13546960D01*
X11860539Y-13546960D02*
X11851015Y-13527912D01*
X11851015Y-13527912D02*
X11851015Y-13356484D01*
X12031968Y-13546960D02*
X12012920Y-13556484D01*
X12012920Y-13556484D02*
X11974825Y-13556484D01*
X11974825Y-13556484D02*
X11955777Y-13546960D01*
X11955777Y-13546960D02*
X11946253Y-13527912D01*
X11946253Y-13527912D02*
X11946253Y-13451722D01*
X11946253Y-13451722D02*
X11955777Y-13432674D01*
X11955777Y-13432674D02*
X11974825Y-13423150D01*
X11974825Y-13423150D02*
X12012920Y-13423150D01*
X12012920Y-13423150D02*
X12031968Y-13432674D01*
X12031968Y-13432674D02*
X12041491Y-13451722D01*
X12041491Y-13451722D02*
X12041491Y-13470769D01*
X12041491Y-13470769D02*
X11946253Y-13489817D01*
X12108158Y-13632674D02*
X12117682Y-13623150D01*
X12117682Y-13623150D02*
X12136730Y-13594579D01*
X12136730Y-13594579D02*
X12146253Y-13575531D01*
X12146253Y-13575531D02*
X12155777Y-13546960D01*
X12155777Y-13546960D02*
X12165301Y-13499341D01*
X12165301Y-13499341D02*
X12165301Y-13461246D01*
X12165301Y-13461246D02*
X12155777Y-13413627D01*
X12155777Y-13413627D02*
X12146253Y-13385055D01*
X12146253Y-13385055D02*
X12136730Y-13366008D01*
X12136730Y-13366008D02*
X12117682Y-13337436D01*
X12117682Y-13337436D02*
X12108158Y-13327912D01*
X7295000Y-13685000D02*
X7495000Y-13885000D01*
X7495000Y-13685000D02*
X7295000Y-13885000D01*
X7395000Y-13685000D02*
X7395000Y-13885000D01*
X7295000Y-13785000D02*
X7495000Y-13785000D01*
X7746253Y-13695531D02*
X7755777Y-13686008D01*
X7755777Y-13686008D02*
X7774824Y-13676484D01*
X7774824Y-13676484D02*
X7822443Y-13676484D01*
X7822443Y-13676484D02*
X7841491Y-13686008D01*
X7841491Y-13686008D02*
X7851015Y-13695531D01*
X7851015Y-13695531D02*
X7860539Y-13714579D01*
X7860539Y-13714579D02*
X7860539Y-13733627D01*
X7860539Y-13733627D02*
X7851015Y-13762198D01*
X7851015Y-13762198D02*
X7736729Y-13876484D01*
X7736729Y-13876484D02*
X7860539Y-13876484D01*
X7946253Y-13857436D02*
X7955777Y-13866960D01*
X7955777Y-13866960D02*
X7946253Y-13876484D01*
X7946253Y-13876484D02*
X7936729Y-13866960D01*
X7936729Y-13866960D02*
X7946253Y-13857436D01*
X7946253Y-13857436D02*
X7946253Y-13876484D01*
X8022443Y-13676484D02*
X8155777Y-13676484D01*
X8155777Y-13676484D02*
X8070062Y-13876484D01*
X8270062Y-13676484D02*
X8289110Y-13676484D01*
X8289110Y-13676484D02*
X8308158Y-13686008D01*
X8308158Y-13686008D02*
X8317682Y-13695531D01*
X8317682Y-13695531D02*
X8327205Y-13714579D01*
X8327205Y-13714579D02*
X8336729Y-13752674D01*
X8336729Y-13752674D02*
X8336729Y-13800293D01*
X8336729Y-13800293D02*
X8327205Y-13838388D01*
X8327205Y-13838388D02*
X8317682Y-13857436D01*
X8317682Y-13857436D02*
X8308158Y-13866960D01*
X8308158Y-13866960D02*
X8289110Y-13876484D01*
X8289110Y-13876484D02*
X8270062Y-13876484D01*
X8270062Y-13876484D02*
X8251015Y-13866960D01*
X8251015Y-13866960D02*
X8241491Y-13857436D01*
X8241491Y-13857436D02*
X8231967Y-13838388D01*
X8231967Y-13838388D02*
X8222443Y-13800293D01*
X8222443Y-13800293D02*
X8222443Y-13752674D01*
X8222443Y-13752674D02*
X8231967Y-13714579D01*
X8231967Y-13714579D02*
X8241491Y-13695531D01*
X8241491Y-13695531D02*
X8251015Y-13686008D01*
X8251015Y-13686008D02*
X8270062Y-13676484D01*
X8460539Y-13676484D02*
X8479586Y-13676484D01*
X8479586Y-13676484D02*
X8498634Y-13686008D01*
X8498634Y-13686008D02*
X8508158Y-13695531D01*
X8508158Y-13695531D02*
X8517682Y-13714579D01*
X8517682Y-13714579D02*
X8527205Y-13752674D01*
X8527205Y-13752674D02*
X8527205Y-13800293D01*
X8527205Y-13800293D02*
X8517682Y-13838388D01*
X8517682Y-13838388D02*
X8508158Y-13857436D01*
X8508158Y-13857436D02*
X8498634Y-13866960D01*
X8498634Y-13866960D02*
X8479586Y-13876484D01*
X8479586Y-13876484D02*
X8460539Y-13876484D01*
X8460539Y-13876484D02*
X8441491Y-13866960D01*
X8441491Y-13866960D02*
X8431967Y-13857436D01*
X8431967Y-13857436D02*
X8422444Y-13838388D01*
X8422444Y-13838388D02*
X8412920Y-13800293D01*
X8412920Y-13800293D02*
X8412920Y-13752674D01*
X8412920Y-13752674D02*
X8422444Y-13714579D01*
X8422444Y-13714579D02*
X8431967Y-13695531D01*
X8431967Y-13695531D02*
X8441491Y-13686008D01*
X8441491Y-13686008D02*
X8460539Y-13676484D01*
X8612920Y-13876484D02*
X8612920Y-13743150D01*
X8612920Y-13762198D02*
X8622444Y-13752674D01*
X8622444Y-13752674D02*
X8641491Y-13743150D01*
X8641491Y-13743150D02*
X8670063Y-13743150D01*
X8670063Y-13743150D02*
X8689110Y-13752674D01*
X8689110Y-13752674D02*
X8698634Y-13771722D01*
X8698634Y-13771722D02*
X8698634Y-13876484D01*
X8698634Y-13771722D02*
X8708158Y-13752674D01*
X8708158Y-13752674D02*
X8727205Y-13743150D01*
X8727205Y-13743150D02*
X8755777Y-13743150D01*
X8755777Y-13743150D02*
X8774825Y-13752674D01*
X8774825Y-13752674D02*
X8784348Y-13771722D01*
X8784348Y-13771722D02*
X8784348Y-13876484D01*
X8879586Y-13876484D02*
X8879586Y-13743150D01*
X8879586Y-13762198D02*
X8889110Y-13752674D01*
X8889110Y-13752674D02*
X8908158Y-13743150D01*
X8908158Y-13743150D02*
X8936729Y-13743150D01*
X8936729Y-13743150D02*
X8955777Y-13752674D01*
X8955777Y-13752674D02*
X8965301Y-13771722D01*
X8965301Y-13771722D02*
X8965301Y-13876484D01*
X8965301Y-13771722D02*
X8974825Y-13752674D01*
X8974825Y-13752674D02*
X8993872Y-13743150D01*
X8993872Y-13743150D02*
X9022444Y-13743150D01*
X9022444Y-13743150D02*
X9041491Y-13752674D01*
X9041491Y-13752674D02*
X9051015Y-13771722D01*
X9051015Y-13771722D02*
X9051015Y-13876484D01*
X9441491Y-13666960D02*
X9270063Y-13924103D01*
X9698634Y-13676484D02*
X9717682Y-13676484D01*
X9717682Y-13676484D02*
X9736729Y-13686008D01*
X9736729Y-13686008D02*
X9746253Y-13695531D01*
X9746253Y-13695531D02*
X9755777Y-13714579D01*
X9755777Y-13714579D02*
X9765301Y-13752674D01*
X9765301Y-13752674D02*
X9765301Y-13800293D01*
X9765301Y-13800293D02*
X9755777Y-13838388D01*
X9755777Y-13838388D02*
X9746253Y-13857436D01*
X9746253Y-13857436D02*
X9736729Y-13866960D01*
X9736729Y-13866960D02*
X9717682Y-13876484D01*
X9717682Y-13876484D02*
X9698634Y-13876484D01*
X9698634Y-13876484D02*
X9679587Y-13866960D01*
X9679587Y-13866960D02*
X9670063Y-13857436D01*
X9670063Y-13857436D02*
X9660539Y-13838388D01*
X9660539Y-13838388D02*
X9651015Y-13800293D01*
X9651015Y-13800293D02*
X9651015Y-13752674D01*
X9651015Y-13752674D02*
X9660539Y-13714579D01*
X9660539Y-13714579D02*
X9670063Y-13695531D01*
X9670063Y-13695531D02*
X9679587Y-13686008D01*
X9679587Y-13686008D02*
X9698634Y-13676484D01*
X9851015Y-13857436D02*
X9860539Y-13866960D01*
X9860539Y-13866960D02*
X9851015Y-13876484D01*
X9851015Y-13876484D02*
X9841491Y-13866960D01*
X9841491Y-13866960D02*
X9851015Y-13857436D01*
X9851015Y-13857436D02*
X9851015Y-13876484D01*
X10051015Y-13876484D02*
X9936729Y-13876484D01*
X9993872Y-13876484D02*
X9993872Y-13676484D01*
X9993872Y-13676484D02*
X9974825Y-13705055D01*
X9974825Y-13705055D02*
X9955777Y-13724103D01*
X9955777Y-13724103D02*
X9936729Y-13733627D01*
X10174825Y-13676484D02*
X10193872Y-13676484D01*
X10193872Y-13676484D02*
X10212920Y-13686008D01*
X10212920Y-13686008D02*
X10222444Y-13695531D01*
X10222444Y-13695531D02*
X10231968Y-13714579D01*
X10231968Y-13714579D02*
X10241491Y-13752674D01*
X10241491Y-13752674D02*
X10241491Y-13800293D01*
X10241491Y-13800293D02*
X10231968Y-13838388D01*
X10231968Y-13838388D02*
X10222444Y-13857436D01*
X10222444Y-13857436D02*
X10212920Y-13866960D01*
X10212920Y-13866960D02*
X10193872Y-13876484D01*
X10193872Y-13876484D02*
X10174825Y-13876484D01*
X10174825Y-13876484D02*
X10155777Y-13866960D01*
X10155777Y-13866960D02*
X10146253Y-13857436D01*
X10146253Y-13857436D02*
X10136729Y-13838388D01*
X10136729Y-13838388D02*
X10127206Y-13800293D01*
X10127206Y-13800293D02*
X10127206Y-13752674D01*
X10127206Y-13752674D02*
X10136729Y-13714579D01*
X10136729Y-13714579D02*
X10146253Y-13695531D01*
X10146253Y-13695531D02*
X10155777Y-13686008D01*
X10155777Y-13686008D02*
X10174825Y-13676484D01*
X10412920Y-13676484D02*
X10374825Y-13676484D01*
X10374825Y-13676484D02*
X10355777Y-13686008D01*
X10355777Y-13686008D02*
X10346253Y-13695531D01*
X10346253Y-13695531D02*
X10327206Y-13724103D01*
X10327206Y-13724103D02*
X10317682Y-13762198D01*
X10317682Y-13762198D02*
X10317682Y-13838388D01*
X10317682Y-13838388D02*
X10327206Y-13857436D01*
X10327206Y-13857436D02*
X10336729Y-13866960D01*
X10336729Y-13866960D02*
X10355777Y-13876484D01*
X10355777Y-13876484D02*
X10393872Y-13876484D01*
X10393872Y-13876484D02*
X10412920Y-13866960D01*
X10412920Y-13866960D02*
X10422444Y-13857436D01*
X10422444Y-13857436D02*
X10431968Y-13838388D01*
X10431968Y-13838388D02*
X10431968Y-13790769D01*
X10431968Y-13790769D02*
X10422444Y-13771722D01*
X10422444Y-13771722D02*
X10412920Y-13762198D01*
X10412920Y-13762198D02*
X10393872Y-13752674D01*
X10393872Y-13752674D02*
X10355777Y-13752674D01*
X10355777Y-13752674D02*
X10336729Y-13762198D01*
X10336729Y-13762198D02*
X10327206Y-13771722D01*
X10327206Y-13771722D02*
X10317682Y-13790769D01*
X10498634Y-13676484D02*
X10622444Y-13676484D01*
X10622444Y-13676484D02*
X10555777Y-13752674D01*
X10555777Y-13752674D02*
X10584349Y-13752674D01*
X10584349Y-13752674D02*
X10603396Y-13762198D01*
X10603396Y-13762198D02*
X10612920Y-13771722D01*
X10612920Y-13771722D02*
X10622444Y-13790769D01*
X10622444Y-13790769D02*
X10622444Y-13838388D01*
X10622444Y-13838388D02*
X10612920Y-13857436D01*
X10612920Y-13857436D02*
X10603396Y-13866960D01*
X10603396Y-13866960D02*
X10584349Y-13876484D01*
X10584349Y-13876484D02*
X10527206Y-13876484D01*
X10527206Y-13876484D02*
X10508158Y-13866960D01*
X10508158Y-13866960D02*
X10498634Y-13857436D01*
X10698634Y-13676484D02*
X10698634Y-13714579D01*
X10774825Y-13676484D02*
X10774825Y-13714579D01*
X11070063Y-13952674D02*
X11060539Y-13943150D01*
X11060539Y-13943150D02*
X11041491Y-13914579D01*
X11041491Y-13914579D02*
X11031968Y-13895531D01*
X11031968Y-13895531D02*
X11022444Y-13866960D01*
X11022444Y-13866960D02*
X11012920Y-13819341D01*
X11012920Y-13819341D02*
X11012920Y-13781246D01*
X11012920Y-13781246D02*
X11022444Y-13733627D01*
X11022444Y-13733627D02*
X11031968Y-13705055D01*
X11031968Y-13705055D02*
X11041491Y-13686008D01*
X11041491Y-13686008D02*
X11060539Y-13657436D01*
X11060539Y-13657436D02*
X11070063Y-13647912D01*
X11251015Y-13876484D02*
X11136730Y-13876484D01*
X11193872Y-13876484D02*
X11193872Y-13676484D01*
X11193872Y-13676484D02*
X11174825Y-13705055D01*
X11174825Y-13705055D02*
X11155777Y-13724103D01*
X11155777Y-13724103D02*
X11136730Y-13733627D01*
X11489110Y-13876484D02*
X11489110Y-13676484D01*
X11574825Y-13876484D02*
X11574825Y-13771722D01*
X11574825Y-13771722D02*
X11565301Y-13752674D01*
X11565301Y-13752674D02*
X11546253Y-13743150D01*
X11546253Y-13743150D02*
X11517682Y-13743150D01*
X11517682Y-13743150D02*
X11498634Y-13752674D01*
X11498634Y-13752674D02*
X11489110Y-13762198D01*
X11698634Y-13876484D02*
X11679587Y-13866960D01*
X11679587Y-13866960D02*
X11670063Y-13857436D01*
X11670063Y-13857436D02*
X11660539Y-13838388D01*
X11660539Y-13838388D02*
X11660539Y-13781246D01*
X11660539Y-13781246D02*
X11670063Y-13762198D01*
X11670063Y-13762198D02*
X11679587Y-13752674D01*
X11679587Y-13752674D02*
X11698634Y-13743150D01*
X11698634Y-13743150D02*
X11727206Y-13743150D01*
X11727206Y-13743150D02*
X11746253Y-13752674D01*
X11746253Y-13752674D02*
X11755777Y-13762198D01*
X11755777Y-13762198D02*
X11765301Y-13781246D01*
X11765301Y-13781246D02*
X11765301Y-13838388D01*
X11765301Y-13838388D02*
X11755777Y-13857436D01*
X11755777Y-13857436D02*
X11746253Y-13866960D01*
X11746253Y-13866960D02*
X11727206Y-13876484D01*
X11727206Y-13876484D02*
X11698634Y-13876484D01*
X11879587Y-13876484D02*
X11860539Y-13866960D01*
X11860539Y-13866960D02*
X11851015Y-13847912D01*
X11851015Y-13847912D02*
X11851015Y-13676484D01*
X12031968Y-13866960D02*
X12012920Y-13876484D01*
X12012920Y-13876484D02*
X11974825Y-13876484D01*
X11974825Y-13876484D02*
X11955777Y-13866960D01*
X11955777Y-13866960D02*
X11946253Y-13847912D01*
X11946253Y-13847912D02*
X11946253Y-13771722D01*
X11946253Y-13771722D02*
X11955777Y-13752674D01*
X11955777Y-13752674D02*
X11974825Y-13743150D01*
X11974825Y-13743150D02*
X12012920Y-13743150D01*
X12012920Y-13743150D02*
X12031968Y-13752674D01*
X12031968Y-13752674D02*
X12041491Y-13771722D01*
X12041491Y-13771722D02*
X12041491Y-13790769D01*
X12041491Y-13790769D02*
X11946253Y-13809817D01*
X12108158Y-13952674D02*
X12117682Y-13943150D01*
X12117682Y-13943150D02*
X12136730Y-13914579D01*
X12136730Y-13914579D02*
X12146253Y-13895531D01*
X12146253Y-13895531D02*
X12155777Y-13866960D01*
X12155777Y-13866960D02*
X12165301Y-13819341D01*
X12165301Y-13819341D02*
X12165301Y-13781246D01*
X12165301Y-13781246D02*
X12155777Y-13733627D01*
X12155777Y-13733627D02*
X12146253Y-13705055D01*
X12146253Y-13705055D02*
X12136730Y-13686008D01*
X12136730Y-13686008D02*
X12117682Y-13657436D01*
X12117682Y-13657436D02*
X12108158Y-13647912D01*
X7295000Y-14005000D02*
X7495000Y-14205000D01*
X7495000Y-14005000D02*
X7295000Y-14205000D01*
X7465711Y-14175711D02*
X7465711Y-14034289D01*
X7324289Y-14034289D01*
X7324289Y-14175711D01*
X7465711Y-14175711D01*
X7736729Y-13996484D02*
X7860539Y-13996484D01*
X7860539Y-13996484D02*
X7793872Y-14072674D01*
X7793872Y-14072674D02*
X7822443Y-14072674D01*
X7822443Y-14072674D02*
X7841491Y-14082198D01*
X7841491Y-14082198D02*
X7851015Y-14091722D01*
X7851015Y-14091722D02*
X7860539Y-14110769D01*
X7860539Y-14110769D02*
X7860539Y-14158388D01*
X7860539Y-14158388D02*
X7851015Y-14177436D01*
X7851015Y-14177436D02*
X7841491Y-14186960D01*
X7841491Y-14186960D02*
X7822443Y-14196484D01*
X7822443Y-14196484D02*
X7765301Y-14196484D01*
X7765301Y-14196484D02*
X7746253Y-14186960D01*
X7746253Y-14186960D02*
X7736729Y-14177436D01*
X7946253Y-14177436D02*
X7955777Y-14186960D01*
X7955777Y-14186960D02*
X7946253Y-14196484D01*
X7946253Y-14196484D02*
X7936729Y-14186960D01*
X7936729Y-14186960D02*
X7946253Y-14177436D01*
X7946253Y-14177436D02*
X7946253Y-14196484D01*
X8031967Y-14015531D02*
X8041491Y-14006008D01*
X8041491Y-14006008D02*
X8060539Y-13996484D01*
X8060539Y-13996484D02*
X8108158Y-13996484D01*
X8108158Y-13996484D02*
X8127205Y-14006008D01*
X8127205Y-14006008D02*
X8136729Y-14015531D01*
X8136729Y-14015531D02*
X8146253Y-14034579D01*
X8146253Y-14034579D02*
X8146253Y-14053627D01*
X8146253Y-14053627D02*
X8136729Y-14082198D01*
X8136729Y-14082198D02*
X8022443Y-14196484D01*
X8022443Y-14196484D02*
X8146253Y-14196484D01*
X8270062Y-13996484D02*
X8289110Y-13996484D01*
X8289110Y-13996484D02*
X8308158Y-14006008D01*
X8308158Y-14006008D02*
X8317682Y-14015531D01*
X8317682Y-14015531D02*
X8327205Y-14034579D01*
X8327205Y-14034579D02*
X8336729Y-14072674D01*
X8336729Y-14072674D02*
X8336729Y-14120293D01*
X8336729Y-14120293D02*
X8327205Y-14158388D01*
X8327205Y-14158388D02*
X8317682Y-14177436D01*
X8317682Y-14177436D02*
X8308158Y-14186960D01*
X8308158Y-14186960D02*
X8289110Y-14196484D01*
X8289110Y-14196484D02*
X8270062Y-14196484D01*
X8270062Y-14196484D02*
X8251015Y-14186960D01*
X8251015Y-14186960D02*
X8241491Y-14177436D01*
X8241491Y-14177436D02*
X8231967Y-14158388D01*
X8231967Y-14158388D02*
X8222443Y-14120293D01*
X8222443Y-14120293D02*
X8222443Y-14072674D01*
X8222443Y-14072674D02*
X8231967Y-14034579D01*
X8231967Y-14034579D02*
X8241491Y-14015531D01*
X8241491Y-14015531D02*
X8251015Y-14006008D01*
X8251015Y-14006008D02*
X8270062Y-13996484D01*
X8460539Y-13996484D02*
X8479586Y-13996484D01*
X8479586Y-13996484D02*
X8498634Y-14006008D01*
X8498634Y-14006008D02*
X8508158Y-14015531D01*
X8508158Y-14015531D02*
X8517682Y-14034579D01*
X8517682Y-14034579D02*
X8527205Y-14072674D01*
X8527205Y-14072674D02*
X8527205Y-14120293D01*
X8527205Y-14120293D02*
X8517682Y-14158388D01*
X8517682Y-14158388D02*
X8508158Y-14177436D01*
X8508158Y-14177436D02*
X8498634Y-14186960D01*
X8498634Y-14186960D02*
X8479586Y-14196484D01*
X8479586Y-14196484D02*
X8460539Y-14196484D01*
X8460539Y-14196484D02*
X8441491Y-14186960D01*
X8441491Y-14186960D02*
X8431967Y-14177436D01*
X8431967Y-14177436D02*
X8422444Y-14158388D01*
X8422444Y-14158388D02*
X8412920Y-14120293D01*
X8412920Y-14120293D02*
X8412920Y-14072674D01*
X8412920Y-14072674D02*
X8422444Y-14034579D01*
X8422444Y-14034579D02*
X8431967Y-14015531D01*
X8431967Y-14015531D02*
X8441491Y-14006008D01*
X8441491Y-14006008D02*
X8460539Y-13996484D01*
X8612920Y-14196484D02*
X8612920Y-14063150D01*
X8612920Y-14082198D02*
X8622444Y-14072674D01*
X8622444Y-14072674D02*
X8641491Y-14063150D01*
X8641491Y-14063150D02*
X8670063Y-14063150D01*
X8670063Y-14063150D02*
X8689110Y-14072674D01*
X8689110Y-14072674D02*
X8698634Y-14091722D01*
X8698634Y-14091722D02*
X8698634Y-14196484D01*
X8698634Y-14091722D02*
X8708158Y-14072674D01*
X8708158Y-14072674D02*
X8727205Y-14063150D01*
X8727205Y-14063150D02*
X8755777Y-14063150D01*
X8755777Y-14063150D02*
X8774825Y-14072674D01*
X8774825Y-14072674D02*
X8784348Y-14091722D01*
X8784348Y-14091722D02*
X8784348Y-14196484D01*
X8879586Y-14196484D02*
X8879586Y-14063150D01*
X8879586Y-14082198D02*
X8889110Y-14072674D01*
X8889110Y-14072674D02*
X8908158Y-14063150D01*
X8908158Y-14063150D02*
X8936729Y-14063150D01*
X8936729Y-14063150D02*
X8955777Y-14072674D01*
X8955777Y-14072674D02*
X8965301Y-14091722D01*
X8965301Y-14091722D02*
X8965301Y-14196484D01*
X8965301Y-14091722D02*
X8974825Y-14072674D01*
X8974825Y-14072674D02*
X8993872Y-14063150D01*
X8993872Y-14063150D02*
X9022444Y-14063150D01*
X9022444Y-14063150D02*
X9041491Y-14072674D01*
X9041491Y-14072674D02*
X9051015Y-14091722D01*
X9051015Y-14091722D02*
X9051015Y-14196484D01*
X9441491Y-13986960D02*
X9270063Y-14244103D01*
X9698634Y-13996484D02*
X9717682Y-13996484D01*
X9717682Y-13996484D02*
X9736729Y-14006008D01*
X9736729Y-14006008D02*
X9746253Y-14015531D01*
X9746253Y-14015531D02*
X9755777Y-14034579D01*
X9755777Y-14034579D02*
X9765301Y-14072674D01*
X9765301Y-14072674D02*
X9765301Y-14120293D01*
X9765301Y-14120293D02*
X9755777Y-14158388D01*
X9755777Y-14158388D02*
X9746253Y-14177436D01*
X9746253Y-14177436D02*
X9736729Y-14186960D01*
X9736729Y-14186960D02*
X9717682Y-14196484D01*
X9717682Y-14196484D02*
X9698634Y-14196484D01*
X9698634Y-14196484D02*
X9679587Y-14186960D01*
X9679587Y-14186960D02*
X9670063Y-14177436D01*
X9670063Y-14177436D02*
X9660539Y-14158388D01*
X9660539Y-14158388D02*
X9651015Y-14120293D01*
X9651015Y-14120293D02*
X9651015Y-14072674D01*
X9651015Y-14072674D02*
X9660539Y-14034579D01*
X9660539Y-14034579D02*
X9670063Y-14015531D01*
X9670063Y-14015531D02*
X9679587Y-14006008D01*
X9679587Y-14006008D02*
X9698634Y-13996484D01*
X9851015Y-14177436D02*
X9860539Y-14186960D01*
X9860539Y-14186960D02*
X9851015Y-14196484D01*
X9851015Y-14196484D02*
X9841491Y-14186960D01*
X9841491Y-14186960D02*
X9851015Y-14177436D01*
X9851015Y-14177436D02*
X9851015Y-14196484D01*
X10051015Y-14196484D02*
X9936729Y-14196484D01*
X9993872Y-14196484D02*
X9993872Y-13996484D01*
X9993872Y-13996484D02*
X9974825Y-14025055D01*
X9974825Y-14025055D02*
X9955777Y-14044103D01*
X9955777Y-14044103D02*
X9936729Y-14053627D01*
X10127206Y-14015531D02*
X10136729Y-14006008D01*
X10136729Y-14006008D02*
X10155777Y-13996484D01*
X10155777Y-13996484D02*
X10203396Y-13996484D01*
X10203396Y-13996484D02*
X10222444Y-14006008D01*
X10222444Y-14006008D02*
X10231968Y-14015531D01*
X10231968Y-14015531D02*
X10241491Y-14034579D01*
X10241491Y-14034579D02*
X10241491Y-14053627D01*
X10241491Y-14053627D02*
X10231968Y-14082198D01*
X10231968Y-14082198D02*
X10117682Y-14196484D01*
X10117682Y-14196484D02*
X10241491Y-14196484D01*
X10412920Y-13996484D02*
X10374825Y-13996484D01*
X10374825Y-13996484D02*
X10355777Y-14006008D01*
X10355777Y-14006008D02*
X10346253Y-14015531D01*
X10346253Y-14015531D02*
X10327206Y-14044103D01*
X10327206Y-14044103D02*
X10317682Y-14082198D01*
X10317682Y-14082198D02*
X10317682Y-14158388D01*
X10317682Y-14158388D02*
X10327206Y-14177436D01*
X10327206Y-14177436D02*
X10336729Y-14186960D01*
X10336729Y-14186960D02*
X10355777Y-14196484D01*
X10355777Y-14196484D02*
X10393872Y-14196484D01*
X10393872Y-14196484D02*
X10412920Y-14186960D01*
X10412920Y-14186960D02*
X10422444Y-14177436D01*
X10422444Y-14177436D02*
X10431968Y-14158388D01*
X10431968Y-14158388D02*
X10431968Y-14110769D01*
X10431968Y-14110769D02*
X10422444Y-14091722D01*
X10422444Y-14091722D02*
X10412920Y-14082198D01*
X10412920Y-14082198D02*
X10393872Y-14072674D01*
X10393872Y-14072674D02*
X10355777Y-14072674D01*
X10355777Y-14072674D02*
X10336729Y-14082198D01*
X10336729Y-14082198D02*
X10327206Y-14091722D01*
X10327206Y-14091722D02*
X10317682Y-14110769D01*
X10555777Y-13996484D02*
X10574825Y-13996484D01*
X10574825Y-13996484D02*
X10593872Y-14006008D01*
X10593872Y-14006008D02*
X10603396Y-14015531D01*
X10603396Y-14015531D02*
X10612920Y-14034579D01*
X10612920Y-14034579D02*
X10622444Y-14072674D01*
X10622444Y-14072674D02*
X10622444Y-14120293D01*
X10622444Y-14120293D02*
X10612920Y-14158388D01*
X10612920Y-14158388D02*
X10603396Y-14177436D01*
X10603396Y-14177436D02*
X10593872Y-14186960D01*
X10593872Y-14186960D02*
X10574825Y-14196484D01*
X10574825Y-14196484D02*
X10555777Y-14196484D01*
X10555777Y-14196484D02*
X10536729Y-14186960D01*
X10536729Y-14186960D02*
X10527206Y-14177436D01*
X10527206Y-14177436D02*
X10517682Y-14158388D01*
X10517682Y-14158388D02*
X10508158Y-14120293D01*
X10508158Y-14120293D02*
X10508158Y-14072674D01*
X10508158Y-14072674D02*
X10517682Y-14034579D01*
X10517682Y-14034579D02*
X10527206Y-14015531D01*
X10527206Y-14015531D02*
X10536729Y-14006008D01*
X10536729Y-14006008D02*
X10555777Y-13996484D01*
X10698634Y-13996484D02*
X10698634Y-14034579D01*
X10774825Y-13996484D02*
X10774825Y-14034579D01*
X11070063Y-14272674D02*
X11060539Y-14263150D01*
X11060539Y-14263150D02*
X11041491Y-14234579D01*
X11041491Y-14234579D02*
X11031968Y-14215531D01*
X11031968Y-14215531D02*
X11022444Y-14186960D01*
X11022444Y-14186960D02*
X11012920Y-14139341D01*
X11012920Y-14139341D02*
X11012920Y-14101246D01*
X11012920Y-14101246D02*
X11022444Y-14053627D01*
X11022444Y-14053627D02*
X11031968Y-14025055D01*
X11031968Y-14025055D02*
X11041491Y-14006008D01*
X11041491Y-14006008D02*
X11060539Y-13977436D01*
X11060539Y-13977436D02*
X11070063Y-13967912D01*
X11251015Y-14196484D02*
X11136730Y-14196484D01*
X11193872Y-14196484D02*
X11193872Y-13996484D01*
X11193872Y-13996484D02*
X11174825Y-14025055D01*
X11174825Y-14025055D02*
X11155777Y-14044103D01*
X11155777Y-14044103D02*
X11136730Y-14053627D01*
X11489110Y-14196484D02*
X11489110Y-13996484D01*
X11574825Y-14196484D02*
X11574825Y-14091722D01*
X11574825Y-14091722D02*
X11565301Y-14072674D01*
X11565301Y-14072674D02*
X11546253Y-14063150D01*
X11546253Y-14063150D02*
X11517682Y-14063150D01*
X11517682Y-14063150D02*
X11498634Y-14072674D01*
X11498634Y-14072674D02*
X11489110Y-14082198D01*
X11698634Y-14196484D02*
X11679587Y-14186960D01*
X11679587Y-14186960D02*
X11670063Y-14177436D01*
X11670063Y-14177436D02*
X11660539Y-14158388D01*
X11660539Y-14158388D02*
X11660539Y-14101246D01*
X11660539Y-14101246D02*
X11670063Y-14082198D01*
X11670063Y-14082198D02*
X11679587Y-14072674D01*
X11679587Y-14072674D02*
X11698634Y-14063150D01*
X11698634Y-14063150D02*
X11727206Y-14063150D01*
X11727206Y-14063150D02*
X11746253Y-14072674D01*
X11746253Y-14072674D02*
X11755777Y-14082198D01*
X11755777Y-14082198D02*
X11765301Y-14101246D01*
X11765301Y-14101246D02*
X11765301Y-14158388D01*
X11765301Y-14158388D02*
X11755777Y-14177436D01*
X11755777Y-14177436D02*
X11746253Y-14186960D01*
X11746253Y-14186960D02*
X11727206Y-14196484D01*
X11727206Y-14196484D02*
X11698634Y-14196484D01*
X11879587Y-14196484D02*
X11860539Y-14186960D01*
X11860539Y-14186960D02*
X11851015Y-14167912D01*
X11851015Y-14167912D02*
X11851015Y-13996484D01*
X12031968Y-14186960D02*
X12012920Y-14196484D01*
X12012920Y-14196484D02*
X11974825Y-14196484D01*
X11974825Y-14196484D02*
X11955777Y-14186960D01*
X11955777Y-14186960D02*
X11946253Y-14167912D01*
X11946253Y-14167912D02*
X11946253Y-14091722D01*
X11946253Y-14091722D02*
X11955777Y-14072674D01*
X11955777Y-14072674D02*
X11974825Y-14063150D01*
X11974825Y-14063150D02*
X12012920Y-14063150D01*
X12012920Y-14063150D02*
X12031968Y-14072674D01*
X12031968Y-14072674D02*
X12041491Y-14091722D01*
X12041491Y-14091722D02*
X12041491Y-14110769D01*
X12041491Y-14110769D02*
X11946253Y-14129817D01*
X12108158Y-14272674D02*
X12117682Y-14263150D01*
X12117682Y-14263150D02*
X12136730Y-14234579D01*
X12136730Y-14234579D02*
X12146253Y-14215531D01*
X12146253Y-14215531D02*
X12155777Y-14186960D01*
X12155777Y-14186960D02*
X12165301Y-14139341D01*
X12165301Y-14139341D02*
X12165301Y-14101246D01*
X12165301Y-14101246D02*
X12155777Y-14053627D01*
X12155777Y-14053627D02*
X12146253Y-14025055D01*
X12146253Y-14025055D02*
X12136730Y-14006008D01*
X12136730Y-14006008D02*
X12117682Y-13977436D01*
X12117682Y-13977436D02*
X12108158Y-13967912D01*
X7295000Y-14325000D02*
X7495000Y-14525000D01*
X7495000Y-14325000D02*
X7295000Y-14525000D01*
X7395000Y-14525000D02*
X7495000Y-14425000D01*
X7395000Y-14325000D01*
X7295000Y-14425000D01*
X7395000Y-14525000D01*
X7841491Y-14383150D02*
X7841491Y-14516484D01*
X7793872Y-14306960D02*
X7746253Y-14449817D01*
X7746253Y-14449817D02*
X7870062Y-14449817D01*
X7946253Y-14497436D02*
X7955777Y-14506960D01*
X7955777Y-14506960D02*
X7946253Y-14516484D01*
X7946253Y-14516484D02*
X7936729Y-14506960D01*
X7936729Y-14506960D02*
X7946253Y-14497436D01*
X7946253Y-14497436D02*
X7946253Y-14516484D01*
X8022443Y-14316484D02*
X8146253Y-14316484D01*
X8146253Y-14316484D02*
X8079586Y-14392674D01*
X8079586Y-14392674D02*
X8108158Y-14392674D01*
X8108158Y-14392674D02*
X8127205Y-14402198D01*
X8127205Y-14402198D02*
X8136729Y-14411722D01*
X8136729Y-14411722D02*
X8146253Y-14430769D01*
X8146253Y-14430769D02*
X8146253Y-14478388D01*
X8146253Y-14478388D02*
X8136729Y-14497436D01*
X8136729Y-14497436D02*
X8127205Y-14506960D01*
X8127205Y-14506960D02*
X8108158Y-14516484D01*
X8108158Y-14516484D02*
X8051015Y-14516484D01*
X8051015Y-14516484D02*
X8031967Y-14506960D01*
X8031967Y-14506960D02*
X8022443Y-14497436D01*
X8270062Y-14316484D02*
X8289110Y-14316484D01*
X8289110Y-14316484D02*
X8308158Y-14326008D01*
X8308158Y-14326008D02*
X8317682Y-14335531D01*
X8317682Y-14335531D02*
X8327205Y-14354579D01*
X8327205Y-14354579D02*
X8336729Y-14392674D01*
X8336729Y-14392674D02*
X8336729Y-14440293D01*
X8336729Y-14440293D02*
X8327205Y-14478388D01*
X8327205Y-14478388D02*
X8317682Y-14497436D01*
X8317682Y-14497436D02*
X8308158Y-14506960D01*
X8308158Y-14506960D02*
X8289110Y-14516484D01*
X8289110Y-14516484D02*
X8270062Y-14516484D01*
X8270062Y-14516484D02*
X8251015Y-14506960D01*
X8251015Y-14506960D02*
X8241491Y-14497436D01*
X8241491Y-14497436D02*
X8231967Y-14478388D01*
X8231967Y-14478388D02*
X8222443Y-14440293D01*
X8222443Y-14440293D02*
X8222443Y-14392674D01*
X8222443Y-14392674D02*
X8231967Y-14354579D01*
X8231967Y-14354579D02*
X8241491Y-14335531D01*
X8241491Y-14335531D02*
X8251015Y-14326008D01*
X8251015Y-14326008D02*
X8270062Y-14316484D01*
X8460539Y-14316484D02*
X8479586Y-14316484D01*
X8479586Y-14316484D02*
X8498634Y-14326008D01*
X8498634Y-14326008D02*
X8508158Y-14335531D01*
X8508158Y-14335531D02*
X8517682Y-14354579D01*
X8517682Y-14354579D02*
X8527205Y-14392674D01*
X8527205Y-14392674D02*
X8527205Y-14440293D01*
X8527205Y-14440293D02*
X8517682Y-14478388D01*
X8517682Y-14478388D02*
X8508158Y-14497436D01*
X8508158Y-14497436D02*
X8498634Y-14506960D01*
X8498634Y-14506960D02*
X8479586Y-14516484D01*
X8479586Y-14516484D02*
X8460539Y-14516484D01*
X8460539Y-14516484D02*
X8441491Y-14506960D01*
X8441491Y-14506960D02*
X8431967Y-14497436D01*
X8431967Y-14497436D02*
X8422444Y-14478388D01*
X8422444Y-14478388D02*
X8412920Y-14440293D01*
X8412920Y-14440293D02*
X8412920Y-14392674D01*
X8412920Y-14392674D02*
X8422444Y-14354579D01*
X8422444Y-14354579D02*
X8431967Y-14335531D01*
X8431967Y-14335531D02*
X8441491Y-14326008D01*
X8441491Y-14326008D02*
X8460539Y-14316484D01*
X8612920Y-14516484D02*
X8612920Y-14383150D01*
X8612920Y-14402198D02*
X8622444Y-14392674D01*
X8622444Y-14392674D02*
X8641491Y-14383150D01*
X8641491Y-14383150D02*
X8670063Y-14383150D01*
X8670063Y-14383150D02*
X8689110Y-14392674D01*
X8689110Y-14392674D02*
X8698634Y-14411722D01*
X8698634Y-14411722D02*
X8698634Y-14516484D01*
X8698634Y-14411722D02*
X8708158Y-14392674D01*
X8708158Y-14392674D02*
X8727205Y-14383150D01*
X8727205Y-14383150D02*
X8755777Y-14383150D01*
X8755777Y-14383150D02*
X8774825Y-14392674D01*
X8774825Y-14392674D02*
X8784348Y-14411722D01*
X8784348Y-14411722D02*
X8784348Y-14516484D01*
X8879586Y-14516484D02*
X8879586Y-14383150D01*
X8879586Y-14402198D02*
X8889110Y-14392674D01*
X8889110Y-14392674D02*
X8908158Y-14383150D01*
X8908158Y-14383150D02*
X8936729Y-14383150D01*
X8936729Y-14383150D02*
X8955777Y-14392674D01*
X8955777Y-14392674D02*
X8965301Y-14411722D01*
X8965301Y-14411722D02*
X8965301Y-14516484D01*
X8965301Y-14411722D02*
X8974825Y-14392674D01*
X8974825Y-14392674D02*
X8993872Y-14383150D01*
X8993872Y-14383150D02*
X9022444Y-14383150D01*
X9022444Y-14383150D02*
X9041491Y-14392674D01*
X9041491Y-14392674D02*
X9051015Y-14411722D01*
X9051015Y-14411722D02*
X9051015Y-14516484D01*
X9441491Y-14306960D02*
X9270063Y-14564103D01*
X9698634Y-14316484D02*
X9717682Y-14316484D01*
X9717682Y-14316484D02*
X9736729Y-14326008D01*
X9736729Y-14326008D02*
X9746253Y-14335531D01*
X9746253Y-14335531D02*
X9755777Y-14354579D01*
X9755777Y-14354579D02*
X9765301Y-14392674D01*
X9765301Y-14392674D02*
X9765301Y-14440293D01*
X9765301Y-14440293D02*
X9755777Y-14478388D01*
X9755777Y-14478388D02*
X9746253Y-14497436D01*
X9746253Y-14497436D02*
X9736729Y-14506960D01*
X9736729Y-14506960D02*
X9717682Y-14516484D01*
X9717682Y-14516484D02*
X9698634Y-14516484D01*
X9698634Y-14516484D02*
X9679587Y-14506960D01*
X9679587Y-14506960D02*
X9670063Y-14497436D01*
X9670063Y-14497436D02*
X9660539Y-14478388D01*
X9660539Y-14478388D02*
X9651015Y-14440293D01*
X9651015Y-14440293D02*
X9651015Y-14392674D01*
X9651015Y-14392674D02*
X9660539Y-14354579D01*
X9660539Y-14354579D02*
X9670063Y-14335531D01*
X9670063Y-14335531D02*
X9679587Y-14326008D01*
X9679587Y-14326008D02*
X9698634Y-14316484D01*
X9851015Y-14497436D02*
X9860539Y-14506960D01*
X9860539Y-14506960D02*
X9851015Y-14516484D01*
X9851015Y-14516484D02*
X9841491Y-14506960D01*
X9841491Y-14506960D02*
X9851015Y-14497436D01*
X9851015Y-14497436D02*
X9851015Y-14516484D01*
X10051015Y-14516484D02*
X9936729Y-14516484D01*
X9993872Y-14516484D02*
X9993872Y-14316484D01*
X9993872Y-14316484D02*
X9974825Y-14345055D01*
X9974825Y-14345055D02*
X9955777Y-14364103D01*
X9955777Y-14364103D02*
X9936729Y-14373627D01*
X10222444Y-14316484D02*
X10184348Y-14316484D01*
X10184348Y-14316484D02*
X10165301Y-14326008D01*
X10165301Y-14326008D02*
X10155777Y-14335531D01*
X10155777Y-14335531D02*
X10136729Y-14364103D01*
X10136729Y-14364103D02*
X10127206Y-14402198D01*
X10127206Y-14402198D02*
X10127206Y-14478388D01*
X10127206Y-14478388D02*
X10136729Y-14497436D01*
X10136729Y-14497436D02*
X10146253Y-14506960D01*
X10146253Y-14506960D02*
X10165301Y-14516484D01*
X10165301Y-14516484D02*
X10203396Y-14516484D01*
X10203396Y-14516484D02*
X10222444Y-14506960D01*
X10222444Y-14506960D02*
X10231968Y-14497436D01*
X10231968Y-14497436D02*
X10241491Y-14478388D01*
X10241491Y-14478388D02*
X10241491Y-14430769D01*
X10241491Y-14430769D02*
X10231968Y-14411722D01*
X10231968Y-14411722D02*
X10222444Y-14402198D01*
X10222444Y-14402198D02*
X10203396Y-14392674D01*
X10203396Y-14392674D02*
X10165301Y-14392674D01*
X10165301Y-14392674D02*
X10146253Y-14402198D01*
X10146253Y-14402198D02*
X10136729Y-14411722D01*
X10136729Y-14411722D02*
X10127206Y-14430769D01*
X10336729Y-14516484D02*
X10374825Y-14516484D01*
X10374825Y-14516484D02*
X10393872Y-14506960D01*
X10393872Y-14506960D02*
X10403396Y-14497436D01*
X10403396Y-14497436D02*
X10422444Y-14468865D01*
X10422444Y-14468865D02*
X10431968Y-14430769D01*
X10431968Y-14430769D02*
X10431968Y-14354579D01*
X10431968Y-14354579D02*
X10422444Y-14335531D01*
X10422444Y-14335531D02*
X10412920Y-14326008D01*
X10412920Y-14326008D02*
X10393872Y-14316484D01*
X10393872Y-14316484D02*
X10355777Y-14316484D01*
X10355777Y-14316484D02*
X10336729Y-14326008D01*
X10336729Y-14326008D02*
X10327206Y-14335531D01*
X10327206Y-14335531D02*
X10317682Y-14354579D01*
X10317682Y-14354579D02*
X10317682Y-14402198D01*
X10317682Y-14402198D02*
X10327206Y-14421246D01*
X10327206Y-14421246D02*
X10336729Y-14430769D01*
X10336729Y-14430769D02*
X10355777Y-14440293D01*
X10355777Y-14440293D02*
X10393872Y-14440293D01*
X10393872Y-14440293D02*
X10412920Y-14430769D01*
X10412920Y-14430769D02*
X10422444Y-14421246D01*
X10422444Y-14421246D02*
X10431968Y-14402198D01*
X10498634Y-14316484D02*
X10622444Y-14316484D01*
X10622444Y-14316484D02*
X10555777Y-14392674D01*
X10555777Y-14392674D02*
X10584349Y-14392674D01*
X10584349Y-14392674D02*
X10603396Y-14402198D01*
X10603396Y-14402198D02*
X10612920Y-14411722D01*
X10612920Y-14411722D02*
X10622444Y-14430769D01*
X10622444Y-14430769D02*
X10622444Y-14478388D01*
X10622444Y-14478388D02*
X10612920Y-14497436D01*
X10612920Y-14497436D02*
X10603396Y-14506960D01*
X10603396Y-14506960D02*
X10584349Y-14516484D01*
X10584349Y-14516484D02*
X10527206Y-14516484D01*
X10527206Y-14516484D02*
X10508158Y-14506960D01*
X10508158Y-14506960D02*
X10498634Y-14497436D01*
X10698634Y-14316484D02*
X10698634Y-14354579D01*
X10774825Y-14316484D02*
X10774825Y-14354579D01*
X11070063Y-14592674D02*
X11060539Y-14583150D01*
X11060539Y-14583150D02*
X11041491Y-14554579D01*
X11041491Y-14554579D02*
X11031968Y-14535531D01*
X11031968Y-14535531D02*
X11022444Y-14506960D01*
X11022444Y-14506960D02*
X11012920Y-14459341D01*
X11012920Y-14459341D02*
X11012920Y-14421246D01*
X11012920Y-14421246D02*
X11022444Y-14373627D01*
X11022444Y-14373627D02*
X11031968Y-14345055D01*
X11031968Y-14345055D02*
X11041491Y-14326008D01*
X11041491Y-14326008D02*
X11060539Y-14297436D01*
X11060539Y-14297436D02*
X11070063Y-14287912D01*
X11251015Y-14516484D02*
X11136730Y-14516484D01*
X11193872Y-14516484D02*
X11193872Y-14316484D01*
X11193872Y-14316484D02*
X11174825Y-14345055D01*
X11174825Y-14345055D02*
X11155777Y-14364103D01*
X11155777Y-14364103D02*
X11136730Y-14373627D01*
X11489110Y-14516484D02*
X11489110Y-14316484D01*
X11574825Y-14516484D02*
X11574825Y-14411722D01*
X11574825Y-14411722D02*
X11565301Y-14392674D01*
X11565301Y-14392674D02*
X11546253Y-14383150D01*
X11546253Y-14383150D02*
X11517682Y-14383150D01*
X11517682Y-14383150D02*
X11498634Y-14392674D01*
X11498634Y-14392674D02*
X11489110Y-14402198D01*
X11698634Y-14516484D02*
X11679587Y-14506960D01*
X11679587Y-14506960D02*
X11670063Y-14497436D01*
X11670063Y-14497436D02*
X11660539Y-14478388D01*
X11660539Y-14478388D02*
X11660539Y-14421246D01*
X11660539Y-14421246D02*
X11670063Y-14402198D01*
X11670063Y-14402198D02*
X11679587Y-14392674D01*
X11679587Y-14392674D02*
X11698634Y-14383150D01*
X11698634Y-14383150D02*
X11727206Y-14383150D01*
X11727206Y-14383150D02*
X11746253Y-14392674D01*
X11746253Y-14392674D02*
X11755777Y-14402198D01*
X11755777Y-14402198D02*
X11765301Y-14421246D01*
X11765301Y-14421246D02*
X11765301Y-14478388D01*
X11765301Y-14478388D02*
X11755777Y-14497436D01*
X11755777Y-14497436D02*
X11746253Y-14506960D01*
X11746253Y-14506960D02*
X11727206Y-14516484D01*
X11727206Y-14516484D02*
X11698634Y-14516484D01*
X11879587Y-14516484D02*
X11860539Y-14506960D01*
X11860539Y-14506960D02*
X11851015Y-14487912D01*
X11851015Y-14487912D02*
X11851015Y-14316484D01*
X12031968Y-14506960D02*
X12012920Y-14516484D01*
X12012920Y-14516484D02*
X11974825Y-14516484D01*
X11974825Y-14516484D02*
X11955777Y-14506960D01*
X11955777Y-14506960D02*
X11946253Y-14487912D01*
X11946253Y-14487912D02*
X11946253Y-14411722D01*
X11946253Y-14411722D02*
X11955777Y-14392674D01*
X11955777Y-14392674D02*
X11974825Y-14383150D01*
X11974825Y-14383150D02*
X12012920Y-14383150D01*
X12012920Y-14383150D02*
X12031968Y-14392674D01*
X12031968Y-14392674D02*
X12041491Y-14411722D01*
X12041491Y-14411722D02*
X12041491Y-14430769D01*
X12041491Y-14430769D02*
X11946253Y-14449817D01*
X12108158Y-14592674D02*
X12117682Y-14583150D01*
X12117682Y-14583150D02*
X12136730Y-14554579D01*
X12136730Y-14554579D02*
X12146253Y-14535531D01*
X12146253Y-14535531D02*
X12155777Y-14506960D01*
X12155777Y-14506960D02*
X12165301Y-14459341D01*
X12165301Y-14459341D02*
X12165301Y-14421246D01*
X12165301Y-14421246D02*
X12155777Y-14373627D01*
X12155777Y-14373627D02*
X12146253Y-14345055D01*
X12146253Y-14345055D02*
X12136730Y-14326008D01*
X12136730Y-14326008D02*
X12117682Y-14297436D01*
X12117682Y-14297436D02*
X12108158Y-14287912D01*
X7395000Y-14645000D02*
X7395000Y-14845000D01*
X7295000Y-14745000D02*
X7495000Y-14745000D01*
X7495000Y-14745000D02*
G75*
G02*
X7295000Y-14745000I-100000J0D01*
G01*
X7295000Y-14745000D02*
G75*
G02*
X7495000Y-14745000I100000J0D01*
G01*
X7851015Y-14636484D02*
X7755777Y-14636484D01*
X7755777Y-14636484D02*
X7746253Y-14731722D01*
X7746253Y-14731722D02*
X7755777Y-14722198D01*
X7755777Y-14722198D02*
X7774824Y-14712674D01*
X7774824Y-14712674D02*
X7822443Y-14712674D01*
X7822443Y-14712674D02*
X7841491Y-14722198D01*
X7841491Y-14722198D02*
X7851015Y-14731722D01*
X7851015Y-14731722D02*
X7860539Y-14750769D01*
X7860539Y-14750769D02*
X7860539Y-14798388D01*
X7860539Y-14798388D02*
X7851015Y-14817436D01*
X7851015Y-14817436D02*
X7841491Y-14826960D01*
X7841491Y-14826960D02*
X7822443Y-14836484D01*
X7822443Y-14836484D02*
X7774824Y-14836484D01*
X7774824Y-14836484D02*
X7755777Y-14826960D01*
X7755777Y-14826960D02*
X7746253Y-14817436D01*
X7946253Y-14817436D02*
X7955777Y-14826960D01*
X7955777Y-14826960D02*
X7946253Y-14836484D01*
X7946253Y-14836484D02*
X7936729Y-14826960D01*
X7936729Y-14826960D02*
X7946253Y-14817436D01*
X7946253Y-14817436D02*
X7946253Y-14836484D01*
X8022443Y-14636484D02*
X8146253Y-14636484D01*
X8146253Y-14636484D02*
X8079586Y-14712674D01*
X8079586Y-14712674D02*
X8108158Y-14712674D01*
X8108158Y-14712674D02*
X8127205Y-14722198D01*
X8127205Y-14722198D02*
X8136729Y-14731722D01*
X8136729Y-14731722D02*
X8146253Y-14750769D01*
X8146253Y-14750769D02*
X8146253Y-14798388D01*
X8146253Y-14798388D02*
X8136729Y-14817436D01*
X8136729Y-14817436D02*
X8127205Y-14826960D01*
X8127205Y-14826960D02*
X8108158Y-14836484D01*
X8108158Y-14836484D02*
X8051015Y-14836484D01*
X8051015Y-14836484D02*
X8031967Y-14826960D01*
X8031967Y-14826960D02*
X8022443Y-14817436D01*
X8270062Y-14636484D02*
X8289110Y-14636484D01*
X8289110Y-14636484D02*
X8308158Y-14646008D01*
X8308158Y-14646008D02*
X8317682Y-14655531D01*
X8317682Y-14655531D02*
X8327205Y-14674579D01*
X8327205Y-14674579D02*
X8336729Y-14712674D01*
X8336729Y-14712674D02*
X8336729Y-14760293D01*
X8336729Y-14760293D02*
X8327205Y-14798388D01*
X8327205Y-14798388D02*
X8317682Y-14817436D01*
X8317682Y-14817436D02*
X8308158Y-14826960D01*
X8308158Y-14826960D02*
X8289110Y-14836484D01*
X8289110Y-14836484D02*
X8270062Y-14836484D01*
X8270062Y-14836484D02*
X8251015Y-14826960D01*
X8251015Y-14826960D02*
X8241491Y-14817436D01*
X8241491Y-14817436D02*
X8231967Y-14798388D01*
X8231967Y-14798388D02*
X8222443Y-14760293D01*
X8222443Y-14760293D02*
X8222443Y-14712674D01*
X8222443Y-14712674D02*
X8231967Y-14674579D01*
X8231967Y-14674579D02*
X8241491Y-14655531D01*
X8241491Y-14655531D02*
X8251015Y-14646008D01*
X8251015Y-14646008D02*
X8270062Y-14636484D01*
X8460539Y-14636484D02*
X8479586Y-14636484D01*
X8479586Y-14636484D02*
X8498634Y-14646008D01*
X8498634Y-14646008D02*
X8508158Y-14655531D01*
X8508158Y-14655531D02*
X8517682Y-14674579D01*
X8517682Y-14674579D02*
X8527205Y-14712674D01*
X8527205Y-14712674D02*
X8527205Y-14760293D01*
X8527205Y-14760293D02*
X8517682Y-14798388D01*
X8517682Y-14798388D02*
X8508158Y-14817436D01*
X8508158Y-14817436D02*
X8498634Y-14826960D01*
X8498634Y-14826960D02*
X8479586Y-14836484D01*
X8479586Y-14836484D02*
X8460539Y-14836484D01*
X8460539Y-14836484D02*
X8441491Y-14826960D01*
X8441491Y-14826960D02*
X8431967Y-14817436D01*
X8431967Y-14817436D02*
X8422444Y-14798388D01*
X8422444Y-14798388D02*
X8412920Y-14760293D01*
X8412920Y-14760293D02*
X8412920Y-14712674D01*
X8412920Y-14712674D02*
X8422444Y-14674579D01*
X8422444Y-14674579D02*
X8431967Y-14655531D01*
X8431967Y-14655531D02*
X8441491Y-14646008D01*
X8441491Y-14646008D02*
X8460539Y-14636484D01*
X8612920Y-14836484D02*
X8612920Y-14703150D01*
X8612920Y-14722198D02*
X8622444Y-14712674D01*
X8622444Y-14712674D02*
X8641491Y-14703150D01*
X8641491Y-14703150D02*
X8670063Y-14703150D01*
X8670063Y-14703150D02*
X8689110Y-14712674D01*
X8689110Y-14712674D02*
X8698634Y-14731722D01*
X8698634Y-14731722D02*
X8698634Y-14836484D01*
X8698634Y-14731722D02*
X8708158Y-14712674D01*
X8708158Y-14712674D02*
X8727205Y-14703150D01*
X8727205Y-14703150D02*
X8755777Y-14703150D01*
X8755777Y-14703150D02*
X8774825Y-14712674D01*
X8774825Y-14712674D02*
X8784348Y-14731722D01*
X8784348Y-14731722D02*
X8784348Y-14836484D01*
X8879586Y-14836484D02*
X8879586Y-14703150D01*
X8879586Y-14722198D02*
X8889110Y-14712674D01*
X8889110Y-14712674D02*
X8908158Y-14703150D01*
X8908158Y-14703150D02*
X8936729Y-14703150D01*
X8936729Y-14703150D02*
X8955777Y-14712674D01*
X8955777Y-14712674D02*
X8965301Y-14731722D01*
X8965301Y-14731722D02*
X8965301Y-14836484D01*
X8965301Y-14731722D02*
X8974825Y-14712674D01*
X8974825Y-14712674D02*
X8993872Y-14703150D01*
X8993872Y-14703150D02*
X9022444Y-14703150D01*
X9022444Y-14703150D02*
X9041491Y-14712674D01*
X9041491Y-14712674D02*
X9051015Y-14731722D01*
X9051015Y-14731722D02*
X9051015Y-14836484D01*
X9441491Y-14626960D02*
X9270063Y-14884103D01*
X9698634Y-14636484D02*
X9717682Y-14636484D01*
X9717682Y-14636484D02*
X9736729Y-14646008D01*
X9736729Y-14646008D02*
X9746253Y-14655531D01*
X9746253Y-14655531D02*
X9755777Y-14674579D01*
X9755777Y-14674579D02*
X9765301Y-14712674D01*
X9765301Y-14712674D02*
X9765301Y-14760293D01*
X9765301Y-14760293D02*
X9755777Y-14798388D01*
X9755777Y-14798388D02*
X9746253Y-14817436D01*
X9746253Y-14817436D02*
X9736729Y-14826960D01*
X9736729Y-14826960D02*
X9717682Y-14836484D01*
X9717682Y-14836484D02*
X9698634Y-14836484D01*
X9698634Y-14836484D02*
X9679587Y-14826960D01*
X9679587Y-14826960D02*
X9670063Y-14817436D01*
X9670063Y-14817436D02*
X9660539Y-14798388D01*
X9660539Y-14798388D02*
X9651015Y-14760293D01*
X9651015Y-14760293D02*
X9651015Y-14712674D01*
X9651015Y-14712674D02*
X9660539Y-14674579D01*
X9660539Y-14674579D02*
X9670063Y-14655531D01*
X9670063Y-14655531D02*
X9679587Y-14646008D01*
X9679587Y-14646008D02*
X9698634Y-14636484D01*
X9851015Y-14817436D02*
X9860539Y-14826960D01*
X9860539Y-14826960D02*
X9851015Y-14836484D01*
X9851015Y-14836484D02*
X9841491Y-14826960D01*
X9841491Y-14826960D02*
X9851015Y-14817436D01*
X9851015Y-14817436D02*
X9851015Y-14836484D01*
X9936729Y-14655531D02*
X9946253Y-14646008D01*
X9946253Y-14646008D02*
X9965301Y-14636484D01*
X9965301Y-14636484D02*
X10012920Y-14636484D01*
X10012920Y-14636484D02*
X10031968Y-14646008D01*
X10031968Y-14646008D02*
X10041491Y-14655531D01*
X10041491Y-14655531D02*
X10051015Y-14674579D01*
X10051015Y-14674579D02*
X10051015Y-14693627D01*
X10051015Y-14693627D02*
X10041491Y-14722198D01*
X10041491Y-14722198D02*
X9927206Y-14836484D01*
X9927206Y-14836484D02*
X10051015Y-14836484D01*
X10174825Y-14636484D02*
X10193872Y-14636484D01*
X10193872Y-14636484D02*
X10212920Y-14646008D01*
X10212920Y-14646008D02*
X10222444Y-14655531D01*
X10222444Y-14655531D02*
X10231968Y-14674579D01*
X10231968Y-14674579D02*
X10241491Y-14712674D01*
X10241491Y-14712674D02*
X10241491Y-14760293D01*
X10241491Y-14760293D02*
X10231968Y-14798388D01*
X10231968Y-14798388D02*
X10222444Y-14817436D01*
X10222444Y-14817436D02*
X10212920Y-14826960D01*
X10212920Y-14826960D02*
X10193872Y-14836484D01*
X10193872Y-14836484D02*
X10174825Y-14836484D01*
X10174825Y-14836484D02*
X10155777Y-14826960D01*
X10155777Y-14826960D02*
X10146253Y-14817436D01*
X10146253Y-14817436D02*
X10136729Y-14798388D01*
X10136729Y-14798388D02*
X10127206Y-14760293D01*
X10127206Y-14760293D02*
X10127206Y-14712674D01*
X10127206Y-14712674D02*
X10136729Y-14674579D01*
X10136729Y-14674579D02*
X10146253Y-14655531D01*
X10146253Y-14655531D02*
X10155777Y-14646008D01*
X10155777Y-14646008D02*
X10174825Y-14636484D01*
X10355777Y-14722198D02*
X10336729Y-14712674D01*
X10336729Y-14712674D02*
X10327206Y-14703150D01*
X10327206Y-14703150D02*
X10317682Y-14684103D01*
X10317682Y-14684103D02*
X10317682Y-14674579D01*
X10317682Y-14674579D02*
X10327206Y-14655531D01*
X10327206Y-14655531D02*
X10336729Y-14646008D01*
X10336729Y-14646008D02*
X10355777Y-14636484D01*
X10355777Y-14636484D02*
X10393872Y-14636484D01*
X10393872Y-14636484D02*
X10412920Y-14646008D01*
X10412920Y-14646008D02*
X10422444Y-14655531D01*
X10422444Y-14655531D02*
X10431968Y-14674579D01*
X10431968Y-14674579D02*
X10431968Y-14684103D01*
X10431968Y-14684103D02*
X10422444Y-14703150D01*
X10422444Y-14703150D02*
X10412920Y-14712674D01*
X10412920Y-14712674D02*
X10393872Y-14722198D01*
X10393872Y-14722198D02*
X10355777Y-14722198D01*
X10355777Y-14722198D02*
X10336729Y-14731722D01*
X10336729Y-14731722D02*
X10327206Y-14741246D01*
X10327206Y-14741246D02*
X10317682Y-14760293D01*
X10317682Y-14760293D02*
X10317682Y-14798388D01*
X10317682Y-14798388D02*
X10327206Y-14817436D01*
X10327206Y-14817436D02*
X10336729Y-14826960D01*
X10336729Y-14826960D02*
X10355777Y-14836484D01*
X10355777Y-14836484D02*
X10393872Y-14836484D01*
X10393872Y-14836484D02*
X10412920Y-14826960D01*
X10412920Y-14826960D02*
X10422444Y-14817436D01*
X10422444Y-14817436D02*
X10431968Y-14798388D01*
X10431968Y-14798388D02*
X10431968Y-14760293D01*
X10431968Y-14760293D02*
X10422444Y-14741246D01*
X10422444Y-14741246D02*
X10412920Y-14731722D01*
X10412920Y-14731722D02*
X10393872Y-14722198D01*
X10498634Y-14636484D02*
X10631968Y-14636484D01*
X10631968Y-14636484D02*
X10546253Y-14836484D01*
X10698634Y-14636484D02*
X10698634Y-14674579D01*
X10774825Y-14636484D02*
X10774825Y-14674579D01*
X11070063Y-14912674D02*
X11060539Y-14903150D01*
X11060539Y-14903150D02*
X11041491Y-14874579D01*
X11041491Y-14874579D02*
X11031968Y-14855531D01*
X11031968Y-14855531D02*
X11022444Y-14826960D01*
X11022444Y-14826960D02*
X11012920Y-14779341D01*
X11012920Y-14779341D02*
X11012920Y-14741246D01*
X11012920Y-14741246D02*
X11022444Y-14693627D01*
X11022444Y-14693627D02*
X11031968Y-14665055D01*
X11031968Y-14665055D02*
X11041491Y-14646008D01*
X11041491Y-14646008D02*
X11060539Y-14617436D01*
X11060539Y-14617436D02*
X11070063Y-14607912D01*
X11251015Y-14836484D02*
X11136730Y-14836484D01*
X11193872Y-14836484D02*
X11193872Y-14636484D01*
X11193872Y-14636484D02*
X11174825Y-14665055D01*
X11174825Y-14665055D02*
X11155777Y-14684103D01*
X11155777Y-14684103D02*
X11136730Y-14693627D01*
X11489110Y-14836484D02*
X11489110Y-14636484D01*
X11574825Y-14836484D02*
X11574825Y-14731722D01*
X11574825Y-14731722D02*
X11565301Y-14712674D01*
X11565301Y-14712674D02*
X11546253Y-14703150D01*
X11546253Y-14703150D02*
X11517682Y-14703150D01*
X11517682Y-14703150D02*
X11498634Y-14712674D01*
X11498634Y-14712674D02*
X11489110Y-14722198D01*
X11698634Y-14836484D02*
X11679587Y-14826960D01*
X11679587Y-14826960D02*
X11670063Y-14817436D01*
X11670063Y-14817436D02*
X11660539Y-14798388D01*
X11660539Y-14798388D02*
X11660539Y-14741246D01*
X11660539Y-14741246D02*
X11670063Y-14722198D01*
X11670063Y-14722198D02*
X11679587Y-14712674D01*
X11679587Y-14712674D02*
X11698634Y-14703150D01*
X11698634Y-14703150D02*
X11727206Y-14703150D01*
X11727206Y-14703150D02*
X11746253Y-14712674D01*
X11746253Y-14712674D02*
X11755777Y-14722198D01*
X11755777Y-14722198D02*
X11765301Y-14741246D01*
X11765301Y-14741246D02*
X11765301Y-14798388D01*
X11765301Y-14798388D02*
X11755777Y-14817436D01*
X11755777Y-14817436D02*
X11746253Y-14826960D01*
X11746253Y-14826960D02*
X11727206Y-14836484D01*
X11727206Y-14836484D02*
X11698634Y-14836484D01*
X11879587Y-14836484D02*
X11860539Y-14826960D01*
X11860539Y-14826960D02*
X11851015Y-14807912D01*
X11851015Y-14807912D02*
X11851015Y-14636484D01*
X12031968Y-14826960D02*
X12012920Y-14836484D01*
X12012920Y-14836484D02*
X11974825Y-14836484D01*
X11974825Y-14836484D02*
X11955777Y-14826960D01*
X11955777Y-14826960D02*
X11946253Y-14807912D01*
X11946253Y-14807912D02*
X11946253Y-14731722D01*
X11946253Y-14731722D02*
X11955777Y-14712674D01*
X11955777Y-14712674D02*
X11974825Y-14703150D01*
X11974825Y-14703150D02*
X12012920Y-14703150D01*
X12012920Y-14703150D02*
X12031968Y-14712674D01*
X12031968Y-14712674D02*
X12041491Y-14731722D01*
X12041491Y-14731722D02*
X12041491Y-14750769D01*
X12041491Y-14750769D02*
X11946253Y-14769817D01*
X12108158Y-14912674D02*
X12117682Y-14903150D01*
X12117682Y-14903150D02*
X12136730Y-14874579D01*
X12136730Y-14874579D02*
X12146253Y-14855531D01*
X12146253Y-14855531D02*
X12155777Y-14826960D01*
X12155777Y-14826960D02*
X12165301Y-14779341D01*
X12165301Y-14779341D02*
X12165301Y-14741246D01*
X12165301Y-14741246D02*
X12155777Y-14693627D01*
X12155777Y-14693627D02*
X12146253Y-14665055D01*
X12146253Y-14665055D02*
X12136730Y-14646008D01*
X12136730Y-14646008D02*
X12117682Y-14617436D01*
X12117682Y-14617436D02*
X12108158Y-14607912D01*
X7465711Y-15135711D02*
X7465711Y-14994289D01*
X7324289Y-14994289D01*
X7324289Y-15135711D01*
X7465711Y-15135711D01*
X7495000Y-15065000D02*
G75*
G02*
X7295000Y-15065000I-100000J0D01*
G01*
X7295000Y-15065000D02*
G75*
G02*
X7495000Y-15065000I100000J0D01*
G01*
X7841491Y-14956484D02*
X7803396Y-14956484D01*
X7803396Y-14956484D02*
X7784348Y-14966008D01*
X7784348Y-14966008D02*
X7774824Y-14975531D01*
X7774824Y-14975531D02*
X7755777Y-15004103D01*
X7755777Y-15004103D02*
X7746253Y-15042198D01*
X7746253Y-15042198D02*
X7746253Y-15118388D01*
X7746253Y-15118388D02*
X7755777Y-15137436D01*
X7755777Y-15137436D02*
X7765301Y-15146960D01*
X7765301Y-15146960D02*
X7784348Y-15156484D01*
X7784348Y-15156484D02*
X7822443Y-15156484D01*
X7822443Y-15156484D02*
X7841491Y-15146960D01*
X7841491Y-15146960D02*
X7851015Y-15137436D01*
X7851015Y-15137436D02*
X7860539Y-15118388D01*
X7860539Y-15118388D02*
X7860539Y-15070769D01*
X7860539Y-15070769D02*
X7851015Y-15051722D01*
X7851015Y-15051722D02*
X7841491Y-15042198D01*
X7841491Y-15042198D02*
X7822443Y-15032674D01*
X7822443Y-15032674D02*
X7784348Y-15032674D01*
X7784348Y-15032674D02*
X7765301Y-15042198D01*
X7765301Y-15042198D02*
X7755777Y-15051722D01*
X7755777Y-15051722D02*
X7746253Y-15070769D01*
X7946253Y-15137436D02*
X7955777Y-15146960D01*
X7955777Y-15146960D02*
X7946253Y-15156484D01*
X7946253Y-15156484D02*
X7936729Y-15146960D01*
X7936729Y-15146960D02*
X7946253Y-15137436D01*
X7946253Y-15137436D02*
X7946253Y-15156484D01*
X8127205Y-15023150D02*
X8127205Y-15156484D01*
X8079586Y-14946960D02*
X8031967Y-15089817D01*
X8031967Y-15089817D02*
X8155777Y-15089817D01*
X8270062Y-14956484D02*
X8289110Y-14956484D01*
X8289110Y-14956484D02*
X8308158Y-14966008D01*
X8308158Y-14966008D02*
X8317682Y-14975531D01*
X8317682Y-14975531D02*
X8327205Y-14994579D01*
X8327205Y-14994579D02*
X8336729Y-15032674D01*
X8336729Y-15032674D02*
X8336729Y-15080293D01*
X8336729Y-15080293D02*
X8327205Y-15118388D01*
X8327205Y-15118388D02*
X8317682Y-15137436D01*
X8317682Y-15137436D02*
X8308158Y-15146960D01*
X8308158Y-15146960D02*
X8289110Y-15156484D01*
X8289110Y-15156484D02*
X8270062Y-15156484D01*
X8270062Y-15156484D02*
X8251015Y-15146960D01*
X8251015Y-15146960D02*
X8241491Y-15137436D01*
X8241491Y-15137436D02*
X8231967Y-15118388D01*
X8231967Y-15118388D02*
X8222443Y-15080293D01*
X8222443Y-15080293D02*
X8222443Y-15032674D01*
X8222443Y-15032674D02*
X8231967Y-14994579D01*
X8231967Y-14994579D02*
X8241491Y-14975531D01*
X8241491Y-14975531D02*
X8251015Y-14966008D01*
X8251015Y-14966008D02*
X8270062Y-14956484D01*
X8460539Y-14956484D02*
X8479586Y-14956484D01*
X8479586Y-14956484D02*
X8498634Y-14966008D01*
X8498634Y-14966008D02*
X8508158Y-14975531D01*
X8508158Y-14975531D02*
X8517682Y-14994579D01*
X8517682Y-14994579D02*
X8527205Y-15032674D01*
X8527205Y-15032674D02*
X8527205Y-15080293D01*
X8527205Y-15080293D02*
X8517682Y-15118388D01*
X8517682Y-15118388D02*
X8508158Y-15137436D01*
X8508158Y-15137436D02*
X8498634Y-15146960D01*
X8498634Y-15146960D02*
X8479586Y-15156484D01*
X8479586Y-15156484D02*
X8460539Y-15156484D01*
X8460539Y-15156484D02*
X8441491Y-15146960D01*
X8441491Y-15146960D02*
X8431967Y-15137436D01*
X8431967Y-15137436D02*
X8422444Y-15118388D01*
X8422444Y-15118388D02*
X8412920Y-15080293D01*
X8412920Y-15080293D02*
X8412920Y-15032674D01*
X8412920Y-15032674D02*
X8422444Y-14994579D01*
X8422444Y-14994579D02*
X8431967Y-14975531D01*
X8431967Y-14975531D02*
X8441491Y-14966008D01*
X8441491Y-14966008D02*
X8460539Y-14956484D01*
X8612920Y-15156484D02*
X8612920Y-15023150D01*
X8612920Y-15042198D02*
X8622444Y-15032674D01*
X8622444Y-15032674D02*
X8641491Y-15023150D01*
X8641491Y-15023150D02*
X8670063Y-15023150D01*
X8670063Y-15023150D02*
X8689110Y-15032674D01*
X8689110Y-15032674D02*
X8698634Y-15051722D01*
X8698634Y-15051722D02*
X8698634Y-15156484D01*
X8698634Y-15051722D02*
X8708158Y-15032674D01*
X8708158Y-15032674D02*
X8727205Y-15023150D01*
X8727205Y-15023150D02*
X8755777Y-15023150D01*
X8755777Y-15023150D02*
X8774825Y-15032674D01*
X8774825Y-15032674D02*
X8784348Y-15051722D01*
X8784348Y-15051722D02*
X8784348Y-15156484D01*
X8879586Y-15156484D02*
X8879586Y-15023150D01*
X8879586Y-15042198D02*
X8889110Y-15032674D01*
X8889110Y-15032674D02*
X8908158Y-15023150D01*
X8908158Y-15023150D02*
X8936729Y-15023150D01*
X8936729Y-15023150D02*
X8955777Y-15032674D01*
X8955777Y-15032674D02*
X8965301Y-15051722D01*
X8965301Y-15051722D02*
X8965301Y-15156484D01*
X8965301Y-15051722D02*
X8974825Y-15032674D01*
X8974825Y-15032674D02*
X8993872Y-15023150D01*
X8993872Y-15023150D02*
X9022444Y-15023150D01*
X9022444Y-15023150D02*
X9041491Y-15032674D01*
X9041491Y-15032674D02*
X9051015Y-15051722D01*
X9051015Y-15051722D02*
X9051015Y-15156484D01*
X9441491Y-14946960D02*
X9270063Y-15204103D01*
X9698634Y-14956484D02*
X9717682Y-14956484D01*
X9717682Y-14956484D02*
X9736729Y-14966008D01*
X9736729Y-14966008D02*
X9746253Y-14975531D01*
X9746253Y-14975531D02*
X9755777Y-14994579D01*
X9755777Y-14994579D02*
X9765301Y-15032674D01*
X9765301Y-15032674D02*
X9765301Y-15080293D01*
X9765301Y-15080293D02*
X9755777Y-15118388D01*
X9755777Y-15118388D02*
X9746253Y-15137436D01*
X9746253Y-15137436D02*
X9736729Y-15146960D01*
X9736729Y-15146960D02*
X9717682Y-15156484D01*
X9717682Y-15156484D02*
X9698634Y-15156484D01*
X9698634Y-15156484D02*
X9679587Y-15146960D01*
X9679587Y-15146960D02*
X9670063Y-15137436D01*
X9670063Y-15137436D02*
X9660539Y-15118388D01*
X9660539Y-15118388D02*
X9651015Y-15080293D01*
X9651015Y-15080293D02*
X9651015Y-15032674D01*
X9651015Y-15032674D02*
X9660539Y-14994579D01*
X9660539Y-14994579D02*
X9670063Y-14975531D01*
X9670063Y-14975531D02*
X9679587Y-14966008D01*
X9679587Y-14966008D02*
X9698634Y-14956484D01*
X9851015Y-15137436D02*
X9860539Y-15146960D01*
X9860539Y-15146960D02*
X9851015Y-15156484D01*
X9851015Y-15156484D02*
X9841491Y-15146960D01*
X9841491Y-15146960D02*
X9851015Y-15137436D01*
X9851015Y-15137436D02*
X9851015Y-15156484D01*
X9936729Y-14975531D02*
X9946253Y-14966008D01*
X9946253Y-14966008D02*
X9965301Y-14956484D01*
X9965301Y-14956484D02*
X10012920Y-14956484D01*
X10012920Y-14956484D02*
X10031968Y-14966008D01*
X10031968Y-14966008D02*
X10041491Y-14975531D01*
X10041491Y-14975531D02*
X10051015Y-14994579D01*
X10051015Y-14994579D02*
X10051015Y-15013627D01*
X10051015Y-15013627D02*
X10041491Y-15042198D01*
X10041491Y-15042198D02*
X9927206Y-15156484D01*
X9927206Y-15156484D02*
X10051015Y-15156484D01*
X10231968Y-14956484D02*
X10136729Y-14956484D01*
X10136729Y-14956484D02*
X10127206Y-15051722D01*
X10127206Y-15051722D02*
X10136729Y-15042198D01*
X10136729Y-15042198D02*
X10155777Y-15032674D01*
X10155777Y-15032674D02*
X10203396Y-15032674D01*
X10203396Y-15032674D02*
X10222444Y-15042198D01*
X10222444Y-15042198D02*
X10231968Y-15051722D01*
X10231968Y-15051722D02*
X10241491Y-15070769D01*
X10241491Y-15070769D02*
X10241491Y-15118388D01*
X10241491Y-15118388D02*
X10231968Y-15137436D01*
X10231968Y-15137436D02*
X10222444Y-15146960D01*
X10222444Y-15146960D02*
X10203396Y-15156484D01*
X10203396Y-15156484D02*
X10155777Y-15156484D01*
X10155777Y-15156484D02*
X10136729Y-15146960D01*
X10136729Y-15146960D02*
X10127206Y-15137436D01*
X10317682Y-14975531D02*
X10327206Y-14966008D01*
X10327206Y-14966008D02*
X10346253Y-14956484D01*
X10346253Y-14956484D02*
X10393872Y-14956484D01*
X10393872Y-14956484D02*
X10412920Y-14966008D01*
X10412920Y-14966008D02*
X10422444Y-14975531D01*
X10422444Y-14975531D02*
X10431968Y-14994579D01*
X10431968Y-14994579D02*
X10431968Y-15013627D01*
X10431968Y-15013627D02*
X10422444Y-15042198D01*
X10422444Y-15042198D02*
X10308158Y-15156484D01*
X10308158Y-15156484D02*
X10431968Y-15156484D01*
X10555777Y-14956484D02*
X10574825Y-14956484D01*
X10574825Y-14956484D02*
X10593872Y-14966008D01*
X10593872Y-14966008D02*
X10603396Y-14975531D01*
X10603396Y-14975531D02*
X10612920Y-14994579D01*
X10612920Y-14994579D02*
X10622444Y-15032674D01*
X10622444Y-15032674D02*
X10622444Y-15080293D01*
X10622444Y-15080293D02*
X10612920Y-15118388D01*
X10612920Y-15118388D02*
X10603396Y-15137436D01*
X10603396Y-15137436D02*
X10593872Y-15146960D01*
X10593872Y-15146960D02*
X10574825Y-15156484D01*
X10574825Y-15156484D02*
X10555777Y-15156484D01*
X10555777Y-15156484D02*
X10536729Y-15146960D01*
X10536729Y-15146960D02*
X10527206Y-15137436D01*
X10527206Y-15137436D02*
X10517682Y-15118388D01*
X10517682Y-15118388D02*
X10508158Y-15080293D01*
X10508158Y-15080293D02*
X10508158Y-15032674D01*
X10508158Y-15032674D02*
X10517682Y-14994579D01*
X10517682Y-14994579D02*
X10527206Y-14975531D01*
X10527206Y-14975531D02*
X10536729Y-14966008D01*
X10536729Y-14966008D02*
X10555777Y-14956484D01*
X10698634Y-14956484D02*
X10698634Y-14994579D01*
X10774825Y-14956484D02*
X10774825Y-14994579D01*
X11070063Y-15232674D02*
X11060539Y-15223150D01*
X11060539Y-15223150D02*
X11041491Y-15194579D01*
X11041491Y-15194579D02*
X11031968Y-15175531D01*
X11031968Y-15175531D02*
X11022444Y-15146960D01*
X11022444Y-15146960D02*
X11012920Y-15099341D01*
X11012920Y-15099341D02*
X11012920Y-15061246D01*
X11012920Y-15061246D02*
X11022444Y-15013627D01*
X11022444Y-15013627D02*
X11031968Y-14985055D01*
X11031968Y-14985055D02*
X11041491Y-14966008D01*
X11041491Y-14966008D02*
X11060539Y-14937436D01*
X11060539Y-14937436D02*
X11070063Y-14927912D01*
X11251015Y-15156484D02*
X11136730Y-15156484D01*
X11193872Y-15156484D02*
X11193872Y-14956484D01*
X11193872Y-14956484D02*
X11174825Y-14985055D01*
X11174825Y-14985055D02*
X11155777Y-15004103D01*
X11155777Y-15004103D02*
X11136730Y-15013627D01*
X11489110Y-15156484D02*
X11489110Y-14956484D01*
X11574825Y-15156484D02*
X11574825Y-15051722D01*
X11574825Y-15051722D02*
X11565301Y-15032674D01*
X11565301Y-15032674D02*
X11546253Y-15023150D01*
X11546253Y-15023150D02*
X11517682Y-15023150D01*
X11517682Y-15023150D02*
X11498634Y-15032674D01*
X11498634Y-15032674D02*
X11489110Y-15042198D01*
X11698634Y-15156484D02*
X11679587Y-15146960D01*
X11679587Y-15146960D02*
X11670063Y-15137436D01*
X11670063Y-15137436D02*
X11660539Y-15118388D01*
X11660539Y-15118388D02*
X11660539Y-15061246D01*
X11660539Y-15061246D02*
X11670063Y-15042198D01*
X11670063Y-15042198D02*
X11679587Y-15032674D01*
X11679587Y-15032674D02*
X11698634Y-15023150D01*
X11698634Y-15023150D02*
X11727206Y-15023150D01*
X11727206Y-15023150D02*
X11746253Y-15032674D01*
X11746253Y-15032674D02*
X11755777Y-15042198D01*
X11755777Y-15042198D02*
X11765301Y-15061246D01*
X11765301Y-15061246D02*
X11765301Y-15118388D01*
X11765301Y-15118388D02*
X11755777Y-15137436D01*
X11755777Y-15137436D02*
X11746253Y-15146960D01*
X11746253Y-15146960D02*
X11727206Y-15156484D01*
X11727206Y-15156484D02*
X11698634Y-15156484D01*
X11879587Y-15156484D02*
X11860539Y-15146960D01*
X11860539Y-15146960D02*
X11851015Y-15127912D01*
X11851015Y-15127912D02*
X11851015Y-14956484D01*
X12031968Y-15146960D02*
X12012920Y-15156484D01*
X12012920Y-15156484D02*
X11974825Y-15156484D01*
X11974825Y-15156484D02*
X11955777Y-15146960D01*
X11955777Y-15146960D02*
X11946253Y-15127912D01*
X11946253Y-15127912D02*
X11946253Y-15051722D01*
X11946253Y-15051722D02*
X11955777Y-15032674D01*
X11955777Y-15032674D02*
X11974825Y-15023150D01*
X11974825Y-15023150D02*
X12012920Y-15023150D01*
X12012920Y-15023150D02*
X12031968Y-15032674D01*
X12031968Y-15032674D02*
X12041491Y-15051722D01*
X12041491Y-15051722D02*
X12041491Y-15070769D01*
X12041491Y-15070769D02*
X11946253Y-15089817D01*
X12108158Y-15232674D02*
X12117682Y-15223150D01*
X12117682Y-15223150D02*
X12136730Y-15194579D01*
X12136730Y-15194579D02*
X12146253Y-15175531D01*
X12146253Y-15175531D02*
X12155777Y-15146960D01*
X12155777Y-15146960D02*
X12165301Y-15099341D01*
X12165301Y-15099341D02*
X12165301Y-15061246D01*
X12165301Y-15061246D02*
X12155777Y-15013627D01*
X12155777Y-15013627D02*
X12146253Y-14985055D01*
X12146253Y-14985055D02*
X12136730Y-14966008D01*
X12136730Y-14966008D02*
X12117682Y-14937436D01*
X12117682Y-14937436D02*
X12108158Y-14927912D01*
M02*
