%TF.GenerationSoftware,KiCad,Pcbnew,8.0.2*%
%TF.CreationDate,2024-06-03T00:30:22+01:00*%
%TF.ProjectId,Ruler_V2_KiCad,52756c65-725f-4563-925f-4b694361642e,rev?*%
%TF.SameCoordinates,Original*%
%TF.FileFunction,Drillmap*%
%TF.FilePolarity,Positive*%
%FSLAX45Y45*%
G04 Gerber Fmt 4.5, Leading zero omitted, Abs format (unit mm)*
G04 Created by KiCad (PCBNEW 8.0.2) date 2024-06-03 00:30:22*
%MOMM*%
%LPD*%
G01*
G04 APERTURE LIST*
%ADD10C,0.100000*%
%ADD11C,0.200000*%
G04 APERTURE END LIST*
D10*
X12714550Y-10650000D02*
G75*
G02*
X12585450Y-10650000I-64550J0D01*
G01*
X12585450Y-10650000D02*
G75*
G02*
X12714550Y-10650000I64550J0D01*
G01*
X14186150Y-10650000D02*
G75*
G02*
X14113850Y-10650000I-36150J0D01*
G01*
X14113850Y-10650000D02*
G75*
G02*
X14186150Y-10650000I36150J0D01*
G01*
X13641400Y-9350000D02*
G75*
G02*
X13458600Y-9350000I-91400J0D01*
G01*
X13458600Y-9350000D02*
G75*
G02*
X13641400Y-9350000I91400J0D01*
G01*
X14222500Y-9350000D02*
G75*
G02*
X14077500Y-9350000I-72500J0D01*
G01*
X14077500Y-9350000D02*
G75*
G02*
X14222500Y-9350000I72500J0D01*
G01*
X12779400Y-9350000D02*
G75*
G02*
X12520600Y-9350000I-129400J0D01*
G01*
X12520600Y-9350000D02*
G75*
G02*
X12779400Y-9350000I129400J0D01*
G01*
X7500000Y-8500000D02*
X23000000Y-8500000D01*
X23000000Y-11500000D01*
X7500000Y-11500000D01*
X7500000Y-8500000D01*
X13065250Y-9350000D02*
G75*
G02*
X12834750Y-9350000I-115250J0D01*
G01*
X12834750Y-9350000D02*
G75*
G02*
X13065250Y-9350000I115250J0D01*
G01*
X13890600Y-10650000D02*
G75*
G02*
X13809400Y-10650000I-40600J0D01*
G01*
X13809400Y-10650000D02*
G75*
G02*
X13890600Y-10650000I40600J0D01*
G01*
X13595600Y-10650000D02*
G75*
G02*
X13504400Y-10650000I-45600J0D01*
G01*
X13504400Y-10650000D02*
G75*
G02*
X13595600Y-10650000I45600J0D01*
G01*
X13007500Y-10650000D02*
G75*
G02*
X12892500Y-10650000I-57500J0D01*
G01*
X12892500Y-10650000D02*
G75*
G02*
X13007500Y-10650000I57500J0D01*
G01*
X13352650Y-9350000D02*
G75*
G02*
X13147350Y-9350000I-102650J0D01*
G01*
X13147350Y-9350000D02*
G75*
G02*
X13352650Y-9350000I102650J0D01*
G01*
X13931400Y-9350000D02*
G75*
G02*
X13768600Y-9350000I-81400J0D01*
G01*
X13768600Y-9350000D02*
G75*
G02*
X13931400Y-9350000I81400J0D01*
G01*
X13301200Y-10650000D02*
G75*
G02*
X13198800Y-10650000I-51200J0D01*
G01*
X13198800Y-10650000D02*
G75*
G02*
X13301200Y-10650000I51200J0D01*
G01*
D11*
X7755777Y-11816484D02*
X7755777Y-11616484D01*
X7755777Y-11616484D02*
X7803396Y-11616484D01*
X7803396Y-11616484D02*
X7831967Y-11626008D01*
X7831967Y-11626008D02*
X7851015Y-11645055D01*
X7851015Y-11645055D02*
X7860539Y-11664103D01*
X7860539Y-11664103D02*
X7870062Y-11702198D01*
X7870062Y-11702198D02*
X7870062Y-11730769D01*
X7870062Y-11730769D02*
X7860539Y-11768865D01*
X7860539Y-11768865D02*
X7851015Y-11787912D01*
X7851015Y-11787912D02*
X7831967Y-11806960D01*
X7831967Y-11806960D02*
X7803396Y-11816484D01*
X7803396Y-11816484D02*
X7755777Y-11816484D01*
X7955777Y-11816484D02*
X7955777Y-11683150D01*
X7955777Y-11721246D02*
X7965301Y-11702198D01*
X7965301Y-11702198D02*
X7974824Y-11692674D01*
X7974824Y-11692674D02*
X7993872Y-11683150D01*
X7993872Y-11683150D02*
X8012920Y-11683150D01*
X8079586Y-11816484D02*
X8079586Y-11683150D01*
X8079586Y-11616484D02*
X8070062Y-11626008D01*
X8070062Y-11626008D02*
X8079586Y-11635531D01*
X8079586Y-11635531D02*
X8089110Y-11626008D01*
X8089110Y-11626008D02*
X8079586Y-11616484D01*
X8079586Y-11616484D02*
X8079586Y-11635531D01*
X8203396Y-11816484D02*
X8184348Y-11806960D01*
X8184348Y-11806960D02*
X8174824Y-11787912D01*
X8174824Y-11787912D02*
X8174824Y-11616484D01*
X8308158Y-11816484D02*
X8289110Y-11806960D01*
X8289110Y-11806960D02*
X8279586Y-11787912D01*
X8279586Y-11787912D02*
X8279586Y-11616484D01*
X8536729Y-11816484D02*
X8536729Y-11616484D01*
X8536729Y-11616484D02*
X8603396Y-11759341D01*
X8603396Y-11759341D02*
X8670063Y-11616484D01*
X8670063Y-11616484D02*
X8670063Y-11816484D01*
X8851015Y-11816484D02*
X8851015Y-11711722D01*
X8851015Y-11711722D02*
X8841491Y-11692674D01*
X8841491Y-11692674D02*
X8822444Y-11683150D01*
X8822444Y-11683150D02*
X8784348Y-11683150D01*
X8784348Y-11683150D02*
X8765301Y-11692674D01*
X8851015Y-11806960D02*
X8831967Y-11816484D01*
X8831967Y-11816484D02*
X8784348Y-11816484D01*
X8784348Y-11816484D02*
X8765301Y-11806960D01*
X8765301Y-11806960D02*
X8755777Y-11787912D01*
X8755777Y-11787912D02*
X8755777Y-11768865D01*
X8755777Y-11768865D02*
X8765301Y-11749817D01*
X8765301Y-11749817D02*
X8784348Y-11740293D01*
X8784348Y-11740293D02*
X8831967Y-11740293D01*
X8831967Y-11740293D02*
X8851015Y-11730769D01*
X8946253Y-11683150D02*
X8946253Y-11883150D01*
X8946253Y-11692674D02*
X8965301Y-11683150D01*
X8965301Y-11683150D02*
X9003396Y-11683150D01*
X9003396Y-11683150D02*
X9022444Y-11692674D01*
X9022444Y-11692674D02*
X9031967Y-11702198D01*
X9031967Y-11702198D02*
X9041491Y-11721246D01*
X9041491Y-11721246D02*
X9041491Y-11778388D01*
X9041491Y-11778388D02*
X9031967Y-11797436D01*
X9031967Y-11797436D02*
X9022444Y-11806960D01*
X9022444Y-11806960D02*
X9003396Y-11816484D01*
X9003396Y-11816484D02*
X8965301Y-11816484D01*
X8965301Y-11816484D02*
X8946253Y-11806960D01*
X9127205Y-11797436D02*
X9136729Y-11806960D01*
X9136729Y-11806960D02*
X9127205Y-11816484D01*
X9127205Y-11816484D02*
X9117682Y-11806960D01*
X9117682Y-11806960D02*
X9127205Y-11797436D01*
X9127205Y-11797436D02*
X9127205Y-11816484D01*
X9127205Y-11692674D02*
X9136729Y-11702198D01*
X9136729Y-11702198D02*
X9127205Y-11711722D01*
X9127205Y-11711722D02*
X9117682Y-11702198D01*
X9117682Y-11702198D02*
X9127205Y-11692674D01*
X9127205Y-11692674D02*
X9127205Y-11711722D01*
M02*
